<?xml version="1.0" standalone="no"?>
<!DOCTYPE svg PUBLIC "-//W3C//DTD SVG 1.1//EN" "http://www.w3.org/Graphics/SVG/1.1/DTD/svg11.dtd" >
<svg xmlns="http://www.w3.org/2000/svg" xmlns:xlink="http://www.w3.org/1999/xlink" version="1.1">
<metadata>
Created by FontForge 20170731 at Thu Aug 16 21:08:52 2007
 By Aleksey,,,
Copyright (c) 2007 by Quantum. All rights reserved.
</metadata>
<defs>
<font id="QTZainTextBoldPC-Bold" horiz-adv-x="0" >
  <font-face 
    font-family="QT ZainText Bold PC"
    font-weight="400"
    font-stretch="normal"
    units-per-em="2048"
    panose-1="2 1 0 0 0 0 0 0 0 0"
    ascent="1638"
    descent="-410"
    x-height="983"
    cap-height="1450"
    bbox="-258 -1623 2523 2455"
    underline-thickness="100"
    underline-position="-900"
    unicode-range="U+0020-FEFF"
  />
<missing-glyph horiz-adv-x="1024" 
d="M896 1450v-1450h-768v1450h768zM256 128h512v1194h-512v-1194z" />
    <glyph glyph-name="shaddawithfathatanisolated" unicode="&#x651;&#x64b;" 
d="M559 1991v-234q0 -268 -190 -268q-61 0 -99 41q-46 -76 -133 -74q-127 6 -133 146q-6 188 92 274q-9 -17 -20 -135q0 -67 18.5 -99t55.5 -30q65 2 65 82v92l109 145v-204q0 -40 16.5 -58t48.5 -14q60 6 60 84v106zM558 2263l-59 -105l-487 -225l47 102zM562 2415
l-59 -105l-487 -225l47 102z" />
    <glyph glyph-name="fathaonhamza" unicode="&#x674;&#x64e;" 
d="M448 1563l-53 -164q-172 -46 -287 -132q-51 -39 -79 -77l-2 35q4 98 77 174q-46 6 -69 36.5t-23 75.5q0 59 37.5 126.5t100.5 115t128 43.5q54 -6 80 -22l-14 -146q-33 15 -68 15q-53 0 -101 -33t-79 -92q29 -25 77 -29q117 -11 275 74zM452 2124l-59 -105l-487 -225
l47 102z" />
    <glyph glyph-name="fathatanonhamza" unicode="&#x674;&#x64b;" 
d="M448 1563l-53 -164q-172 -46 -287 -132q-51 -39 -79 -77l-2 35q4 98 77 174q-46 6 -69 36.5t-23 75.5q0 59 37.5 126.5t100.5 115t128 43.5q54 -6 80 -22l-14 -146q-33 15 -68 15q-53 0 -101 -33t-79 -92q29 -25 77 -29q117 -11 275 74zM452 2124l-59 -105l-487 -225
l47 102zM452 2276l-59 -105l-487 -225l47 102z" />
    <glyph glyph-name="sukunonhamza" unicode="&#x674;&#x652;" 
d="M448 1563l-53 -164q-172 -46 -287 -132q-51 -39 -79 -77l-2 35q4 98 77 174q-46 6 -69 36.5t-23 75.5q0 59 37.5 126.5t100.5 115t128 43.5q54 -6 80 -22l-14 -146q-33 15 -68 15q-53 0 -101 -33t-79 -92q29 -25 77 -29q117 -11 275 74zM31 1898q-32 35 -26 88
q21 136 129 266q111 -67 166 -145q9 -15 9 -42q0 -78 -56 -140q-55 -61 -136 -61q-55 0 -86 34zM233 2021q-24 47 -130 127q-43 -40 -43 -101q0 -66 61 -66q44 0 112 40z" />
    <glyph glyph-name="dammaonhamza" unicode="&#x674;&#x64f;" 
d="M448 1563l-53 -164q-172 -46 -287 -132q-51 -39 -79 -77l-2 35q4 98 77 174q-46 6 -69 36.5t-23 75.5q0 59 37.5 126.5t100.5 115t128 43.5q54 -6 80 -22l-14 -146q-33 15 -68 15q-53 0 -101 -33t-79 -92q29 -25 77 -29q117 -11 275 74zM475 2031l-71 -61q-7 19 -31 37
q-172 -125 -316 -130q-100 -4 -244 32q244 20 514 124q-116 44 -79 111q59 107 149 134q41 12 59 -35q26 -66 -14 -152l-6 -13q26 -26 39 -47zM380 2119q23 74 -7 87q-10 4 -25 0q-32 -9 -39 -25q-14 -29 41 -54q21 -8 30 -8z" />
    <glyph glyph-name="dammatanonhamza" unicode="&#x674;&#x64c;" 
d="M448 1563l-53 -164q-172 -46 -287 -132q-51 -39 -79 -77l-2 35q4 98 77 174q-46 6 -69 36.5t-23 75.5q0 59 37.5 126.5t100.5 115t128 43.5q54 -6 80 -22l-14 -146q-33 15 -68 15q-53 0 -101 -33t-79 -92q29 -25 77 -29q117 -11 275 74zM465 2120q-11 -16 -42 -79
q-1 5 -36 21q-120 -224 -287 -245q25 78 25 83q0 51 -55 51q-89 0 -162 -112q99 187 195 187q71 0 71 -56q0 -23 -18 -56q120 49 190 153q-62 -9 -102 0q-26 5 -26 31q0 120 63 202q20 26 39 26q27 0 57 -47q30 -63 30 -133q20 -5 58 -26zM294 2235q-21 -13 -30 -51
q-3 -28 19 -34q24 -5 76 2q0 54 -18 83t-47 0z" />
    <glyph glyph-name="shaddawithdammatanisolated" unicode="&#x651;&#x64c;" arabic-form="isolated" 
d="M559 1991v-234q0 -268 -190 -268q-61 0 -99 41q-46 -76 -133 -74q-127 6 -133 146q-6 188 92 274q-9 -17 -20 -135q0 -67 18.5 -99t55.5 -30q65 2 65 82v92l109 145v-204q0 -40 16.5 -58t48.5 -14q60 6 60 84v106zM554 2249q-11 -16 -42 -79q-2 4 -36 21
q-120 -224 -287 -245q25 78 25 83q0 51 -55 51q-89 0 -162 -112q99 187 195 187q71 0 71 -56q0 -23 -18 -56q120 49 190 153q-61 -9 -102 0q-26 5 -26 31q0 119 63 202q20 26 39 26q27 0 57 -47q30 -63 30 -133q20 -5 58 -26zM383 2364q-21 -14 -30 -51q-3 -28 19 -34
q24 -5 76 2q0 55 -18 83q-18 29 -47 0z" />
    <glyph glyph-name="shaddawithkasratanisolated" unicode="&#x651;&#x64d;" arabic-form="isolated" 
d="M559 2446v-234q0 -268 -190 -268q-61 0 -99 41q-46 -76 -133 -74q-127 6 -133 146q-6 188 92 274q-9 -17 -20 -135q0 -67 18.5 -99t55.5 -30q65 2 65 82v92l109 145v-204q0 -40 16.5 -58t48.5 -14q60 6 60 84v106zM558 1787l-59 -105l-487 -225l47 102zM558 1939
l-59 -105l-487 -225l47 102z" />
    <glyph glyph-name="shaddawithfathaisolated" unicode="&#x651;&#x64e;" arabic-form="isolated" 
d="M559 1991v-234q0 -268 -190 -268q-61 0 -99 41q-46 -76 -133 -74q-127 6 -133 146q-6 188 92 274q-9 -17 -20 -135q0 -67 18.5 -99t55.5 -30q65 2 65 82v92l109 145v-204q0 -40 16.5 -58t48.5 -14q60 6 60 84v106zM558 2263l-59 -105l-487 -225l47 102z" />
    <glyph glyph-name="shaddawithdammaisolated" unicode="&#x651;&#x64f;" arabic-form="isolated" 
d="M559 1991v-234q0 -268 -190 -268q-61 0 -99 41q-46 -76 -133 -74q-127 6 -133 146q-6 188 92 274q-9 -17 -20 -135q0 -67 18.5 -99t55.5 -30q65 2 65 82v92l109 145v-204q0 -40 16.5 -58t48.5 -14q60 6 60 84v106zM603 2127l-71 -61q-7 19 -31 37q-172 -125 -316 -130
q-100 -4 -244 32q244 20 514 124q-116 44 -79 111q59 107 149 134q41 12 59 -35q26 -66 -14 -152l-6 -13q26 -26 39 -47zM508 2215q23 74 -7 87q-10 4 -25 0q-32 -9 -39 -25q-14 -29 41 -54q21 -8 30 -8z" />
    <glyph glyph-name="shaddawithkasraisolated" unicode="&#x651;&#x650;" arabic-form="isolated" 
d="M559 2310v-234q0 -268 -190 -268q-61 0 -99 41q-46 -76 -133 -74q-127 6 -133 146q-6 188 92 274q-9 -17 -20 -135q0 -67 18.5 -99t55.5 -30q65 2 65 82v92l109 145v-204q0 -40 16.5 -58t48.5 -14q60 6 60 84v106zM558 1787l-59 -105l-487 -225l47 102z" />
    <glyph glyph-name="shaddawithfathamedial" unicode="&#x640;&#x651;&#x64e;" horiz-adv-x="847" arabic-form="medial" 
d="M847 221v-221h-847q-52 0 -52 43v133q0 45 52 45h847zM684 1776v-234q0 -268 -190 -268q-61 0 -99 41q-46 -76 -133 -74q-127 6 -133 146q-6 188 92 274q-9 -17 -20 -135q0 -67 18.5 -99t55.5 -30q65 2 65 82v92l109 145v-204q0 -40 16.5 -58t48.5 -14q60 6 60 84v106z
M683 2048l-59 -105l-487 -225l47 102z" />
    <glyph glyph-name="shaddawithdammamedial" unicode="&#x640;&#x651;&#x64f;" horiz-adv-x="847" arabic-form="medial" 
d="M847 221v-221h-847q-52 0 -52 43v133q0 45 52 45h847zM684 1776v-234q0 -268 -190 -268q-61 0 -99 41q-46 -76 -133 -74q-127 6 -133 146q-6 188 92 274q-9 -17 -20 -135q0 -67 18.5 -99t55.5 -30q65 2 65 82v92l109 145v-204q0 -40 16.5 -58t48.5 -14q60 6 60 84v106z
M728 1912l-71 -61q-7 19 -31 37q-172 -125 -316 -130q-100 -4 -244 32q244 20 514 124q-116 44 -79 111q59 107 149 134q41 12 59 -35q26 -66 -14 -152l-6 -13q26 -26 39 -47zM633 2000q23 74 -7 87q-10 4 -25 0q-32 -9 -39 -25q-14 -29 41 -54q21 -8 30 -8z" />
    <glyph glyph-name="shaddawithkasramedial" unicode="&#x640;&#x651;&#x650;" horiz-adv-x="847" arabic-form="medial" 
d="M684 1776v-234q0 -268 -190 -268q-61 0 -99 41q-46 -76 -133 -74q-127 6 -133 146q-6 188 92 274q-9 -17 -20 -135q0 -67 18.5 -99t55.5 -30q65 2 65 82v92l109 145v-204q0 -40 16.5 -58t48.5 -14q60 6 60 84v106zM847 221v-221h-847q-52 0 -52 43v133q0 45 52 45h847z
" />
    <glyph glyph-name="alefwithfathatanfinal" unicode="&#xfe8e;&#x64b;" horiz-adv-x="519" arabic-form="final" 
d="M519 0h-405v994l211 112v-885h194v-221zM674 1805l-78 -135l-659 -305l57 139zM525 1380l-660 -305l64 137l676 309z" />
    <glyph glyph-name="alefwithfathatanisolated" unicode="&#xfe8d;&#x64b;" horiz-adv-x="420" arabic-form="isolated" 
d="M674 1805l-78 -135l-659 -305l57 139zM525 1380l-660 -305l64 137l676 309zM344 8l-213 -131v1169l213 112v-1150z" />
    <glyph glyph-name="allahisolated" unicode="&#xfedf;&#xfee0;&#xfeea;" horiz-adv-x="1977" arabic-form="isolated" 
d="M1544 1578v-159q0 -103 -38 -170.5t-107 -84.5q-46 -11 -83 7q-16 9 -28 22l-34 42l-20 -42q0 -5 -11.5 -20.5t-41 -32.5t-66.5 -17q-95 5 -129 66t-8 190l90 105q-35 -187 0 -222q20 -11 33 -14.5t43 0.5q37 4 59 31t22 73q-3 22 -6 39q-7 35 -7 51q39 30 76 74v-130
q0 -55 36 -91q17 -20 67 -20q46 9 61.5 36.5t15.5 87.5v104q1 1 5 4.5t10.5 10t13.5 12.5q21 19 47 48zM1890 1307v-1307h-1197q-15 97 -26 140l-81 -156q-64 37 -253 37h-278q-2 17 -2.5 35.5t1.5 43.5t3.5 35.5t6 42.5t4.5 35q9 63 43 142t85 155t109.5 140.5t125 104
t123.5 39.5q21 0 41 -8.5t37.5 -27t32.5 -38.5t29.5 -53t26 -59t24 -69t20.5 -70.5t19 -74.5t16.5 -71t15.5 -70q5 -22 7 -32h281v680l211 127v-807h365v957zM210 250h187q120 0 199 -23q38 -11 60 -24q-82 340 -176 340q-64 0 -142 -79.5t-128 -213.5zM1313 2039v-423
l-97 -60v423z" />
    <glyph glyph-name="tatweelwithfathatanabove" unicode="&#x640;&#x64b;" horiz-adv-x="846" arabic-form="medial" 
d="M847 1783l-123 -170l-680 -313l98 168zM797 1511l-120 -172l-680 -316l94 170zM846 221v-221h-846q-52 0 -52 43v133q0 45 52 45h846z" />
    <glyph glyph-name="fathamedial" unicode="&#x640;&#x64e;" horiz-adv-x="847" arabic-form="medial" 
d="M824 1783l-123 -170l-680 -313l98 168zM847 221v-221h-847q-52 0 -52 43v133q0 45 52 45h847z" />
    <glyph glyph-name="dammamedial" unicode="&#x640;&#x64f;" horiz-adv-x="845" arabic-form="medial" 
d="M719 1734l-58 -124q-19 22 -63 30q-152 -270 -340 -362q-134 -66 -344 -105q313 174 608 475q-90 -7 -133 18t-39 81q13 178 117 268q47 41 100 -12q72 -71 72 -209v-21q54 -20 80 -39zM540 1794q-14 110 -61 110q-16 0 -33 -14q-39 -33 -39 -57q0 -47 88 -47q31 0 45 8z
M845 221v-221h-845q-52 0 -52 43v133q0 45 52 45h845z" />
    <glyph glyph-name="kasramedial" unicode="&#x640;&#x650;" horiz-adv-x="846" arabic-form="medial" 
d="M846 221v-221h-846q-52 0 -52 43v133q0 45 52 45h846zM799 -547l-121 -170l-680 -315l96 170z" />
    <glyph glyph-name="shaddamedial" unicode="&#x640;&#x651;" horiz-adv-x="847" arabic-form="medial" 
d="M684 1776v-234q0 -268 -190 -268q-61 0 -99 41q-46 -76 -133 -74q-127 6 -133 146q-6 188 92 274q-9 -17 -20 -135q0 -67 18.5 -99t55.5 -30q65 2 65 82v92l109 145v-204q0 -40 16.5 -58t48.5 -14q60 6 60 84v106zM847 221v-221h-847q-52 0 -52 43v133q0 45 52 45h847z
" />
    <glyph glyph-name="sukunmedial" unicode="&#x640;&#x652;" horiz-adv-x="845" arabic-form="medial" 
d="M272 1337q-40 41 -32 110q26 168 160 329q138 -84 205 -180q12 -18 12 -51q0 -98 -70 -174q-69 -76 -168 -76q-67 0 -107 42zM523 1490q-33 61 -162 157q-53 -51 -53 -125q0 -82 75 -82q54 0 140 50zM845 221v-221h-845q-52 0 -52 43v133q0 45 52 45h845z" />
    <glyph glyph-name="lamwithalefmaddaaboveisolatedd" unicode="&#xfedf;&#xfe82;" horiz-adv-x="1060" arabic-form="isolated" 
d="M973 1311v-760q0 -51 -2.5 -91.5t-11.5 -95.5t-25 -98t-46 -93t-70.5 -87.5t-102 -74t-137.5 -60t-180.5 -37.5t-227.5 -14l-146 213q230 -15 398 22q27 262 -185 713l-112 252l196 164q31 -75 63 -162q77 -214 122 -377q54 -204 58 -339.5t-38 -215.5q76 29 125.5 69.5
t72.5 93t30.5 101t7.5 115.5v633zM675 1766l26 -21q-3 -14 -7 -41t-6.5 -39t-7.5 -34t-10 -32.5t-13.5 -27.5t-18.5 -26t-24.5 -21t-32.5 -19t-42 -14t-53 -12l-422 -64q-77 -12 -110 -35t-41 -69q-3 -20 -9 -5q-8 22 -4 64q6 101 50 154t157 72l414 65q87 19 117.5 38
t36.5 67z" />
    <glyph glyph-name="lamwithalefmaddaabovefinal" unicode="&#xfee0;&#xfe82;" horiz-adv-x="1121" arabic-form="final" 
d="M1121 221v-221h-143q-95 0 -113 139q-183 -239 -696 -239l-146 213q234 -15 398 22q31 253 -185 713l-112 252l198 164q35 -88 62 -162q73 -202 121 -377q54 -203 56.5 -339.5t-38.5 -213.5q76 29 126 69.5t73.5 92.5t32 100.5t8.5 114.5v633l211 129l-2 -781
q0 -44 0.5 -68.5t3 -67t9 -68t17 -52.5t28.5 -40t42 -13h49zM675 1766l26 -21q-3 -14 -7 -41t-6.5 -39t-7.5 -34t-10 -32.5t-13.5 -27.5t-18.5 -26t-24.5 -21t-32.5 -19t-42 -14t-53 -12l-422 -64q-77 -12 -110 -35t-41 -69q-3 -20 -9 -5q-8 22 -4 64q6 101 50 154t157 72
l414 65q87 19 117.5 38t36.5 67z" />
    <glyph glyph-name="lamwithalefhamzaaboveisolatedd" unicode="&#xfedf;&#xfe84;" horiz-adv-x="1062" arabic-form="isolated" 
d="M975 1311v-760q0 -51 -2.5 -91.5t-11.5 -95.5t-25 -98t-46 -93t-70.5 -87.5t-102 -74t-137.5 -60t-180.5 -37.5t-227.5 -14l-146 213q230 -15 398 22q27 262 -185 713l-81 168l196 164q26 -63 47 -120q59 -160 107 -335q54 -204 58 -339.5t-38 -215.5q76 29 125.5 69.5
t72.5 93t30.5 101t7.5 115.5v633zM473 1559l-53 -163q-174 -46 -288 -132q-51 -39 -79 -77l-2 34q4 96 78 175q-92 11 -92 112q0 59 37.5 126.5t100.5 115t128 43.5q51 -6 80 -23l-14 -145q-33 15 -69 15q-52 0 -100 -33.5t-79 -92.5q29 -25 77 -29q111 -10 275 74z" />
    <glyph glyph-name="lamwithalefhamzaabovefinal" unicode="&#xfee0;&#xfe84;" horiz-adv-x="1124" arabic-form="final" 
d="M1124 221v-221h-144q-95 0 -113 139q-183 -239 -696 -239l-146 213q234 -15 398 22q31 253 -185 713l-81 168l198 164q16 -39 46 -120q61 -173 106 -335q54 -203 56.5 -339.5t-38.5 -213.5q76 29 126 69.5t73.5 92.5t32 100.5t8.5 114.5v633l211 129l-2 -781
q0 -44 0.5 -68.5t3 -67t9 -68t17 -52.5t28.5 -40t42 -13h50zM473 1559l-53 -163q-174 -46 -288 -132q-51 -39 -79 -77l-2 34q4 96 78 175q-92 11 -92 112q0 59 37.5 126.5t100.5 115t128 43.5q51 -6 80 -23l-14 -145q-33 15 -69 15q-52 0 -100 -33.5t-79 -92.5
q29 -25 77 -29q111 -10 275 74z" />
    <glyph glyph-name="lamwithalefhamzabelowisolated" unicode="&#xfedf;&#xfe88;" horiz-adv-x="1061" arabic-form="isolated" 
d="M974 1311v-760q0 -51 -2.5 -91.5t-11.5 -95.5t-25 -98t-46 -93t-70.5 -87.5t-102 -74t-137.5 -60t-180.5 -37.5t-227.5 -14l-146 213q230 -15 398 22q27 262 -185 713l-112 252l196 164q32 -75 63 -162q77 -214 122 -377q54 -204 58 -339.5t-38 -215.5q76 29 125.5 69.5
t72.5 93t30.5 101t7.5 115.5v633zM590 -500l-53 -163q-176 -47 -288 -131q-50 -38 -79 -76l-2 33q4 100 78 174q-92 15 -92 112q0 61 37.5 128t100.5 113t128 44q55 -6 80 -21l-15 -147q-33 15 -68 15q-52 0 -100 -33.5t-79 -92.5q30 -24 77 -28q117 -11 275 73z" />
    <glyph glyph-name="lamwithalefhamzabelowfinal" unicode="&#xfee0;&#xfe88;" horiz-adv-x="1115" arabic-form="final" 
d="M1115 221v-221h-138q-95 0 -113 139q-183 -239 -696 -239l-146 213q234 -15 398 22q31 253 -185 713l-112 252l198 164q35 -88 62 -162q73 -202 121 -377q54 -203 56.5 -339.5t-38.5 -213.5q76 29 126 69.5t73.5 92.5t32 100.5t8.5 114.5v633l211 129l-2 -781
q0 -44 0.5 -68.5t3 -67t9 -68t17 -52.5t28.5 -40t42 -13h44zM504 -500l-53 -163q-176 -47 -288 -131q-50 -38 -79 -76l-2 33q4 100 78 174q-92 15 -92 112q0 61 37.5 128t100.5 113t128 44q55 -6 80 -21l-15 -147q-33 15 -68 15q-52 0 -100 -33.5t-79 -92.5q30 -24 77 -28
q117 -11 275 73z" />
    <glyph glyph-name="lamwithalefisolated" unicode="&#xfedf;&#xfe8e;" horiz-adv-x="1060" arabic-form="isolated" 
d="M973 1311v-760q0 -51 -2.5 -91.5t-11.5 -95.5t-25 -98t-46 -93t-70.5 -87.5t-102 -74t-137.5 -60t-180.5 -37.5t-227.5 -14l-146 213q230 -15 398 22q27 262 -185 713l-112 252l196 164q31 -75 63 -162q77 -214 122 -377q54 -204 58 -339.5t-38 -215.5q76 29 125.5 69.5
t72.5 93t30.5 101t7.5 115.5v633z" />
    <glyph glyph-name="lamwithaleffinal" unicode="&#xfee0;&#xfe8e;" horiz-adv-x="1136" arabic-form="final" 
d="M1136 221v-221h-157q-95 0 -113 139q-183 -239 -696 -239l-146 213q234 -15 398 22q31 253 -185 713l-112 252l198 164q35 -88 62 -162q73 -202 121 -377q54 -203 56.5 -339.5t-38.5 -213.5q76 29 126 69.5t73.5 92.5t32 100.5t8.5 114.5v633l211 129l-2 -781
q0 -44 0.5 -68.5t3 -67t9 -68t17 -52.5t28.5 -40t42 -13h63z" />
    <glyph glyph-name="alefwaslaisolated" unicode="&#x671;" horiz-adv-x="429" arabic-form="isolated" 
d="M-124 1415v26q51 45 160 133q70 -31 128 -36q68 83 170 133q60 28 110 28q49 0 98 -28q26 -15 20 -41q-20 -37 -81 -107q-91 -82 -236 -82q-114 0 -264 51q-36 -29 -105 -77zM186 1533q209 -21 289 36q8 33 -9 49.5t-58 16.5q-124 0 -222 -102zM321 8l-213 -131v1305
l213 131v-1305z" />
    <glyph glyph-name="alefwaslafinal" unicode="&#x671;" horiz-adv-x="532" arabic-form="final" 
d="M532 0h-418v1180l211 131v-1090h207v-221zM-124 1415v26q51 45 160 133q70 -31 128 -36q68 83 170 133q60 28 110 28q49 0 98 -28q26 -15 20 -41q-20 -37 -81 -107q-91 -82 -236 -82q-114 0 -264 51q-36 -29 -105 -77zM186 1533q209 -21 289 36q8 33 -9 49.5t-58 16.5
q-124 0 -222 -102z" />
    <glyph glyph-name="pehisolated" unicode="&#x67e;" horiz-adv-x="1706" arabic-form="isolated" 
d="M425 221h1042q-12 39 -24.5 72.5t-33 73.5t-30.5 59.5t-42 74t-42 72.5l172 199q152 -305 152 -557q0 -118 -19 -215h-1218q-152 0 -236 71t-84 203q0 122 62 240.5t161 210.5l76 -78q-40 -45 -72 -99.5t-47 -112.5t-7.5 -105.5t55.5 -78t135 -30.5zM1233 -348l-174 -174
l-173 174l173 172zM1024 -646l-172 -174l-175 174l175 175zM641 -176l174 -172l-174 -174l-175 174z" />
    <glyph glyph-name="pehfinal" unicode="&#x67e;" horiz-adv-x="1720" arabic-form="final" 
d="M1720 221v-221h-1356q-151 0 -235 71t-84 203q0 122 62 241.5t161 209.5l76 -78q-40 -45 -72 -99.5t-47.5 -112.5t-8 -105.5t55.5 -78t135 -30.5h1043q-12 39 -24.5 72.5t-33 73.5t-30.5 59.5t-42 74t-42 72.5l172 199q146 -293 151 -551h119zM1233 -348l-174 -174
l-173 174l173 172zM1024 -646l-172 -174l-175 174l175 175zM641 -176l174 -172l-174 -174l-175 174z" />
    <glyph glyph-name="pehinitial" unicode="&#x67e;" horiz-adv-x="871" arabic-form="initial" 
d="M0 221h631q-7 24 -16 48.5t-16 42t-20 44t-18.5 39t-23 43.5t-22.5 40t-27 47.5t-27 47.5l172 199q75 -151 113 -296.5t38 -262.5q0 -101 -16 -213h-768q-52 0 -52 43v133q0 45 52 45zM766 -348l-174 -174l-173 174l173 172zM557 -646l-172 -174l-175 174l175 175z
M174 -176l174 -172l-174 -174l-175 174z" />
    <glyph glyph-name="pehmedial" unicode="&#x67e;" horiz-adv-x="730" arabic-form="medial" 
d="M730 221v-221h-730q-52 0 -52 43v133q0 45 52 45h467q-7 25 -16 49.5t-16.5 43t-20 44.5t-19 39.5t-23 43t-23 41t-27 46.5t-27.5 47l172 199q146 -293 151 -553h112zM756 -348l-174 -174l-173 174l173 172zM547 -646l-172 -174l-175 174l175 175zM164 -176l174 -172
l-174 -174l-175 174z" />
    <glyph glyph-name="vehisolated" unicode="&#x6a4;" horiz-adv-x="1907" arabic-form="isolated" 
d="M426 221h1224q-13 83 -28 152q-103 -23 -189 -33t-142 -7.5t-99.5 13.5t-67 25t-38.5 32t-19.5 31t-5.5 25q-3 101 16.5 191t53.5 155t78 113.5t89.5 74.5t87.5 31q94 13 174.5 -56t133.5 -193t85.5 -278.5t38.5 -318.5q5 -98 -6 -178h-1448q-54 0 -107 17t-101.5 51.5
t-78.5 98.5t-30 148q0 165 81 302.5t197 224.5l66 -72q-47 -49 -86 -119t-56.5 -144t-11.5 -138.5t54 -106t135 -41.5zM1426 546q60 4 143 21q-85 236 -185 236q-34 0 -66 -21.5t-52.5 -53t-35.5 -63.5t-20.5 -55.5t-1.5 -27.5q56 -49 218 -36zM1381 1252l-174 -175
l-175 175l175 174zM1588 1549l-172 -174l-175 174l175 172zM1799 1252l-174 -175l-175 175l175 174z" />
    <glyph glyph-name="vehfinal" unicode="&#x6a4;" horiz-adv-x="1915" arabic-form="final" 
d="M1915 221v-221h-1545q-42 0 -84 10t-84.5 33.5t-75 58.5t-53 90t-20.5 123q0 166 80 308.5t192 224.5l74 -72q-47 -49 -86 -119.5t-57 -145.5t-12 -140.5t53.5 -107.5t134.5 -42h1225q-19 110 -29 152q-103 -23 -188 -32.5t-141.5 -7.5t-100 12.5t-67 25t-38.5 32.5
t-19.5 31t-4.5 25q-4 101 15.5 191t53.5 155t77.5 113.5t89 74.5t87.5 31q73 10 139 -29.5t115.5 -117t87.5 -183t60 -226t28 -247.5h93zM1434 546q60 4 141 21q-85 236 -185 236q-54 0 -99.5 -53t-65 -106.5t-11.5 -61.5q57 -50 220 -36zM1374 1252l-174 -175l-175 175
l175 174zM1581 1549l-172 -174l-175 174l175 172zM1792 1252l-174 -175l-175 175l175 174z" />
    <glyph glyph-name="vehinitial" unicode="&#x6a4;" horiz-adv-x="1024" arabic-form="initial" 
d="M542 546q60 4 141 21q-38 110 -85.5 173t-97.5 63q-34 0 -65.5 -21.5t-52.5 -52.5t-36 -63.5t-20.5 -56t-1.5 -27.5q56 -49 218 -36zM0 221h767q-16 94 -29 152q-103 -23 -188 -32.5t-141.5 -7.5t-100 12.5t-67 25t-38.5 32.5t-19.5 31t-4.5 25q-4 122 26 229t79.5 176.5
t107 111.5t110.5 48q94 13 174.5 -56t134 -193t86 -278.5t38.5 -318.5q3 -69 -7 -178h-928q-52 0 -52 43v133q0 45 52 45zM481 1252l-174 -175l-175 175l175 174zM688 1549l-172 -174l-175 174l175 172zM899 1252l-174 -175l-175 175l175 174z" />
    <glyph glyph-name="vehmedial" unicode="&#x6a4;" horiz-adv-x="1034" arabic-form="medial" 
d="M532 546q60 4 143 21q-85 236 -185 236q-34 0 -66 -21.5t-52.5 -53t-35.5 -63.5t-20.5 -55.5t-1.5 -27.5q56 -49 218 -36zM1034 221v-221h-1034q-52 0 -52 43v133q0 45 52 45h756q-13 83 -28 152q-103 -23 -188 -32.5t-141.5 -7.5t-100 12.5t-67 25t-38.5 32.5t-19.5 31
t-4.5 25q-5 123 25.5 230.5t80.5 176.5t107 110.5t110 47.5q73 10 139 -29.5t115.5 -117t87.5 -183t60 -226t28 -247.5h112zM475 1252l-174 -175l-175 175l175 174zM682 1549l-172 -174l-175 174l175 172zM893 1252l-174 -175l-175 175l175 174z" />
    <glyph glyph-name="tchehisolated" unicode="&#x686;" horiz-adv-x="1180" arabic-form="isolated" 
d="M993 -387l-86 -277q-137 -48 -279 -53q-119 -2 -213 25t-155 74.5t-101.5 113.5t-58 136t-18.5 149t22.5 163t74 176t141 186.5t212.5 178.5q-157 38 -194 41q-153 16 -217 -45q-5 -5 -21 -20t-27 -25l-32 27l86 143q48 78 97 108.5t126 30.5q52 0 175.5 -24t232 -49
t214 -38t121.5 9l-63 -166q-14 -37 -67 -49t-116 -6t-151 24l2 -2q-87 -48 -174 -135.5t-150 -196t-76 -219.5t48 -206q40 -59 102.5 -94t129.5 -43t135.5 -5t127.5 17.5t98 28t54 22.5zM1056 43l-145 -145l-144 145l144 144zM882 -205l-143 -145l-146 145l146 146zM563 187
l145 -144l-145 -145l-146 145z" />
    <glyph glyph-name="tchehfinal" unicode="&#x686;" horiz-adv-x="1216" arabic-form="final" 
d="M1126 -387l-86 -277q-126 -44 -364 -53q-119 -2 -213.5 25t-155.5 74.5t-101.5 113.5t-58 136t-18.5 149t22 163t73.5 175.5t141 186.5t213.5 179q-150 37 -194 41q-153 16 -217 -45q-4 -5 -20 -20t-27 -25l-35 27l88 143q48 78 97 108.5t126 30.5q51 0 174 -24
t232.5 -49t214.5 -38t120 9l-63 -166q-14 -36 -66 -48.5t-114.5 -6.5t-151.5 24l2 -2h-1q-1 0 -1 -2q13 -96 81.5 -158.5t191.5 -62.5h200v-221h-264q-82 0 -140 25.5t-92 77.5t-51.5 116.5t-25.5 155.5q-78 -64 -144 -147t-111.5 -179t-46 -188t51.5 -174
q48 -70 136.5 -106t180.5 -37.5t184 11t152.5 30t79.5 28.5zM889 -127l-108 -108l-107 108l107 107zM760 -312l-107 -108l-108 108l108 109zM522 -20l108 -107l-108 -108l-108 108z" />
    <glyph glyph-name="tchehinitial" unicode="&#x686;" horiz-adv-x="1363" arabic-form="initial" 
d="M1276 221l-66 -221h-1210q-52 0 -52 43v133q0 45 52 45h928q-33 56 -56 91t-66.5 88t-93.5 98q-33 31 -82 55t-109 35.5t-128.5 -5.5t-126.5 -65l-45 45q135 134 205.5 182t150.5 48q86 0 172.5 -50t155.5 -151q82 -120 178 -301q39 -70 109 -70h84zM988 -344l-174 -174
l-173 174l173 172zM779 -642l-172 -174l-175 174l175 175zM396 -172l174 -172l-174 -174l-175 174z" />
    <glyph glyph-name="tchehmedial" unicode="&#x686;" horiz-adv-x="1164" arabic-form="medial" 
d="M1164 221v-221h-1164q-52 0 -52 43v133q0 45 52 45h827q-39 66 -57 95t-63.5 86.5t-94.5 101.5q-32 32 -81 56t-109 35.5t-128.5 -5.5t-125.5 -66l-47 39q135 133 205.5 181.5t150.5 48.5q86 0 172.5 -50t157.5 -151q72 -106 176 -301q39 -70 108 -70h73zM948 -344
l-174 -174l-173 174l173 172zM739 -642l-172 -174l-175 174l175 175zM356 -172l174 -172l-174 -174l-175 174z" />
    <glyph glyph-name="jehisolated" unicode="&#x698;" horiz-adv-x="854" arabic-form="isolated" 
d="M312 -647l-228 192q119 78 200 180t120 200.5t61 219.5q-25 118 -67 210t-119 212l164 217q174 -344 178 -665q0 -90 -13 -172.5t-45 -179.5t-95.5 -202t-155.5 -212zM349 1092l-174 -175l-175 175l175 174zM556 1389l-172 -174l-175 174l175 172zM767 1092l-174 -175
l-175 175l175 174z" />
    <glyph glyph-name="jehfinal" unicode="&#x698;" horiz-adv-x="754" arabic-form="final" 
d="M754 221v-221h-147q-33 -333 -303 -647l-227 192q91 59 159 130t111.5 149.5t69 154.5t41.5 166q-25 120 -67 212.5t-119 209.5l163 217q148 -288 175 -563h144zM349 1092l-174 -175l-175 175l175 174zM556 1389l-172 -174l-175 174l175 172zM767 1092l-174 -175
l-175 175l175 174z" />
    <glyph glyph-name="kehehisolated" unicode="&#x6a9;" horiz-adv-x="1908" arabic-form="isolated" 
d="M1029 221h517q-49 146 -168 224t-333 102q-77 8 -156 8v211q0 38 9.5 71.5t23 57t36.5 46.5t42 37t47 32l465 290q84 53 136 34.5t52 -85.5v-178q-35 69 -158 -6l-473 -297q164 -17 293 -65.5t214.5 -118.5t141 -164t79.5 -197t24 -223h-792h-652q-54 0 -106.5 17
t-101 52t-78.5 99.5t-30 148.5q0 165 77.5 297.5t193.5 216.5l18 -71q-47 -48 -80.5 -117t-43 -142t4.5 -136t67.5 -103.5t141.5 -40.5h589z" />
    <glyph glyph-name="kehehfinal" unicode="&#x6a9;" horiz-adv-x="1857" arabic-form="final" 
d="M1857 221v-221h-828h-652q-54 0 -106.5 17t-101 52t-78.5 99.5t-30 148.5q0 165 77.5 297.5t193.5 216.5l18 -71q-47 -48 -80.5 -117t-43 -142t4.5 -136t67.5 -103.5t141.5 -40.5h589h517q-49 146 -168.5 224t-333.5 102q-78 8 -155 8v211q0 48 12.5 86t37.5 67.5
t47.5 48t57.5 42.5l467 290q84 53 135.5 34.5t51.5 -85.5v-178q-37 71 -158 -6l-473 -297q165 -18 294 -65.5t215.5 -120.5t140 -162t79.5 -199h61z" />
    <glyph glyph-name="kehehinitial" unicode="&#x6a9;" horiz-adv-x="1158" arabic-form="initial" 
d="M0 221h796q-49 146 -168 224t-333 102q-77 8 -156 8v211q0 38 9.5 71.5t23 57t36.5 46.5t42 37t47 32l465 290q84 53 136 34.5t52 -85.5v-178q-35 69 -158 -6l-473 -297q164 -17 293 -65.5t214.5 -118.5t141 -164t79.5 -197t24 -223h-1071q-52 0 -52 43v133q0 45 52 45z
" />
    <glyph glyph-name="kehehmedial" unicode="&#x6a9;" horiz-adv-x="1095" arabic-form="medial" 
d="M1095 221v-221h-1095q-52 0 -52 43v133q0 45 52 45h784q-49 146 -168.5 224t-333.5 102q-78 8 -155 8v211q0 48 12.5 86t37.5 67.5t47.5 48t57.5 42.5l467 290q84 53 135.5 34.5t51.5 -85.5v-178q-37 71 -158 -6l-473 -297q165 -18 294 -65.5t215.5 -120.5t140 -162
t79.5 -199h61z" />
    <glyph glyph-name="gafisolated" unicode="&#x6af;" horiz-adv-x="1908" arabic-form="isolated" 
d="M1029 221h517q-49 146 -168 224t-333 102q-77 8 -156 8v211q0 38 9.5 71.5t23 57t36.5 46.5t42 37t47 32l465 290q84 53 136 34.5t52 -85.5v-178q-35 69 -158 -6l-473 -297q164 -17 293 -65.5t214.5 -118.5t141 -164t79.5 -197t24 -223h-792h-652q-54 0 -106.5 17
t-101 52t-78.5 99.5t-30 148.5q0 165 77.5 297.5t193.5 216.5l18 -71q-47 -48 -80.5 -117t-43 -142t4.5 -136t67.5 -103.5t141.5 -40.5h589zM1575 1608l-98 -184l-632 -402l73 181z" />
    <glyph glyph-name="gaffinal" unicode="&#x6af;" horiz-adv-x="1857" arabic-form="final" 
d="M1857 221v-221h-828h-652q-54 0 -106.5 17t-101 52t-78.5 99.5t-30 148.5q0 165 77.5 297.5t193.5 216.5l18 -71q-47 -48 -80.5 -117t-43 -142t4.5 -136t67.5 -103.5t141.5 -40.5h589h517q-49 146 -168.5 224t-333.5 102q-78 8 -155 8v211q0 48 12.5 86t37.5 67.5
t47.5 48t57.5 42.5l467 290q84 53 135.5 34.5t51.5 -85.5v-178q-37 71 -158 -6l-473 -297q165 -18 294 -65.5t215.5 -120.5t140 -162t79.5 -199h61zM1575 1608l-98 -184l-632 -402l73 181z" />
    <glyph glyph-name="gafinitial" unicode="&#x6af;" horiz-adv-x="1158" arabic-form="initial" 
d="M0 221h796q-49 146 -168 224t-333 102q-77 8 -156 8v211q0 38 9.5 71.5t23 57t36.5 46.5t42 37t47 32l465 290q84 53 136 34.5t52 -85.5v-178q-35 69 -158 -6l-473 -297q164 -17 293 -65.5t214.5 -118.5t141 -164t79.5 -197t24 -223h-1071q-52 0 -52 43v133q0 45 52 45z
M825 1608l-98 -184l-632 -402l73 181z" />
    <glyph glyph-name="gafmedial" unicode="&#x6af;" horiz-adv-x="1095" arabic-form="medial" 
d="M1095 221v-221h-1095q-52 0 -52 43v133q0 45 52 45h784q-49 146 -168.5 224t-333.5 102q-78 8 -155 8v211q0 48 12.5 86t37.5 67.5t47.5 48t57.5 42.5l467 290q84 53 135.5 34.5t51.5 -85.5v-178q-37 71 -158 -6l-473 -297q165 -18 294 -65.5t215.5 -120.5t140 -162
t79.5 -199h61zM825 1608l-98 -184l-632 -402l73 181z" />
    <glyph glyph-name="farsiyehisolated" unicode="&#x6cc;" horiz-adv-x="1359" arabic-form="isolated" 
d="M286 614l91 -86q-67 -91 -98 -186t-26.5 -176t35.5 -153t84.5 -122.5t125 -80t151.5 -29.5q123 0 246.5 73t199.5 179q-10 35 -55 67t-119 58t-124.5 40t-122.5 31q-38 13 -52.5 29t-17.5 51q-2 10 -2 15v16q2 104 65.5 213.5t164 182.5t200.5 73q173 0 143 -293
q-43 80 -133 80q-85 0 -164.5 -49t-105.5 -123q77 -17 156 -44.5t160.5 -68.5t132.5 -98.5t51 -120.5q0 -40 -21.5 -96.5t-59.5 -120t-97.5 -126t-128.5 -112.5t-159 -81t-184 -31q-118 0 -213.5 34t-156 87.5t-102.5 125t-60 140.5t-21 139q-2 153 61 305t156 258z" />
    <glyph glyph-name="farsiyehfinal" unicode="&#x6cc;" horiz-adv-x="1491" arabic-form="final" 
d="M1491 221v-221h-17q-103 0 -157 8q-18 -60 -53.5 -122t-96.5 -128t-137.5 -117t-185 -83.5t-230.5 -32.5q-117 0 -213 34t-157.5 88t-103.5 124.5t-60 140.5t-19 139q-2 153 60.5 304t154.5 259l90 -86q-79 -110 -111.5 -224t-17 -208t63 -169.5t127.5 -117.5t176 -42
q175 0 324.5 79.5t228.5 190.5q-154 46 -242 119q-12 7 -26.5 20.5t-32 45.5t-17.5 67v155q108 -114 243 -168.5t355 -54.5h54z" />
    <glyph glyph-name="fathatanisolated" unicode="&#xfe70;" arabic-form="isolated" 
d="M850 2217l-123 -170l-680 -313l98 168zM800 1945l-120 -172l-680 -316l94 170z" />
    <glyph glyph-name="dammatanisolated" unicode="&#xfe72;" arabic-form="isolated" 
d="M835 1912q-12 -19 -63 -119q-1 5 -53 31q-181 -336 -431 -367q37 117 37 125q0 76 -82 76q-133 0 -243 -168q149 281 293 281q106 0 106 -84q0 -35 -27 -84q178 70 285 229q-91 -14 -153 0q-39 7 -39 47q0 179 94 303q31 39 59 39q41 0 86 -71q45 -94 45 -199
q29 -8 86 -39zM579 2084q-31 -19 -45 -76q-4 -43 29 -51q34 -8 113 2q0 82 -27 125t-70 0z" />
    <glyph glyph-name="kasratanisolated" unicode="&#xfe74;" arabic-form="isolated" 
d="M850 -863l-121 -170l-680 -315l96 170zM803 -1137l-123 -172l-680 -314l96 168z" />
    <glyph glyph-name="fathaisolated" unicode="&#xfe76;" arabic-form="isolated" 
d="M803 1945l-123 -172l-680 -316l96 170z" />
    <glyph glyph-name="dammaisolated" unicode="&#xfe78;" arabic-form="isolated" 
d="M805 2018l-58 -124q-19 22 -63 30q-152 -270 -340 -362q-134 -66 -344 -105q313 174 608 475q-90 -7 -133 18t-39 81q13 178 117 268q47 41 100 -12q72 -71 72 -209v-21q54 -20 80 -39zM626 2078q-14 110 -61 110q-16 0 -33 -14q-39 -33 -39 -57q0 -47 88 -47q31 0 45 8z
" />
    <glyph glyph-name="kasraisolated" unicode="&#xfe7a;" arabic-form="isolated" 
d="M799 -864l-121 -170l-680 -315l96 170z" />
    <glyph glyph-name="shaddaisolated" unicode="&#xfe7c;" arabic-form="isolated" 
d="M559 1991v-234q0 -268 -190 -268q-61 0 -99 41q-46 -76 -133 -74q-127 6 -133 146q-6 188 92 274q-9 -17 -20 -135q0 -67 18.5 -99t55.5 -30q65 2 65 82v92l109 145v-204q0 -40 16.5 -58t48.5 -14q60 6 60 84v106z" />
    <glyph glyph-name="sukunisolated" unicode="&#xfe7e;" arabic-form="isolated" 
d="M36 1498q-40 41 -32 110q26 168 160 329q138 -84 205 -180q12 -18 12 -51q0 -98 -70 -174q-69 -76 -168 -76q-67 0 -107 42zM287 1651q-33 61 -162 157q-53 -51 -53 -125q0 -82 75 -82q54 0 140 50z" />
    <glyph glyph-name="hamzaisolated" unicode="&#x621;" horiz-adv-x="763" arabic-form="isolated" 
d="M676 307l-78 -239q-257 -70 -421 -195q-71 -54 -116 -111l-4 48q4 149 115 253q-68 12 -101.5 57t-33.5 111q0 88 54.5 187t147 167t187.5 62q75 -5 119 -31l-23 -213q-95 47 -203.5 0.5t-165.5 -163.5q43 -34 116 -42q162 -16 407 109z" />
    <glyph glyph-name="alefwithmaddaaboveisolated" unicode="&#x622;" horiz-adv-x="425" arabic-form="isolated" 
d="M321 1313v-1307l-213 -131v1307zM674 1798l26 -21q-3 -14 -7 -41t-6.5 -39t-7.5 -34t-10 -32.5t-13.5 -27.5t-18.5 -26t-24.5 -21t-32.5 -19t-42 -14t-53 -12l-422 -64q-77 -12 -110 -35t-41 -69q-3 -20 -9 -5q-8 22 -4 64q6 101 50 154t157 72l414 65q87 19 117.5 38
t36.5 67z" />
    <glyph glyph-name="alefwithmaddaabovefinal" unicode="&#x622;" horiz-adv-x="513" arabic-form="final" 
d="M513 221v-221h-397v1180l211 131v-1090h186zM676 1796l26 -21q-3 -14 -7 -41t-6.5 -39t-7.5 -34t-10 -32.5t-13.5 -27.5t-18.5 -26t-24.5 -21t-32.5 -19t-42 -14t-53 -12l-422 -64q-77 -12 -110 -35t-41 -69q-3 -20 -9 -5q-8 22 -4 64q6 101 50 154t157 72l414 65
q87 19 117.5 38t36.5 67z" />
    <glyph glyph-name="alefwithhamzaaboveisolated" unicode="&#x623;" horiz-adv-x="535" arabic-form="isolated" 
d="M334 1177v-1169l-213 -131v1169zM448 1563l-53 -164q-172 -46 -287 -132q-51 -39 -79 -77l-2 35q4 98 77 174q-46 6 -69 36.5t-23 75.5q0 59 37.5 126.5t100.5 115t128 43.5q54 -6 80 -22l-14 -146q-33 15 -68 15q-53 0 -101 -33t-79 -92q29 -25 77 -29q117 -11 275 74z
" />
    <glyph glyph-name="alefwithhamzaabovefinal" unicode="&#x623;" horiz-adv-x="517" arabic-form="final" 
d="M517 221v-221h-403v1052l211 131v-962h192zM448 1565l-53 -164q-174 -46 -288 -132q-51 -39 -79 -77l-2 35q4 97 78 174q-47 6 -69.5 36t-22.5 77q0 59 37.5 126.5t100.5 114.5t128 43q54 -6 80 -22l-14 -146q-33 15 -68 15q-53 0 -101 -33t-79 -92q29 -25 77 -29
q111 -10 275 74z" />
    <glyph glyph-name="wawwithhamzaaboveisolated" unicode="&#x624;" horiz-adv-x="831" arabic-form="isolated" 
d="M439 -647l-227 192q269 178 348 453q-462 11 -475 160l-2 43q-2 81 20 180t61.5 190.5t104 153t139.5 61.5q74 0 137.5 -58.5t106 -153.5t66.5 -216t24 -247q5 -232 -78 -416q-65 -150 -225 -342zM504 224q58 -2 85 -3q-21 137 -78 227.5t-127 90.5q-48 0 -88.5 -44.5
t-60 -96.5t-19.5 -89q0 -71 288 -85zM533 1126l-57 -182q-196 -52 -322 -146q-59 -44 -88 -85l-4 37q4 110 88 194q-102 16 -102 127q0 67 41 141.5t112 126.5t144 50q52 -5 88 -25l-16 -164q-73 37 -163.5 0.5t-133.5 -123.5q38 -26 96 -32q127 -15 317 81z" />
    <glyph glyph-name="wawwithhamzaabovefinal" unicode="&#x624;" horiz-adv-x="842" arabic-form="final" 
d="M842 221v-221h-113q-17 -179 -74 -305q-64 -146 -225 -342l-230 192q271 177 351 453q-463 11 -476 160l-2 43q0 82 22 180t61 190t103.5 153.5t139.5 61.5q88 0 159.5 -80.5t114 -206.5t56.5 -278h113zM493 224q43 -2 84 -3q-18 138 -74.5 228t-130.5 90
q-46 0 -86 -44.5t-59.5 -96.5t-19.5 -89q0 -71 286 -85zM534 1126l-57 -182q-196 -52 -322 -146q-59 -44 -88 -85l-4 37q4 110 88 194q-102 16 -102 127q0 67 41 141.5t112 126.5t144 50q52 -5 88 -25l-16 -164q-73 37 -163.5 0.5t-133.5 -123.5q38 -26 96 -32
q127 -15 317 81z" />
    <glyph glyph-name="alefwithhamzabelowisolated" unicode="&#x625;" horiz-adv-x="533" arabic-form="isolated" 
d="M321 1313v-1182l-213 -131v1182zM446 -355l-53 -164q-176 -47 -288 -131q-50 -38 -79 -76l-2 33q4 100 78 174q-92 16 -92 112q0 61 37.5 128t100.5 113t128 44q58 -6 80 -20l-14 -148q-33 15 -68 15q-53 0 -101 -33t-79 -92q29 -25 77 -29q105 -13 275 74z" />
    <glyph glyph-name="alefwithhamzabelowfinal" unicode="&#x625;" horiz-adv-x="519" arabic-form="final" 
d="M519 221v-221h-404v1180l211 131v-1090h193zM470 -374l-53 -164q-176 -47 -288 -131q-50 -38 -79 -76l-2 33q4 100 78 174q-92 15 -92 112q0 61 37.5 128t100.5 113t128 44q57 -6 80 -20l-15 -148q-33 15 -68 15q-53 0 -101 -33t-79 -92q31 -25 78 -29q105 -13 275 74z
" />
    <glyph glyph-name="yehwithhamzaaboveisolated" unicode="&#x626;" horiz-adv-x="1360" arabic-form="isolated" 
d="M535 1016l-59 -182q-192 -50 -322 -148q-57 -43 -88 -86l-2 39q4 115 88 192q-104 19 -104 127q0 67 41 142t112 126.5t144 49.5q57 -6 88 -25l-16 -161q-72 34 -153 -1.5t-124 -121.5q32 -26 87 -32q119 -15 308 81zM287 614l91 -86q-67 -91 -98 -186t-26.5 -176
t35.5 -153t84.5 -122.5t125 -80t151.5 -29.5q123 0 246.5 73t199.5 179q-10 35 -55 67t-119 58t-124.5 40t-122.5 31q-38 13 -52.5 29t-17.5 51q-2 10 -2 15v16q2 104 65.5 213.5t164 182.5t200.5 73q173 0 143 -293q-43 80 -133 80q-85 0 -164.5 -49t-105.5 -123
q77 -17 156 -44.5t160.5 -68.5t132.5 -98.5t51 -120.5q0 -40 -21.5 -96.5t-59.5 -120t-97.5 -126t-128.5 -112.5t-159 -81t-184 -31q-118 0 -213.5 34t-156 87.5t-102.5 125t-60 140.5t-21 139q-2 153 61 305t156 258z" />
    <glyph glyph-name="yehwithhamzaabovefinal" unicode="&#x626;" horiz-adv-x="1503" arabic-form="final" 
d="M522 1022l-57 -182q-196 -51 -324 -147q-59 -44 -88 -85l-2 37q4 109 88 195q-102 15 -102 127q0 67 41 141.5t111.5 126t142.5 49.5q56 -5 90 -24l-17 -164q-73 36 -153 0.5t-123 -123.5q32 -26 86 -32q118 -15 307 81zM1503 221v-221h-29q-103 0 -157 8
q-18 -60 -53.5 -122t-96.5 -128t-137.5 -117t-185 -83.5t-230.5 -32.5q-117 0 -213 34t-157.5 88t-103.5 124.5t-60 140.5t-19 139q-2 153 60.5 304t154.5 259l90 -86q-79 -110 -111.5 -224t-17 -208t63 -169.5t127.5 -117.5t176 -42q175 0 324.5 79.5t228.5 190.5
q-154 46 -242 119q-12 7 -26.5 20.5t-32 45.5t-17.5 67v155q108 -114 243 -168.5t355 -54.5h66z" />
    <glyph glyph-name="yehwithhamzaaboveinitial" unicode="&#x626;" horiz-adv-x="926" arabic-form="initial" 
d="M0 221h686q-8 27 -17 52t-21.5 52.5t-20 44.5t-25.5 50t-25 45.5t-30.5 53.5t-30.5 54l172 199q75 -151 113 -296.5t38 -262.5q0 -101 -16 -213h-823q-52 0 -52 43v133q0 45 52 45zM698 1133l-59 -183q-195 -51 -322 -146q-59 -44 -88 -85l-2 37q4 112 86 194
q-102 16 -102 125q0 68 41.5 143.5t112 127t143.5 47.5q47 0 88 -23l-17 -164q-71 36 -152 0.5t-124 -123.5q32 -26 87 -32q118 -15 308 82z" />
    <glyph glyph-name="yehwithhamzaabovemedial" unicode="&#x626;" horiz-adv-x="883" arabic-form="medial" 
d="M669 1171l-59 -182q-194 -51 -322 -147q-57 -43 -88 -86l-2 39q4 113 88 194q-104 16 -104 125q0 67 41.5 142.5t112 127.5t143.5 48q55 -5 88 -25l-16 -162q-73 35 -152 0t-125 -123q32 -26 86 -32q119 -16 309 81zM883 221v-221h-883q-52 0 -52 43v133q0 45 52 45h643
q-7 22 -13.5 42t-15.5 42t-15.5 37t-18.5 38.5t-18 35t-21.5 39t-20.5 36.5t-24 41.5t-25 42.5l172 199q146 -293 151 -553h89z" />
    <glyph glyph-name="alefisolated" unicode="&#x627;" horiz-adv-x="409" arabic-form="isolated" 
d="M322 1313v-1308l-213 -131v1308z" />
    <glyph glyph-name="aleffinal" unicode="&#x627;" horiz-adv-x="526" arabic-form="final" 
d="M526 221v-221h-412v1180l211 131v-1090h201z" />
    <glyph glyph-name="behisolated" unicode="&#x628;" horiz-adv-x="1706" arabic-form="isolated" 
d="M425 221h1042q-12 39 -24.5 72.5t-33 73.5t-30.5 59.5t-42 74t-42 72.5l172 199q152 -305 152 -557q0 -118 -19 -215h-1218q-152 0 -236 71t-84 203q0 122 62 240.5t161 210.5l76 -78q-40 -45 -72 -99.5t-47 -112.5t-7.5 -105.5t55.5 -78t135 -30.5zM1018 -344l-174 -174
l-173 174l173 172z" />
    <glyph glyph-name="behfinal" unicode="&#x628;" horiz-adv-x="1720" arabic-form="final" 
d="M1720 221v-221h-1356q-151 0 -235 71t-84 203q0 122 62 241.5t161 209.5l76 -78q-40 -45 -72 -99.5t-47.5 -112.5t-8 -105.5t55.5 -78t135 -30.5h1043q-12 39 -24.5 72.5t-33 73.5t-30.5 59.5t-42 74t-42 72.5l172 199q146 -293 151 -551h119zM1047 -344l-174 -174
l-173 174l173 172z" />
    <glyph glyph-name="behinitial" unicode="&#x628;" horiz-adv-x="871" arabic-form="initial" 
d="M556 -344l-174 -174l-173 174l173 172zM0 221h631q-7 24 -16 48.5t-16 42t-20 44t-18.5 39t-23 43.5t-22.5 40t-27 47.5t-27 47.5l172 199q75 -151 113 -296.5t38 -262.5q0 -101 -16 -213h-768q-52 0 -52 43v133q0 45 52 45z" />
    <glyph glyph-name="behmedial" unicode="&#x628;" horiz-adv-x="730" arabic-form="medial" 
d="M495 -344l-174 -174l-173 174l173 172zM730 221v-221h-730q-52 0 -52 43v133q0 45 52 45h467q-7 25 -16 49.5t-16.5 43t-20 44.5t-19 39.5t-23 43t-23 41t-27 46.5t-27.5 47l172 199q146 -293 151 -553h112z" />
    <glyph glyph-name="tehmarbutaisolated" unicode="&#x629;" horiz-adv-x="903" arabic-form="isolated" 
d="M430 1133l-172 -175l-175 175l175 174zM816 1133l-173 -175l-174 175l174 174zM137 8q-28 18 -46 49q-19 37 -26 74t-1.5 94t40.5 136t100 176q105 158 256 342q50 -35 84 -60.5t87.5 -75t86.5 -94t58.5 -106t25.5 -123.5q0 -58 -20 -121t-59.5 -121.5t-92 -105.5
t-123 -75t-146.5 -28q-160 0 -224 39zM577 272q35 26 61 66q-29 76 -90 139t-150 131q-23 -28 -38.5 -47.5t-38 -50t-37 -53.5t-29.5 -51t-21 -50t-6 -44t10 -38q37 -58 143.5 -61.5t195.5 59.5z" />
    <glyph glyph-name="tehmarbutafinal" unicode="&#x629;" horiz-adv-x="1043" arabic-form="final" 
d="M1043 221v-221h-348q-15 96 -25 139l-81 -155q-67 36 -254 36h-279q-7 53 12 193q9 64 43 143t85.5 155.5t110.5 141.5t125 104.5t124 39.5q36 0 68 -26t58 -75t47.5 -101.5t40.5 -125.5t30.5 -126t25.5 -122h217zM210 250h188q115 0 201 -22q39 -11 59 -23
q-81 340 -176 340q-65 0 -143 -80t-129 -215zM453 1086l-172 -173l-175 173l175 174zM699 1260l174 -174l-174 -173l-174 173z" />
    <glyph glyph-name="tehisolated" unicode="&#x62a;" horiz-adv-x="1705" arabic-form="isolated" 
d="M644 1176l173 -174l-173 -173l-174 173zM1062 1176l175 -174l-175 -173l-174 173zM424 221h1042q-12 39 -24.5 72.5t-33 73.5t-30.5 59.5t-42 74t-42 72.5l172 199q152 -305 152 -557q0 -118 -19 -215h-1218q-152 0 -236 71t-84 203q0 122 62 240.5t161 210.5l76 -78
q-40 -45 -72 -99.5t-47 -112.5t-7.5 -105.5t55.5 -78t135 -30.5z" />
    <glyph glyph-name="tehfinal" unicode="&#x62a;" horiz-adv-x="1707" arabic-form="final" 
d="M624 1176l174 -174l-174 -173l-173 173zM1215 1002l-171 -173l-174 173l174 174zM1707 221v-221h-1341q-151 0 -235 71t-84 203q0 122 62 241.5t161 209.5l76 -78q-40 -45 -72 -99.5t-47.5 -112.5t-8 -105.5t55.5 -78t135 -30.5h1043q-12 39 -24.5 72.5t-33 73.5
t-30.5 59.5t-42 74t-42 72.5l172 199q146 -293 151 -551h104z" />
    <glyph glyph-name="tehinitial" unicode="&#x62a;" horiz-adv-x="934" arabic-form="initial" 
d="M179 1176l174 -174l-174 -173l-173 173zM770 1002l-171 -173l-175 173l175 174zM0 221h694q-8 27 -17 52t-21.5 52.5t-20 44.5t-25.5 50t-25 45.5t-30.5 53.5t-30.5 54l172 199q75 -151 113 -296.5t38 -262.5q0 -101 -16 -213h-831q-52 0 -52 43v133q0 45 52 45z" />
    <glyph glyph-name="tehmedial" unicode="&#x62a;" horiz-adv-x="904" arabic-form="medial" 
d="M222 1236l173 -175l-173 -172l-174 172zM641 1236l174 -175l-174 -172l-175 172zM904 221v-221h-904q-52 0 -52 43v133q0 45 52 45h655q-7 22 -13.5 42t-15.5 42t-15.5 37t-18.5 38.5t-18 35t-21.5 39t-20.5 36.5t-24 41.5t-25 42.5l172 199q147 -292 152 -553h97z" />
    <glyph glyph-name="thehisolated" unicode="&#x62b;" horiz-adv-x="1706" arabic-form="isolated" 
d="M666 1176l173 -174l-173 -173l-174 173zM872 1473l176 -174l-176 -175l-171 175zM1084 1176l175 -174l-175 -173l-174 173zM425 221h1042q-12 39 -24.5 72.5t-33 73.5t-30.5 59.5t-42 74t-42 72.5l172 199q152 -305 152 -557q0 -118 -19 -215h-1218q-152 0 -236 71
t-84 203q0 122 62 240.5t161 210.5l76 -78q-40 -45 -72 -99.5t-47 -112.5t-7.5 -105.5t55.5 -78t135 -30.5z" />
    <glyph glyph-name="thehfinal" unicode="&#x62b;" horiz-adv-x="1733" arabic-form="final" 
d="M631 1176l174 -174l-174 -173l-172 173zM839 1473l176 -174l-176 -175l-174 175zM1223 1002l-172 -173l-174 173l174 174zM1733 221v-221h-1363q-151 0 -235 71t-84 203q0 122 62 241.5t161 209.5l76 -78q-40 -45 -72 -99.5t-47.5 -112.5t-8 -105.5t55.5 -78t135 -30.5
h1043q-12 39 -24.5 72.5t-33 73.5t-30.5 59.5t-42 74t-42 72.5l172 199q146 -293 151 -551h126z" />
    <glyph glyph-name="thehinitial" unicode="&#x62b;" horiz-adv-x="957" arabic-form="initial" 
d="M177 1176l174 -174l-174 -173l-173 173zM560 1299l-174 -175l-176 175l176 174zM768 1002l-171 -173l-174 173l174 174zM0 221h717q-7 24 -16 48.5t-16 42t-20 44t-18.5 39t-23 43.5t-22.5 40t-27 47.5t-27 47.5l172 199q75 -151 113 -296.5t38 -262.5q0 -101 -16 -213
h-854q-52 0 -52 43v133q0 45 52 45z" />
    <glyph glyph-name="thehmedial" unicode="&#x62b;" horiz-adv-x="909" arabic-form="medial" 
d="M177 1191l173 -175l-173 -172l-174 172zM383 1487l176 -174l-176 -174l-174 174zM595 1191l175 -175l-175 -172l-174 172zM909 221v-221h-909q-52 0 -52 43v133q0 45 52 45h665q-7 22 -13.5 42t-15.5 42t-15.5 37t-18.5 38.5t-18 35t-21.5 39t-20.5 36.5t-24 41.5
t-25 42.5l172 199q147 -292 152 -553h92z" />
    <glyph glyph-name="jeemisolated" unicode="&#x62c;" horiz-adv-x="1180" arabic-form="isolated" 
d="M727 173l175 -173l-175 -174l-174 174zM993 -387l-86 -277q-137 -48 -279 -53q-119 -2 -213 25t-155 74.5t-101.5 113.5t-58 136t-18.5 149t22.5 163t74 176t141 186.5t212.5 178.5q-157 38 -194 41q-153 16 -217 -45q-5 -5 -21 -20t-27 -25l-32 27l86 143
q48 78 97 108.5t126 30.5q52 0 175.5 -24t232 -49t214 -38t121.5 9l-63 -166q-14 -37 -67 -49t-116 -6t-151 24l2 -2q-87 -48 -174 -135.5t-150 -196t-76 -219.5t48 -206q40 -59 102.5 -94t129.5 -43t135.5 -5t127.5 17.5t98 28t54 22.5z" />
    <glyph glyph-name="jeemfinal" unicode="&#x62c;" horiz-adv-x="1222" arabic-form="final" 
d="M693 -6l174 -173l-174 -174l-175 174zM1126 -387l-86 -277q-126 -44 -364 -53q-119 -2 -213.5 25t-155.5 74.5t-101.5 113.5t-58 136t-18.5 149t22 163t73.5 175.5t141 186.5t213.5 179q-150 37 -194 41q-153 16 -217 -45q-4 -5 -20 -20t-27 -25l-35 27l88 143
q48 78 97 108.5t126 30.5q51 0 174 -24t232.5 -49t214.5 -38t120 9l-63 -166q-14 -36 -66 -48.5t-114.5 -6.5t-151.5 24l2 -2h-1q-1 0 -1 -2q13 -96 81.5 -158.5t191.5 -62.5h206v-221h-270q-82 0 -140 25.5t-92 77.5t-51.5 116.5t-25.5 155.5q-78 -64 -144 -147
t-111.5 -179t-46 -188t51.5 -174q48 -70 136.5 -106t180.5 -37.5t184 11t152.5 30t79.5 28.5z" />
    <glyph glyph-name="jeeminitial" unicode="&#x62c;" horiz-adv-x="1363" arabic-form="initial" 
d="M737 -344l-174 -174l-173 174l173 172zM1276 221l-66 -221h-1210q-52 0 -52 43v133q0 45 52 45h928q-33 56 -56 91t-66.5 88t-93.5 98q-33 31 -82 55t-109 35.5t-128.5 -5.5t-126.5 -65l-45 45q135 134 205.5 182t150.5 48q86 0 172.5 -50t155.5 -151q82 -120 178 -301
q39 -70 109 -70h84z" />
    <glyph glyph-name="jeemmedial" unicode="&#x62c;" horiz-adv-x="1164" arabic-form="medial" 
d="M669 -344l-174 -174l-173 174l173 172zM1164 221v-221h-1164q-52 0 -52 43v133q0 45 52 45h827q-39 66 -57 95t-63.5 86.5t-94.5 101.5q-32 32 -81 56t-109 35.5t-128.5 -5.5t-125.5 -66l-47 39q135 133 205.5 181.5t150.5 48.5q86 0 172.5 -50t157.5 -151
q72 -106 176 -301q39 -70 108 -70h73z" />
    <glyph glyph-name="hahisolated" unicode="&#x62d;" horiz-adv-x="1180" arabic-form="isolated" 
d="M993 -387l-86 -277q-137 -48 -279 -53q-119 -2 -213 25t-155 74.5t-101.5 113.5t-58 136t-18.5 149t22.5 163t74 176t141 186.5t212.5 178.5q-157 38 -194 41q-153 16 -217 -45q-5 -5 -21 -20t-27 -25l-32 27l86 143q48 78 97 108.5t126 30.5q52 0 175.5 -24t232 -49
t214 -38t121.5 9l-63 -166q-14 -37 -67 -49t-116 -6t-151 24l2 -2q-87 -48 -174 -135.5t-150 -196t-76 -219.5t48 -206q40 -59 102.5 -94t129.5 -43t135.5 -5t127.5 17.5t98 28t54 22.5z" />
    <glyph glyph-name="hahfinal" unicode="&#x62d;" horiz-adv-x="1216" arabic-form="final" 
d="M1126 -387l-86 -277q-126 -44 -364 -53q-119 -2 -213.5 25t-155.5 74.5t-101.5 113.5t-58 136t-18.5 149t22 163t73.5 175.5t141 186.5t213.5 179q-150 37 -194 41q-153 16 -217 -45q-4 -5 -20 -20t-27 -25l-35 27l88 143q48 78 97 108.5t126 30.5q51 0 174 -24
t232.5 -49t214.5 -38t120 9l-63 -166q-14 -36 -66 -48.5t-114.5 -6.5t-151.5 24l2 -2h-1q-1 0 -1 -2q13 -96 81.5 -158.5t191.5 -62.5h200v-221h-264q-82 0 -140 25.5t-92 77.5t-51.5 116.5t-25.5 155.5q-78 -64 -144 -147t-111.5 -179t-46 -188t51.5 -174
q48 -70 136.5 -106t180.5 -37.5t184 11t152.5 30t79.5 28.5z" />
    <glyph glyph-name="hahinitial" unicode="&#x62d;" horiz-adv-x="1363" arabic-form="initial" 
d="M1276 221l-66 -221h-1210q-52 0 -52 43v133q0 45 52 45h928q-33 56 -56 91t-66.5 88t-93.5 98q-33 31 -82 55t-109 35.5t-128.5 -5.5t-126.5 -65l-45 45q135 134 205.5 182t150.5 48q86 0 172.5 -50t155.5 -151q82 -120 178 -301q39 -70 109 -70h84z" />
    <glyph glyph-name="hahmedial" unicode="&#x62d;" horiz-adv-x="1164" arabic-form="medial" 
d="M1164 221v-221h-1164q-52 0 -52 43v133q0 45 52 45h827q-39 66 -57 95t-63.5 86.5t-94.5 101.5q-32 32 -81 56t-109 35.5t-128.5 -5.5t-125.5 -66l-47 39q135 133 205.5 181.5t150.5 48.5q86 0 172.5 -50t157.5 -151q72 -106 176 -301q39 -70 108 -70h73z" />
    <glyph glyph-name="khahisolated" unicode="&#x62e;" horiz-adv-x="1180" arabic-form="isolated" 
d="M993 -387l-86 -277q-137 -48 -279 -53q-119 -2 -213 25t-155 74.5t-101.5 113.5t-58 136t-18.5 149t22.5 163t74 176t141 186.5t212.5 178.5q-157 38 -194 41q-153 16 -217 -45q-5 -5 -21 -20t-27 -25l-32 27l86 143q48 78 97 108.5t126 30.5q52 0 175.5 -24t232 -49
t214 -38t121.5 9l-63 -166q-14 -37 -67 -49t-116 -6t-151 24l2 -2q-87 -48 -174 -135.5t-150 -196t-76 -219.5t48 -206q40 -59 102.5 -94t129.5 -43t135.5 -5t127.5 17.5t98 28t54 22.5zM841 1116l-172 -174l-175 174l175 175z" />
    <glyph glyph-name="khahfinal" unicode="&#x62e;" horiz-adv-x="1221" arabic-form="final" 
d="M1126 -387l-86 -277q-126 -44 -364 -53q-119 -2 -213.5 25t-155.5 74.5t-101.5 113.5t-58 136t-18.5 149t22 163t73.5 175.5t141 186.5t213.5 179q-150 37 -194 41q-153 16 -217 -45q-4 -5 -20 -20t-27 -25l-35 27l88 143q48 78 97 108.5t126 30.5q51 0 174 -24
t232.5 -49t214.5 -38t120 9l-63 -166q-14 -36 -66 -48.5t-114.5 -6.5t-151.5 24l2 -2h-1q-1 0 -1 -2q13 -96 81.5 -158.5t191.5 -62.5h205v-221h-269q-82 0 -140 25.5t-92 77.5t-51.5 116.5t-25.5 155.5q-78 -64 -144 -147t-111.5 -179t-46 -188t51.5 -174
q48 -70 136.5 -106t180.5 -37.5t184 11t152.5 30t79.5 28.5zM695 1291l174 -175l-174 -174l-173 174z" />
    <glyph glyph-name="khahinitial" unicode="&#x62e;" horiz-adv-x="1363" arabic-form="initial" 
d="M637 1324l174 -175l-174 -174l-172 174zM1276 221l-66 -221h-1210q-52 0 -52 43v133q0 45 52 45h928q-33 56 -56 91t-66.5 88t-93.5 98q-33 31 -82 55t-109 35.5t-128.5 -5.5t-126.5 -65l-45 45q135 134 205.5 182t150.5 48q86 0 172.5 -50t155.5 -151q82 -120 178 -301
q39 -70 109 -70h84z" />
    <glyph glyph-name="khahmedial" unicode="&#x62e;" horiz-adv-x="1150" arabic-form="medial" 
d="M678 1178l-172 -174l-174 174l174 174zM1150 221v-221h-1150q-52 0 -52 43v133q0 45 52 45h827q-39 66 -57 95t-63.5 86.5t-94.5 101.5q-32 32 -81 56t-109 35.5t-128.5 -5.5t-125.5 -66l-47 39q135 133 205.5 181.5t150.5 48.5q86 0 172.5 -50t157.5 -151
q72 -106 176 -301q39 -70 108 -70h59z" />
    <glyph glyph-name="dalisolated" unicode="&#x62f;" horiz-adv-x="958" arabic-form="isolated" 
d="M240 221h465q-4 55 -19.5 105.5t-32 87t-54 85.5t-62 77.5t-79.5 88.5q-6 7 -10 11t-9.5 10.5t-10.5 11.5l133 228q37 -47 59.5 -77t59.5 -83.5t60 -97.5t51 -105t42.5 -121.5t25.5 -131t9 -149t-16 -161.5h-596q-77 0 -119 32t-47.5 83.5t11 110.5t51.5 118
q-14 -52 4 -87.5t84 -35.5z" />
    <glyph glyph-name="dalfinal" unicode="&#x62f;" horiz-adv-x="932" arabic-form="final" 
d="M932 221v-221h-721q-75 0 -117 32t-47.5 83.5t10.5 110.5t51 118q-14 -52 4 -87.5t84 -35.5h465q-2 37 -10.5 73t-15.5 61.5t-28.5 62t-30 52.5t-42 57t-42.5 51.5t-53.5 60t-53.5 59.5l133 228q61 -77 101 -134.5t91 -150t79.5 -198.5t33.5 -222h109z" />
    <glyph glyph-name="thalisolated" unicode="&#x630;" horiz-adv-x="958" arabic-form="isolated" 
d="M305 1342l175 -174l-175 -175l-174 175zM240 221h465q-4 55 -19.5 105.5t-32 87t-54 85.5t-62 77.5t-79.5 88.5q-6 7 -10 11t-9.5 10.5t-10.5 11.5l133 228q37 -47 59.5 -77t59.5 -83.5t60 -97.5t51 -105t42.5 -121.5t25.5 -131t9 -149t-16 -161.5h-596q-77 0 -119 32
t-47.5 83.5t11 110.5t51.5 118q-14 -52 4 -87.5t84 -35.5z" />
    <glyph glyph-name="thalfinal" unicode="&#x630;" horiz-adv-x="930" arabic-form="final" 
d="M259 1342l175 -174l-175 -175l-174 175zM930 221v-221h-719q-75 0 -117 32t-47.5 83.5t10.5 110.5t51 118q-14 -52 4 -87.5t84 -35.5h465q-2 37 -10.5 73t-15.5 61.5t-28.5 62t-30 52.5t-42 57t-42.5 51.5t-53.5 60t-53.5 59.5l133 228q61 -77 101 -134.5t91 -150
t79.5 -198.5t33.5 -222h107z" />
    <glyph glyph-name="rehisolated" unicode="&#x631;" horiz-adv-x="642" arabic-form="isolated" 
d="M246 -647l-228 192q119 78 200 180t120 200.5t61 219.5q-25 118 -67 210t-119 212l164 217q174 -344 178 -665q0 -90 -13 -172.5t-45 -179.5t-95.5 -202t-155.5 -212z" />
    <glyph glyph-name="rehfinal" unicode="&#x631;" horiz-adv-x="689" arabic-form="final" 
d="M689 221v-221h-147q-33 -333 -303 -647l-227 192q91 59 159 130t111.5 149.5t69 154.5t41.5 166q-25 120 -67 212.5t-119 209.5l163 217q148 -288 175 -563h144z" />
    <glyph glyph-name="zainisolated" unicode="&#x632;" horiz-adv-x="643" arabic-form="isolated" 
d="M247 -647l-228 192q119 78 200 180t120 200.5t61 219.5q-25 118 -67 210t-119 212l164 217q174 -344 178 -665q0 -90 -13 -172.5t-45 -179.5t-95.5 -202t-155.5 -212zM177 1264l175 -174l-175 -175l-174 175z" />
    <glyph glyph-name="zainfinal" unicode="&#x632;" horiz-adv-x="691" arabic-form="final" 
d="M342 1047l-172 -173l-174 173l174 174zM691 221v-221h-149q-33 -333 -303 -647l-227 192q91 59 159 130t111.5 149.5t69 154.5t41.5 166q-25 120 -67 212.5t-119 209.5l163 217q148 -288 175 -563h146z" />
    <glyph glyph-name="seenisolated" unicode="&#x633;" horiz-adv-x="2126" arabic-form="isolated" 
d="M1627 221h281q-7 25 -16 49t-16 42.5t-20 44t-19.5 39t-23 43.5t-22.5 40.5t-27 46.5t-28 47l153 199q150 -300 150 -557q0 -96 -17 -215h-809q-10 -69 -44.5 -146.5t-94.5 -155t-136 -139.5t-178 -100.5t-211 -38.5q-97 0 -178.5 32.5t-137.5 88t-94.5 130t-55 157
t-15 170t22 168.5t60.5 154t95 124l69 -82q-54 -81 -76 -165t-14.5 -157t39 -138t81 -111t115.5 -73t138 -27q83 0 170.5 37.5t153.5 93.5t110 124t47 126q-16 69 -48.5 139.5t-55 107t-82.5 130.5l147 196q122 -210 162 -424h284q-18 53 -44.5 110t-47.5 94.5t-66 115.5
l152 198q135 -268 147 -518z" />
    <glyph glyph-name="seenfinal" unicode="&#x633;" horiz-adv-x="2166" arabic-form="final" 
d="M2166 221v-221h-953q-10 -69 -44.5 -146.5t-94.5 -155t-136 -139.5t-178 -100.5t-211 -38.5q-97 0 -178.5 32.5t-137.5 88t-94.5 130t-55 157t-15 170t22 168.5t60.5 154t95 124l69 -82q-54 -81 -76 -165t-14.5 -157t39 -138t81 -111t115.5 -73t138 -27q83 0 170.5 37.5
t153.5 93.5t110 124t47 126q-16 69 -48.5 139.5t-55 107t-82.5 130.5l147 196q122 -210 162 -424h245q-28 78 -63 147t-97 175l152 196q135 -269 149 -518h279q-8 28 -17 53.5t-21.5 53t-20.5 45t-25 49t-25 46t-30.5 53.5t-30.5 54l151 197q150 -299 150 -551h168z" />
    <glyph glyph-name="seeninitial" unicode="&#x633;" horiz-adv-x="1477" arabic-form="initial" 
d="M978 221h281q-7 25 -16 49t-16 42.5t-20 44t-19.5 39t-23 43.5t-22.5 40.5t-27 46.5t-28 47l153 199q150 -300 150 -557q0 -96 -17 -215h-1373q-52 0 -52 43v133q0 45 52 45h399q-5 17 -20 60q-28 76 -86 202l157 166q53 -157 95 -314q16 -57 28 -114h264
q-18 53 -44.5 110t-47.5 94.5t-66 115.5l152 198q135 -268 147 -518z" />
    <glyph glyph-name="seenmedial" unicode="&#x633;" horiz-adv-x="1546" arabic-form="medial" 
d="M1546 221v-221h-1546q-52 0 -52 43v133q0 45 52 45h400q-5 17 -20 60q-28 76 -86 202l157 166q53 -157 95 -314q16 -57 28 -114h232q-28 78 -63 147t-97 175l152 196q135 -269 149 -518h279q-8 28 -17 53.5t-21.5 53t-20.5 45t-25 49t-25 46t-30.5 53.5t-30.5 54l151 197
q150 -299 150 -551h189z" />
    <glyph glyph-name="sheenisolated" unicode="&#x634;" horiz-adv-x="2126" arabic-form="isolated" 
d="M1235 1209l175 -174l-175 -175l-174 175zM1617 1332l-172 -174l-175 174l175 172zM1828 1035l-174 -175l-175 175l175 174zM1627 221h281q-7 25 -16 49t-16 42.5t-20 44t-19.5 39t-23 43.5t-22.5 40.5t-27 46.5t-28 47l153 199q150 -300 150 -557q0 -96 -17 -215h-809
q-10 -69 -44.5 -146.5t-94.5 -155t-136 -139.5t-178 -100.5t-211 -38.5q-97 0 -178.5 32.5t-137.5 88t-94.5 130t-55 157t-15 170t22 168.5t60.5 154t95 124l69 -82q-54 -81 -76 -165t-14.5 -157t39 -138t81 -111t115.5 -73t138 -27q83 0 170.5 37.5t153.5 93.5t110 124
t47 126q-16 69 -48.5 139.5t-55 107t-82.5 130.5l147 196q122 -210 162 -424h284q-18 53 -44.5 110t-47.5 94.5t-66 115.5l152 198q135 -268 147 -518z" />
    <glyph glyph-name="sheenfinal" unicode="&#x634;" horiz-adv-x="2201" arabic-form="final" 
d="M1373 1035l-174 -175l-173 175l173 174zM1408 1507l174 -175l-174 -174l-176 174zM1790 1035l-174 -175l-172 175l172 174zM2201 221v-221h-988q-10 -69 -44.5 -146.5t-94.5 -155t-136 -139.5t-178 -100.5t-211 -38.5q-97 0 -178.5 32.5t-137.5 88t-94.5 130t-55 157
t-15 170t22 168.5t60.5 154t95 124l69 -82q-54 -81 -76 -165t-14.5 -157t39 -138t81 -111t115.5 -73t138 -27q83 0 170.5 37.5t153.5 93.5t110 124t47 126q-16 69 -48.5 139.5t-55 107t-82.5 130.5l147 196q122 -210 162 -424h245q-28 78 -63 147t-97 175l152 196
q135 -269 149 -518h279q-8 28 -17 53.5t-21.5 53t-20.5 45t-25 49t-25 46t-30.5 53.5t-30.5 54l151 197q150 -299 150 -551h203z" />
    <glyph glyph-name="sheeninitial" unicode="&#x634;" horiz-adv-x="1478" arabic-form="initial" 
d="M565 1209l175 -174l-175 -175l-174 175zM947 1332l-172 -174l-175 174l175 172zM1158 1035l-174 -175l-175 175l175 174zM979 221h281q-7 25 -16 49t-16 42.5t-20 44t-19.5 39t-23 43.5t-22.5 40.5t-27 46.5t-28 47l153 199q150 -300 150 -557q0 -96 -17 -215h-1374
q-52 0 -52 43v133q0 45 52 45h400q-5 17 -20 60q-28 76 -86 202l157 166q53 -157 95 -314q16 -57 28 -114h264q-18 53 -44.5 110t-47.5 94.5t-66 115.5l152 198q135 -268 147 -518z" />
    <glyph glyph-name="sheenmedial" unicode="&#x634;" horiz-adv-x="1555" arabic-form="medial" 
d="M732 1035l-174 -175l-173 175l173 174zM767 1507l174 -175l-174 -174l-176 174zM1149 1035l-174 -175l-172 175l172 174zM1555 221v-221h-1555q-52 0 -52 43v133q0 45 52 45h399q-5 17 -20 60q-28 76 -86 202l157 166q53 -157 95 -314q16 -57 28 -114h232q-28 78 -63 147
t-97 175l152 196q135 -269 149 -518h279q-8 28 -17 53.5t-21.5 53t-20.5 45t-25 49t-25 46t-30.5 53.5t-30.5 54l151 197q150 -299 150 -551h199z" />
    <glyph glyph-name="sadisolated" unicode="&#x635;" horiz-adv-x="2493" arabic-form="isolated" 
d="M1497 221h756q0 87 -25.5 151t-67 96.5t-83.5 47t-85 14.5q-90 0 -179.5 -57t-315.5 -252zM2361 0h-1148q-10 -69 -44.5 -146.5t-94.5 -155t-136 -139.5t-178 -100.5t-211 -38.5q-97 0 -178.5 32.5t-137.5 88t-94.5 130t-55 157t-15 170t22 168.5t60.5 154t95 124l69 -82
q-54 -81 -76 -165t-14.5 -157t39 -138t81 -111t115.5 -73t138 -27q83 0 170.5 37.5t153.5 93.5t110 124t47 126q-16 69 -48.5 139.5t-55 107t-82.5 130.5l147 196q122 -210 162 -424h78q398 416 612 518q71 33 151.5 33.5t151.5 -35.5q42 -24 77 -59t68 -97t49 -139.5
t10.5 -192t-38.5 -249.5z" />
    <glyph glyph-name="sadfinal" unicode="&#x635;" horiz-adv-x="2519" arabic-form="final" 
d="M1515 221h766q0 87 -25.5 151t-66.5 96.5t-83 47t-85 14.5q-93 0 -189.5 -59t-316.5 -250zM2519 221v-221h-1305q-10 -69 -44.5 -146.5t-94.5 -155t-136 -139.5t-178 -100.5t-211 -38.5q-97 0 -178.5 32.5t-137.5 88t-94.5 130t-55 157t-15 170t22 168.5t60.5 154t95 124
l69 -82q-54 -81 -76 -165t-14.5 -157t39 -138t81 -111t115.5 -73t138 -27q83 0 170.5 37.5t153.5 93.5t110 124t47 126q-16 69 -48.5 139.5t-55 107t-82.5 130.5l147 196q122 -210 162 -424h87q25 23 109 102.5t134 124.5t125.5 110t140.5 109.5t122 71.5q71 33 151.5 33.5
t151.5 -35.5q43 -26 79.5 -64t71 -98.5t49.5 -151.5t5 -202h90z" />
    <glyph glyph-name="sadinitial" unicode="&#x635;" horiz-adv-x="1867" arabic-form="initial" 
d="M871 221h756q0 87 -25.5 151t-67 96.5t-83.5 47t-85 14.5q-90 0 -179.5 -57t-315.5 -252zM574 221h80q398 416 612 518q71 33 151.5 33.5t151.5 -35.5q42 -24 77 -59t68 -97t49 -139.5t10.5 -192t-38.5 -249.5h-1735q-52 0 -52 43v133q0 45 52 45h400q-5 17 -20 60
q-28 76 -86 202l157 166q53 -157 95 -314q16 -57 28 -114z" />
    <glyph glyph-name="sadmedial" unicode="&#x635;" horiz-adv-x="1878" arabic-form="medial" 
d="M876 221h766q0 87 -25.5 151t-66.5 96.5t-83 47t-85 14.5q-93 0 -189.5 -59t-316.5 -250zM1878 221v-221h-1878q-52 0 -52 43v133q0 45 52 45h399q-5 17 -20 60q-28 76 -86 202l157 166q53 -157 95 -314q16 -57 28 -114h78q25 23 109 102.5t134 124.5t125.5 110
t140.5 109.5t122 71.5q71 33 151.5 33.5t151.5 -35.5q43 -26 79.5 -64t71 -98.5t49.5 -151.5t5 -202h88z" />
    <glyph glyph-name="dadisolated" unicode="&#x636;" horiz-adv-x="2495" arabic-form="isolated" 
d="M1499 221h756q0 87 -25.5 151t-67 96.5t-83.5 47t-85 14.5q-90 0 -179.5 -57t-315.5 -252zM1884 1283l174 -175l-174 -174l-175 174zM2363 0h-1148q-10 -69 -44.5 -146.5t-94.5 -155t-136 -139.5t-178 -100.5t-211 -38.5q-97 0 -178.5 32.5t-137.5 88t-94.5 130t-55 157
t-15 170t22 168.5t60.5 154t95 124l69 -82q-54 -81 -76 -165t-14.5 -157t39 -138t81 -111t115.5 -73t138 -27q83 0 170.5 37.5t153.5 93.5t110 124t47 126q-16 69 -48.5 139.5t-55 107t-82.5 130.5l147 196q122 -210 162 -424h78q398 416 612 518q71 33 151.5 33.5
t151.5 -35.5q42 -24 77 -59t68 -97t49 -139.5t10.5 -192t-38.5 -249.5z" />
    <glyph glyph-name="dadfinal" unicode="&#x636;" horiz-adv-x="2523" arabic-form="final" 
d="M2118 1127l-174 -175l-173 175l173 174zM1517 221h766q0 87 -25.5 151t-66.5 96.5t-83 47t-85 14.5q-93 0 -189.5 -59t-316.5 -250zM2523 221v-221h-1307q-10 -69 -44.5 -146.5t-94.5 -155t-136 -139.5t-178 -100.5t-211 -38.5q-97 0 -178.5 32.5t-137.5 88t-94.5 130
t-55 157t-15 170t22 168.5t60.5 154t95 124l69 -82q-54 -81 -76 -165t-14.5 -157t39 -138t81 -111t115.5 -73t138 -27q83 0 170.5 37.5t153.5 93.5t110 124t47 126q-16 69 -48.5 139.5t-55 107t-82.5 130.5l147 196q122 -210 162 -424h87q25 23 109 102.5t134 124.5
t125.5 110t140.5 109.5t122 71.5q71 33 151.5 33.5t151.5 -35.5q43 -26 79.5 -64t71 -98.5t49.5 -151.5t5 -202h92z" />
    <glyph glyph-name="dadinitial" unicode="&#x636;" horiz-adv-x="1868" arabic-form="initial" 
d="M872 221h756q0 87 -25.5 151t-67 96.5t-83.5 47t-85 14.5q-90 0 -179.5 -57t-315.5 -252zM1247 1283l174 -175l-174 -174l-175 174zM575 221h80q398 416 612 518q71 33 151.5 33.5t151.5 -35.5q42 -24 77 -59t68 -97t49 -139.5t10.5 -192t-38.5 -249.5h-1736
q-52 0 -52 43v133q0 45 52 45h401q-5 17 -20 60q-28 76 -86 202l157 166q53 -157 95 -314q16 -57 28 -114z" />
    <glyph glyph-name="dadmedial" unicode="&#x636;" horiz-adv-x="1886" arabic-form="medial" 
d="M1478 1127l-174 -175l-173 175l173 174zM878 221h766q0 87 -25.5 151t-66.5 96.5t-83 47t-85 14.5q-93 0 -189.5 -59t-316.5 -250zM1886 221v-221h-1886q-52 0 -52 43v133q0 45 52 45h401q-5 17 -20 60q-28 76 -86 202l157 166q53 -157 95 -314q16 -57 28 -114h78
q25 23 109 102.5t134 124.5t125.5 110t140.5 109.5t122 71.5q71 33 151.5 33.5t151.5 -35.5q43 -26 79.5 -64t71 -98.5t49.5 -151.5t5 -202h94z" />
    <glyph glyph-name="tahisolated" unicode="&#x637;" horiz-adv-x="1527" arabic-form="isolated" 
d="M1395 0h-1284l-100 221h264q16 18 73.5 69t80.5 77l-19 819l205 125v-779q101 93 326 205q64 34 145 34q82 0 144 -36q42 -24 77 -59t68 -96.5t48.5 -138.5t10 -191.5t-38.5 -249.5zM484 221h803q0 70 -17.5 125.5t-44.5 89t-63 55.5t-69 30.5t-66 8.5q-99 0 -216 -64
t-327 -245z" />
    <glyph glyph-name="tahfinal" unicode="&#x637;" horiz-adv-x="1550" arabic-form="final" 
d="M1550 221v-221h-1467l-72 221h389q84 88 121 129l-18 836l204 125v-779q153 145 275 205q64 34 145 34q83 0 144 -36q43 -24 80.5 -62.5t71.5 -98.5t48.5 -151t3.5 -202h75zM574 221h754q0 70 -17.5 125.5t-44.5 89t-63 55.5t-69 30.5t-66 8.5q-90 0 -178.5 -56.5
t-315.5 -252.5z" />
    <glyph glyph-name="tahinitial" unicode="&#x637;" horiz-adv-x="1377" arabic-form="initial" 
d="M334 221h802q0 70 -17.5 125.5t-44 89t-62 55.5t-69 30.5t-67.5 8.5q-100 0 -216 -63.5t-326 -245.5zM1245 0h-1245q-52 0 -52 43v133q0 45 52 45h125q15 16 72 68t81 78l-18 819l205 125v-779q106 97 325 205q64 34 145 34q83 0 144 -36q42 -24 77 -59t68 -96.5
t49 -138.5t10.5 -191.5t-38.5 -249.5z" />
    <glyph glyph-name="tahmedial" unicode="&#x637;" horiz-adv-x="1371" arabic-form="medial" 
d="M335 221h802q0 70 -17.5 125.5t-44 89t-62 55.5t-69 30.5t-67.5 8.5q-100 0 -216 -63.5t-326 -245.5zM1371 221v-221h-1371q-52 0 -52 43v133q0 45 52 45h126q15 16 72 68t81 78l-18 819l205 125v-779q106 97 325 205q64 34 145 34q82 0 144 -36q43 -25 79.5 -63t70 -98
t48.5 -151t5 -202h88z" />
    <glyph glyph-name="zahisolated" unicode="&#x638;" horiz-adv-x="1526" arabic-form="isolated" 
d="M1025 1283l175 -175l-175 -174l-174 174zM1394 0h-1284l-100 221h264q16 18 73.5 69t80.5 77l-19 819l205 125v-779q101 93 326 205q64 34 145 34q83 0 144 -36q42 -24 77 -59t68 -96.5t48.5 -138.5t10 -191.5t-38.5 -249.5zM483 221h803q0 70 -17.5 125.5t-44.5 89
t-63 55.5t-69 30.5t-66 8.5q-99 0 -216 -64t-327 -245z" />
    <glyph glyph-name="zahfinal" unicode="&#x638;" horiz-adv-x="1562" arabic-form="final" 
d="M1562 221v-221h-1479l-72 221h389q84 88 121 129l-18 836l204 125v-779q153 145 275 205q64 34 145 34q83 0 144 -36q43 -24 80.5 -62.5t71.5 -98.5t48.5 -151t3.5 -202h87zM574 221h754q0 70 -17.5 125.5t-44.5 89t-63 55.5t-69 30.5t-66 8.5q-90 0 -178.5 -56.5
t-315.5 -252.5zM1089 1283l174 -175l-174 -174l-175 174z" />
    <glyph glyph-name="zahinitial" unicode="&#x638;" horiz-adv-x="1377" arabic-form="initial" 
d="M872 1283l174 -175l-174 -174l-175 174zM334 221h802q0 70 -17.5 125.5t-44 89t-62 55.5t-69 30.5t-67.5 8.5q-100 0 -216 -63.5t-326 -245.5zM1245 0h-1245q-52 0 -52 43v133q0 45 52 45h125q15 16 72 68t81 78l-18 819l205 125v-779q106 97 325 205q64 34 145 34
q83 0 144 -36q42 -24 77 -59t68 -96.5t49 -138.5t10.5 -191.5t-38.5 -249.5z" />
    <glyph glyph-name="zahmedial" unicode="&#x638;" horiz-adv-x="1375" arabic-form="medial" 
d="M1005 1108l-172 -174l-174 174l174 175zM336 221h802q0 70 -17.5 125.5t-44 89t-62 55.5t-69 30.5t-67.5 8.5q-100 0 -216 -63.5t-326 -245.5zM1375 221v-221h-1375q-52 0 -52 43v133q0 45 52 45h127q15 16 72 68t81 78l-18 819l205 125v-779q106 97 325 205
q64 34 145 34q83 0 144 -36q43 -25 79.5 -63t70 -98t48.5 -151t5 -202h91z" />
    <glyph glyph-name="ainisolated" unicode="&#x639;" horiz-adv-x="1028" arabic-form="isolated" 
d="M1028 -389l-82 -268q-67 -29 -167.5 -45t-180.5 -19q-110 -2 -203.5 24t-159.5 73.5t-111 113t-64.5 140.5t-15 158.5t33.5 164.5t86 161t137 146q-60 32 -107 113t-51 162q-5 79 28.5 154t95.5 128.5t138.5 84t166.5 22.5t171 -58l37 -127q-104 41 -180.5 38.5t-127 -38
t-75.5 -83t-25 -97.5q2 -63 35 -109.5t97 -64.5q157 74 366 102l-31 -168q-259 -36 -415 -198q-121 -125 -135 -274q-14 -142 77 -232q92 -91 262 -90q70 0 187 25t213 61z" />
    <glyph glyph-name="ainfinal" unicode="&#x639;" horiz-adv-x="1100" arabic-form="final" 
d="M1052 -387l-86 -279q-145 -46 -305 -51q-129 -3 -232.5 20.5t-172 66t-114 102.5t-65.5 127.5t-20 144.5q4 151 93 282.5t239 227.5q-58 87 -123 170q-74 92 -127 128t-111 32l80 190q218 52 420 47q436 0 436 -237q0 -101 -80 -196t-215 -167h431v-221h-345
q-122 0 -181 23.5t-97 78.5q-197 -149 -197 -321q0 -108 98 -177t306 -69q103 3 219.5 32t148.5 46zM496 411q34 -49 44 -65q47 28 76 47t61.5 45.5t48 53t15.5 53.5q0 78 -217 82q-82 0 -223 -13q75 -41 141 -127q34 -45 54 -76z" />
    <glyph glyph-name="aininitial" unicode="&#x639;" horiz-adv-x="1115" arabic-form="initial" 
d="M1028 221v-221h-1028q-52 0 -52 43v133q0 45 52 45h303q-75 37 -113 128.5t-20 189.5q14 72 58.5 129.5t108 93.5t144.5 52t165 9t172 -40t163 -91l-41 -153q-198 135 -359 100q-104 -23 -151 -106q-46 -81 -10 -163q44 -99 187 -134q62 -15 138 -15h283z" />
    <glyph glyph-name="ainmedial" unicode="&#x639;" horiz-adv-x="1119" arabic-form="medial" 
d="M599 398q37 -53 51 -74q74 71 113 104q67 64 67 117q0 78 -213 82q-76 0 -223 -13q38 -21 76 -55.5t65 -71.5q32 -41 64 -89zM1119 221v-221h-379q-30 0 -52 11t-40 30t-23 22q-4 -2 -18.5 -14.5t-27 -22t-33.5 -18t-41 -8.5h-505q-52 0 -52 43v133q0 45 52 45h507
q-72 110 -148 203q-52 64 -121 114.5t-120 43.5l-76 -11l125 195q228 60 456 55q435 0 435 -237q0 -93 -74 -191t-168 -172h303z" />
    <glyph glyph-name="ghainisolated" unicode="&#x63a;" horiz-adv-x="1027" arabic-form="isolated" 
d="M632 1246l-172 -175l-175 175l175 174zM1027 -389l-82 -268q-67 -29 -167.5 -45t-180.5 -19q-110 -2 -203.5 24t-159.5 73.5t-111 113t-64.5 140.5t-15 158.5t33.5 164.5t86 161t137 146q-60 32 -107 113t-51 162q-5 79 28.5 154t95.5 128.5t138.5 84t166.5 22.5t171 -58
l37 -127q-104 41 -180.5 38.5t-127 -38t-75.5 -83t-25 -97.5q2 -63 35 -109.5t97 -64.5q157 74 366 102l-31 -168q-259 -36 -415 -198q-121 -125 -135 -274q-14 -142 77 -232q92 -91 262 -90q70 0 187 25t213 61z" />
    <glyph glyph-name="ghainfinal" unicode="&#x63a;" horiz-adv-x="1108" arabic-form="final" 
d="M550 1318l173 -175l-173 -172l-174 172zM1053 -387l-86 -279q-145 -46 -305 -51q-129 -3 -232.5 20.5t-172 66t-114 102.5t-65.5 127.5t-20 144.5q4 151 93 282.5t239 227.5q-58 87 -123 170q-74 92 -127 128t-111 32l80 190q218 52 420 47q436 0 436 -237
q0 -101 -80 -196t-215 -167h438v-221h-352q-122 0 -181 23.5t-97 78.5q-197 -149 -197 -321q0 -108 98 -177t306 -69q103 3 219.5 32t148.5 46zM497 411q34 -49 44 -65q47 28 76 47t61.5 45.5t48 53t15.5 53.5q0 78 -217 82q-82 0 -223 -13q75 -41 141 -127q34 -45 54 -76z
" />
    <glyph glyph-name="ghaininitial" unicode="&#x63a;" horiz-adv-x="1115" arabic-form="initial" 
d="M755 1166l-174 -175l-172 175l172 174zM1028 221v-221h-1028q-52 0 -52 43v133q0 45 52 45h303q-75 37 -113 128.5t-20 189.5q14 72 58.5 129.5t108 93.5t144.5 52t165 9t172 -40t163 -91l-41 -153q-198 135 -359 100q-104 -23 -151 -106q-46 -81 -10 -163
q44 -99 187 -134q62 -15 138 -15h283z" />
    <glyph glyph-name="ghainmedial" unicode="&#x63a;" horiz-adv-x="1107" arabic-form="medial" 
d="M611 1318l174 -175l-174 -174l-172 174zM600 398q37 -53 51 -74q74 71 113 104q67 64 67 117q0 78 -213 82q-76 0 -223 -13q38 -21 76 -55.5t65 -71.5q32 -41 64 -89zM1107 221v-221h-366q-30 0 -52 11t-40 30t-23 22q-4 -2 -18.5 -14.5t-27 -22t-33.5 -18t-41 -8.5h-506
q-52 0 -52 43v133q0 45 52 45h508q-72 110 -148 203q-52 64 -121 114.5t-120 43.5l-76 -11l125 195q228 60 456 55q435 0 435 -237q0 -93 -74 -191t-168 -172h290z" />
    <glyph glyph-name="fehisolated" unicode="&#x641;" horiz-adv-x="1907" arabic-form="isolated" 
d="M1376 1488l174 -175l-174 -172l-174 172zM426 221h1224q-13 83 -28 152q-103 -23 -189 -33t-142 -7.5t-99.5 13.5t-67 25t-38.5 32t-19.5 31t-5.5 25q-3 101 16.5 191t53.5 155t78 113.5t89.5 74.5t87.5 31q94 13 174.5 -56t133.5 -193t85.5 -278.5t38.5 -318.5
q5 -98 -6 -178h-1448q-54 0 -107 17t-101.5 51.5t-78.5 98.5t-30 148q0 165 81 302.5t197 224.5l66 -72q-47 -49 -86 -119t-56.5 -144t-11.5 -138.5t54 -106t135 -41.5zM1426 546q60 4 143 21q-85 236 -185 236q-34 0 -66 -21.5t-52.5 -53t-35.5 -63.5t-20.5 -55.5
t-1.5 -27.5q56 -49 218 -36z" />
    <glyph glyph-name="fehfinal" unicode="&#x641;" horiz-adv-x="1915" arabic-form="final" 
d="M1387 1488l175 -175l-175 -172l-172 172zM1915 221v-221h-1545q-42 0 -84 10t-84.5 33.5t-75 58.5t-53 90t-20.5 123q0 166 80 308.5t192 224.5l74 -72q-47 -49 -86 -119.5t-57 -145.5t-12 -140.5t53.5 -107.5t134.5 -42h1225q-19 110 -29 152q-103 -23 -188 -32.5
t-141.5 -7.5t-100 12.5t-67 25t-38.5 32.5t-19.5 31t-4.5 25q-4 101 15.5 191t53.5 155t77.5 113.5t89 74.5t87.5 31q73 10 139 -29.5t115.5 -117t87.5 -183t60 -226t28 -247.5h93zM1434 546q60 4 141 21q-85 236 -185 236q-54 0 -99.5 -53t-65 -106.5t-11.5 -61.5
q57 -50 220 -36z" />
    <glyph glyph-name="fehinitial" unicode="&#x641;" horiz-adv-x="1024" arabic-form="initial" 
d="M478 1488l175 -175l-175 -172l-174 172zM542 546q60 4 141 21q-38 110 -85.5 173t-97.5 63q-34 0 -65.5 -21.5t-52.5 -52.5t-36 -63.5t-20.5 -56t-1.5 -27.5q56 -49 218 -36zM0 221h767q-16 94 -29 152q-103 -23 -188 -32.5t-141.5 -7.5t-100 12.5t-67 25t-38.5 32.5
t-19.5 31t-4.5 25q-4 122 26 229t79.5 176.5t107 111.5t110.5 48q94 13 174.5 -56t134 -193t86 -278.5t38.5 -318.5q3 -69 -7 -178h-928q-52 0 -52 43v133q0 45 52 45z" />
    <glyph glyph-name="fehmedial" unicode="&#x641;" horiz-adv-x="1034" arabic-form="medial" 
d="M469 1488l174 -175l-174 -172l-172 172zM532 546q60 4 143 21q-85 236 -185 236q-34 0 -66 -21.5t-52.5 -53t-35.5 -63.5t-20.5 -55.5t-1.5 -27.5q56 -49 218 -36zM1034 221v-221h-1034q-52 0 -52 43v133q0 45 52 45h756q-13 83 -28 152q-103 -23 -188 -32.5t-141.5 -7.5
t-100 12.5t-67 25t-38.5 32.5t-19.5 31t-4.5 25q-5 123 25.5 230.5t80.5 176.5t107 110.5t110 47.5q73 10 139 -29.5t115.5 -117t87.5 -183t60 -226t28 -247.5h112z" />
    <glyph glyph-name="qafisolated" unicode="&#x642;" horiz-adv-x="1303" arabic-form="isolated" 
d="M802 1084l-172 -175l-174 175l174 174zM1188 1084l-174 -175l-173 175l173 174zM579 -360v-2q118 0 229.5 66t183 173t81.5 223q-89 -4 -159 -6t-123 5.5t-91 14.5t-64 22t-41.5 28t-24 32t-11 34t-2.5 34q0 123 28 226t73 166t97.5 97.5t104.5 34.5q123 0 214 -125
t124.5 -316t1.5 -384q-13 -71 -45.5 -147t-91 -154.5t-132.5 -140t-178 -100.5t-219 -39q-98 0 -179.5 32.5t-137 88t-94 129.5t-54.5 156t-14.5 170t22 169t60 154t94.5 125l68 -80q-92 -139 -92 -285q-2 -110 41.5 -200t130 -145.5t200.5 -55.5zM906 303q62 -4 153 2
q-28 108 -88 179.5t-113 80.5q-41 8 -78 -18t-58 -64t-32 -72t-6 -42q15 -24 71.5 -42t150.5 -24z" />
    <glyph glyph-name="qaffinal" unicode="&#x642;" horiz-adv-x="1340" arabic-form="final" 
d="M839 1084l-173 -175l-174 175l174 174zM1224 1084l-174 -175l-173 175l173 174zM1340 221v-221h-11q-39 0 -125 6q-2 -7 -3 -21.5t-3 -21.5q-13 -71 -45.5 -147t-91 -154.5t-132.5 -140t-178 -100.5t-219 -39q-98 0 -179.5 32.5t-137 88t-94 129.5t-54.5 156t-14.5 170
t22 169t60 154t94.5 125l68 -80q-92 -139 -92 -285q-1 -82 24.5 -155.5t72.5 -130t119.5 -89.5t159.5 -33v-2q155 0 283 113t172 268q-136 10 -232 26.5t-148.5 33.5t-81 42t-35.5 45.5t-7 51.5q0 99 21 191.5t55 161t76.5 120t87.5 78t86 26.5q96 0 174 -79.5t123 -207.5
t55 -280h130zM885 256q63 -9 161 -18q-19 148 -75.5 232.5t-114.5 94.5q-38 8 -73 -18.5t-57 -67.5t-35 -78t-13 -53q0 -27 9 -37q28 -32 198 -55z" />
    <glyph glyph-name="qafinitial" unicode="&#x642;" horiz-adv-x="1032" arabic-form="initial" 
d="M549 547q52 4 141 22q-38 111 -85 173.5t-97 62.5q-55 0 -101 -53t-65 -106.5t-11 -61.5q57 -50 218 -37zM277 1490l175 -175l-175 -174l-174 174zM663 1490l174 -175l-174 -174l-174 174zM0 221h774q-11 76 -29 154q-103 -23 -188.5 -32.5t-141.5 -7.5t-99.5 13t-67 25
t-39 32t-20 31t-5.5 25q-4 122 26.5 229t81 176t107.5 111t111 49q93 13 173.5 -56t134 -193t86 -278.5t38.5 -318.5q3 -98 -6 -180h-936q-52 0 -52 43v133q0 45 52 45z" />
    <glyph glyph-name="qafmedial" unicode="&#x642;" horiz-adv-x="980" arabic-form="medial" 
d="M494 547q52 4 141 22q-84 236 -183 236q-34 0 -65.5 -21.5t-52.5 -52.5t-36 -63.5t-20.5 -56t-1.5 -27.5q57 -50 218 -37zM228 1490l175 -175l-175 -174l-174 174zM786 1315l-172 -174l-175 174l175 175zM980 221v-221h-980q-52 0 -52 43v133q0 45 52 45h719
q-17 102 -29 154q-103 -23 -188.5 -32.5t-141.5 -7.5t-99.5 13t-67 25t-39 32t-20 31t-5.5 25q-4 123 26.5 230t81 176t107.5 110.5t110 48.5q73 10 139 -30t115.5 -118t87.5 -183.5t60 -226.5t28 -247h96z" />
    <glyph glyph-name="kafisolated" unicode="&#x643;" horiz-adv-x="1787" arabic-form="isolated" 
d="M1700 1311v-1311h-1323q-54 0 -106.5 17t-101 52t-78.5 99.5t-30 148.5q0 165 77.5 297.5t193.5 216.5l18 -71q-47 -48 -80.5 -117t-43 -142t4.5 -136t67.5 -103.5t141.5 -40.5h1047v961zM1140 901l-53 -164q-172 -44 -289 -132q-51 -39 -79 -77l-2 33q4 101 79 176
q-47 6 -70.5 37t-23.5 76q0 61 37.5 128.5t100.5 114t128 44.5q44 -3 80 -23l-14 -147q-32 15 -71 15q-57 0 -111.5 -34t-83.5 -92q34 -25 86 -29q115 -13 286 74z" />
    <glyph glyph-name="arabickaffinal" unicode="&#x643;" horiz-adv-x="1796" arabic-form="final" 
d="M1796 221v-221h-1440q-55 0 -107.5 17t-100.5 52t-77.5 99t-29.5 149q0 165 77.5 297.5t192.5 216.5l18 -71q-39 -40 -68.5 -95.5t-46 -115.5t-13.5 -118.5t23.5 -105t70.5 -75.5t123 -29h1048v961l211 129v-1090h119zM1120 901l-53 -164q-174 -44 -290 -132
q-51 -39 -79 -77l-4 33q5 98 80 176q-92 11 -92 113q0 61 37.5 128.5t100.5 114t128 44.5q43 -3 80 -23l-14 -147q-33 15 -72 15q-57 0 -111.5 -34t-85.5 -92q35 -25 88 -29q116 -13 287 74z" />
    <glyph glyph-name="kafinitial" unicode="&#x643;" horiz-adv-x="1158" arabic-form="initial" 
d="M0 221h796q-49 146 -168 224t-333 102q-77 8 -156 8v211q0 38 9.5 71.5t23 57t36.5 46.5t42 37t47 32l465 290q84 53 136 34.5t52 -85.5v-178q-35 69 -158 -6l-473 -297q164 -17 293 -65.5t214.5 -118.5t141 -164t79.5 -197t24 -223h-1071q-52 0 -52 43v133q0 45 52 45z
" />
    <glyph glyph-name="kafmedial" unicode="&#x643;" horiz-adv-x="1095" arabic-form="medial" 
d="M1095 221v-221h-1095q-52 0 -52 43v133q0 45 52 45h784q-49 146 -168.5 224t-333.5 102q-78 8 -155 8v211q0 48 12.5 86t37.5 67.5t47.5 48t57.5 42.5l467 290q84 53 135.5 34.5t51.5 -85.5v-178q-37 71 -158 -6l-473 -297q165 -18 294 -65.5t215.5 -120.5t140 -162
t79.5 -199h61z" />
    <glyph glyph-name="lamisolated" unicode="&#x644;" horiz-adv-x="1271" arabic-form="isolated" 
d="M1184 1313v-1313q0 -162 -73 -293t-203 -205.5t-292 -74.5q-161 0 -290.5 74.5t-202 205.5t-72.5 293q0 130 47 242t133 194l74 -88q-84 -114 -84 -266q0 -176 107.5 -300t263.5 -124q177 0 278 113.5t101 310.5v1100z" />
    <glyph glyph-name="lamfinal" unicode="&#x644;" horiz-adv-x="1356" arabic-form="final" 
d="M1356 221v-221h-164q0 -162 -73 -293t-203 -205.5t-292 -74.5q-161 0 -290.5 74.5t-202 205.5t-72.5 293q0 129 47.5 241t132.5 195l76 -88q-86 -117 -86 -266q0 -177 108 -300.5t265 -123.5q176 0 276.5 114t100.5 310l2 1100l211 131v-1092h164z" />
    <glyph glyph-name="laminitial" unicode="&#x644;" horiz-adv-x="585" arabic-form="initial" 
d="M498 1311v-1311h-498q-52 0 -52 43v133q0 45 52 45h287v961z" />
    <glyph glyph-name="lammedial" unicode="&#x644;" horiz-adv-x="683" arabic-form="medial" 
d="M683 221v-221h-683q-52 0 -52 43v133q0 45 52 45h298v961l211 129v-1090h174z" />
    <glyph glyph-name="meemisolated" unicode="&#x645;" horiz-adv-x="1135" arabic-form="isolated" 
d="M292 -59v-619l-211 -131v750q0 73 22.5 129.5t58 88t72.5 47t72 15.5h93q8 84 30.5 165.5t58.5 153t90.5 115t117.5 43.5q68 0 128 -41t99.5 -104t69 -139t42.5 -146.5t13 -126.5q0 -112 -55 -222q-26 -50 -56 -89q-85 96 -183.5 133t-225.5 37h-195q-41 0 -41 -59z
M538 221h22q103 0 185 -23t153 -81q5 161 -58.5 251t-131.5 83q-49 -6 -88 -57.5t-82 -172.5z" />
    <glyph glyph-name="meemfinal" unicode="&#x645;" horiz-adv-x="1139" arabic-form="final" 
d="M1139 221v-221h-154q-15 -59 -48 -123q-10 -20 -28 -47q-85 96 -183.5 133t-226.5 37h-194q-41 0 -41 -59v-619l-211 -131v750q0 73 22.5 129.5t58 88t72.5 47t72 15.5h92q11 114 46.5 219.5t102 181.5t148.5 76q59 0 111.5 -31.5t89 -81t65 -114t44.5 -127t22 -123.5
h140zM510 221h22q104 0 186 -23t152 -81q5 160 -59.5 250.5t-130.5 83.5q-49 -6 -88 -57.5t-82 -172.5z" />
    <glyph glyph-name="meeminitial" unicode="&#x645;" horiz-adv-x="1024" arabic-form="initial" 
d="M427 221h22q212 0 336 -104q5 160 -59.5 250.5t-130.5 83.5q-49 -6 -87 -57.5t-81 -172.5zM0 221h285q11 114 46.5 219.5t102 181.5t148.5 76q69 0 129 -41t100.5 -104t69.5 -139t42.5 -146.5t13.5 -126.5q0 -110 -56 -222q-24 -47 -57 -89q-85 96 -182.5 133t-224.5 37
h-417q-52 0 -52 43v133q0 45 52 45z" />
    <glyph glyph-name="meemmedial" unicode="&#x645;" horiz-adv-x="977" arabic-form="medial" 
d="M347 221h22q104 0 186 -23t152 -81q5 161 -58.5 251t-131.5 83q-49 -6 -88 -58t-82 -172zM977 221v-221h-155q-15 -59 -48 -123q-10 -20 -28 -47q-85 96 -182.5 133t-224.5 37h-339q-52 0 -52 43v133q0 45 52 45h208q8 84 31 166t59 152.5t90 114.5t117 44
q59 0 111 -31.5t89 -81t65 -114t44 -127t22 -123.5h141z" />
    <glyph glyph-name="noonisolated" unicode="&#x646;" horiz-adv-x="1302" arabic-form="isolated" 
d="M603 1019l175 -175l-175 -172l-174 172zM857 524l147 213q190 -305 207 -583q4 -55 -9.5 -121t-42.5 -137t-79 -136.5t-113.5 -117.5t-152 -83.5t-187.5 -31.5q-120 0 -217 31.5t-158 80t-104 114.5t-62 127.5t-26 125.5q-11 135 35.5 266t124.5 232l90 -68
q-69 -99 -89.5 -201t4.5 -185t79 -149t134.5 -102.5t170.5 -36.5q149 0 286 105t169 223q-44 182 -207 434z" />
    <glyph glyph-name="noonfinal" unicode="&#x646;" horiz-adv-x="1325" arabic-form="final" 
d="M764 842l-172 -172l-174 172l174 174zM1325 221v-221h-135q-17 -67 -47.5 -132t-80 -128t-112 -110t-147.5 -76t-181 -29q-120 0 -217.5 31.5t-158 80t-103.5 114.5t-62 127.5t-26 125.5q-11 135 35.5 266t124.5 232l90 -68q-69 -99 -89.5 -201t4.5 -185t79 -149
t134.5 -102.5t170.5 -36.5q149 0 286 105t169 223q-44 182 -207 434l147 213q165 -269 201 -514h125z" />
    <glyph glyph-name="nooninitial" unicode="&#x646;" horiz-adv-x="752" arabic-form="initial" 
d="M306 1176l173 -174l-173 -173l-174 173zM0 221h512q-8 27 -17 52t-21.5 52.5t-20 44.5t-25.5 50t-25 45.5t-30.5 53.5t-30.5 54l172 199q75 -151 113 -296.5t38 -262.5q0 -101 -16 -213h-649q-52 0 -52 43v133q0 45 52 45z" />
    <glyph glyph-name="noonmedial" unicode="&#x646;" horiz-adv-x="659" arabic-form="medial" 
d="M262 1195l173 -175l-173 -172l-174 172zM659 221v-221h-659q-52 0 -52 43v133q0 45 52 45h428q-19 61 -48.5 125.5t-50 101t-73.5 127.5l172 199q73 -147 111 -292t40 -261h80z" />
    <glyph glyph-name="hehisolated" unicode="&#x647;" horiz-adv-x="888" arabic-form="isolated" 
d="M136 8q-28 18 -46 49q-19 37 -26 74t-1.5 94t40.5 136t100 176q105 158 256 342q50 -35 84 -60.5t87.5 -75t86.5 -94t58.5 -106t25.5 -123.5q0 -58 -20 -121t-59.5 -121.5t-92 -105.5t-123 -75t-146.5 -28q-160 0 -224 39zM576 272q35 26 61 66q-29 76 -90 139t-150 131
q-23 -28 -38.5 -47.5t-38 -50t-37 -53.5t-29.5 -51t-21 -50t-6 -44t10 -38q37 -58 143.5 -61.5t195.5 59.5z" />
    <glyph glyph-name="hehfinal" unicode="&#x647;" horiz-adv-x="1036" arabic-form="final" 
d="M1036 221v-221h-342q-15 96 -25 139l-81 -155q-67 36 -254 36h-279q-7 53 12 193q9 64 43 143t85.5 155.5t110.5 141.5t125 104.5t124 39.5q36 0 68 -26t58 -75t47.5 -101.5t40.5 -125.5t30.5 -126t25.5 -122h211zM209 250h188q115 0 201 -22q39 -11 59 -23
q-81 340 -176 340q-65 0 -143 -80t-129 -215z" />
    <glyph glyph-name="hehinitial" unicode="&#x647;" horiz-adv-x="1351" arabic-form="initial" 
d="M468 259q19 -10 32 -11q58 -4 100 47.5t50 159.5q3 6 0 27t-8 43.5t-24 40.5t-46 18q-77 0 -126.5 -55.5t-49.5 -129.5q0 -52 21.5 -89t50.5 -51zM800 294q-22 -46 -58 -73q96 0 166 -19t133 -67q28 143 -49.5 272t-204.5 197q66 -90 45 -203q-10 -61 -32 -107zM0 221
h273q-63 59 -63 158q0 107 68.5 197.5t187.5 117.5q-112 76 -127 209l108 47q0 -41 34 -71t91 -51t127.5 -41t148 -48.5t148 -66.5t131.5 -102.5t94 -147.5q30 -74 37 -157t-1.5 -147.5t-30 -133t-37.5 -105t-35 -72.5q-2 2 -3 2t-0.5 -0.5l1.5 -1.5q-2 3 -19.5 24t-31 34
t-40 36t-58.5 37.5t-74.5 30t-100 23.5t-123.5 8h-705q-52 0 -52 43v133q0 45 52 45z" />
    <glyph glyph-name="hehmedial" unicode="&#x647;" horiz-adv-x="1350" arabic-form="medial" 
d="M462 259q19 -10 33 -11q58 -4 100 47.5t50 159.5q3 6 0.5 27t-7.5 43.5t-24 40.5t-47 18q-76 0 -125 -55.5t-49 -129.5q0 -52 20.5 -88.5t48.5 -51.5zM796 294q-20 -45 -57 -73q96 0 164.5 -19t132.5 -67q30 142 -48 271.5t-206 197.5q65 -84 47 -203q-12 -62 -33 -107z
M1350 221v-221h-121q-31 -102 -78 -193l-4 2q-2 0 2 -2q-2 2 -20 24t-31 34t-40.5 35.5t-59 38t-74.5 30.5t-100.5 23.5t-123.5 7.5h-700q-52 0 -52 43v133q0 45 52 45h270q-63 55 -63 158q0 107 68 197.5t186 117.5q-57 39 -88.5 95.5t-38.5 113.5l110 47q0 -41 34 -71
t91 -51t127.5 -41t148 -49t147.5 -66.5t131.5 -102t94.5 -147.5q39 -98 39 -201h93z" />
    <glyph glyph-name="wawisolated" unicode="&#x648;" horiz-adv-x="830" arabic-form="isolated" 
d="M438 -647l-227 192q269 178 348 453q-462 11 -475 160l-2 43q-2 81 20 180t61.5 190.5t104 153t139.5 61.5q74 0 137.5 -58.5t106 -153.5t66.5 -216t24 -247q5 -232 -78 -416q-65 -150 -225 -342zM503 224q58 -2 85 -3q-21 137 -78 227.5t-127 90.5q-48 0 -88.5 -44.5
t-60 -96.5t-19.5 -89q0 -71 288 -85z" />
    <glyph glyph-name="wawfinal" unicode="&#x648;" horiz-adv-x="840" arabic-form="final" 
d="M840 221v-221h-113q-17 -179 -74 -305q-64 -146 -225 -342l-230 192q271 177 351 453q-463 11 -476 160l-2 43q-2 81 20.5 180t62 190.5t104.5 153t139 61.5q88 0 159.5 -80.5t114 -206.5t56.5 -278h113zM491 224q43 -2 84 -3q-18 138 -74.5 228t-130.5 90
q-46 0 -86 -44.5t-59.5 -96.5t-19.5 -89q0 -71 286 -85z" />
    <glyph glyph-name="alefmaksuraisolated" unicode="&#x649;" horiz-adv-x="1359" arabic-form="isolated" 
d="M286 614l91 -86q-67 -91 -98 -186t-26.5 -176t35.5 -153t84.5 -122.5t125 -80t151.5 -29.5q123 0 246.5 73t199.5 179q-10 35 -55 67t-119 58t-124.5 40t-122.5 31q-38 13 -52.5 29t-17.5 51q-2 10 -2 15v16q2 104 65.5 213.5t164 182.5t200.5 73q173 0 143 -293
q-43 80 -133 80q-85 0 -164.5 -49t-105.5 -123q77 -17 156 -44.5t160.5 -68.5t132.5 -98.5t51 -120.5q0 -40 -21.5 -96.5t-59.5 -120t-97.5 -126t-128.5 -112.5t-159 -81t-184 -31q-118 0 -213.5 34t-156 87.5t-102.5 125t-60 140.5t-21 139q-2 153 61 305t156 258z" />
    <glyph glyph-name="alefmaksurafinal" unicode="&#x649;" horiz-adv-x="1491" arabic-form="final" 
d="M1491 221v-221h-17q-103 0 -157 8q-18 -60 -53.5 -122t-96.5 -128t-137.5 -117t-185 -83.5t-230.5 -32.5q-117 0 -213 34t-157.5 88t-103.5 124.5t-60 140.5t-19 139q-2 153 60.5 304t154.5 259l90 -86q-79 -110 -111.5 -224t-17 -208t63 -169.5t127.5 -117.5t176 -42
q175 0 324.5 79.5t228.5 190.5q-154 46 -242 119q-12 7 -26.5 20.5t-32 45.5t-17.5 67v155q108 -114 243 -168.5t355 -54.5h54z" />
    <glyph glyph-name="yehisolated" unicode="&#x64a;" horiz-adv-x="1359" arabic-form="isolated" 
d="M286 614l91 -86q-67 -91 -98 -186t-26.5 -176t35.5 -153t84.5 -122.5t125 -80t151.5 -29.5q123 0 246.5 73t199.5 179q-10 35 -55 67t-119 58t-124.5 40t-122.5 31q-38 13 -52.5 29t-17.5 51q-2 10 -2 15v16q2 104 65.5 213.5t164 182.5t200.5 73q173 0 143 -293
q-43 80 -133 80q-85 0 -164.5 -49t-105.5 -123q77 -17 156 -44.5t160.5 -68.5t132.5 -98.5t51 -120.5q0 -40 -21.5 -96.5t-59.5 -120t-97.5 -126t-128.5 -112.5t-159 -81t-184 -31q-118 0 -213.5 34t-156 87.5t-102.5 125t-60 140.5t-21 139q-2 153 61 305t156 258z
M656 -585l184 -136l-184 -137l-184 137zM1061 -585l186 -136l-186 -137l-183 137z" />
    <glyph glyph-name="yehfinal" unicode="&#x64a;" horiz-adv-x="1486" arabic-form="final" 
d="M1486 221v-221h-12q-103 0 -157 8q-18 -60 -53.5 -122t-96.5 -128t-137.5 -117t-185 -83.5t-230.5 -32.5q-117 0 -213 34t-157.5 88t-103.5 124.5t-60 140.5t-19 139q-2 153 60.5 304t154.5 259l90 -86q-79 -110 -111.5 -224t-17 -208t63 -169.5t127.5 -117.5t176 -42
q175 0 324.5 79.5t228.5 190.5q-154 46 -242 119q-12 7 -26.5 20.5t-32 45.5t-17.5 67v155q108 -114 243 -168.5t355 -54.5h49zM656 -585l184 -136l-184 -137l-184 137zM1061 -585l186 -136l-186 -137l-183 137z" />
    <glyph glyph-name="yehinitial" unicode="&#x64a;" horiz-adv-x="864" arabic-form="initial" 
d="M195 -174l175 -174l-175 -175l-172 175zM755 -348l-174 -175l-173 175l173 174zM0 221h623q-8 27 -17 52t-21.5 52.5t-20 44.5t-25.5 50t-25 45.5t-30.5 53.5t-30.5 54l172 199q152 -303 152 -559q0 -101 -16 -213h-761q-52 0 -52 43v133q0 45 52 45z" />
    <glyph glyph-name="yehmedial" unicode="&#x64a;" horiz-adv-x="728" arabic-form="medial" 
d="M165 -174l175 -174l-175 -175l-172 175zM725 -348l-174 -175l-173 175l173 174zM728 221v-221h-728q-52 0 -52 43v133q0 45 52 45h487q-7 22 -13.5 42t-15.5 42t-15.5 37t-18.5 38.5t-18 35t-21.5 39t-20.5 36.5t-24 41.5t-25 42.5l172 199q147 -292 152 -553h89z" />
    <glyph glyph-name=".notdef" horiz-adv-x="1024" 
d="M896 1450v-1450h-768v1450h768zM256 128h512v1194h-512v-1194z" />
    <glyph glyph-name=".null" 
 />
    <glyph glyph-name="nonmarkingreturn" horiz-adv-x="682" 
 />
    <glyph glyph-name="space" unicode=" " horiz-adv-x="531" 
 />
    <glyph glyph-name="exclam" unicode="!" horiz-adv-x="624" 
d="M427 1728l-51 -1180l-189 -121l-80 1164zM322 -66l-38 -38q-143 143 -213 204q46 40 186 190q22 -29 94 -97.5t119 -109.5q-15 -16 -148 -149z" />
    <glyph glyph-name="quotedbl" unicode="&#x22;" horiz-adv-x="1063" 
d="M246 909v541h209v-541h-209zM608 909v541h209v-541h-209z" />
    <glyph glyph-name="numbersign" unicode="#" horiz-adv-x="1212" 
d="M219 0l62 428h-185v172h207l37 250h-184v172h206l62 428h180l-61 -428h211l61 428h178l-61 -428h184v-172h-209l-35 -250h185v-172h-205l-64 -428h-178l62 428h-213l-62 -428h-178zM729 850h-211l-35 -250h211z" />
    <glyph glyph-name="dollar" unicode="$" horiz-adv-x="1212" 
d="M651 1610v-135h19q107 0 216 -37.5t185 -104.5l-170 -190q-48 51 -114 80.5t-136 29.5v-409l8 -2q60 -16 99 -28t92 -32.5t87.5 -41t72.5 -52t59.5 -68t36 -86t14.5 -108.5q0 -131 -64 -229.5t-168 -152t-237 -67.5v-147h-110v145q-300 -3 -478 183l187 190
q47 -66 124.5 -104.5t166.5 -46.5v432l-11 2q-55 15 -96.5 29t-88.5 34.5t-81.5 43t-67 54t-53 68.5t-33 85.5t-12.5 105.5q0 117 63.5 211t162.5 146.5t217 64.5v137h110zM541 874v375q-78 -13 -131.5 -62.5t-53.5 -123.5q0 -26 4 -47t16 -38t20.5 -27.5t31 -23.5t32.5 -18
t40.5 -18t40.5 -17zM651 596v-399q92 18 151.5 71.5t59.5 139.5q0 20 -5 37.5t-10 30.5t-19 27t-21.5 22t-28.5 19t-28.5 15t-33.5 14t-31.5 11.5t-33.5 11.5z" />
    <glyph glyph-name="percent" unicode="%" horiz-adv-x="1341" 
d="M334 1102q-31 -36 -35 -42q-19 19 -107 113t-106 112q20 18 92 100t84 94q23 -18 97.5 -98t109.5 -120q-10 -12 -32.5 -38.5t-55 -64.5t-47.5 -56zM1107 -13q-31 -36 -35 -42q-141 154 -207 216q14 19 86 100.5t86 100.5q12 -12 60.5 -62t92.5 -94.5t60 -59.5
q-53 -53 -143 -159zM1192 1461l-823 -1559h-263l826 1559h260z" />
    <glyph glyph-name="ampersand" unicode="&#x26;" horiz-adv-x="1518" 
d="M1466 762l-290 -420l313 -342h-318l-153 166q-89 -105 -190.5 -154t-237.5 -49q-97 0 -185 28.5t-157 80.5t-109.5 134.5t-40.5 182.5q0 140 88 247t226 161q-85 93 -125.5 164.5t-40.5 168.5q0 114 59 197t151.5 121.5t205.5 38.5t203 -35.5t148 -115t58 -193.5
q0 -84 -44 -159.5t-105 -125t-140 -90.5l234 -252l162 246h288zM666 1266q-73 0 -123.5 -41.5t-50.5 -104.5q0 -51 37.5 -102t99.5 -109q38 21 67 40t61.5 47t50 62t17.5 72q0 58 -46 97t-113 39zM864 328l-297 323q-45 -27 -73 -46.5t-60.5 -50.5t-48.5 -68.5t-16 -82.5
q0 -94 67.5 -156.5t161.5 -62.5q76 0 136 37.5t130 106.5z" />
    <glyph glyph-name="quotesingle" unicode="'" horiz-adv-x="606" 
d="M199 909v541h209v-541h-209z" />
    <glyph glyph-name="parenleft" unicode="(" horiz-adv-x="704" 
d="M548 -418h-57q-420 465 -420 897v8q0 427 420 869h57q-264 -455 -264 -883q0 -426 264 -891z" />
    <glyph glyph-name="parenright" unicode=")" horiz-adv-x="770" 
d="M234 -418h-57q264 465 264 891q0 428 -264 883h57q420 -442 420 -869v-8q0 -435 -420 -897z" />
    <glyph glyph-name="asterisk" unicode="*" horiz-adv-x="948" 
d="M561 1450v-291l277 90l53 -164l-279 -90l176 -239l-141 -103l-176 242l-172 -236l-137 105l176 231l-281 97l54 163l278 -96v291h172z" />
    <glyph glyph-name="plus" unicode="+" horiz-adv-x="1364" 
d="M127 725h451v451h208v-451h451v-209h-451v-450h-208v450h-451v209z" />
    <glyph glyph-name="comma" unicode="," horiz-adv-x="482" 
d="M288 -72q-6 20 -22 35q-30 38 -80.5 40.5t-85.5 -21.5q28 83 84.5 119.5t114.5 29.5q50 -4 86.5 -40.5t34.5 -90.5q-2 -90 -74 -203t-156 -200q-19 -19 -19 -6q0 7 9 22l12 18q12 18 28.5 47.5t33.5 64t29 74t12 70.5q0 24 -7 41z" />
    <glyph glyph-name="hyphenminus" unicode="-" horiz-adv-x="645" 
d="M575 608v-209h-505v209h505z" />
    <glyph glyph-name="period" unicode="." horiz-adv-x="733" 
d="M423 217q33 -28 44 -39q-22 -22 -112 -104.5t-99 -91.5q-34 25 -114 91t-105 91q17 18 108.5 102.5t108.5 102.5q15 -15 79.5 -72t89.5 -80z" />
    <glyph glyph-name="slash" unicode="/" horiz-adv-x="797" 
d="M791 1487l-639 -1585l-170 61l639 1589z" />
    <glyph glyph-name="zero" unicode="0" horiz-adv-x="555" 
d="M70 440q38 70 154 254q83 -68 254 -194l-153 -253q-26 21 -131 99.5t-124 93.5z" />
    <glyph glyph-name="one" unicode="1" horiz-adv-x="738" 
d="M234 1317l53 104q126 -255 211.5 -522.5t111.5 -510.5q14 -131 -17.5 -262t-89.5 -213q-42 308 -147.5 628t-244.5 559q40 58 123 217z" />
    <glyph glyph-name="two" unicode="2" horiz-adv-x="1028" 
d="M237 1396q91 -81 202 -114.5t234 -7.5t227 118q0 -126 -38 -227q-17 -49 -62 -85t-102.5 -52.5t-123 -22.5t-122.5 6q86 -307 118 -596q16 -152 -9.5 -286t-87.5 -221q-42 308 -147 628t-244 559q79 154 155 301z" />
    <glyph glyph-name="three" unicode="3" horiz-adv-x="1259" 
d="M1069 1223q1 -86 -56.5 -146.5t-134.5 -61.5q-86 -2 -155 56q-26 -42 -71 -64.5t-99 -15.5q78 -292 108 -563q16 -153 -9 -286.5t-87 -220.5q-42 308 -147 628t-244 559q78 153 154 300l-1 1h1l2 -4q43 -61 96 -95.5t106 -38t102.5 38t81.5 127.5q21 -81 65.5 -126
t96.5 -43q57 0 106.5 44t66.5 128q17 -155 18 -217z" />
    <glyph glyph-name="four" unicode="4" horiz-adv-x="1125" 
d="M461 298q0 -39 80 -74.5t202 -52t235 -6.5l-197 -259q-59 -2 -109 2q-252 17 -374 85.5t-122 160.5q0 135 224 356q23 22 38 38t25.5 28t12.5 21.5t3.5 15.5t-7 14t-13.5 12t-21 14t-25 17q-8 5 -35 22.5t-35 23t-31.5 22t-31.5 23.5t-26 22.5t-25 25t-18.5 25t-15.5 29
t-8 30t-4 33.5q0 55 67 128t165 139t200 121t181 85l-29 -189q-75 -25 -155 -63t-122 -63l-43 -26q-41 -25 33 -74l262 -173q22 -14 32.5 -29t13 -26.5t-4.5 -27t-12 -22.5t-18.5 -22.5t-15.5 -17.5q-14 -16 -51 -58.5t-54 -61.5t-46.5 -53.5t-45.5 -54.5t-33 -43t-26 -39
q-20 -32 -20 -58z" />
    <glyph glyph-name="five" unicode="5" horiz-adv-x="1198" 
d="M635 1353q66 0 137 -71t126.5 -183t90 -262t29.5 -295q-8 -157 -44 -262t-108 -171q-93 -86 -213.5 -123t-228.5 -18t-171 87q-40 43 -61.5 107t-25 143t1 149t16.5 157q12 90 55.5 213.5t103.5 243t139.5 202.5t152.5 83zM291 471q0 -60 38.5 -102t93 -58t113.5 -12
q145 11 234.5 86t89.5 140q0 28 -31 104.5t-75.5 160t-101 147.5t-99.5 64q-57 0 -120.5 -100t-102.5 -224.5t-39 -205.5z" />
    <glyph glyph-name="six" unicode="6" horiz-adv-x="1161" 
d="M1037 191q40 -43 0 -99l-161 -207q-47 79 -92 211t-79 296t-46 338t7 337q-93 -30 -177.5 -43.5t-145 -11t-106.5 16t-69.5 34.5t-25.5 46l-33 307q69 -46 163 -71t221 -17.5t246 59.5q17 10 26 1t11.5 -18.5t2.5 -20.5v-10q4 -455 88 -780q64 -253 170 -368z" />
    <glyph glyph-name="seven" unicode="7" horiz-adv-x="1177" 
d="M971 1426l91 -391q-216 -239 -427 -1037q-9 -39 -17.5 -58.5t-14.5 -22.5t-11.5 7.5t-10 24t-9.5 33.5l-3 12l7 -30l-35 148q-48 195 -103.5 353.5t-100 250t-93.5 161t-75.5 95.5t-53.5 46l87 380q80 -69 151 -192.5t120.5 -269t80 -257t53.5 -224.5q21 108 48.5 220.5
t73 265.5t109 283.5t133.5 201.5z" />
    <glyph glyph-name="eight" unicode="8" horiz-adv-x="1163" 
d="M200 -90l-91 391q212 236 427 1037q19 81 34 81q11 0 28 -67q2 -6 3 -10l-7 31l35 -149q48 -198 98.5 -355.5t88.5 -251.5t87 -177t76 -119t74 -91l-79 -315q-65 56 -126 154.5t-104 201.5t-81 226t-60 211t-39 174q-22 -110 -49 -221.5t-73 -265t-109 -284t-133 -201.5z
" />
    <glyph glyph-name="nine" unicode="9" horiz-adv-x="1103" 
d="M1006 214q37 -41 0 -99l-162 -207q-52 88 -96.5 242t-99.5 409q-1 5 -3.5 19t-3.5 22q-12 -11 -20 -15q-73 -51 -164.5 -70.5t-171.5 -3.5t-125 61q-57 57 -57 184q0 118 56.5 264t148.5 253t181 107q110 0 183 -183q48 -119 109 -422q0 -1 11 -55q29 -150 86.5 -290.5
t127.5 -215.5zM387 753q79 1 132.5 26t70.5 55q-72 268 -170 268q-36 0 -79 -49.5t-71.5 -111t-30.5 -99.5q-2 -42 43.5 -65.5t104.5 -23.5z" />
    <glyph glyph-name="colon" unicode=":" horiz-adv-x="677" 
d="M467 662l-172 -175l-195 191l170 176zM469 127l-172 -178l-195 192l170 174z" />
    <glyph glyph-name="semicolon" unicode=";" horiz-adv-x="668" 
d="M318 -179q-13 -14 -31 -32q-124 124 -178 170q45 39 155 158q21 -26 86.5 -89t91.5 -83q-7 -7 -32.5 -33t-49.5 -50t-42 -41zM340 1079h63l-25 -50t-38.5 -82t-36.5 -88.5t-32 -102t-11 -90.5q0 -60 35 -113q27 -37 64.5 -51t74 -7t68.5 31q-35 -124 -105 -179t-141 -46
q-66 11 -114 63t-48 134q0 133 76 298.5t170 282.5z" />
    <glyph glyph-name="less" unicode="&#x3c;" horiz-adv-x="862" 
d="M561 1090l29 -23q87 -87 166 -291q-52 26 -129 81.5t-140 109.5q-63 58 -63 108v15q0 53 82 124q158 102 305 183q-1 -2 -19 -30t-23.5 -36.5t-24 -35.5t-28 -40t-28 -37t-32 -39t-31.5 -33t-35 -32zM205 1090l28 -23q50 -50 96 -135.5t70 -155.5q-54 28 -132.5 84
t-135.5 107q-63 43 -63 108v15q0 56 82 124q209 137 305 183q-1 -2 -17 -26.5t-20.5 -31.5t-20.5 -31t-24.5 -35.5t-24 -33t-27.5 -35t-27.5 -31.5t-30.5 -32t-30 -27z" />
    <glyph glyph-name="equal" unicode="=" horiz-adv-x="1337" 
d="M1156 436v-213h-975v213h975zM1156 927v-215h-975v215h975z" />
    <glyph glyph-name="greater" unicode="&#x3e;" horiz-adv-x="862" 
d="M442 1090v-15q0 -50 -63 -108q-57 -51 -135 -107t-133 -84q29 75 72.5 157.5t92.5 133.5l29 23l-29 24q-86 73 -211 268q-3 3 -4 5t-3 5t-3 5q156 -83 305 -183q82 -68 82 -124zM799 1090v-15q0 -64 -64 -108q-55 -51 -134 -107.5t-134 -83.5q79 204 166 291l29 23
l-29 24q-86 73 -211 268q-3 3 -4 5t-3 5t-3 5q129 -62 305 -183q82 -71 82 -124z" />
    <glyph glyph-name="question" unicode="?" horiz-adv-x="917" 
d="M447 437h-99q1 155 41 257q32 85 134 224q143 194 143 291q0 78 -49.5 123.5t-130.5 45.5q-143 0 -236 -130q-82 -115 -89 -265h-66v302q278 152 498 152q125 0 201 -49q93 -58 93 -175q0 -155 -190 -324q-194 -173 -231 -308q-18 -65 -19 -144zM481 135q-35 -35 -85 -35
t-85 35q-35 37 -35 86q0 50 34 85q34 36 84 36q51 0 86.5 -35t35.5 -86q0 -49 -35 -86z" />
    <glyph glyph-name="at" unicode="@" horiz-adv-x="1877" 
d="M1783 293h54q-95 -277 -333 -443q-239 -167 -530 -167q-246 0 -448 113q-212 119 -318 332q-106 209 -106 454q0 407 269 685q273 282 678 282q315 0 508 -184q198 -187 198 -500q0 -397 -280 -628q-110 -91 -259 -91q-157 0 -157 140q0 42 25 155q-103 -127 -165 -182
q-115 -102 -217 -102q-95 0 -147 70q-47 62 -47 160q0 161 97 330q89 153 225 267q124 103 235 103q129 0 169 -141l31 115l131 19l-139 -469q-74 -252 -74 -316q0 -82 93 -82q183 0 315 241q112 206 112 406q0 290 -183 464q-182 174 -473 174q-250 0 -450 -133
q-197 -131 -303 -357q-111 -237 -111 -481q0 -214 103 -401q106 -194 290 -292q185 -98 400 -98q268 0 492 153q223 151 315 404zM774 264q102 0 218 134q94 109 142 226q63 153 63 262q0 155 -137 155q-152 0 -290 -247q-122 -221 -122 -388q0 -142 126 -142z" />
    <glyph glyph-name="A" unicode="A" horiz-adv-x="1479" 
d="M0 0l631 1450h223l625 -1450h-295l-135 332h-629l-131 -332h-289zM508 553h450l-223 590z" />
    <glyph glyph-name="B" unicode="B" horiz-adv-x="1327" 
d="M162 0v1450h565q86 0 162.5 -20.5t141 -62t102.5 -114.5t38 -168q0 -119 -67.5 -200.5t-183.5 -116.5v-4q137 -16 225 -113.5t88 -236.5q0 -92 -31 -164t-83 -118.5t-124 -76.5t-148.5 -42.5t-162.5 -12.5h-522zM420 1229v-369h235q126 0 192 49t66 133q0 95 -68 141
t-212 46h-213zM420 639v-418h237q47 0 85.5 3.5t84 17t76 35.5t51.5 62t21 95q0 112 -73.5 158.5t-233.5 46.5h-248z" />
    <glyph glyph-name="C" unicode="C" horiz-adv-x="1403" 
d="M1358 1257l-201 -147q-134 143 -305 143q-146 0 -260.5 -69t-176 -187t-61.5 -262q0 -234 138 -386t360 -152q187 0 326 176l213 -152q-95 -131 -235 -194.5t-306 -63.5q-222 0 -396 94t-272 266.5t-98 395.5q0 172 57 316t158 243t243 154t308 55q153 0 278 -54.5
t230 -175.5z" />
    <glyph glyph-name="D" unicode="D" horiz-adv-x="1554" 
d="M162 0v1450h571q116 0 223 -27.5t201 -86.5t163.5 -143t109.5 -204t40 -264q0 -143 -46.5 -265t-123.5 -205t-177 -142t-207 -86t-214 -27h-540zM420 233h192q125 0 229 28t186 85.5t127.5 154t45.5 224.5q0 129 -40 225t-114.5 153.5t-171.5 85.5t-219 28h-235v-984z
" />
    <glyph glyph-name="E" unicode="E" horiz-adv-x="1251" 
d="M162 0v1450h960v-233h-702v-357h665v-233h-665v-394h739v-233h-997z" />
    <glyph glyph-name="F" unicode="F" horiz-adv-x="1176" 
d="M162 0v1450h936v-233h-678v-381h639v-234h-639v-602h-258z" />
    <glyph glyph-name="G" unicode="G" horiz-adv-x="1593" 
d="M1450 848v-742q-268 -143 -600 -143q-222 0 -396 94t-272 266.5t-98 395.5q0 172 57 316t158 243t243 154t308 55q367 0 571 -182l-190 -193q-68 67 -168.5 104t-210.5 37q-146 0 -260.5 -69t-176 -187t-61.5 -262q0 -234 138 -386t360 -152q208 0 340 75v342h-297v234
h555z" />
    <glyph glyph-name="H" unicode="H" horiz-adv-x="1518" 
d="M162 0v1450h258v-578h678v578h258v-1450h-258v639h-678v-639h-258z" />
    <glyph glyph-name="I" unicode="I" horiz-adv-x="569" 
d="M156 0v1450h258v-1450h-258z" />
    <glyph glyph-name="J" unicode="J" horiz-adv-x="1024" 
d="M872 1450v-1049q0 -88 -28 -166t-80.5 -139.5t-137 -97t-190.5 -35.5q-174 0 -283.5 83t-142.5 251l242 57q12 -71 58.5 -114t113.5 -43q105 0 147.5 70.5t42.5 209.5v973h258z" />
    <glyph glyph-name="K" unicode="K" horiz-adv-x="1403" 
d="M162 0v1450h258v-614h12l600 614h348l-678 -670l723 -780h-362l-629 713h-14v-713h-258z" />
    <glyph glyph-name="L" unicode="L" horiz-adv-x="1063" 
d="M162 0v1450h258v-1217h616v-233h-874z" />
    <glyph glyph-name="M" unicode="M" horiz-adv-x="1896" 
d="M168 0v1450h393l387 -1016l391 1016h390v-1450h-246v1204h-4l-441 -1204h-180l-440 1204h-4v-1204h-246z" />
    <glyph glyph-name="N" unicode="N" horiz-adv-x="1630" 
d="M162 0v1450h342l702 -1077l4 -4h-4l4 4v1077h258v-1450h-327l-717 1112h-4v-1112h-258z" />
    <glyph glyph-name="O" unicode="O" horiz-adv-x="1706" 
d="M84 719q0 172 57 316t158 243t243 154t308 55q168 3 311.5 -50.5t245 -152t158.5 -242t57 -315.5q0 -223 -98 -396t-273.5 -268.5t-400.5 -99.5q-222 0 -396 94t-272 266.5t-98 395.5zM354 735q0 -234 138 -386t360 -152q223 0 361.5 152t138.5 386q0 144 -61.5 262
t-176.5 187t-262 69q-146 0 -260.5 -69t-176 -187t-61.5 -262z" />
    <glyph glyph-name="P" unicode="P" horiz-adv-x="1251" 
d="M162 0v1450h487q88 0 164 -12.5t145.5 -43t118.5 -77.5t78 -120t29 -167q0 -106 -32 -184.5t-83 -124.5t-129 -74t-157 -37.5t-179 -9.5h-184v-600h-258zM420 821h155q39 0 66 1t65 5.5t64.5 12t55.5 23t46.5 36.5t29 53.5t11.5 73.5q0 63 -27.5 106t-76.5 63t-96.5 27
t-108.5 7h-184v-408z" />
    <glyph glyph-name="Q" unicode="Q" horiz-adv-x="1745" 
d="M1718 209v-209h-844q-168 0 -313 52.5t-251 148.5t-166 239t-60 316q0 156 61 293t164.5 232.5t243 150.5t293.5 55t293.5 -55t243 -150.5t164.5 -232.5t61 -293q0 -87 -19 -165t-48 -134.5t-71 -105t-82 -80.5t-85 -58v-4h415zM840 1253q-210 0 -348 -143.5t-138 -359.5
q0 -223 139 -370t351 -147q214 0 353.5 147t139.5 370q0 218 -139.5 360.5t-357.5 142.5z" />
    <glyph glyph-name="R" unicode="R" horiz-adv-x="1290" 
d="M162 0v1450h504q88 0 163.5 -11.5t146.5 -41t120.5 -75.5t79.5 -119.5t30 -168.5q0 -159 -88.5 -264.5t-247.5 -128.5l385 -641h-311l-336 614h-188v-614h-258zM420 836h201q43 0 74 2t71 8t67.5 19.5t52.5 35t37.5 56t12.5 79.5q0 50 -18.5 86t-46 56.5t-68.5 32
t-77.5 15t-82.5 3.5h-223v-393z" />
    <glyph glyph-name="S" unicode="S" horiz-adv-x="1176" 
d="M1061 1337l-189 -198q-40 56 -107.5 85t-146.5 29q-99 0 -168 -46.5t-69 -139.5q0 -46 23.5 -81t63.5 -58t91.5 -41.5t108.5 -37t114 -39.5t108.5 -53.5t91.5 -75t63.5 -107.5t23.5 -148q0 -91 -28 -167.5t-77 -130.5t-116 -91.5t-145 -55.5t-164 -18q-311 0 -476 197
l195 188q48 -71 124 -111t163 -40q99 0 176.5 52.5t77.5 145.5q0 51 -23.5 89t-63.5 62.5t-91.5 44t-108.5 37.5t-114 39t-108.5 53t-91.5 73.5t-63.5 107t-23.5 148.5q0 108 45.5 194t121.5 138t170 79t197 27q258 0 416 -150z" />
    <glyph glyph-name="T" unicode="T" horiz-adv-x="1176" 
d="M459 0v1217h-445v233h1147v-233h-444v-1217h-258z" />
    <glyph glyph-name="U" unicode="U" horiz-adv-x="1479" 
d="M1323 1450v-918q0 -171 -77 -301.5t-209 -199t-298 -68.5t-297.5 68.5t-208.5 199t-77 301.5v918h258v-909q0 -46 10 -90t34 -88.5t60 -78t93 -54.5t128 -21t128.5 21t93.5 54.5t60 78t34 88.5t10 90v909h258z" />
    <glyph glyph-name="V" unicode="V" horiz-adv-x="1366" 
d="M563 0l-569 1450h297l395 -1096l408 1096h278l-586 -1450h-223z" />
    <glyph glyph-name="W" unicode="W" horiz-adv-x="2009" 
d="M428 0l-428 1450h283l272 -1044h4l326 1044h254l319 -1044h4l285 1044h262l-422 -1450h-246l-335 1104h-5l-335 -1104h-238z" />
    <glyph glyph-name="X" unicode="X" horiz-adv-x="1403" 
d="M0 0l516 758l-483 692h325l342 -537l338 537h314l-475 -692l526 -758h-328l-383 612l-381 -612h-311z" />
    <glyph glyph-name="Y" unicode="Y" horiz-adv-x="1290" 
d="M516 0v621l-545 829h324l356 -578l361 578h307l-545 -829v-621h-258z" />
    <glyph glyph-name="Z" unicode="Z" horiz-adv-x="1251" 
d="M72 0v233l774 984h-762v233h1083v-233l-780 -984h793v-233h-1108z" />
    <glyph glyph-name="bracketleft" unicode="[" horiz-adv-x="569" 
d="M528 1499v-160h-184v-1499h184v-159h-393v1818h393z" />
    <glyph glyph-name="backslash" unicode="\" horiz-adv-x="797" 
d="M6 1487l170 65l639 -1589l-170 -61z" />
    <glyph glyph-name="bracketright" unicode="]" horiz-adv-x="569" 
d="M41 -319v159h184v750v749h-184v160h393v-1818h-393z" />
    <glyph glyph-name="asciicircum" unicode="^" horiz-adv-x="960" 
d="M498 1408l425 -717h-92l-350 586l-350 -586h-94l431 717h30z" />
    <glyph glyph-name="underscore" unicode="_" horiz-adv-x="1024" 
d="M1036 -154v-102h-1048v102h1048z" />
    <glyph glyph-name="grave" unicode="`" horiz-adv-x="683" 
d="M295 1445l114 -231l-36 -21l-139 156q-66 73 -66 97q0 62 60 62q36 0 67 -63z" />
    <glyph glyph-name="a" unicode="a" horiz-adv-x="1100" 
d="M754 0v135h-6q-102 -160 -316 -160q-94 0 -173.5 32.5t-132 101t-52.5 161.5q0 66 22 119.5t56.5 88.5t88 61t104.5 39.5t118 21.5t116.5 10t112.5 2h62v27q0 88 -62 136t-164 48q-152 0 -262 -102l-129 129q155 158 418 158q87 0 155.5 -18t111.5 -44t74 -69.5t46 -77.5
t23 -86t9 -78.5t1 -69.5v-565h-221zM739 385v55h-51q-369 0 -369 -151q0 -63 52.5 -96t120.5 -33q122 0 184.5 59.5t62.5 165.5z" />
    <glyph glyph-name="b" unicode="b" horiz-adv-x="1290" 
d="M139 0v1548h246v-690h6q120 150 334 150q208 0 341.5 -148t133.5 -368q0 -146 -57 -262.5t-168.5 -185.5t-259.5 -69q-107 0 -196.5 43t-141.5 129h-4v-147h-234zM954 492q0 120 -79 207t-209 87q-131 0 -210 -87t-79 -207q0 -121 79 -208t210 -87q130 0 209 87t79 208z
" />
    <glyph glyph-name="c" unicode="c" horiz-adv-x="987" 
d="M981 858l-170 -170q-93 98 -186 98q-131 0 -210 -87t-79 -207q0 -121 79 -208t210 -87q121 0 190 92l164 -176q-68 -69 -171.5 -103.5t-182.5 -34.5q-148 0 -269.5 64t-193.5 183t-72 270t72 270t193.5 182.5t269.5 63.5q100 0 194.5 -37.5t161.5 -112.5z" />
    <glyph glyph-name="d" unicode="d" horiz-adv-x="1290" 
d="M918 0v147h-5q-51 -86 -140.5 -129t-197.5 -43q-148 0 -259.5 69t-168.5 185.5t-57 262.5q0 144 59.5 261.5t169 186t246.5 68.5q214 0 334 -150h6v690h246v-1548h-233zM336 492q0 -121 79 -208t210 -87q130 0 209 87t79 208q0 120 -79 207t-209 87q-131 0 -210 -87
t-79 -207z" />
    <glyph glyph-name="e" unicode="e" horiz-adv-x="1176" 
d="M1085 406h-749q12 -107 85.5 -170.5t178.5 -63.5q157 0 264 133l176 -133q-159 -197 -415 -197q-148 0 -269.5 64t-193.5 183t-72 270t72 270t193.5 182.5t269.5 63.5q209 0 334.5 -141.5t125.5 -393.5v-67zM336 590h504q-2 108 -69 170.5t-181 62.5q-108 0 -174 -62.5
t-80 -170.5z" />
    <glyph glyph-name="f" unicode="f" horiz-adv-x="721" 
d="M227 0v774h-202v209h202v139q0 87 9 152t32.5 124t64 95.5t106 58t155.5 21.5q83 0 156 -14l-17 -209q-61 14 -102 14q-49 0 -82 -15.5t-48.5 -46t-21.5 -63t-6 -78.5v-178h227v-209h-227v-774h-246z" />
    <glyph glyph-name="g" unicode="g" horiz-adv-x="1290" 
d="M918 983h233v-895q0 -274 -138 -427t-417 -153q-304 0 -487 162l147 201q77 -70 158 -105.5t180 -35.5q168 0 239.5 86t71.5 243v72h-4q-52 -69 -138.5 -106t-182.5 -37q-144 0 -257 68t-173 182.5t-60 253.5q0 223 131.5 369.5t353.5 146.5q108 0 197.5 -43t140.5 -129
h5v147zM627 786q-129 0 -210 -81t-81 -211q0 -118 83 -201.5t206 -83.5q134 0 213.5 81.5t79.5 207.5q0 129 -79.5 208.5t-211.5 79.5z" />
    <glyph glyph-name="h" unicode="h" horiz-adv-x="1176" 
d="M385 1548v-702h4q32 68 107 115t182 47q95 0 166.5 -32t112 -87.5t60 -122.5t19.5 -145v-621h-245v498q0 41 -2 72t-12.5 75t-28.5 72t-53.5 48.5t-84.5 20.5q-114 0 -169.5 -71t-55.5 -178v-537h-246v1548h246z" />
    <glyph glyph-name="i" unicode="i" horiz-adv-x="532" 
d="M143 0v983h246v-983h-246zM109 1317q0 60 44.5 103.5t110.5 43.5q68 0 114 -42t46 -105t-46 -105.5t-114 -42.5q-66 0 -110.5 44t-44.5 104z" />
    <glyph glyph-name="j" unicode="j" horiz-adv-x="532" 
d="M143 983h246v-1042q0 -80 -7.5 -140t-28.5 -118t-57.5 -94.5t-96.5 -58.5t-142 -22q-75 0 -133 19l19 213q43 -10 77 -10q30 0 52 8.5t35 26.5t20.5 34.5t11 45.5t4 46t0.5 48v1044zM109 1317q0 60 44.5 103.5t110.5 43.5q68 0 114 -42t46 -105t-46 -105.5t-114 -42.5
q-66 0 -110.5 44t-44.5 104z" />
    <glyph glyph-name="k" unicode="k" horiz-adv-x="1100" 
d="M139 0v1548h246v-973l379 408h315l-422 -446l449 -537h-326l-391 502h-4v-502h-246z" />
    <glyph glyph-name="l" unicode="l" horiz-adv-x="532" 
d="M143 0v1548h246v-1548h-246z" />
    <glyph glyph-name="m" unicode="m" horiz-adv-x="1782" 
d="M129 0v983h233v-154h5q36 78 111.5 128.5t189.5 50.5q231 0 307 -183q105 183 323 183q96 0 166 -32.5t110.5 -91t59.5 -132.5t19 -166v-586h-246v557q0 229 -182 229q-107 0 -159 -73.5t-52 -180.5v-532h-246v586q0 200 -168 200q-114 0 -169.5 -70.5t-55.5 -178.5v-537
h-246z" />
    <glyph glyph-name="n" unicode="n" horiz-adv-x="1176" 
d="M139 0v983h234v-158h4q37 82 111.5 132.5t189.5 50.5q95 0 166.5 -32t112 -87.5t60 -122.5t19.5 -145v-621h-245v498q0 41 -2 72t-12.5 75t-28.5 72t-53.5 48.5t-84.5 20.5q-114 0 -169.5 -71t-55.5 -178v-537h-246z" />
    <glyph glyph-name="o" unicode="o" horiz-adv-x="1249" 
d="M90 492q0 151 72 270t193.5 182.5t269.5 63.5t269.5 -64t193 -182.5t71.5 -269.5t-71.5 -270t-193 -183t-269.5 -64t-269.5 64t-193.5 183t-72 270zM336 492q0 -121 79 -208t210 -87q130 0 209 87t79 208q0 120 -79 207t-209 87q-131 0 -210 -87t-79 -207z" />
    <glyph glyph-name="p" unicode="p" horiz-adv-x="1290" 
d="M139 -467v1450h234v-147h4q52 86 141.5 129t196.5 43q222 0 353.5 -146.5t131.5 -369.5q0 -221 -133.5 -369t-341.5 -148q-214 0 -334 150h-6v-592h-246zM954 492q0 120 -79 207t-209 87q-131 0 -210 -87t-79 -207q0 -121 79 -208t210 -87q130 0 209 87t79 208z" />
    <glyph glyph-name="q" unicode="q" horiz-adv-x="1290" 
d="M1151 983v-1450h-246v592h-6q-120 -150 -334 -150q-137 0 -246.5 68.5t-169 186t-59.5 262.5q0 223 131.5 369.5t353.5 146.5q108 0 197.5 -43t140.5 -129h5v147h233zM336 492q0 -121 79 -208t210 -87q130 0 209 87t79 208q0 120 -79 207t-209 87q-131 0 -210 -87
t-79 -207z" />
    <glyph glyph-name="r" unicode="r" horiz-adv-x="797" 
d="M139 0v983h246v-156h4q40 85 117 133t174 48q34 0 88 -15v-237q-74 18 -119 18q-65 0 -115.5 -21t-77.5 -50.5t-44 -66.5t-22 -63t-5 -47v-526h-246z" />
    <glyph glyph-name="s" unicode="s" horiz-adv-x="909" 
d="M827 858l-163 -147q-74 100 -193 100q-56 0 -99.5 -26.5t-43.5 -77.5q0 -31 23 -53t60 -33t84.5 -22.5t97.5 -22t97.5 -32.5t84.5 -51.5t60 -81t23 -120.5q0 -84 -37.5 -147.5t-100 -99t-134.5 -52.5t-152 -17q-247 0 -383 152l164 154q55 -60 108 -90.5t126 -30.5
q61 0 112 29.5t51 82.5q0 36 -23 61t-60 37t-84.5 24.5t-97.5 22t-97.5 30t-84.5 48.5t-60 78t-23 117q0 79 33.5 141.5t90 100t126 57t145.5 19.5q107 0 200.5 -36.5t149.5 -113.5z" />
    <glyph glyph-name="t" unicode="t" horiz-adv-x="797" 
d="M227 774h-202v209h202v285h246v-285h270v-209h-270v-430q0 -79 30 -119.5t107 -40.5q91 0 133 31v-207q-70 -33 -194 -33q-96 0 -159.5 21t-99 67t-49.5 107.5t-14 153.5v450z" />
    <glyph glyph-name="u" unicode="u" horiz-adv-x="1176" 
d="M1036 983v-983h-233v158h-4q-37 -82 -111.5 -132.5t-189.5 -50.5q-96 0 -167.5 32t-112 87.5t-60 122.5t-19.5 145v621h246v-498q0 -34 1.5 -59.5t6.5 -62.5t17.5 -63.5t31.5 -51.5t50.5 -38t72.5 -13q114 0 170 70.5t56 178.5v537h245z" />
    <glyph glyph-name="v" unicode="v" horiz-adv-x="1063" 
d="M408 0l-402 983h268l263 -688h4l264 688h252l-387 -983h-262z" />
    <glyph glyph-name="w" unicode="w" horiz-adv-x="1630" 
d="M348 0l-342 983h266l213 -688h4l199 688h266l213 -688h4l205 688h248l-334 -983h-243l-234 672h-4l-207 -672h-254z" />
    <glyph glyph-name="x" unicode="x" horiz-adv-x="1100" 
d="M-2 0l395 528l-340 455h299l197 -295l213 295h280l-335 -455l395 -528h-299l-256 352l-258 -352h-291z" />
    <glyph glyph-name="y" unicode="y" horiz-adv-x="1063" 
d="M426 -8l-420 991h270l275 -682h4l246 682h256l-465 -1194q-29 -73 -59 -122t-73.5 -86.5t-103 -55t-139.5 -17.5q-93 0 -188 25l30 221q67 -24 125 -24q86 0 124 31.5t71 113.5z" />
    <glyph glyph-name="z" unicode="z" horiz-adv-x="987" 
d="M70 0v227l526 555v4h-502v197h799v-223l-533 -563h558v-197h-848z" />
    <glyph glyph-name="braceleft" unicode="{" horiz-adv-x="569" 
d="M0 500v180q25 0 54.5 6.5t62.5 21t54.5 44.5t21.5 71v406q0 65 28 119t70 85.5t85.5 48.5t78.5 17h186v-172h-113q-33 0 -57.5 -9.5t-37.5 -23.5t-20.5 -34.5t-9.5 -37.5t-2 -38v-385q-1 -46 -16 -82t-36.5 -57.5t-50 -37t-51.5 -21.5t-46 -9v-4q21 -2 38 -5.5t42 -11.5
t44 -23.5t37 -38t28.5 -59t10.5 -81.5v-373q0 -21 2 -38t9.5 -37.5t20.5 -34.5t37.5 -23.5t57.5 -9.5h113v-172h-186q-35 0 -78.5 17t-85.5 48.5t-70 85.5t-28 119v391q0 45 -21.5 78.5t-54.5 49.5t-62.5 23t-54.5 7z" />
    <glyph glyph-name="bar" unicode="|" horiz-adv-x="455" 
d="M123 -37v1585h209v-1585h-209z" />
    <glyph glyph-name="braceright" unicode="}" horiz-adv-x="569" 
d="M569 680v-90v-90q-25 0 -54.5 -6.5t-62 -21t-54 -45t-21.5 -71.5v-405q0 -65 -28 -119t-70 -85.5t-85.5 -48.5t-78.5 -17h-187v172h113q41 0 68.5 13t39 37t15.5 45t4 48v385q1 46 16 82t36.5 57.5t50.5 37t52 21.5t46 9v4q-26 2 -47 6.5t-51 18.5t-51 36t-36 63t-16 95
v373q0 27 -4 48t-15.5 45t-39 37t-68.5 13h-113v172h187q35 0 78.5 -17t85.5 -48.5t70 -85.5t28 -119v-391q0 -45 21.5 -78.5t54 -49.5t62 -23t54.5 -7z" />
    <glyph glyph-name="asciitilde" unicode="~" horiz-adv-x="1364" 
d="M1083 788l74 -172q-23 -32 -38.5 -52t-41 -46.5t-49.5 -41t-57 -25.5t-70 -11q-84 0 -209 68q-126 72 -235 72q-64 0 -104.5 -39t-71.5 -101l-74 172q92 176 250 176q92 0 237 -65q15 -6 44.5 -19.5t47 -21t40.5 -16.5t41.5 -13t33.5 -4q28 0 53 10.5t47.5 31.5t37.5 39
t36 47q5 7 8 11z" />
    <glyph glyph-name="delete" horiz-adv-x="1600" 
d="M1520 198v-69h-366v586h78v-517h288zM1080 198v-69h-438v586h424v-69h-346v-179h324v-69h-324v-200h360zM298 129h-211v586h202q66 0 104 -8q112 -25 156 -142q23 -63 23 -140q0 -126 -56 -203q-46 -63 -123 -83q-39 -10 -95 -10zM164 198h126q102 0 143 41q59 59 59 188
q0 166 -104 207q-31 12 -100 12h-124v-448z" />
    <glyph glyph-name="nbspace" unicode="&#xa0;" horiz-adv-x="531" 
 />
    <glyph glyph-name="exclamdown" unicode="&#xa1;" horiz-adv-x="650" 
d="M360 981q0 -36 -27 -63t-63 -27q-37 0 -63.5 27t-26.5 63t26.5 63t62.5 27q37 0 64 -27t27 -63zM323 828v-480q0 -64 115 -267q-77 0 -220 -176v817z" />
    <glyph glyph-name="cent" unicode="&#xa2;" horiz-adv-x="1156" 
d="M536 346l90 594q-204 -29 -204 -322q0 -190 114 -272zM850 348l12 -183q-108 -40 -266 -40l-34 -224h-93l35 239q-161 38 -241 167t-80 313q0 105 27.5 193.5t83 157t146 107t208.5 38.5h4l31 213h94l-34 -220q36 -6 107 -32l-14 -183q-73 35 -117 43l-95 -629
q27 -7 61 -7q40 0 90 15t75 32z" />
    <glyph glyph-name="sterling" unicode="&#xa3;" horiz-adv-x="1038" 
d="M909 200v-199h-769v199h132v477h-132v158h132v114q0 74 8 136t33.5 131t68 116.5t118 78.5t176.5 31q91 0 233 -37l-15 -202q-59 26 -101.5 36.5t-102.5 10.5q-48 0 -84.5 -15.5t-58.5 -42t-35 -66.5t-18 -82.5t-5 -96.5v-112h289v-158h-289v-477h420z" />
    <glyph glyph-name="currency" unicode="&#xa4;" horiz-adv-x="1024" 
d="M851 527l144 -145l-58 -55l-143 143q-133 -103 -270 -103q-76 0 -157 26q-91 28 -138 77l-146 -143l-56 55l144 145q-102 117 -102 282q0 157 102 283l-144 141l56 57l146 -142q119 102 285 102q162 0 280 -102l143 142l58 -57l-144 -141q103 -131 103 -281
q0 -154 -103 -284zM767 553q107 107 107 255q0 95 -51 182q-49 86 -133 132q-86 47 -178 47q-151 0 -257 -106q-105 -105 -105 -257q0 -149 106 -254t255 -105q150 0 256 106z" />
    <glyph glyph-name="yen" unicode="&#xa5;" horiz-adv-x="1195" 
d="M1152 473v-72h-458v-65q0 -154 152 -159v-48h-489v48q89 2 120 35q32 35 32 124v65h-401v72h401v145h-401v72h366l-215 432q-52 103 -87 149q-65 87 -137 89v48h363v-48q-38 -2 -38 -27q0 -11 4 -18l314 -624q243 379 243 554q0 71 -49 96q-34 17 -114 19v48h478v-48
q-108 -1 -239 -224l-262 -446h417v-72h-458v-145h458z" />
    <glyph glyph-name="brokenbar" unicode="&#xa6;" horiz-adv-x="410" 
d="M244 1551v-742h-83v742h83zM244 429v-742h-83v742h83z" />
    <glyph glyph-name="section" unicode="&#xa7;" horiz-adv-x="853" 
d="M106 7h74q1 -109 55 -184q62 -83 167 -83q90 0 160 62q69 62 69 152q0 88 -84 162q-34 29 -160 105q-140 85 -196 141q-96 95 -96 212q0 215 255 317q-111 71 -157 120q-72 79 -72 177q0 149 113 230q98 73 254 73q110 0 222 -44v-253h-70q-13 102 -66 167
q-60 76 -156 76q-77 0 -131 -51q-53 -50 -53 -126q0 -83 76 -153q35 -30 146 -102q153 -97 209 -154q98 -101 98 -229q0 -206 -233 -314q114 -79 157 -125q73 -79 73 -178q0 -149 -137 -244q-123 -84 -279 -84q-115 0 -238 57v273zM309 458q50 -44 171 -116q179 89 179 222
q0 90 -85 169q-49 44 -163 111q-201 -50 -201 -215q0 -85 99 -171z" />
    <glyph glyph-name="dieresis" unicode="&#xa8;" horiz-adv-x="683" 
d="M626 1350q0 -42 -29.5 -71.5t-71.5 -29.5t-71.5 29.5t-29.5 71.5q0 41 29 71t70 30q43 0 73 -29t30 -72zM262 1351q0 -42 -29.5 -71.5t-71.5 -29.5t-71 29.5t-29 71.5q0 41 29 70.5t70 29.5q43 0 72.5 -28.5t29.5 -71.5z" />
    <glyph glyph-name="copyright" unicode="&#xa9;" horiz-adv-x="1563" 
d="M1487 729q0 -294 -207 -501q-208 -206 -501 -206q-295 0 -501 206t-206 501t206 501q207 207 501 207q295 0 501 -207q207 -206 207 -501zM779 74q271 0 462 191q192 192 192 463q0 177 -91 331q-91 157 -244 239q-154 84 -319 84q-272 0 -463 -191t-191 -463t191 -463
t463 -191zM1015 616l182 -31q-29 -152 -138.5 -246.5t-276.5 -94.5q-114 0 -203 40.5t-142 109t-80 152t-27 176.5t27 177.5t80.5 154t143 111t203.5 41.5q170 0 277 -91.5t136 -246.5l-184 -30q-10 95 -69 157t-156 62q-70 0 -121.5 -30.5t-79 -80.5t-40 -104t-12.5 -111
q0 -45 6 -88t23 -89t43 -80.5t70 -56.5t101 -22q99 0 157 60t80 161z" />
    <glyph glyph-name="ordfeminine" unicode="&#xaa;" horiz-adv-x="640" 
d="M628 934v-38q-100 -100 -164 -100q-57 0 -57 68v95q-154 -160 -245 -160q-53 0 -89 39q-35 41 -35 94q0 138 369 310v68q0 95 -78 95t-131 -74q-44 -65 -50 -148h-46v157q152 101 288 101q117 0 117 -93v-434q0 -38 24 -38q33 0 97 58zM230 884q96 0 145 108
q37 82 38 191q-94 -19 -173 -67q-101 -62 -101 -142q0 -90 91 -90z" />
    <glyph glyph-name="guillemotleft" unicode="&#xab;" horiz-adv-x="854" 
d="M572 529l232 -400h-93l-340 400l340 393h87zM271 529l226 -400h-89l-338 400l340 393h87z" />
    <glyph glyph-name="logicalnot" unicode="&#xac;" horiz-adv-x="1365" 
d="M1222 1064v-574h-108v466h-972v108h1080z" />
    <glyph glyph-name="sfthyphen" unicode="&#xad;" horiz-adv-x="1155" 
d="M1106 1007v-81h-1070v81h1070z" />
    <glyph glyph-name="registered" unicode="&#xae;" horiz-adv-x="1567" 
d="M1491 729q0 -294 -207 -501q-208 -206 -501 -206q-295 0 -501 206t-206 501t206 501q207 207 501 207q295 0 501 -207q207 -206 207 -501zM783 74q271 0 462 191q192 192 192 463q0 177 -91 331q-91 157 -244 239q-154 84 -319 84q-272 0 -463 -191t-191 -463t191 -463
t463 -191zM1170 277h-150l-170 390h-234v-390h-142v924h358q140 0 218 -57q47 -37 75.5 -92.5t28.5 -113.5q0 -82 -45 -147.5t-123 -91.5q23 -54 87 -200t97 -222zM616 784h203q52 0 86.5 8.5t62.5 36.5q43 40 43 109q0 76 -58 115q-40 26 -121 26h-216v-295z" />
    <glyph glyph-name="overscore" unicode="&#xaf;" horiz-adv-x="683" 
d="M603 1405v-108h-521v108h521z" />
    <glyph glyph-name="degree" unicode="&#xb0;" horiz-adv-x="768" 
d="M713 1139q0 -126 -90 -216q-89 -89 -215 -89q-127 0 -216 89t-89 216t89 216t216 89t216 -89t89 -216zM408 898q100 0 170 70q71 71 71 171q0 101 -70 171t-171 70q-100 0 -171 -71q-70 -70 -70 -170q0 -101 70 -171t171 -70z" />
    <glyph glyph-name="plusminus" unicode="&#xb1;" horiz-adv-x="946" 
d="M835 535v-83h-321v-253h-84v253h-325v83h325v328h84v-328h321zM835 129v-83h-730v83h730z" />
    <glyph glyph-name="twosuperior" unicode="&#xb2;" horiz-adv-x="725" 
d="M640 989l-48 -239h-33q-1 27 -18 27h-476v37q174 193 239 277q161 209 161 316q0 93 -89 93q-131 0 -188 -222h-49v175q167 88 303 88q173 0 173 -151q0 -68 -60 -143q-33 -40 -113 -113l-254 -234h313q84 0 104 89h35z" />
    <glyph glyph-name="threesuperior" unicode="&#xb3;" horiz-adv-x="725" 
d="M107 1021h49q7 -85 55 -149q55 -73 136 -73q70 0 110.5 45.5t40.5 118.5q0 193 -267 200v37q86 14 148 65q70 58 70 139q0 92 -87 92q-76 0 -125 -76q-44 -67 -47 -146h-49v176q177 90 290 90q153 0 153 -121q0 -84 -97 -148q-47 -32 -170 -80q151 0 205 -14
q115 -30 115 -139q0 -122 -113 -205q-103 -76 -229 -76q-89 0 -188 36v228z" />
    <glyph glyph-name="acute" unicode="&#xb4;" horiz-adv-x="683" 
d="M516 1449q0 -24 -35 -64l-169 -188l-42 29l128 238q24 44 57 44q24 0 42.5 -17.5t18.5 -41.5z" />
    <glyph glyph-name="micro" unicode="&#xb5;" horiz-adv-x="1045" 
d="M986 329h43q-6 -97 -50 -159q-51 -73 -143 -73q-142 0 -161 195q-176 -191 -322 -191q-124 0 -183 122q0 -58 1 -90q0 -101 7 -147q3 -33 19 -88q22 -79 22 -115q0 -37 -20 -66q-22 -31 -59 -31q-36 0 -59 28.5t-23 66.5q0 32 21 110q24 88 32 187q3 187 8 375l1 36v556
h135v-610q0 -225 167 -225q101 0 253 143v692h132v-636q0 -98 7 -129q16 -85 77 -85q69 0 95 134z" />
    <glyph glyph-name="paragraph" unicode="&#xb6;" horiz-adv-x="896" 
d="M764 1197v-1525h-58v1682h-187v-1682h-59v1011q-467 -11 -467 348q0 120 68 218q73 105 185 133q102 26 273 26h380v-36q-95 -5 -118 -41q-17 -28 -17 -134z" />
    <glyph glyph-name="middot" unicode="&#xb7;" horiz-adv-x="405" 
d="M326 768q0 -50 -36 -85q-35 -35 -85 -35q-48 0 -85 35q-35 37 -35 85q0 50 34 85q35 36 84 36q50 0 87 -35q36 -35 36 -86z" />
    <glyph glyph-name="cedilla" unicode="&#xb8;" horiz-adv-x="683" 
d="M217 -208v55q82 -29 128 -29q86 0 86 72q0 78 -99 78h-54v184h54v-135q34 2 37 2q174 0 174 -110q0 -65 -60 -106q-52 -36 -122 -36q-57 0 -144 25z" />
    <glyph glyph-name="onesuperior" unicode="&#xb9;" horiz-adv-x="725" 
d="M551 802v-36h-348v36h31q77 0 77 69v467q0 77 -54 77q-31 0 -89 -20v35l309 110v-30q-33 -6 -33 -51v-588q0 -69 70 -69h37z" />
    <glyph glyph-name="ordmasculine" unicode="&#xba;" horiz-adv-x="661" 
d="M542 905q-97 -109 -236 -109q-127 0 -200 79q-74 80 -74 206q0 139 94 245q97 111 235 111q130 0 203 -79q74 -79 74 -209q0 -139 -96 -244zM369 853q87 0 136 72q43 64 43 154q0 111 -64 203q-71 104 -177 104q-90 0 -141 -68q-45 -62 -45 -155q0 -112 67 -206
q74 -104 181 -104z" />
    <glyph glyph-name="guillemotright" unicode="&#xbb;" horiz-adv-x="854" 
d="M784 529l-338 -400h-89l226 400l-226 393h87zM483 529l-340 -400h-93l232 400l-226 393h87z" />
    <glyph glyph-name="onequarter" unicode="&#xbc;" horiz-adv-x="1749" 
d="M1640 149v-35h-331v35h30q79 0 79 76v104h-340v36l228 265q81 103 193 256h52v-489h113v-68h-113v-104q0 -76 66 -76h23zM1377 1542l-926 -1445h-88l928 1445h86zM558 802v-36h-348v36h31q77 0 77 69v467q0 77 -54 77q-31 0 -89 -20v35l309 112v-32q-33 -6 -33 -51v-588
q0 -69 70 -69h37zM1161 397h257v276q-106 -93 -257 -276z" />
    <glyph glyph-name="onehalf" unicode="&#xbd;" horiz-adv-x="1749" 
d="M1663 333l-48 -239h-33q-1 28 -17 28h-477v36q183 204 239 276q162 208 162 316q0 95 -90 95q-130 0 -188 -223h-49v180q168 84 304 84q173 0 173 -152q0 -76 -81 -168q-26 -30 -140 -131q-90 -80 -207 -191h313q87 0 104 89h35zM1377 1542l-926 -1448h-88l928 1448h86z
M558 802v-36h-348v36h31q77 0 77 70v466q0 77 -54 77q-29 0 -89 -20v35l309 112v-32q-33 -6 -33 -51v-587q0 -70 70 -70h37z" />
    <glyph glyph-name="threequarters" unicode="&#xbe;" horiz-adv-x="1749" 
d="M1640 149v-35h-326v35h26q78 0 78 76v104h-340v36l219 253q118 136 202 268h52v-489h114v-68h-114v-104q0 -76 66 -76h23zM1400 1542l-924 -1445h-90l928 1445h86zM114 1021h49q7 -85 55 -149q55 -73 136 -73q70 0 110.5 45.5t40.5 118.5q0 193 -267 200v37q86 14 148 65
q70 58 70 139q0 92 -87 92q-76 0 -125 -76q-44 -67 -47 -146h-49v176q177 90 290 90q153 0 153 -121q0 -129 -267 -228q151 0 205 -14q115 -31 115 -139q0 -122 -113 -205q-103 -76 -229 -76q-91 0 -188 36v228zM1161 397h257v276q-113 -99 -257 -276z" />
    <glyph glyph-name="questiondown" unicode="&#xbf;" horiz-adv-x="917" 
d="M603 886q0 -50 -35 -85t-85 -35t-85 35q-34 34 -34 85q0 50 34 84q35 35 83 35q51 0 86.5 -34t35.5 -85zM782 122v-302q-272 -151 -505 -151q-121 0 -197 51q-90 58 -90 174q0 95 68 190q42 56 141 151q123 117 168 192q62 104 64 243h100q-1 -152 -43 -261
q-38 -96 -138 -227q-142 -187 -142 -284q0 -78 49 -125t130 -47q145 0 239 130q84 116 90 266h66z" />
    <glyph glyph-name="Agrave" unicode="&#xc0;" horiz-adv-x="1479" 
d="M0 0l631 1450h223l625 -1450h-295l-135 332h-629l-131 -332h-289zM508 553h450l-223 590zM633 1843l203 -295h-193l-289 295h279z" />
    <glyph glyph-name="multiply" unicode="&#xd7;" horiz-adv-x="1328" 
d="M793 458l385 -460h-258l-256 306l-256 -306h-258l386 460l-394 471h255l267 -318l268 318h255z" />
    <glyph glyph-name="agrave" unicode="&#xe0;" horiz-adv-x="1100" 
d="M754 0v135h-6q-102 -160 -316 -160q-94 0 -173.5 32.5t-132 101t-52.5 161.5q0 66 22 119.5t56.5 88.5t88 61t104.5 39.5t118 21.5t116.5 10t112.5 2h62v27q0 88 -62 136t-164 48q-152 0 -262 -102l-129 129q155 158 418 158q87 0 155.5 -18t111.5 -44t74 -69.5t46 -77.5
t23 -86t9 -78.5t1 -69.5v-565h-221zM739 385v55h-51q-369 0 -369 -151q0 -63 52.5 -96t120.5 -33q122 0 184.5 59.5t62.5 165.5zM444 1450l203 -295h-192l-289 295h278z" />
    <glyph glyph-name="acircumflex" unicode="&#xe2;" horiz-adv-x="1100" 
d="M754 0v135h-6q-102 -160 -316 -160q-94 0 -173.5 32.5t-132 101t-52.5 161.5q0 66 22 119.5t56.5 88.5t88 61t104.5 39.5t118 21.5t116.5 10t112.5 2h62v27q0 88 -62 136t-164 48q-152 0 -262 -102l-129 129q155 158 418 158q87 0 155.5 -18t111.5 -44t74 -69.5t46 -77.5
t23 -86t9 -78.5t1 -69.5v-565h-221zM739 385v55h-51q-369 0 -369 -151q0 -63 52.5 -96t120.5 -33q122 0 184.5 59.5t62.5 165.5zM455 1155l202 295h279l-289 -295h-192z" />
    <glyph glyph-name="ccedilla" unicode="&#xe7;" horiz-adv-x="987" 
d="M981 858l-170 -170q-93 98 -186 98q-131 0 -210 -87t-79 -207q0 -121 79 -208t210 -87q121 0 190 92l164 -176q-68 -69 -171.5 -103.5t-182.5 -34.5q-148 0 -269.5 64t-193.5 183t-72 270t72 270t193.5 182.5t269.5 63.5q100 0 194.5 -37.5t161.5 -112.5zM645 0l-86 -123
q43 0 73 -2.5t66 -12t57.5 -27t36.5 -50t15 -78.5q0 -53 -26.5 -93.5t-70.5 -62.5t-91.5 -32.5t-96.5 -10.5q-114 0 -217 58l45 94q77 -41 168 -41q43 0 80 20.5t37 65.5q0 36 -33 55t-72 19q-35 0 -75 -15l-56 52l127 184h119z" />
    <glyph glyph-name="egrave" unicode="&#xe8;" horiz-adv-x="1176" 
d="M1085 406h-749q12 -107 85.5 -170.5t178.5 -63.5q157 0 264 133l176 -133q-159 -197 -415 -197q-148 0 -269.5 64t-193.5 183t-72 270t72 270t193.5 182.5t269.5 63.5q209 0 334.5 -141.5t125.5 -393.5v-67zM336 590h504q-2 108 -69 170.5t-181 62.5q-108 0 -174 -62.5
t-80 -170.5zM492 1155l202 295h279l-289 -295h-192z" />
    <glyph glyph-name="eacute" unicode="&#xe9;" horiz-adv-x="1176" 
d="M1085 406h-749q12 -107 85.5 -170.5t178.5 -63.5q157 0 264 133l176 -133q-159 -197 -415 -197q-148 0 -269.5 64t-193.5 183t-72 270t72 270t193.5 182.5t269.5 63.5q209 0 334.5 -141.5t125.5 -393.5v-67zM336 590h504q-2 108 -69 170.5t-181 62.5q-108 0 -174 -62.5
t-80 -170.5zM481 1450l203 -295h-192l-289 295h278z" />
    <glyph glyph-name="ecircumflex" unicode="&#xea;" horiz-adv-x="1176" 
d="M1085 406h-749q12 -107 85.5 -170.5t178.5 -63.5q157 0 264 133l176 -133q-159 -197 -415 -197q-148 0 -269.5 64t-193.5 183t-72 270t72 270t193.5 182.5t269.5 63.5q209 0 334.5 -141.5t125.5 -393.5v-67zM336 590h504q-2 108 -69 170.5t-181 62.5q-108 0 -174 -62.5
t-80 -170.5zM961 1155h-234l-141 184l-142 -184h-229l236 295h276z" />
    <glyph glyph-name="edieresis" unicode="&#xeb;" horiz-adv-x="1176" 
d="M1085 406h-749q12 -107 85.5 -170.5t178.5 -63.5q157 0 264 133l176 -133q-159 -197 -415 -197q-148 0 -269.5 64t-193.5 183t-72 270t72 270t193.5 182.5t269.5 63.5q209 0 334.5 -141.5t125.5 -393.5v-67zM336 590h504q-2 108 -69 170.5t-181 62.5q-108 0 -174 -62.5
t-80 -170.5zM219 1303q0 59 45 103t111 44q68 0 114 -42.5t46 -104.5q0 -63 -46 -105.5t-114 -42.5q-66 0 -111 44t-45 104zM641 1303q0 59 45 103t111 44q67 0 113 -42.5t46 -104.5q0 -63 -45.5 -105.5t-113.5 -42.5q-66 0 -111 44t-45 104z" />
    <glyph glyph-name="icircumflex" unicode="&#xee;" horiz-adv-x="532" 
d="M143 0v983h246v-983h-246zM639 1155h-233l-142 184l-141 -184h-229l235 295h277z" />
    <glyph glyph-name="idieresis" unicode="&#xef;" horiz-adv-x="532" 
d="M143 0v983h246v-983h-246zM-102 1303q0 59 44.5 103t110.5 44q68 0 114 -42.5t46 -104.5q0 -63 -46 -105.5t-114 -42.5q-66 0 -110.5 44t-44.5 104zM319 1303q0 59 45 103t111 44q68 0 114 -42.5t46 -104.5q0 -63 -46 -105.5t-114 -42.5q-66 0 -111 44t-45 104z" />
    <glyph glyph-name="ocircumflex" unicode="&#xf4;" horiz-adv-x="1249" 
d="M90 492q0 151 72 270t193.5 182.5t269.5 63.5t269.5 -64t193 -182.5t71.5 -269.5t-71.5 -270t-193 -183t-269.5 -64t-269.5 64t-193.5 183t-72 270zM336 492q0 -121 79 -208t210 -87q130 0 209 87t79 208q0 120 -79 207t-209 87q-131 0 -210 -87t-79 -207zM997 1155h-233
l-141 184l-142 -184h-229l235 295h277z" />
    <glyph glyph-name="divide" unicode="&#xf7;" horiz-adv-x="1508" 
d="M1316 641v-232h-1130v232h1130zM932 952l-172 -175l-195 192l171 175zM932 79l-172 -175l-195 193l171 174z" />
    <glyph glyph-name="ugrave" unicode="&#xf9;" horiz-adv-x="1176" 
d="M1036 983v-983h-233v158h-4q-37 -82 -111.5 -132.5t-189.5 -50.5q-96 0 -167.5 32t-112 87.5t-60 122.5t-19.5 145v621h246v-498q0 -34 1.5 -59.5t6.5 -62.5t17.5 -63.5t31.5 -51.5t50.5 -38t72.5 -13q114 0 170 70.5t56 178.5v537h245zM481 1450l203 -295h-192l-289 295
h278z" />
    <glyph glyph-name="ucircumflex" unicode="&#xfb;" horiz-adv-x="1176" 
d="M1036 983v-983h-233v158h-4q-37 -82 -111.5 -132.5t-189.5 -50.5q-96 0 -167.5 32t-112 87.5t-60 122.5t-19.5 145v621h246v-498q0 -34 1.5 -59.5t6.5 -62.5t17.5 -63.5t31.5 -51.5t50.5 -38t72.5 -13q114 0 170 70.5t56 178.5v537h245zM492 1155l202 295h279l-289 -295
h-192z" />
    <glyph glyph-name="udieresis" unicode="&#xfc;" horiz-adv-x="1176" 
d="M1036 983v-983h-233v158h-4q-37 -82 -111.5 -132.5t-189.5 -50.5q-96 0 -167.5 32t-112 87.5t-60 122.5t-19.5 145v621h246v-498q0 -34 1.5 -59.5t6.5 -62.5t17.5 -63.5t31.5 -51.5t50.5 -38t72.5 -13q114 0 170 70.5t56 178.5v537h245zM961 1155h-234l-141 184
l-142 -184h-229l236 295h276z" />
    <glyph glyph-name="ydieresis" unicode="&#xff;" horiz-adv-x="1063" 
d="M426 -8l-420 991h270l275 -682h4l246 682h256l-465 -1194q-29 -73 -59 -122t-73.5 -86.5t-103 -55t-139.5 -17.5q-93 0 -188 25l30 221q67 -24 125 -24q86 0 124 31.5t71 113.5zM164 1303q0 59 44.5 103t110.5 44q68 0 114 -42.5t46 -104.5q0 -63 -46 -105.5t-114 -42.5
q-66 0 -110.5 44t-44.5 104zM586 1303q0 59 44.5 103t110.5 44q68 0 114 -42.5t46 -104.5q0 -63 -46 -105.5t-114 -42.5q-66 0 -110.5 44t-44.5 104z" />
    <glyph glyph-name="dotlessi" unicode="&#x131;" horiz-adv-x="555" 
d="M517 177v-48h-458v48q84 2 118.5 37t34.5 119v547q0 63 -72 63q-27 0 -57 -13q-17 -8 -24 -9v51l256 101h49v-740q0 -84 34.5 -119t118.5 -37z" />
    <glyph glyph-name="OE" unicode="&#x152;" horiz-adv-x="1771" 
d="M1735 463l-76 -381h-51l1 10q0 37 -44 37h-512q-28 0 -154 -14q-129 -15 -188 -15q-351 0 -536 275q-96 143 -96 328q0 315 246 540q113 102 231 144q111 40 270 40q45 0 104 -7q108 -12 168 -12h467q57 0 57 48h49v-383h-73q0 287 -313 287h-106q-12 -74 -12 -200
q0 -165 62 -244q69 -87 229 -87h89v-70l-368 -8v-574h112q311 0 368 286h76zM997 177v1077q-125 101 -294 101q-211 0 -337 -142q-121 -136 -121 -350q0 -186 85 -349q89 -171 245 -260q156 -87 315 -87q68 0 107 10z" />
    <glyph glyph-name="oe" unicode="&#x153;" horiz-adv-x="1685" 
d="M1624 449v-70q-238 -279 -439 -279q-199 0 -329 223q-165 -223 -401 -223q-187 0 -299 127q-109 121 -109 310q0 216 145 374q148 163 362 163q240 0 354 -208q154 208 349 208q153 0 242 -105q81 -96 89 -255h-644q-2 -46 -2 -49q0 -165 80 -287q93 -139 251 -139
q167 0 351 210zM951 763h472q-6 101 -63 171q-63 77 -161 77q-95 0 -165 -79q-63 -69 -83 -169zM550 192q132 0 205 105q64 91 64 230q0 166 -96 307q-107 159 -267 159q-132 0 -209 -104q-68 -94 -68 -231q0 -165 101 -308q111 -158 270 -158z" />
    <glyph glyph-name="Scaron" unicode="&#x160;" horiz-adv-x="917" 
d="M587 861l211 -51l-1 1q175 -38 265 -110q66 -55 102 -129t36 -158q0 -99 -42.5 -183t-123.5 -144q-136 -103 -379 -103q-224 0 -371.5 104t-224.5 319l199 43q41 -140 148 -211t253 -71q157 0 240 65q36 27 57 70.5t21 89.5q0 151 -224 204l-234 57q-173 40 -262 113
q-57 51 -89 122t-32 146q0 100 41.5 178t112.5 125t158 70.5t185 23.5q187 0 326.5 -94.5t199.5 -274.5l-202 -52q-23 110 -120 178t-208 68q-66 0 -128 -20t-107.5 -66.5t-45.5 -111.5q0 -40 14 -71t34 -50.5t55 -35t63 -23.5t73 -18zM742 1800h66l-280 -242l-281 242h68
l213 -132z" />
    <glyph glyph-name="scaron" unicode="&#x161;" horiz-adv-x="747" 
d="M951 811l-186 -38q-31 84 -98.5 125.5t-154.5 41.5q-34 0 -67.5 -7t-64.5 -21.5t-50 -41t-19 -62.5q0 -34 14 -58.5t41 -38.5t52.5 -21t62.5 -13l152 -27q54 -10 81 -16t69 -21.5t74 -36.5q65 -44 99.5 -110.5t34.5 -142.5q0 -73 -27 -131.5t-71 -97t-103.5 -64.5
t-122 -37t-128.5 -11q-111 0 -205.5 32t-170.5 109t-105 191l197 39q11 -68 61.5 -114.5t110.5 -65t124 -18.5q41 0 79.5 7.5t74 24t57 47.5t21.5 73q0 28 -12 50t-29 35.5t-45 24.5t-49 16t-52 11l-170 31q-321 61 -321 309q0 82 35.5 146.5t94.5 102.5t130 57t149 19
q76 0 143 -16.5t126 -50.5t103 -93t65 -138zM605 1473h66l-280 -242l-281 242h68l213 -132z" />
    <glyph glyph-name="Ydieresis" unicode="&#x178;" horiz-adv-x="1290" 
d="M516 0v621l-545 829h324l356 -578l361 578h307l-545 -829v-621h-258zM276 1696q0 60 45 103.5t111 43.5q68 0 114 -42t46 -105t-46 -105.5t-114 -42.5q-66 0 -111 44t-45 104zM698 1696q0 60 45 103.5t111 43.5q68 0 114 -42t46 -105t-46 -105.5t-114 -42.5
q-66 0 -111 44t-45 104z" />
    <glyph glyph-name="florin" unicode="&#x192;" horiz-adv-x="1088" 
d="M69 -298h-69q133 117 194 232q60 112 87 290l107 700h-140l13 47q82 2 133 53q30 30 84 123q89 153 161 223q139 136 287 136q105 0 162 -75l-162 -174l-34 30q11 24 11 42q0 35 -25.5 60t-60.5 25q-91 0 -160 -116q-61 -101 -61 -200q0 -127 187 -127h95l-11 -47h-312
l-181 -720q-46 -182 -111 -282q-65 -102 -194 -220z" />
    <glyph glyph-name="circumflex" unicode="&#x2c6;" horiz-adv-x="683" 
d="M340 1476l280 -242h-66l-214 126l-211 -126h-68z" />
    <glyph glyph-name="caron" unicode="&#x2c7;" horiz-adv-x="683" 
d="M551 1473h66l-280 -242l-281 242h68l213 -132z" />
    <glyph glyph-name="arabiccomma" unicode="&#x60c;" horiz-adv-x="668" 
d="M359 729h60q-24 -42 -51 -98t-57 -146t-30 -151q0 -83 27 -119q66 -92 170 -74q-17 -61 -42.5 -100.5t-57.5 -56t-60.5 -20.5t-64.5 -1q-61 9 -113.5 66.5t-52.5 134.5q0 65 27 146.5t71 159t87 141.5t87 118z" />
    <glyph glyph-name="arabicsemicolon" unicode="&#x61b;" horiz-adv-x="668" 
d="M318 -179q-13 -14 -31 -32q-124 124 -178 170q45 39 155 158q21 -26 86.5 -89t91.5 -83q-7 -7 -32.5 -33t-49.5 -50t-42 -41zM340 1079h63l-25 -50t-38.5 -82t-36.5 -88.5t-32 -102t-11 -90.5q0 -60 35 -113q27 -37 64.5 -51t74 -7t68.5 31q-35 -124 -105 -179t-141 -46
q-66 11 -114 63t-48 134q0 133 76 298.5t170 282.5z" />
    <glyph glyph-name="arabicquestionmark" unicode="&#x61f;" horiz-adv-x="1091" 
d="M613 397h-102q21 62 12 125q-22 143 -182 237q-118 69 -188.5 174t-86.5 213t6 210.5t80 175.5q70 86 176.5 129t210.5 40t198 -43t145 -110l-117 -279q-20 27 -60.5 58t-95 57.5t-116 21.5t-107.5 -51q-61 -61 -62.5 -146t43 -162t117.5 -138q115 -97 145 -208.5
t-16 -303.5zM604 -82l-38 -38q-143 143 -213 204q46 40 186 190q22 -29 94 -97.5t119 -109.5q-15 -16 -148 -149z" />
    <glyph glyph-name="hamza" unicode="&#x621;" horiz-adv-x="763" 
d="M676 307l-78 -239q-257 -70 -421 -195q-71 -54 -116 -111l-4 48q4 149 115 253q-68 12 -101.5 57t-33.5 111q0 88 54.5 187t147 167t187.5 62q75 -5 119 -31l-23 -213q-95 47 -203.5 0.5t-165.5 -163.5q43 -34 116 -42q162 -16 407 109z" />
    <glyph glyph-name="alefwithmaddaabove" unicode="&#x622;" horiz-adv-x="425" 
d="M321 1313v-1307l-213 -131v1307zM674 1798l26 -21q-3 -14 -7 -41t-6.5 -39t-7.5 -34t-10 -32.5t-13.5 -27.5t-18.5 -26t-24.5 -21t-32.5 -19t-42 -14t-53 -12l-422 -64q-77 -12 -110 -35t-41 -69q-3 -20 -9 -5q-8 22 -4 64q6 101 50 154t157 72l414 65q87 19 117.5 38
t36.5 67z" />
    <glyph glyph-name="alefwithhamzaabove" unicode="&#x623;" horiz-adv-x="535" 
d="M334 1177v-1169l-213 -131v1169zM448 1563l-53 -164q-172 -46 -287 -132q-51 -39 -79 -77l-2 35q4 98 77 174q-46 6 -69 36.5t-23 75.5q0 59 37.5 126.5t100.5 115t128 43.5q54 -6 80 -22l-14 -146q-33 15 -68 15q-53 0 -101 -33t-79 -92q29 -25 77 -29q117 -11 275 74z
" />
    <glyph glyph-name="wawwithhamzaabove" unicode="&#x624;" horiz-adv-x="831" 
d="M439 -647l-227 192q269 178 348 453q-462 11 -475 160l-2 43q-2 81 20 180t61.5 190.5t104 153t139.5 61.5q74 0 137.5 -58.5t106 -153.5t66.5 -216t24 -247q5 -232 -78 -416q-65 -150 -225 -342zM504 224q58 -2 85 -3q-21 137 -78 227.5t-127 90.5q-48 0 -88.5 -44.5
t-60 -96.5t-19.5 -89q0 -71 288 -85zM533 1126l-57 -182q-196 -52 -322 -146q-59 -44 -88 -85l-4 37q4 110 88 194q-102 16 -102 127q0 67 41 141.5t112 126.5t144 50q52 -5 88 -25l-16 -164q-73 37 -163.5 0.5t-133.5 -123.5q38 -26 96 -32q127 -15 317 81z" />
    <glyph glyph-name="alefwithhamzabelow" unicode="&#x625;" horiz-adv-x="533" 
d="M321 1313v-1182l-213 -131v1182zM446 -355l-53 -164q-176 -47 -288 -131q-50 -38 -79 -76l-2 33q4 100 78 174q-92 16 -92 112q0 61 37.5 128t100.5 113t128 44q58 -6 80 -20l-14 -148q-33 15 -68 15q-53 0 -101 -33t-79 -92q29 -25 77 -29q105 -13 275 74z" />
    <glyph glyph-name="yehwithhamzaabove" unicode="&#x626;" horiz-adv-x="1360" 
d="M535 1016l-59 -182q-192 -50 -322 -148q-57 -43 -88 -86l-2 39q4 115 88 192q-104 19 -104 127q0 67 41 142t112 126.5t144 49.5q57 -6 88 -25l-16 -161q-72 34 -153 -1.5t-124 -121.5q32 -26 87 -32q119 -15 308 81zM287 614l91 -86q-67 -91 -98 -186t-26.5 -176
t35.5 -153t84.5 -122.5t125 -80t151.5 -29.5q123 0 246.5 73t199.5 179q-10 35 -55 67t-119 58t-124.5 40t-122.5 31q-38 13 -52.5 29t-17.5 51q-2 10 -2 15v16q2 104 65.5 213.5t164 182.5t200.5 73q173 0 143 -293q-43 80 -133 80q-85 0 -164.5 -49t-105.5 -123
q77 -17 156 -44.5t160.5 -68.5t132.5 -98.5t51 -120.5q0 -40 -21.5 -96.5t-59.5 -120t-97.5 -126t-128.5 -112.5t-159 -81t-184 -31q-118 0 -213.5 34t-156 87.5t-102.5 125t-60 140.5t-21 139q-2 153 61 305t156 258z" />
    <glyph glyph-name="arabicalef" unicode="&#x627;" horiz-adv-x="409" 
d="M322 1313v-1308l-213 -131v1308z" />
    <glyph glyph-name="beh" unicode="&#x628;" horiz-adv-x="1706" 
d="M425 221h1042q-12 39 -24.5 72.5t-33 73.5t-30.5 59.5t-42 74t-42 72.5l172 199q152 -305 152 -557q0 -118 -19 -215h-1218q-152 0 -236 71t-84 203q0 122 62 240.5t161 210.5l76 -78q-40 -45 -72 -99.5t-47 -112.5t-7.5 -105.5t55.5 -78t135 -30.5zM1018 -344l-174 -174
l-173 174l173 172z" />
    <glyph glyph-name="tehmarbuta" unicode="&#x629;" horiz-adv-x="903" 
d="M430 1133l-172 -175l-175 175l175 174zM816 1133l-173 -175l-174 175l174 174zM137 8q-28 18 -46 49q-19 37 -26 74t-1.5 94t40.5 136t100 176q105 158 256 342q50 -35 84 -60.5t87.5 -75t86.5 -94t58.5 -106t25.5 -123.5q0 -58 -20 -121t-59.5 -121.5t-92 -105.5
t-123 -75t-146.5 -28q-160 0 -224 39zM577 272q35 26 61 66q-29 76 -90 139t-150 131q-23 -28 -38.5 -47.5t-38 -50t-37 -53.5t-29.5 -51t-21 -50t-6 -44t10 -38q37 -58 143.5 -61.5t195.5 59.5z" />
    <glyph glyph-name="teh" unicode="&#x62a;" horiz-adv-x="1705" 
d="M644 1176l173 -174l-173 -173l-174 173zM1062 1176l175 -174l-175 -173l-174 173zM424 221h1042q-12 39 -24.5 72.5t-33 73.5t-30.5 59.5t-42 74t-42 72.5l172 199q152 -305 152 -557q0 -118 -19 -215h-1218q-152 0 -236 71t-84 203q0 122 62 240.5t161 210.5l76 -78
q-40 -45 -72 -99.5t-47 -112.5t-7.5 -105.5t55.5 -78t135 -30.5z" />
    <glyph glyph-name="theh" unicode="&#x62b;" horiz-adv-x="1706" 
d="M666 1176l173 -174l-173 -173l-174 173zM872 1473l176 -174l-176 -175l-171 175zM1084 1176l175 -174l-175 -173l-174 173zM425 221h1042q-12 39 -24.5 72.5t-33 73.5t-30.5 59.5t-42 74t-42 72.5l172 199q152 -305 152 -557q0 -118 -19 -215h-1218q-152 0 -236 71
t-84 203q0 122 62 240.5t161 210.5l76 -78q-40 -45 -72 -99.5t-47 -112.5t-7.5 -105.5t55.5 -78t135 -30.5z" />
    <glyph glyph-name="jeem" unicode="&#x62c;" horiz-adv-x="1180" 
d="M727 173l175 -173l-175 -174l-174 174zM993 -387l-86 -277q-137 -48 -279 -53q-119 -2 -213 25t-155 74.5t-101.5 113.5t-58 136t-18.5 149t22.5 163t74 176t141 186.5t212.5 178.5q-157 38 -194 41q-153 16 -217 -45q-5 -5 -21 -20t-27 -25l-32 27l86 143
q48 78 97 108.5t126 30.5q52 0 175.5 -24t232 -49t214 -38t121.5 9l-63 -166q-14 -37 -67 -49t-116 -6t-151 24l2 -2q-87 -48 -174 -135.5t-150 -196t-76 -219.5t48 -206q40 -59 102.5 -94t129.5 -43t135.5 -5t127.5 17.5t98 28t54 22.5z" />
    <glyph glyph-name="hah" unicode="&#x62d;" horiz-adv-x="1180" 
d="M993 -387l-86 -277q-137 -48 -279 -53q-119 -2 -213 25t-155 74.5t-101.5 113.5t-58 136t-18.5 149t22.5 163t74 176t141 186.5t212.5 178.5q-157 38 -194 41q-153 16 -217 -45q-5 -5 -21 -20t-27 -25l-32 27l86 143q48 78 97 108.5t126 30.5q52 0 175.5 -24t232 -49
t214 -38t121.5 9l-63 -166q-14 -37 -67 -49t-116 -6t-151 24l2 -2q-87 -48 -174 -135.5t-150 -196t-76 -219.5t48 -206q40 -59 102.5 -94t129.5 -43t135.5 -5t127.5 17.5t98 28t54 22.5z" />
    <glyph glyph-name="khah" unicode="&#x62e;" horiz-adv-x="1180" 
d="M993 -387l-86 -277q-137 -48 -279 -53q-119 -2 -213 25t-155 74.5t-101.5 113.5t-58 136t-18.5 149t22.5 163t74 176t141 186.5t212.5 178.5q-157 38 -194 41q-153 16 -217 -45q-5 -5 -21 -20t-27 -25l-32 27l86 143q48 78 97 108.5t126 30.5q52 0 175.5 -24t232 -49
t214 -38t121.5 9l-63 -166q-14 -37 -67 -49t-116 -6t-151 24l2 -2q-87 -48 -174 -135.5t-150 -196t-76 -219.5t48 -206q40 -59 102.5 -94t129.5 -43t135.5 -5t127.5 17.5t98 28t54 22.5zM841 1116l-172 -174l-175 174l175 175z" />
    <glyph glyph-name="dal" unicode="&#x62f;" horiz-adv-x="958" 
d="M240 221h465q-4 55 -19.5 105.5t-32 87t-54 85.5t-62 77.5t-79.5 88.5q-6 7 -10 11t-9.5 10.5t-10.5 11.5l133 228q37 -47 59.5 -77t59.5 -83.5t60 -97.5t51 -105t42.5 -121.5t25.5 -131t9 -149t-16 -161.5h-596q-77 0 -119 32t-47.5 83.5t11 110.5t51.5 118
q-14 -52 4 -87.5t84 -35.5z" />
    <glyph glyph-name="thal" unicode="&#x630;" horiz-adv-x="958" 
d="M305 1342l175 -174l-175 -175l-174 175zM240 221h465q-4 55 -19.5 105.5t-32 87t-54 85.5t-62 77.5t-79.5 88.5q-6 7 -10 11t-9.5 10.5t-10.5 11.5l133 228q37 -47 59.5 -77t59.5 -83.5t60 -97.5t51 -105t42.5 -121.5t25.5 -131t9 -149t-16 -161.5h-596q-77 0 -119 32
t-47.5 83.5t11 110.5t51.5 118q-14 -52 4 -87.5t84 -35.5z" />
    <glyph glyph-name="reh" unicode="&#x631;" horiz-adv-x="642" 
d="M246 -647l-228 192q119 78 200 180t120 200.5t61 219.5q-25 118 -67 210t-119 212l164 217q174 -344 178 -665q0 -90 -13 -172.5t-45 -179.5t-95.5 -202t-155.5 -212z" />
    <glyph glyph-name="zain" unicode="&#x632;" horiz-adv-x="643" 
d="M247 -647l-228 192q119 78 200 180t120 200.5t61 219.5q-25 118 -67 210t-119 212l164 217q174 -344 178 -665q0 -90 -13 -172.5t-45 -179.5t-95.5 -202t-155.5 -212zM177 1264l175 -174l-175 -175l-174 175z" />
    <glyph glyph-name="seen" unicode="&#x633;" horiz-adv-x="2126" 
d="M1627 221h281q-7 25 -16 49t-16 42.5t-20 44t-19.5 39t-23 43.5t-22.5 40.5t-27 46.5t-28 47l153 199q150 -300 150 -557q0 -96 -17 -215h-809q-10 -69 -44.5 -146.5t-94.5 -155t-136 -139.5t-178 -100.5t-211 -38.5q-97 0 -178.5 32.5t-137.5 88t-94.5 130t-55 157
t-15 170t22 168.5t60.5 154t95 124l69 -82q-54 -81 -76 -165t-14.5 -157t39 -138t81 -111t115.5 -73t138 -27q83 0 170.5 37.5t153.5 93.5t110 124t47 126q-16 69 -48.5 139.5t-55 107t-82.5 130.5l147 196q122 -210 162 -424h284q-18 53 -44.5 110t-47.5 94.5t-66 115.5
l152 198q135 -268 147 -518z" />
    <glyph glyph-name="sheen" unicode="&#x634;" horiz-adv-x="2126" 
d="M1235 1209l175 -174l-175 -175l-174 175zM1617 1332l-172 -174l-175 174l175 172zM1828 1035l-174 -175l-175 175l175 174zM1627 221h281q-7 25 -16 49t-16 42.5t-20 44t-19.5 39t-23 43.5t-22.5 40.5t-27 46.5t-28 47l153 199q150 -300 150 -557q0 -96 -17 -215h-809
q-10 -69 -44.5 -146.5t-94.5 -155t-136 -139.5t-178 -100.5t-211 -38.5q-97 0 -178.5 32.5t-137.5 88t-94.5 130t-55 157t-15 170t22 168.5t60.5 154t95 124l69 -82q-54 -81 -76 -165t-14.5 -157t39 -138t81 -111t115.5 -73t138 -27q83 0 170.5 37.5t153.5 93.5t110 124
t47 126q-16 69 -48.5 139.5t-55 107t-82.5 130.5l147 196q122 -210 162 -424h284q-18 53 -44.5 110t-47.5 94.5t-66 115.5l152 198q135 -268 147 -518z" />
    <glyph glyph-name="sad" unicode="&#x635;" horiz-adv-x="2493" 
d="M1497 221h756q0 87 -25.5 151t-67 96.5t-83.5 47t-85 14.5q-90 0 -179.5 -57t-315.5 -252zM2361 0h-1148q-10 -69 -44.5 -146.5t-94.5 -155t-136 -139.5t-178 -100.5t-211 -38.5q-97 0 -178.5 32.5t-137.5 88t-94.5 130t-55 157t-15 170t22 168.5t60.5 154t95 124l69 -82
q-54 -81 -76 -165t-14.5 -157t39 -138t81 -111t115.5 -73t138 -27q83 0 170.5 37.5t153.5 93.5t110 124t47 126q-16 69 -48.5 139.5t-55 107t-82.5 130.5l147 196q122 -210 162 -424h78q398 416 612 518q71 33 151.5 33.5t151.5 -35.5q42 -24 77 -59t68 -97t49 -139.5
t10.5 -192t-38.5 -249.5z" />
    <glyph glyph-name="dad" unicode="&#x636;" horiz-adv-x="2495" 
d="M1499 221h756q0 87 -25.5 151t-67 96.5t-83.5 47t-85 14.5q-90 0 -179.5 -57t-315.5 -252zM1884 1283l174 -175l-174 -174l-175 174zM2363 0h-1148q-10 -69 -44.5 -146.5t-94.5 -155t-136 -139.5t-178 -100.5t-211 -38.5q-97 0 -178.5 32.5t-137.5 88t-94.5 130t-55 157
t-15 170t22 168.5t60.5 154t95 124l69 -82q-54 -81 -76 -165t-14.5 -157t39 -138t81 -111t115.5 -73t138 -27q83 0 170.5 37.5t153.5 93.5t110 124t47 126q-16 69 -48.5 139.5t-55 107t-82.5 130.5l147 196q122 -210 162 -424h78q398 416 612 518q71 33 151.5 33.5
t151.5 -35.5q42 -24 77 -59t68 -97t49 -139.5t10.5 -192t-38.5 -249.5z" />
    <glyph glyph-name="tah" unicode="&#x637;" horiz-adv-x="1527" 
d="M1395 0h-1284l-100 221h264q16 18 73.5 69t80.5 77l-19 819l205 125v-779q101 93 326 205q64 34 145 34q82 0 144 -36q42 -24 77 -59t68 -96.5t48.5 -138.5t10 -191.5t-38.5 -249.5zM484 221h803q0 70 -17.5 125.5t-44.5 89t-63 55.5t-69 30.5t-66 8.5q-99 0 -216 -64
t-327 -245z" />
    <glyph glyph-name="zah" unicode="&#x638;" horiz-adv-x="1526" 
d="M1025 1283l175 -175l-175 -174l-174 174zM1394 0h-1284l-100 221h264q16 18 73.5 69t80.5 77l-19 819l205 125v-779q101 93 326 205q64 34 145 34q83 0 144 -36q42 -24 77 -59t68 -96.5t48.5 -138.5t10 -191.5t-38.5 -249.5zM483 221h803q0 70 -17.5 125.5t-44.5 89
t-63 55.5t-69 30.5t-66 8.5q-99 0 -216 -64t-327 -245z" />
    <glyph glyph-name="ain" unicode="&#x639;" horiz-adv-x="1028" 
d="M1028 -389l-82 -268q-67 -29 -167.5 -45t-180.5 -19q-110 -2 -203.5 24t-159.5 73.5t-111 113t-64.5 140.5t-15 158.5t33.5 164.5t86 161t137 146q-60 32 -107 113t-51 162q-5 79 28.5 154t95.5 128.5t138.5 84t166.5 22.5t171 -58l37 -127q-104 41 -180.5 38.5t-127 -38
t-75.5 -83t-25 -97.5q2 -63 35 -109.5t97 -64.5q157 74 366 102l-31 -168q-259 -36 -415 -198q-121 -125 -135 -274q-14 -142 77 -232q92 -91 262 -90q70 0 187 25t213 61z" />
    <glyph glyph-name="ghain" unicode="&#x63a;" horiz-adv-x="1027" 
d="M632 1246l-172 -175l-175 175l175 174zM1027 -389l-82 -268q-67 -29 -167.5 -45t-180.5 -19q-110 -2 -203.5 24t-159.5 73.5t-111 113t-64.5 140.5t-15 158.5t33.5 164.5t86 161t137 146q-60 32 -107 113t-51 162q-5 79 28.5 154t95.5 128.5t138.5 84t166.5 22.5t171 -58
l37 -127q-104 41 -180.5 38.5t-127 -38t-75.5 -83t-25 -97.5q2 -63 35 -109.5t97 -64.5q157 74 366 102l-31 -168q-259 -36 -415 -198q-121 -125 -135 -274q-14 -142 77 -232q92 -91 262 -90q70 0 187 25t213 61z" />
    <glyph glyph-name="tatweel" unicode="&#x640;" horiz-adv-x="488" 
d="M488 221v-221h-488q-52 0 -52 43v133q0 45 52 45h488z" />
    <glyph glyph-name="feh" unicode="&#x641;" horiz-adv-x="1907" 
d="M1376 1488l174 -175l-174 -172l-174 172zM426 221h1224q-13 83 -28 152q-103 -23 -189 -33t-142 -7.5t-99.5 13.5t-67 25t-38.5 32t-19.5 31t-5.5 25q-3 101 16.5 191t53.5 155t78 113.5t89.5 74.5t87.5 31q94 13 174.5 -56t133.5 -193t85.5 -278.5t38.5 -318.5
q5 -98 -6 -178h-1448q-54 0 -107 17t-101.5 51.5t-78.5 98.5t-30 148q0 165 81 302.5t197 224.5l66 -72q-47 -49 -86 -119t-56.5 -144t-11.5 -138.5t54 -106t135 -41.5zM1426 546q60 4 143 21q-85 236 -185 236q-34 0 -66 -21.5t-52.5 -53t-35.5 -63.5t-20.5 -55.5
t-1.5 -27.5q56 -49 218 -36z" />
    <glyph glyph-name="qaf" unicode="&#x642;" horiz-adv-x="1303" 
d="M802 1084l-172 -175l-174 175l174 174zM1188 1084l-174 -175l-173 175l173 174zM579 -360v-2q118 0 229.5 66t183 173t81.5 223q-89 -4 -159 -6t-123 5.5t-91 14.5t-64 22t-41.5 28t-24 32t-11 34t-2.5 34q0 123 28 226t73 166t97.5 97.5t104.5 34.5q123 0 214 -125
t124.5 -316t1.5 -384q-13 -71 -45.5 -147t-91 -154.5t-132.5 -140t-178 -100.5t-219 -39q-98 0 -179.5 32.5t-137 88t-94 129.5t-54.5 156t-14.5 170t22 169t60 154t94.5 125l68 -80q-92 -139 -92 -285q-2 -110 41.5 -200t130 -145.5t200.5 -55.5zM906 303q62 -4 153 2
q-28 108 -88 179.5t-113 80.5q-41 8 -78 -18t-58 -64t-32 -72t-6 -42q15 -24 71.5 -42t150.5 -24z" />
    <glyph glyph-name="arabickaf" unicode="&#x643;" horiz-adv-x="1787" 
d="M1700 1311v-1311h-1323q-54 0 -106.5 17t-101 52t-78.5 99.5t-30 148.5q0 165 77.5 297.5t193.5 216.5l18 -71q-47 -48 -80.5 -117t-43 -142t4.5 -136t67.5 -103.5t141.5 -40.5h1047v961zM1140 901l-53 -164q-172 -44 -289 -132q-51 -39 -79 -77l-2 33q4 101 79 176
q-47 6 -70.5 37t-23.5 76q0 61 37.5 128.5t100.5 114t128 44.5q44 -3 80 -23l-14 -147q-32 15 -71 15q-57 0 -111.5 -34t-83.5 -92q34 -25 86 -29q115 -13 286 74z" />
    <glyph glyph-name="lam" unicode="&#x644;" horiz-adv-x="1271" 
d="M1184 1313v-1313q0 -162 -73 -293t-203 -205.5t-292 -74.5q-161 0 -290.5 74.5t-202 205.5t-72.5 293q0 130 47 242t133 194l74 -88q-84 -114 -84 -266q0 -176 107.5 -300t263.5 -124q177 0 278 113.5t101 310.5v1100z" />
    <glyph glyph-name="meem" unicode="&#x645;" horiz-adv-x="1135" 
d="M292 -59v-619l-211 -131v750q0 73 22.5 129.5t58 88t72.5 47t72 15.5h93q8 84 30.5 165.5t58.5 153t90.5 115t117.5 43.5q68 0 128 -41t99.5 -104t69 -139t42.5 -146.5t13 -126.5q0 -112 -55 -222q-26 -50 -56 -89q-85 96 -183.5 133t-225.5 37h-195q-41 0 -41 -59z
M538 221h22q103 0 185 -23t153 -81q5 161 -58.5 251t-131.5 83q-49 -6 -88 -57.5t-82 -172.5z" />
    <glyph glyph-name="noon" unicode="&#x646;" horiz-adv-x="1302" 
d="M603 1019l175 -175l-175 -172l-174 172zM857 524l147 213q190 -305 207 -583q4 -55 -9.5 -121t-42.5 -137t-79 -136.5t-113.5 -117.5t-152 -83.5t-187.5 -31.5q-120 0 -217 31.5t-158 80t-104 114.5t-62 127.5t-26 125.5q-11 135 35.5 266t124.5 232l90 -68
q-69 -99 -89.5 -201t4.5 -185t79 -149t134.5 -102.5t170.5 -36.5q149 0 286 105t169 223q-44 182 -207 434z" />
    <glyph glyph-name="heh" unicode="&#x647;" horiz-adv-x="888" 
d="M136 8q-28 18 -46 49q-19 37 -26 74t-1.5 94t40.5 136t100 176q105 158 256 342q50 -35 84 -60.5t87.5 -75t86.5 -94t58.5 -106t25.5 -123.5q0 -58 -20 -121t-59.5 -121.5t-92 -105.5t-123 -75t-146.5 -28q-160 0 -224 39zM576 272q35 26 61 66q-29 76 -90 139t-150 131
q-23 -28 -38.5 -47.5t-38 -50t-37 -53.5t-29.5 -51t-21 -50t-6 -44t10 -38q37 -58 143.5 -61.5t195.5 59.5z" />
    <glyph glyph-name="waw" unicode="&#x648;" horiz-adv-x="830" 
d="M438 -647l-227 192q269 178 348 453q-462 11 -475 160l-2 43q-2 81 20 180t61.5 190.5t104 153t139.5 61.5q74 0 137.5 -58.5t106 -153.5t66.5 -216t24 -247q5 -232 -78 -416q-65 -150 -225 -342zM503 224q58 -2 85 -3q-21 137 -78 227.5t-127 90.5q-48 0 -88.5 -44.5
t-60 -96.5t-19.5 -89q0 -71 288 -85z" />
    <glyph glyph-name="alefmaksura" unicode="&#x649;" horiz-adv-x="1359" 
d="M286 614l91 -86q-67 -91 -98 -186t-26.5 -176t35.5 -153t84.5 -122.5t125 -80t151.5 -29.5q123 0 246.5 73t199.5 179q-10 35 -55 67t-119 58t-124.5 40t-122.5 31q-38 13 -52.5 29t-17.5 51q-2 10 -2 15v16q2 104 65.5 213.5t164 182.5t200.5 73q173 0 143 -293
q-43 80 -133 80q-85 0 -164.5 -49t-105.5 -123q77 -17 156 -44.5t160.5 -68.5t132.5 -98.5t51 -120.5q0 -40 -21.5 -96.5t-59.5 -120t-97.5 -126t-128.5 -112.5t-159 -81t-184 -31q-118 0 -213.5 34t-156 87.5t-102.5 125t-60 140.5t-21 139q-2 153 61 305t156 258z" />
    <glyph glyph-name="yeh" unicode="&#x64a;" horiz-adv-x="1359" 
d="M286 614l91 -86q-67 -91 -98 -186t-26.5 -176t35.5 -153t84.5 -122.5t125 -80t151.5 -29.5q123 0 246.5 73t199.5 179q-10 35 -55 67t-119 58t-124.5 40t-122.5 31q-38 13 -52.5 29t-17.5 51q-2 10 -2 15v16q2 104 65.5 213.5t164 182.5t200.5 73q173 0 143 -293
q-43 80 -133 80q-85 0 -164.5 -49t-105.5 -123q77 -17 156 -44.5t160.5 -68.5t132.5 -98.5t51 -120.5q0 -40 -21.5 -96.5t-59.5 -120t-97.5 -126t-128.5 -112.5t-159 -81t-184 -31q-118 0 -213.5 34t-156 87.5t-102.5 125t-60 140.5t-21 139q-2 153 61 305t156 258z
M656 -585l184 -136l-184 -137l-184 137zM1061 -585l186 -136l-186 -137l-183 137z" />
    <glyph glyph-name="fathatan" unicode="&#x64b;" 
d="M850 2217l-123 -170l-680 -313l98 168zM800 1945l-120 -172l-680 -316l94 170z" />
    <glyph glyph-name="dammatan" unicode="&#x64c;" 
d="M835 1912q-12 -19 -63 -119q-1 5 -53 31q-181 -336 -431 -367q37 117 37 125q0 76 -82 76q-133 0 -243 -168q149 281 293 281q106 0 106 -84q0 -35 -27 -84q178 70 285 229q-91 -14 -153 0q-39 7 -39 47q0 179 94 303q31 39 59 39q41 0 86 -71q45 -94 45 -199
q29 -8 86 -39zM579 2084q-31 -19 -45 -76q-4 -43 29 -51q34 -8 113 2q0 82 -27 125t-70 0z" />
    <glyph glyph-name="kasratan" unicode="&#x64d;" 
d="M850 -863l-121 -170l-680 -315l96 170zM803 -1137l-123 -172l-680 -314l96 168z" />
    <glyph glyph-name="fatha" unicode="&#x64e;" 
d="M803 1945l-123 -172l-680 -316l96 170z" />
    <glyph glyph-name="damma" unicode="&#x64f;" 
d="M805 2018l-58 -124q-19 22 -63 30q-152 -270 -340 -362q-134 -66 -344 -105q313 174 608 475q-90 -7 -133 18t-39 81q13 178 117 268q47 41 100 -12q72 -71 72 -209v-21q54 -20 80 -39zM626 2078q-14 110 -61 110q-16 0 -33 -14q-39 -33 -39 -57q0 -47 88 -47q31 0 45 8z
" />
    <glyph glyph-name="kasra" unicode="&#x650;" 
d="M799 -864l-121 -170l-680 -315l96 170z" />
    <glyph glyph-name="shadda" unicode="&#x651;" 
d="M559 1991v-234q0 -268 -190 -268q-61 0 -99 41q-46 -76 -133 -74q-127 6 -133 146q-6 188 92 274q-9 -17 -20 -135q0 -67 18.5 -99t55.5 -30q65 2 65 82v92l109 145v-204q0 -40 16.5 -58t48.5 -14q60 6 60 84v106z" />
    <glyph glyph-name="sukun" unicode="&#x652;" 
d="M36 1498q-40 41 -32 110q26 168 160 329q138 -84 205 -180q12 -18 12 -51q0 -98 -70 -174q-69 -76 -168 -76q-67 0 -107 42zM287 1651q-33 61 -162 157q-53 -51 -53 -125q0 -82 75 -82q54 0 140 50z" />
    <glyph glyph-name="arabicindicdigitzero" unicode="&#x660;" horiz-adv-x="555" 
d="M70 440q38 70 154 254q83 -68 254 -194l-153 -253q-26 21 -131 99.5t-124 93.5z" />
    <glyph glyph-name="arabicindicdigitone" unicode="&#x661;" horiz-adv-x="738" 
d="M234 1317l53 104q126 -255 211.5 -522.5t111.5 -510.5q14 -131 -17.5 -262t-89.5 -213q-42 308 -147.5 628t-244.5 559q40 58 123 217z" />
    <glyph glyph-name="arabicindicdigittwo" unicode="&#x662;" horiz-adv-x="1028" 
d="M237 1396q91 -81 202 -114.5t234 -7.5t227 118q0 -126 -38 -227q-17 -49 -62 -85t-102.5 -52.5t-123 -22.5t-122.5 6q86 -307 118 -596q16 -152 -9.5 -286t-87.5 -221q-42 308 -147 628t-244 559q79 154 155 301z" />
    <glyph glyph-name="arabicindicdigitthree" unicode="&#x663;" horiz-adv-x="1259" 
d="M1069 1223q1 -86 -56.5 -146.5t-134.5 -61.5q-86 -2 -155 56q-26 -42 -71 -64.5t-99 -15.5q78 -292 108 -563q16 -153 -9 -286.5t-87 -220.5q-42 308 -147 628t-244 559q78 153 154 300l-1 1h1l2 -4q43 -61 96 -95.5t106 -38t102.5 38t81.5 127.5q21 -81 65.5 -126
t96.5 -43q57 0 106.5 44t66.5 128q17 -155 18 -217z" />
    <glyph glyph-name="arabicindicdigitfour" unicode="&#x664;" horiz-adv-x="1125" 
d="M461 298q0 -39 80 -74.5t202 -52t235 -6.5l-197 -259q-59 -2 -109 2q-252 17 -374 85.5t-122 160.5q0 135 224 356q23 22 38 38t25.5 28t12.5 21.5t3.5 15.5t-7 14t-13.5 12t-21 14t-25 17q-8 5 -35 22.5t-35 23t-31.5 22t-31.5 23.5t-26 22.5t-25 25t-18.5 25t-15.5 29
t-8 30t-4 33.5q0 55 67 128t165 139t200 121t181 85l-29 -189q-75 -25 -155 -63t-122 -63l-43 -26q-41 -25 33 -74l262 -173q22 -14 32.5 -29t13 -26.5t-4.5 -27t-12 -22.5t-18.5 -22.5t-15.5 -17.5q-14 -16 -51 -58.5t-54 -61.5t-46.5 -53.5t-45.5 -54.5t-33 -43t-26 -39
q-20 -32 -20 -58z" />
    <glyph glyph-name="arabicindicdigitfive" unicode="&#x665;" horiz-adv-x="1198" 
d="M635 1353q66 0 137 -71t126.5 -183t90 -262t29.5 -295q-8 -157 -44 -262t-108 -171q-93 -86 -213.5 -123t-228.5 -18t-171 87q-40 43 -61.5 107t-25 143t1 149t16.5 157q12 90 55.5 213.5t103.5 243t139.5 202.5t152.5 83zM291 471q0 -60 38.5 -102t93 -58t113.5 -12
q145 11 234.5 86t89.5 140q0 28 -31 104.5t-75.5 160t-101 147.5t-99.5 64q-57 0 -120.5 -100t-102.5 -224.5t-39 -205.5z" />
    <glyph glyph-name="arabicindicdigitsix" unicode="&#x666;" horiz-adv-x="1161" 
d="M1037 191q40 -43 0 -99l-161 -207q-47 79 -92 211t-79 296t-46 338t7 337q-93 -30 -177.5 -43.5t-145 -11t-106.5 16t-69.5 34.5t-25.5 46l-33 307q69 -46 163 -71t221 -17.5t246 59.5q17 10 26 1t11.5 -18.5t2.5 -20.5v-10q4 -455 88 -780q64 -253 170 -368z" />
    <glyph glyph-name="arabicindicdigitseven" unicode="&#x667;" horiz-adv-x="1177" 
d="M971 1426l91 -391q-216 -239 -427 -1037q-9 -39 -17.5 -58.5t-14.5 -22.5t-11.5 7.5t-10 24t-9.5 33.5l-3 12l7 -30l-35 148q-48 195 -103.5 353.5t-100 250t-93.5 161t-75.5 95.5t-53.5 46l87 380q80 -69 151 -192.5t120.5 -269t80 -257t53.5 -224.5q21 108 48.5 220.5
t73 265.5t109 283.5t133.5 201.5z" />
    <glyph glyph-name="arabicindicdigiteight" unicode="&#x668;" horiz-adv-x="1163" 
d="M200 -90l-91 391q212 236 427 1037q19 81 34 81q11 0 28 -67q2 -6 3 -10l-7 31l35 -149q48 -198 98.5 -355.5t88.5 -251.5t87 -177t76 -119t74 -91l-79 -315q-65 56 -126 154.5t-104 201.5t-81 226t-60 211t-39 174q-22 -110 -49 -221.5t-73 -265t-109 -284t-133 -201.5z
" />
    <glyph glyph-name="arabicindicdigitnine" unicode="&#x669;" horiz-adv-x="1103" 
d="M1006 214q37 -41 0 -99l-162 -207q-52 88 -96.5 242t-99.5 409q-1 5 -3.5 19t-3.5 22q-12 -11 -20 -15q-73 -51 -164.5 -70.5t-171.5 -3.5t-125 61q-57 57 -57 184q0 118 56.5 264t148.5 253t181 107q110 0 183 -183q48 -119 109 -422q0 -1 11 -55q29 -150 86.5 -290.5
t127.5 -215.5zM387 753q79 1 132.5 26t70.5 55q-72 268 -170 268q-36 0 -79 -49.5t-71.5 -111t-30.5 -99.5q-2 -42 43.5 -65.5t104.5 -23.5z" />
    <glyph glyph-name="arabicpercentsign" unicode="&#x66a;" horiz-adv-x="1341" 
d="M334 1102q-31 -36 -35 -42q-19 19 -107 113t-106 112q20 18 92 100t84 94q23 -18 97.5 -98t109.5 -120q-10 -12 -32.5 -38.5t-55 -64.5t-47.5 -56zM1107 -13q-31 -36 -35 -42q-141 154 -207 216q14 19 86 100.5t86 100.5q12 -12 60.5 -62t92.5 -94.5t60 -59.5
q-53 -53 -143 -159zM1192 1461l-823 -1559h-263l826 1559h260z" />
    <glyph glyph-name="arabicfivepointedstar" unicode="&#x66d;" horiz-adv-x="815" 
d="M494 1595l122 -206l-75 -56l-160 180l-158 -180l-78 56l123 206l-219 95l29 90l233 -51l23 237h94l23 -237l235 51l29 -90z" />
    <glyph glyph-name="superscriptalef" unicode="&#x670;" 
d="M88 2054v-544l-88 -54v543z" />
    <glyph glyph-name="alefwasla" unicode="&#x671;" horiz-adv-x="429" 
d="M-124 1415v26q51 45 160 133q70 -31 128 -36q68 83 170 133q60 28 110 28q49 0 98 -28q26 -15 20 -41q-20 -37 -81 -107q-91 -82 -236 -82q-114 0 -264 51q-36 -29 -105 -77zM186 1533q209 -21 289 36q8 33 -9 49.5t-58 16.5q-124 0 -222 -102zM321 8l-213 -131v1305
l213 131v-1305z" />
    <glyph glyph-name="highhamza" unicode="&#x674;" horiz-adv-x="368" 
d="M448 1563l-53 -164q-172 -46 -287 -132q-51 -39 -79 -77l-2 35q4 98 77 174q-46 6 -69 36.5t-23 75.5q0 59 37.5 126.5t100.5 115t128 43.5q54 -6 80 -22l-14 -146q-33 15 -68 15q-53 0 -101 -33t-79 -92q29 -25 77 -29q117 -11 275 74z" />
    <glyph glyph-name="peh" unicode="&#x67e;" horiz-adv-x="1706" 
d="M425 221h1042q-12 39 -24.5 72.5t-33 73.5t-30.5 59.5t-42 74t-42 72.5l172 199q152 -305 152 -557q0 -118 -19 -215h-1218q-152 0 -236 71t-84 203q0 122 62 240.5t161 210.5l76 -78q-40 -45 -72 -99.5t-47 -112.5t-7.5 -105.5t55.5 -78t135 -30.5zM1233 -348l-174 -174
l-173 174l173 172zM1024 -646l-172 -174l-175 174l175 175zM641 -176l174 -172l-174 -174l-175 174z" />
    <glyph glyph-name="tcheh" unicode="&#x686;" horiz-adv-x="1180" 
d="M993 -387l-86 -277q-137 -48 -279 -53q-119 -2 -213 25t-155 74.5t-101.5 113.5t-58 136t-18.5 149t22.5 163t74 176t141 186.5t212.5 178.5q-157 38 -194 41q-153 16 -217 -45q-5 -5 -21 -20t-27 -25l-32 27l86 143q48 78 97 108.5t126 30.5q52 0 175.5 -24t232 -49
t214 -38t121.5 9l-63 -166q-14 -37 -67 -49t-116 -6t-151 24l2 -2q-87 -48 -174 -135.5t-150 -196t-76 -219.5t48 -206q40 -59 102.5 -94t129.5 -43t135.5 -5t127.5 17.5t98 28t54 22.5zM1056 43l-145 -145l-144 145l144 144zM882 -205l-143 -145l-146 145l146 146zM563 187
l145 -144l-145 -145l-146 145z" />
    <glyph glyph-name="jeh" unicode="&#x698;" horiz-adv-x="854" 
d="M312 -647l-228 192q119 78 200 180t120 200.5t61 219.5q-25 118 -67 210t-119 212l164 217q174 -344 178 -665q0 -90 -13 -172.5t-45 -179.5t-95.5 -202t-155.5 -212zM349 1092l-174 -175l-175 175l175 174zM556 1389l-172 -174l-175 174l175 172zM767 1092l-174 -175
l-175 175l175 174z" />
    <glyph glyph-name="veh" unicode="&#x6a4;" horiz-adv-x="1907" 
d="M426 221h1224q-13 83 -28 152q-103 -23 -189 -33t-142 -7.5t-99.5 13.5t-67 25t-38.5 32t-19.5 31t-5.5 25q-3 101 16.5 191t53.5 155t78 113.5t89.5 74.5t87.5 31q94 13 174.5 -56t133.5 -193t85.5 -278.5t38.5 -318.5q5 -98 -6 -178h-1448q-54 0 -107 17t-101.5 51.5
t-78.5 98.5t-30 148q0 165 81 302.5t197 224.5l66 -72q-47 -49 -86 -119t-56.5 -144t-11.5 -138.5t54 -106t135 -41.5zM1426 546q60 4 143 21q-85 236 -185 236q-34 0 -66 -21.5t-52.5 -53t-35.5 -63.5t-20.5 -55.5t-1.5 -27.5q56 -49 218 -36zM1381 1252l-174 -175
l-175 175l175 174zM1588 1549l-172 -174l-175 174l175 172zM1799 1252l-174 -175l-175 175l175 174z" />
    <glyph glyph-name="keheh" unicode="&#x6a9;" horiz-adv-x="1908" 
d="M1029 221h517q-49 146 -168 224t-333 102q-77 8 -156 8v211q0 38 9.5 71.5t23 57t36.5 46.5t42 37t47 32l465 290q84 53 136 34.5t52 -85.5v-178q-35 69 -158 -6l-473 -297q164 -17 293 -65.5t214.5 -118.5t141 -164t79.5 -197t24 -223h-792h-652q-54 0 -106.5 17
t-101 52t-78.5 99.5t-30 148.5q0 165 77.5 297.5t193.5 216.5l18 -71q-47 -48 -80.5 -117t-43 -142t4.5 -136t67.5 -103.5t141.5 -40.5h589z" />
    <glyph glyph-name="gaf" unicode="&#x6af;" horiz-adv-x="1908" 
d="M1029 221h517q-49 146 -168 224t-333 102q-77 8 -156 8v211q0 38 9.5 71.5t23 57t36.5 46.5t42 37t47 32l465 290q84 53 136 34.5t52 -85.5v-178q-35 69 -158 -6l-473 -297q164 -17 293 -65.5t214.5 -118.5t141 -164t79.5 -197t24 -223h-792h-652q-54 0 -106.5 17
t-101 52t-78.5 99.5t-30 148.5q0 165 77.5 297.5t193.5 216.5l18 -71q-47 -48 -80.5 -117t-43 -142t4.5 -136t67.5 -103.5t141.5 -40.5h589zM1575 1608l-98 -184l-632 -402l73 181z" />
    <glyph glyph-name="farsiyeh" unicode="&#x6cc;" horiz-adv-x="1491" 
d="M1491 221v-221h-17q-103 0 -157 8q-18 -60 -53.5 -122t-96.5 -128t-137.5 -117t-185 -83.5t-230.5 -32.5q-117 0 -213 34t-157.5 88t-103.5 124.5t-60 140.5t-19 139q-2 153 60.5 304t154.5 259l90 -86q-79 -110 -111.5 -224t-17 -208t63 -169.5t127.5 -117.5t176 -42
q175 0 324.5 79.5t228.5 190.5q-154 46 -242 119q-12 7 -26.5 20.5t-32 45.5t-17.5 67v155q108 -114 243 -168.5t355 -54.5h54z" />
    <glyph glyph-name="arabicae" unicode="&#x6d5;" horiz-adv-x="888" 
d="M136 8q-28 18 -46 49q-19 37 -26 74t-1.5 94t40.5 136t100 176q105 158 256 342q50 -35 84 -60.5t87.5 -75t86.5 -94t58.5 -106t25.5 -123.5q0 -58 -20 -121t-59.5 -121.5t-92 -105.5t-123 -75t-146.5 -28q-160 0 -224 39zM576 272q35 26 61 66q-29 76 -90 139t-150 131
q-23 -28 -38.5 -47.5t-38 -50t-37 -53.5t-29.5 -51t-21 -50t-6 -44t10 -38q37 -58 143.5 -61.5t195.5 59.5z" />
    <glyph glyph-name="smallhighmadda" unicode="&#x6e4;" horiz-adv-x="530" 
d="M674 1798l26 -21q-3 -14 -7 -41t-6.5 -39t-7.5 -34t-10 -32.5t-13.5 -27.5t-18.5 -26t-24.5 -21t-32.5 -19t-42 -14t-53 -12l-422 -64q-77 -12 -110 -35t-41 -69q-3 -20 -9 -5q-8 22 -4 64q6 101 50 154t157 72l414 65q87 19 117.5 38t36.5 67z" />
    <glyph glyph-name="extendedarabicindicdigitzero" unicode="&#x6f0;" horiz-adv-x="555" 
d="M70 440q38 70 154 254q83 -68 254 -194l-153 -253q-26 21 -131 99.5t-124 93.5z" />
    <glyph glyph-name="extendedarabicindicdigitone" unicode="&#x6f1;" horiz-adv-x="738" 
d="M234 1317l53 104q126 -255 211.5 -522.5t111.5 -510.5q14 -131 -17.5 -262t-89.5 -213q-42 308 -147.5 628t-244.5 559q40 58 123 217z" />
    <glyph glyph-name="extendedarabicindicdigittwo" unicode="&#x6f2;" horiz-adv-x="1028" 
d="M237 1396q91 -81 202 -114.5t234 -7.5t227 118q0 -126 -38 -227q-17 -49 -62 -85t-102.5 -52.5t-123 -22.5t-122.5 6q86 -307 118 -596q16 -152 -9.5 -286t-87.5 -221q-42 308 -147 628t-244 559q79 154 155 301z" />
    <glyph glyph-name="extendedarabicindicdigitthree" unicode="&#x6f3;" horiz-adv-x="1259" 
d="M1069 1223q1 -86 -56.5 -146.5t-134.5 -61.5q-86 -2 -155 56q-26 -42 -71 -64.5t-99 -15.5q78 -292 108 -563q16 -153 -9 -286.5t-87 -220.5q-42 308 -147 628t-244 559q78 153 154 300l-1 1h1l2 -4q43 -61 96 -95.5t106 -38t102.5 38t81.5 127.5q21 -81 65.5 -126
t96.5 -43q57 0 106.5 44t66.5 128q17 -155 18 -217z" />
    <glyph glyph-name="extendedarabicindicdigitfour" unicode="&#x6f4;" horiz-adv-x="1125" 
d="M461 298q0 -39 80 -74.5t202 -52t235 -6.5l-197 -259q-59 -2 -109 2q-252 17 -374 85.5t-122 160.5q0 135 224 356q23 22 38 38t25.5 28t12.5 21.5t3.5 15.5t-7 14t-13.5 12t-21 14t-25 17q-8 5 -35 22.5t-35 23t-31.5 22t-31.5 23.5t-26 22.5t-25 25t-18.5 25t-15.5 29
t-8 30t-4 33.5q0 55 67 128t165 139t200 121t181 85l-29 -189q-75 -25 -155 -63t-122 -63l-43 -26q-41 -25 33 -74l262 -173q22 -14 32.5 -29t13 -26.5t-4.5 -27t-12 -22.5t-18.5 -22.5t-15.5 -17.5q-14 -16 -51 -58.5t-54 -61.5t-46.5 -53.5t-45.5 -54.5t-33 -43t-26 -39
q-20 -32 -20 -58z" />
    <glyph glyph-name="extendedarabicindicdigitfive" unicode="&#x6f5;" horiz-adv-x="1198" 
d="M635 1353q66 0 137 -71t126.5 -183t90 -262t29.5 -295q-8 -157 -44 -262t-108 -171q-93 -86 -213.5 -123t-228.5 -18t-171 87q-40 43 -61.5 107t-25 143t1 149t16.5 157q12 90 55.5 213.5t103.5 243t139.5 202.5t152.5 83zM291 471q0 -60 38.5 -102t93 -58t113.5 -12
q145 11 234.5 86t89.5 140q0 28 -31 104.5t-75.5 160t-101 147.5t-99.5 64q-57 0 -120.5 -100t-102.5 -224.5t-39 -205.5z" />
    <glyph glyph-name="extendedarabicindicdigitsix" unicode="&#x6f6;" horiz-adv-x="1161" 
d="M1037 191q40 -43 0 -99l-161 -207q-47 79 -92 211t-79 296t-46 338t7 337q-93 -30 -177.5 -43.5t-145 -11t-106.5 16t-69.5 34.5t-25.5 46l-33 307q69 -46 163 -71t221 -17.5t246 59.5q17 10 26 1t11.5 -18.5t2.5 -20.5v-10q4 -455 88 -780q64 -253 170 -368z" />
    <glyph glyph-name="extendedarabicindicdigitseven" unicode="&#x6f7;" horiz-adv-x="1177" 
d="M971 1426l91 -391q-216 -239 -427 -1037q-9 -39 -17.5 -58.5t-14.5 -22.5t-11.5 7.5t-10 24t-9.5 33.5l-3 12l7 -30l-35 148q-48 195 -103.5 353.5t-100 250t-93.5 161t-75.5 95.5t-53.5 46l87 380q80 -69 151 -192.5t120.5 -269t80 -257t53.5 -224.5q21 108 48.5 220.5
t73 265.5t109 283.5t133.5 201.5z" />
    <glyph glyph-name="extendedarabicindicdigiteight" unicode="&#x6f8;" horiz-adv-x="1163" 
d="M200 -90l-91 391q212 236 427 1037q19 81 34 81q11 0 28 -67q2 -6 3 -10l-7 31l35 -149q48 -198 98.5 -355.5t88.5 -251.5t87 -177t76 -119t74 -91l-79 -315q-65 56 -126 154.5t-104 201.5t-81 226t-60 211t-39 174q-22 -110 -49 -221.5t-73 -265t-109 -284t-133 -201.5z
" />
    <glyph glyph-name="extendedarabicindicdigitnine" unicode="&#x6f9;" horiz-adv-x="1103" 
d="M1006 214q37 -41 0 -99l-162 -207q-52 88 -96.5 242t-99.5 409q-1 5 -3.5 19t-3.5 22q-12 -11 -20 -15q-73 -51 -164.5 -70.5t-171.5 -3.5t-125 61q-57 57 -57 184q0 118 56.5 264t148.5 253t181 107q110 0 183 -183q48 -119 109 -422q0 -1 11 -55q29 -150 86.5 -290.5
t127.5 -215.5zM387 753q79 1 132.5 26t70.5 55q-72 268 -170 268q-36 0 -79 -49.5t-71.5 -111t-30.5 -99.5q-2 -42 43.5 -65.5t104.5 -23.5z" />
    <glyph glyph-name="zeronojoin" unicode="&#x200c;" horiz-adv-x="45" 
d="M45 1628v-1628h-45v1628h45z" />
    <glyph glyph-name="zerojoin" unicode="&#x200d;" horiz-adv-x="45" 
d="M45 1551v-1551h-45v1550l-84 -84l-30 30l107 107l-107 107l30 30l107 -107l107 107l30 -30l-107 -107l107 -107l-30 -30z" />
    <glyph glyph-name="lefttoright" unicode="&#x200e;" horiz-adv-x="45" 
d="M45 1583v-1583h-45v1628h217l-82 82l31 31l137 -137l-137 -138l-31 31l86 86h-176z" />
    <glyph glyph-name="righttoleft" unicode="&#x200f;" horiz-adv-x="45" 
d="M45 1628v-1628h-45v1583h-176l86 -86l-31 -31l-137 138l137 137l31 -31l-82 -82h217z" />
    <glyph glyph-name="endash" unicode="&#x2013;" horiz-adv-x="1024" 
d="M1036 679v-61h-1048v61h1048z" />
    <glyph glyph-name="quotedash" unicode="&#x2014;" horiz-adv-x="2048" 
d="M2060 679v-61h-2072v61h2072z" />
    <glyph glyph-name="quoteleft" unicode="&#x2018;" horiz-adv-x="491" 
d="M467 1541v-55q-91 -60 -154 -145q-76 -100 -76 -193q0 -54 32 -98q39 47 90 47q102 0 102 -100q0 -59 -48 -92q-44 -30 -104 -30q-82 0 -133 51t-51 132q0 140 108 283q96 126 234 200z" />
    <glyph glyph-name="quoteright" unicode="&#x2019;" horiz-adv-x="491" 
d="M105 872v56q228 162 228 338q0 62 -33 101q-33 -49 -95 -49q-41 0 -69.5 28t-28.5 69q0 59 49 93q43 31 104 31q86 0 135 -50t49 -136q0 -142 -107 -281q-89 -116 -232 -200z" />
    <glyph glyph-name="quotesinglbase" unicode="&#x201a;" horiz-adv-x="491" 
d="M119 -316v56q228 162 228 337q0 61 -33 100q-32 -48 -95 -48q-41 0 -69.5 28t-28.5 69q0 59 49 93q44 32 104 32q86 0 135 -50t49 -137q0 -142 -108 -280q-90 -117 -231 -200z" />
    <glyph glyph-name="quotedblleft" unicode="&#x201c;" horiz-adv-x="650" 
d="M453 802q-47 0 -79 36q-34 37 -34 98q0 201 203 359q0 -89 1 -93q4 -40 28 -56q-9 -4 -41 -26q-52 -51 -52 -95q82 -22 82 -112q0 -49 -33 -80q-32 -31 -75 -31zM183 802q-47 0 -79 36q-34 37 -34 98q0 201 203 359q0 -89 1 -93q4 -40 28 -56q-9 -4 -41 -26
q-52 -51 -52 -95q82 -22 82 -112q0 -49 -33 -80q-32 -31 -75 -31z" />
    <glyph glyph-name="quotedblright" unicode="&#x201d;" horiz-adv-x="650" 
d="M580 1151q0 -201 -203 -359q0 89 -1 93q-4 40 -28 56q9 4 41 26q52 51 52 95q-82 22 -82 112q0 48 34 81q31 30 74 30q47 0 79 -35q34 -37 34 -99zM310 1151q0 -201 -203 -359q0 89 -1 93q-4 40 -28 56q9 4 41 26q52 51 52 95q-82 22 -82 112q0 48 34 81q31 30 74 30
q47 0 79 -35q34 -37 34 -99z" />
    <glyph glyph-name="quotedblbase" unicode="&#x201e;" horiz-adv-x="939" 
d="M528 -318v56q226 160 226 343q0 50 -31 96q-35 -48 -91 -48q-42 0 -71.5 28.5t-29.5 70.5q0 58 48 93q43 29 104 29q86 0 133.5 -50t47.5 -137q0 -145 -106 -281q-87 -113 -230 -200zM78 -318v58q90 54 154 142q71 98 71 193q0 53 -29 102q-34 -48 -92 -48
q-44 0 -72.5 28t-28.5 72q0 58 49 92q44 29 104 29q81 0 130.5 -50.5t49.5 -132.5q0 -279 -336 -485z" />
    <glyph glyph-name="dagger" unicode="&#x2020;" horiz-adv-x="896" 
d="M474 -327h-53q-18 623 -95 978q73 165 95 334l-134 -36q-77 -21 -98 -32q-56 -27 -60 -73h-42v338h42q7 -70 149 -105l143 -36l-34 192q-19 108 -28 134q-28 77 -93 82v45h360v-45q-62 0 -91 -77q-11 -29 -27 -128l-34 -203l121 30q161 41 168 111h45v-338h-45
q-4 62 -118 94l-171 47q19 -160 95 -334q-78 -309 -95 -978z" />
    <glyph glyph-name="daggerdbl" unicode="&#x2021;" horiz-adv-x="896" 
d="M635 -280v-46h-369v46q56 2 81 51q13 25 27 101l46 257l-196 -62q-84 -20 -90 -88h-51v346h51q8 -47 54 -72q23 -12 89 -32l143 -44q-19 148 -98 410q48 140 98 399l-170 -48q-119 -35 -123 -94h-44v341h44q11 -44 41 -64q17 -8 74 -31l178 -49l-55 281q-12 59 -26 85
q-23 38 -73 41v45h363v-45q-64 -1 -91 -71q-9 -24 -28 -125l-40 -211l105 27q96 25 115 34q68 30 71 83h56v-341h-56q-5 32 -27 53q-20 17 -99 41l-157 48q47 -254 97 -399q-63 -204 -97 -410l157 50l13 6l36 12q76 25 84 80h49v-346h-49q-6 51 -100 90l-190 54l49 -251
q17 -85 26 -102q24 -49 82 -50z" />
    <glyph glyph-name="bullet" unicode="&#x2022;" horiz-adv-x="576" 
d="M517 768q0 -95 -67 -162t-162 -67t-162 67t-67 162q0 96 66 163q67 67 163 67q97 0 163 -67q66 -66 66 -163z" />
    <glyph glyph-name="ellipsis" unicode="&#x2026;" horiz-adv-x="2048" 
d="M1827 219q0 -49 -36 -84q-35 -35 -84 -35q-51 0 -86 34q-35 35 -35 85q0 48 35 83t83 35q52 0 87.5 -33.5t35.5 -84.5zM1144 219q0 -49 -36 -84q-35 -35 -84 -35q-51 0 -85 34q-35 35 -35 85q0 49 34 83q35 35 84 35q51 0 86 -34q36 -35 36 -84zM462 219q0 -51 -36 -85
q-34 -34 -85 -34q-48 0 -85 35q-35 35 -35 84q0 48 35 83t83 35q52 0 87.5 -33.5t35.5 -84.5z" />
    <glyph glyph-name="perthousand" unicode="&#x2030;" horiz-adv-x="2069" 
d="M1900 231q-98 -122 -243 -122q-123 0 -200 89q-73 83 -73 209q0 152 90 268q97 124 245 124q125 0 200 -92q71 -86 71 -213q0 -149 -90 -263zM1224 230q-96 -121 -243 -121q-122 0 -199 89q-73 85 -73 209q0 151 90 267q98 125 244 125q125 0 200 -92q71 -86 71 -213
q0 -152 -90 -264zM593 856q-99 -120 -245 -120q-122 0 -197 90q-70 85 -70 210q0 148 91 263q98 125 242 125q125 0 202 -92q70 -85 70 -214q0 -150 -93 -262zM1183 1464l-887 -1396h-86l888 1396h85zM1714 178q159 0 159 216q0 114 -50 216q-61 123 -166 123
q-79 0 -120 -68q-33 -55 -33 -141q0 -114 48 -217q62 -129 162 -129zM1039 178q159 0 159 216q0 114 -50 216q-62 123 -166 123q-79 0 -120 -68q-34 -56 -34 -141q0 -114 48 -218q62 -128 163 -128zM416 800q151 0 151 226q0 111 -50 211q-61 121 -163 121q-82 0 -122 -70
q-33 -57 -33 -145q0 -119 49 -218q62 -125 168 -125z" />
    <glyph glyph-name="guilsinglleft" unicode="&#x2039;" horiz-adv-x="512" 
d="M451 204v-75l-383 455l389 457v-75l-228 -382z" />
    <glyph glyph-name="guilsinglright" unicode="&#x203a;" horiz-adv-x="512" 
d="M457 586l-393 -457v75l231 382l-222 381v77z" />
    <glyph glyph-name="trademark" unicode="&#x2122;" horiz-adv-x="1750" 
d="M1619 1407v-749h-114v599q-42 -111 -118.5 -316.5t-105.5 -282.5h-78l-228 599v-599h-100v749h158l219 -563q87 235 213 563h154zM485 1306v-648h-115v648h-256v101h640v-101h-269z" />
    <glyph glyph-name="fathalow" unicode="&#xe820;" 
d="M803 1945l-123 -172l-680 -316l96 170z" />
    <glyph glyph-name="dammalow" unicode="&#xe821;" 
d="M805 2018l-58 -124q-19 22 -63 30q-152 -270 -340 -362q-134 -66 -344 -105q313 174 608 475q-90 -7 -133 18t-39 81q13 178 117 268q47 41 100 -12q72 -71 72 -209v-21q54 -20 80 -39zM626 2078q-14 110 -61 110q-16 0 -33 -14q-39 -33 -39 -57q0 -47 88 -47q31 0 45 8z
" />
    <glyph glyph-name="sukunlow" unicode="&#xe822;" 
d="M36 1498q-40 41 -32 110q26 168 160 329q138 -84 205 -180q12 -18 12 -51q0 -98 -70 -174q-69 -76 -168 -76q-67 0 -107 42zM287 1651q-33 61 -162 157q-53 -51 -53 -125q0 -82 75 -82q54 0 140 50z" />
    <glyph glyph-name="fathatanlow" unicode="&#xe823;" 
d="M850 2217l-123 -170l-680 -313l98 168zM800 1945l-120 -172l-680 -316l94 170z" />
    <glyph glyph-name="dammatanlow" unicode="&#xe824;" 
d="M835 1912q-12 -19 -63 -119q-1 5 -53 31q-181 -336 -431 -367q37 117 37 125q0 76 -82 76q-133 0 -243 -168q149 281 293 281q106 0 106 -84q0 -35 -27 -84q178 70 285 229q-91 -14 -153 0q-39 7 -39 47q0 179 94 303q31 39 59 39q41 0 86 -71q45 -94 45 -199
q29 -8 86 -39zM579 2084q-31 -19 -45 -76q-4 -43 29 -51q34 -8 113 2q0 82 -27 125t-70 0z" />
    <glyph glyph-name="shaddalow" unicode="&#xe825;" 
d="M559 1991v-234q0 -268 -190 -268q-61 0 -99 41q-46 -76 -133 -74q-127 6 -133 146q-6 188 92 274q-9 -17 -20 -135q0 -67 18.5 -99t55.5 -30q65 2 65 82v92l109 145v-204q0 -40 16.5 -58t48.5 -14q60 6 60 84v106z" />
    <glyph glyph-name="kasralow" unicode="&#xe826;" 
d="M799 -864l-121 -170l-680 -315l96 170z" />
    <glyph glyph-name="kasratanlow" unicode="&#xe827;" 
d="M850 -863l-121 -170l-680 -315l96 170zM803 -1137l-123 -172l-680 -314l96 168z" />
    <glyph glyph-name="shaddawithfathaisolatedlow" unicode="&#xe828;" 
d="M559 1991v-234q0 -268 -190 -268q-61 0 -99 41q-46 -76 -133 -74q-127 6 -133 146q-6 188 92 274q-9 -17 -20 -135q0 -67 18.5 -99t55.5 -30q65 2 65 82v92l109 145v-204q0 -40 16.5 -58t48.5 -14q60 6 60 84v106zM558 2263l-59 -105l-487 -225l47 102z" />
    <glyph glyph-name="shaddawithdammaisolatedlow" unicode="&#xe829;" 
d="M559 1991v-234q0 -268 -190 -268q-61 0 -99 41q-46 -76 -133 -74q-127 6 -133 146q-6 188 92 274q-9 -17 -20 -135q0 -67 18.5 -99t55.5 -30q65 2 65 82v92l109 145v-204q0 -40 16.5 -58t48.5 -14q60 6 60 84v106zM603 2127l-71 -61q-7 19 -31 37q-172 -125 -316 -130
q-100 -4 -244 32q244 20 514 124q-116 44 -79 111q59 107 149 134q41 12 59 -35q26 -66 -14 -152l-6 -13q26 -26 39 -47zM508 2215q23 74 -7 87q-10 4 -25 0q-32 -9 -39 -25q-14 -29 41 -54q21 -8 30 -8z" />
    <glyph glyph-name="shaddawithfathatanisolatedlow" unicode="&#xe82a;" 
d="M559 1991v-234q0 -268 -190 -268q-61 0 -99 41q-46 -76 -133 -74q-127 6 -133 146q-6 188 92 274q-9 -17 -20 -135q0 -67 18.5 -99t55.5 -30q65 2 65 82v92l109 145v-204q0 -40 16.5 -58t48.5 -14q60 6 60 84v106zM558 2263l-59 -105l-487 -225l47 102zM562 2415
l-59 -105l-487 -225l47 102z" />
    <glyph glyph-name="shaddawithdammatanisolatedlow" unicode="&#xe82b;" 
d="M559 1991v-234q0 -268 -190 -268q-61 0 -99 41q-46 -76 -133 -74q-127 6 -133 146q-6 188 92 274q-9 -17 -20 -135q0 -67 18.5 -99t55.5 -30q65 2 65 82v92l109 145v-204q0 -40 16.5 -58t48.5 -14q60 6 60 84v106zM554 2249q-11 -16 -42 -79q-2 4 -36 21
q-120 -224 -287 -245q25 78 25 83q0 51 -55 51q-89 0 -162 -112q99 187 195 187q71 0 71 -56q0 -23 -18 -56q120 49 190 153q-61 -9 -102 0q-26 5 -26 31q0 119 63 202q20 26 39 26q27 0 57 -47q30 -63 30 -133q20 -5 58 -26zM383 2364q-21 -14 -30 -51q-3 -28 19 -34
q24 -5 76 2q0 55 -18 83q-18 29 -47 0z" />
    <glyph glyph-name="shaddawithkasraisolatedlow" unicode="&#xe82c;" 
d="M559 2310v-234q0 -268 -190 -268q-61 0 -99 41q-46 -76 -133 -74q-127 6 -133 146q-6 188 92 274q-9 -17 -20 -135q0 -67 18.5 -99t55.5 -30q65 2 65 82v92l109 145v-204q0 -40 16.5 -58t48.5 -14q60 6 60 84v106zM558 1787l-59 -105l-487 -225l47 102z" />
    <glyph glyph-name="shaddawithkasratanisolatedlow" unicode="&#xe82d;" 
d="M559 2446v-234q0 -268 -190 -268q-61 0 -99 41q-46 -76 -133 -74q-127 6 -133 146q-6 188 92 274q-9 -17 -20 -135q0 -67 18.5 -99t55.5 -30q65 2 65 82v92l109 145v-204q0 -40 16.5 -58t48.5 -14q60 6 60 84v106zM558 1787l-59 -105l-487 -225l47 102zM558 1939
l-59 -105l-487 -225l47 102z" />
    <glyph glyph-name="ornateleftparenthesis" unicode="&#xfd3e;" horiz-adv-x="1039" 
d="M952 -443q0 -5 -20 -10q-110 0 -289 233q-106 140 -175 322q-174 0 -176 44q115 115 115 189q-56 0 -184 -125q-23 0 -46 141q-93 47 -93 79q0 48 90 92q0 133 41 133q59 -59 87 -79q59 -38 105 -44q-3 55 -46 108q-55 55 -82 84q0 48 184 52q119 341 338 514
q77 59 108 59q15 0 15 -20q-74 -91 -184 -251q-76 -144 -105 -315q87 -7 87 -36q-116 -102 -123 -189q50 0 102 43l82 82q49 0 49 -138q92 -41 92 -87q0 -31 -84 -82q0 -132 -46 -133q-94 105 -192 117q0 -58 128 -192q0 -17 -93 -38q57 -315 297 -522q18 -13 18 -31z
M527 649q7 -6 36 -60q14 40 95 128q0 7 -23 15q-24 5 -41 8q35 149 51 202q51 159 202 343q-228 -157 -358 -550q-138 0 -143 -23q65 -58 97 -123q19 41 36 54q12 26 30 61q3 0 7 -25q5 -25 11 -30zM727 335q15 -12 56 -53q16 0 16 99q82 43 82 62q0 20 -82 51
q0 100 -18 108q-87 -81 -138 -103q16 -7 89 -33q54 -18 54 -31q-21 -11 -141 -54q46 -16 82 -46zM504 328q110 0 110 107q0 110 -110 110t-110 -110q0 -41 34 -74t76 -33zM230 271l62 59q36 36 74 44q-35 13 -69 28q-79 37 -79 41q15 9 87 28q18 9 59 26q-50 18 -141 97
q-9 0 -13 -100q-38 -22 -79 -64q0 -21 79 -49q0 -99 20 -110zM433 138h30q18 0 29 3q117 -364 394 -545q-231 209 -287 542q69 8 69 18q-70 66 -105 128q-4 -8 -12 -27t-13 -29q-28 -54 -31 -54q-26 0 -56 110q-32 -65 -98 -130q8 -12 80 -16z" />
    <glyph glyph-name="ornaterightparenthesis" unicode="&#xfd3f;" horiz-adv-x="1039" 
d="M566 102q-68 -181 -174 -322q-177 -233 -290 -233q-18 5 -18 10q0 18 16 31q240 207 297 522q-92 21 -92 38q128 134 128 192q-99 -12 -190 -117q-48 1 -48 133q-85 51 -85 82q0 46 92 87q0 138 49 138l82 -82q53 -43 102 -43q-7 87 -123 189q0 29 87 36
q-25 171 -105 315q-110 160 -184 251q0 20 18 20q28 0 105 -59q219 -173 338 -514q184 -4 184 -52q-27 -29 -82 -84q-43 -53 -46 -108q49 6 105 44q27 19 90 79q38 0 38 -133q92 -44 92 -92q0 -33 -94 -79q-21 -141 -46 -141q-128 125 -185 125q0 -74 115 -189
q-2 -44 -176 -44zM556 643q16 -14 35 -54q32 66 98 123q-3 23 -141 23q-130 393 -361 550q151 -184 202 -343q16 -53 51 -202q-17 -3 -41 -8q-23 -8 -23 -15q84 -88 95 -128q21 31 46 92q5 23 8 23q17 -29 31 -61zM742 330l62 -59q20 11 20 110q80 29 80 49q-40 42 -80 64
q-1 100 -12 100q-4 -4 -21.5 -18t-23.5 -19t-20.5 -16t-24 -17t-23.5 -13.5t-28 -13.5q20 -8 59 -26q83 -22 87 -28q0 -3 -80 -41q-34 -16 -69 -28q39 -8 74 -44zM606 361q34 33 34 74q0 110 -108 110q-112 0 -112 -110q0 -107 112 -107q41 0 74 33zM307 335q38 31 82 46
q-133 47 -141 54q0 13 54 31q80 28 90 33q-51 21 -139 103q-17 -8 -17 -108q-80 -32 -80 -51q0 -18 80 -62q0 -99 15 -99q41 41 56 53zM435 138q-56 -333 -287 -542q277 181 395 545q10 -3 28 -3q37 0 50 1q19 1 60 15q-67 66 -97 130q-32 -110 -57 -110q-1 0 -30 54
q-5 10 -9.5 20t-9.5 20.5t-7 15.5q-35 -62 -105 -128q0 -10 69 -18z" />
    <glyph glyph-name="zerowidthnobreakspace" unicode="&#xfeff;" 
 />
    <glyph glyph-name="NULL" 
 />
    <glyph glyph-name="CR" horiz-adv-x="500" 
 />
  </font>
</defs>
</svg>
