<?xml version="1.0" standalone="no"?>
<!DOCTYPE svg PUBLIC "-//W3C//DTD SVG 1.1//EN" "http://www.w3.org/Graphics/SVG/1.1/DTD/svg11.dtd" >
<svg xmlns="http://www.w3.org/2000/svg" xmlns:xlink="http://www.w3.org/1999/xlink" version="1.1">
<metadata>
Created by FontForge 20170731 at Thu Aug 16 21:44:16 2007
 By Aleksey,,,
Copyright (c) 2007 by Quantum. All rights reserved.
</metadata>
<defs>
<font id="QTZainTextRegularPC" horiz-adv-x="0" >
  <font-face 
    font-family="QT ZainText Regular PC"
    font-weight="400"
    font-stretch="normal"
    units-per-em="2048"
    panose-1="2 1 0 0 0 0 0 0 0 0"
    ascent="1638"
    descent="-410"
    x-height="958"
    cap-height="1450"
    bbox="-258 -1411 2373 2611"
    underline-thickness="100"
    underline-position="-900"
    unicode-range="U+0020-FEFF"
  />
<missing-glyph horiz-adv-x="1024" 
d="M896 1450v-1450h-768v1450h768zM256 128h512v1194h-512v-1194z" />
    <glyph glyph-name="shaddawithfathatanisolated" unicode="&#x651;&#x64b;" 
d="M539 1931v-174q0 -248 -170 -248q-53 0 -102 54q-54 -89 -130 -87h1q-54 2 -84.5 38t-32.5 98q-4 102 34 173l-2 -2l3 5q4 -1 0 -45q0 -157 95 -151h-1q85 2 85 102v86q11 15 34.5 44.5t34.5 45.5v-143q0 -49 22.5 -72.5t64.5 -19.5q78 9 78 104v100zM608 2348l-38 -74
q-124 -65 -567 -304q7 22 13 40.5t14 41.5zM564 2115l-566 -302l32 79l574 302q-4 -8 -40 -79z" />
    <glyph glyph-name="fathaonhamza" unicode="&#x674;&#x64e;" 
d="M469 1975l-38 -74q-124 -65 -567 -304q7 22 13 40.5t14 41.5zM412 1446l-39 -114q-170 -48 -279 -129q-20 -14 -28 -21q19 86 96 161q-60 5 -89.5 32t-29.5 66q0 61 35.5 124.5t93 103.5t115.5 38q28 -2 50 -10l-11 -107q-17 4 -41 4q-65 0 -118 -36.5t-71 -106.5
q15 -26 33.5 -37t50.5 -14q103 -10 232 46z" />
    <glyph glyph-name="fathatanonhamza" unicode="&#x674;&#x64b;" 
d="M469 1975l-38 -74q-124 -65 -567 -304q7 22 13 40.5t14 41.5zM469 2133l-38 -74q-124 -65 -567 -304q7 22 13 40.5t14 41.5zM412 1446l-39 -114q-170 -48 -279 -129q-20 -14 -28 -21q19 86 96 161q-60 5 -89.5 32t-29.5 66q0 61 35.5 124.5t93 103.5t115.5 38
q28 -2 50 -10l-11 -107q-17 4 -41 4q-65 0 -118 -36.5t-71 -106.5q15 -26 33.5 -37t50.5 -14q103 -10 232 46z" />
    <glyph glyph-name="sukunonhamza" unicode="&#x674;&#x652;" 
d="M50 1798q-34 35 -26 94v-1q24 155 145 306q122 -76 184 -165h-1q9 -14 9 -40q0 -90 -65 -161q-62 -69 -153 -69q-59 0 -93 36zM287 1937q-44 83 -140 154q-53 -51 -53 -125q0 -46 9 -62.5t44 -16.5q54 0 140 50zM412 1446l-39 -114q-170 -48 -279 -129q-20 -14 -28 -21
q19 86 96 161q-60 5 -89.5 32t-29.5 66q0 61 35.5 124.5t93 103.5t115.5 38q28 -2 50 -10l-11 -107q-17 4 -41 4q-65 0 -118 -36.5t-71 -106.5q15 -26 33.5 -37t50.5 -14q103 -10 232 46z" />
    <glyph glyph-name="dammaonhamza" unicode="&#x674;&#x64f;" 
d="M446 2051l-41 -84q-21 11 -65 20q-154 -275 -339 -366q-94 -46 -220 -78q258 163 544 454q-65 -5 -87 -5q-114 0 -116 78q18 175 110 255q13 13 29 13q20 0 44 -24q66 -64 66 -195v-35q27 -10 75 -33zM292 2119q-14 110 -61 110q-16 0 -33 -14q-39 -33 -39 -57
q0 -47 88 -47q31 0 45 8zM412 1446l-39 -114q-170 -48 -279 -129q-20 -14 -28 -21q19 86 96 161q-60 5 -89.5 32t-29.5 66q0 61 35.5 124.5t93 103.5t115.5 38q28 -2 50 -10l-11 -107q-17 4 -41 4q-65 0 -118 -36.5t-71 -106.5q15 -26 33.5 -37t50.5 -14q103 -10 232 46z
" />
    <glyph glyph-name="dammatanonhamza" unicode="&#x674;&#x64c;" 
d="M396 1972q-6 4 -54 28q-173 -321 -393 -369q28 90 28 100q0 96 -102 96q-63 0 -120 -33q86 106 170 106q38 0 60.5 -13.5t28 -38t1.5 -53t-16 -65.5q113 45 187 108.5t146 169.5q-88 -14 -127 -14t-65 6q-23 5 -23 28q0 171 90 291v-1q26 32 43 32q27 0 69 -62
q42 -87 42 -203q31 -9 78 -33q-25 -45 -43 -80zM210 2245q-27 -16 -44 -88q-4 -43 29 -51q34 -8 113 2q0 82 -27 125q-32 51 -71 12zM412 1446l-39 -114q-170 -48 -279 -129q-20 -14 -28 -21q19 86 96 161q-60 5 -89.5 32t-29.5 66q0 61 35.5 124.5t93 103.5t115.5 38
q28 -2 50 -10l-11 -107q-17 4 -41 4q-65 0 -118 -36.5t-71 -106.5q15 -26 33.5 -37t50.5 -14q103 -10 232 46z" />
    <glyph glyph-name="shaddawithdammatanisolated" unicode="&#x651;&#x64c;" arabic-form="isolated" 
d="M539 1931v-174q0 -248 -170 -248q-53 0 -102 54q-54 -89 -130 -87h1q-54 2 -84.5 38t-32.5 98q-4 102 34 173l-2 -2l3 5q4 -1 0 -45q0 -157 95 -151h-1q85 2 85 102v86q11 15 34.5 44.5t34.5 45.5v-143q0 -49 22.5 -72.5t64.5 -19.5q78 9 78 104v100zM532 2174
q-6 4 -54 28q-173 -321 -393 -369q28 90 28 100q0 96 -102 96q-63 0 -120 -33q86 106 170 106q38 0 60.5 -13.5t28 -38t1.5 -53t-16 -65.5q113 45 187 108.5t146 169.5q-88 -14 -127 -14t-65 6q-23 5 -23 28q0 171 90 291v-1q26 32 43 32q27 0 69 -62q42 -87 42 -203
q31 -9 78 -33q-25 -45 -43 -80zM346 2447q-27 -16 -44 -88q-4 -43 29 -51q34 -8 113 2q0 82 -27 125q-32 51 -71 12z" />
    <glyph glyph-name="shaddawithkasratanisolated" unicode="&#x651;&#x64d;" arabic-form="isolated" 
d="M539 2260v-174q0 -248 -170 -248q-53 0 -102 54q-54 -89 -130 -87h1q-54 2 -84.5 38t-32.5 98q-4 102 34 173l-2 -2l3 5q4 -1 0 -45q0 -157 95 -151h-1q85 2 85 102v86q11 15 34.5 44.5t34.5 45.5v-143q0 -49 22.5 -72.5t64.5 -19.5q78 9 78 104v100zM564 1781l-566 -302
l32 79l574 302q-4 -8 -40 -79zM564 1627l-566 -302l32 79l574 302q-4 -8 -40 -79z" />
    <glyph glyph-name="shaddawithfathaisolated" unicode="&#x651;&#x64e;" arabic-form="isolated" 
d="M539 1931v-174q0 -248 -170 -248q-53 0 -102 54q-54 -89 -130 -87h1q-54 2 -84.5 38t-32.5 98q-4 102 34 173l-2 -2l3 5q4 -1 0 -45q0 -157 95 -151h-1q85 2 85 102v86q11 15 34.5 44.5t34.5 45.5v-143q0 -49 22.5 -72.5t64.5 -19.5q78 9 78 104v100zM564 2115l-566 -302
l32 79l574 302q-4 -8 -40 -79z" />
    <glyph glyph-name="shaddawithdammaisolated" unicode="&#x651;&#x64f;" arabic-form="isolated" 
d="M539 1931v-174q0 -248 -170 -248q-53 0 -102 54q-54 -89 -130 -87h1q-54 2 -84.5 38t-32.5 98q-4 102 34 173l-2 -2l3 5q4 -1 0 -45q0 -157 95 -151h-1q85 2 85 102v86q11 15 34.5 44.5t34.5 45.5v-143q0 -49 22.5 -72.5t64.5 -19.5q78 9 78 104v100zM592 2290l-41 -84
q-21 11 -65 20q-154 -275 -339 -366q-94 -46 -220 -78q258 163 544 454q-65 -5 -87 -5q-114 0 -116 78q18 175 110 255q13 13 29 13q20 0 44 -24q66 -65 66 -195v-35q27 -10 75 -33zM438 2358q-14 110 -61 110q-16 0 -33 -14q-39 -33 -39 -57q0 -47 88 -47q31 0 45 8z" />
    <glyph glyph-name="shaddawithkasraisolated" unicode="&#x651;&#x650;" arabic-form="isolated" 
d="M539 2260v-174q0 -248 -170 -248q-53 0 -102 54q-54 -89 -130 -87h1q-54 2 -84.5 38t-32.5 98q-4 102 34 173l-2 -2l3 5q4 -1 0 -45q0 -157 95 -151h-1q85 2 85 102v86q11 15 34.5 44.5t34.5 45.5v-143q0 -49 22.5 -72.5t64.5 -19.5q78 9 78 104v100zM564 1781l-566 -302
l32 79l574 302q-4 -8 -40 -79z" />
    <glyph glyph-name="shaddawithfathamedial" unicode="&#x640;&#x651;&#x64e;" horiz-adv-x="847" arabic-form="medial" 
d="M846 181v-181h-846q-52 0 -52 43v94q0 44 52 44h846zM681 1700v-174q0 -248 -170 -248q-53 0 -102 54q-54 -89 -130 -87h1q-54 2 -84.5 38t-32.5 98q-4 102 34 173l-2 -2l3 5q4 -1 0 -45q0 -157 95 -151h-1q85 2 85 102v86q11 15 34.5 44.5t34.5 45.5v-143
q0 -49 22.5 -72.5t64.5 -19.5q78 9 78 104v100zM706 1884l-566 -302l32 79l574 302q-4 -8 -40 -79z" />
    <glyph glyph-name="shaddawithdammamedial" unicode="&#x640;&#x651;&#x64f;" horiz-adv-x="847" arabic-form="medial" 
d="M847 181v-181h-847q-52 0 -52 43v94q0 44 52 44h847zM665 1690v-174q0 -248 -170 -248q-53 0 -102 54q-54 -89 -130 -87h1q-54 2 -84.5 38t-32.5 98q-4 102 34 173l-2 -2l3 5q4 -1 0 -45q0 -157 95 -151h-1q85 2 85 102v86q11 15 34.5 44.5t34.5 45.5v-143
q0 -49 22.5 -72.5t64.5 -19.5q78 9 78 104v100zM745 2080l-41 -84q-21 11 -65 20q-154 -275 -339 -366q-94 -46 -220 -78q258 163 544 454q-65 -5 -87 -5q-114 0 -116 78q18 175 110 255q13 13 29 13q20 0 44 -24q66 -65 66 -195v-35q27 -10 75 -33zM591 2148
q-14 110 -61 110q-16 0 -33 -14q-39 -33 -39 -57q0 -47 88 -47q31 0 45 8z" />
    <glyph glyph-name="shaddawithkasramedial" unicode="&#x640;&#x651;&#x650;" horiz-adv-x="847" arabic-form="medial" 
d="M847 181v-181h-847q-52 0 -52 43v94q0 44 52 44h847zM665 1690v-174q0 -248 -170 -248q-53 0 -102 54q-54 -89 -130 -87h1q-54 2 -84.5 38t-32.5 98q-4 102 34 173l-2 -2l3 5q4 -1 0 -45q0 -157 95 -151h-1q85 2 85 102v86q11 15 34.5 44.5t34.5 45.5v-143
q0 -49 22.5 -72.5t64.5 -19.5q78 9 78 104v100z" />
    <glyph glyph-name="alefwithfathatanfinal" unicode="&#xfe8e;&#x64b;" horiz-adv-x="434" arabic-form="final" 
d="M541 1783l-38 -74q-124 -65 -567 -304q7 22 13 40.5t14 41.5zM497 1550l-566 -302l32 79l574 302q-4 -8 -40 -79zM434 181v-181h-352v1151q28 17 81 50.5t70 44.5v-1065h201z" />
    <glyph glyph-name="alefwithfathatanisolated" unicode="&#xfe8d;&#x64b;" horiz-adv-x="409" arabic-form="isolated" 
d="M298 1244v-1147q-36 -22 -153 -95v1147q36 22 153 95zM541 1783l-38 -74q-124 -65 -567 -304q7 22 13 40.5t14 41.5zM497 1550l-566 -302l32 79l574 302q-4 -8 -40 -79z" />
    <glyph glyph-name="allahisolated" unicode="&#xfedf;&#xfee0;&#xfeea;" horiz-adv-x="1836" arabic-form="isolated" 
d="M1637 1245v-1245h-761h-4h-134l-15 111l-106 -117q-79 26 -239 26h-251q-1 13 2.5 73.5t11.5 96.5q15 79 63.5 177.5t112 185t140.5 145.5t142 59q30 0 57.5 -26t51 -75t43 -102t37.5 -125.5t30 -126t25 -121.5h202v707q18 11 151 91v-798h290v973q18 11 151 91zM215 210
h226q15 0 47 -0.5t43.5 -0.5t36.5 -1t36 -3t31 -5.5t33.5 -8.5t30.5 -12.5t34 -17.5q-20 83 -40 146.5t-45.5 120t-56.5 87t-66 30.5q-74 0 -162.5 -90.5t-147.5 -244.5zM1407 1522v-174q0 -248 -170 -248q-53 0 -102 54q-54 -89 -129 -87q-54 2 -84.5 38t-32.5 98
q-4 101 32 170l3 6q4 -1 0 -45q0 -157 94 -151q85 2 85 102v86q11 15 34.5 44.5t34.5 45.5v-143q0 -49 22.5 -72.5t64.5 -19.5q78 9 78 104v100zM1162 1932v-370q-3 -2 -17 -10.5t-20 -12.5v370q3 2 17 10.5t20 12.5z" />
    <glyph glyph-name="tatweelwithfathatanabove" unicode="&#x640;&#x64b;" horiz-adv-x="846" arabic-form="medial" 
d="M846 181v-181h-846q-52 0 -52 43v94q0 44 52 44h846zM608 1559l-38 -74q-124 -65 -567 -304q7 22 13 40.5t14 41.5zM564 1326l-566 -302l32 79l574 302q-4 -8 -40 -79z" />
    <glyph glyph-name="fathamedial" unicode="&#x640;&#x64e;" horiz-adv-x="847" arabic-form="medial" 
d="M846 181v-181h-846q-52 0 -52 43v94q0 44 52 44h846zM577 1543l-566 -302l32 79l574 302q-4 -8 -40 -79z" />
    <glyph glyph-name="dammamedial" unicode="&#x640;&#x64f;" horiz-adv-x="845" arabic-form="medial" 
d="M845 181v-181h-845q-52 0 -52 43v94q0 44 52 44h845zM706 1695l-41 -84q-21 11 -65 20q-154 -275 -339 -366q-94 -46 -220 -78q258 163 544 454q-65 -5 -87 -5q-114 0 -116 78q18 175 110 255q13 13 29 13q20 0 44 -24q66 -64 66 -195v-35q27 -10 75 -33zM552 1763
q-14 110 -61 110q-16 0 -33 -14q-39 -33 -39 -57q0 -47 88 -47q31 0 45 8z" />
    <glyph glyph-name="kasramedial" unicode="&#x640;&#x650;" horiz-adv-x="846" arabic-form="medial" 
d="M846 181v-181h-846q-52 0 -52 43v94q0 44 52 44h846zM91 -1160l566 302q36 71 40 79l-574 -302z" />
    <glyph glyph-name="shaddamedial" unicode="&#x640;&#x651;" horiz-adv-x="847" arabic-form="medial" 
d="M847 181v-181h-847q-52 0 -52 43v94q0 44 52 44h847zM539 1719v-174q0 -248 -170 -248q-53 0 -102 54q-54 -89 -130 -87h1q-54 2 -84.5 38t-32.5 98q-4 102 34 173l-2 -2l3 5q4 -1 0 -45q0 -157 95 -151h-1q85 2 85 102v86q11 15 34.5 44.5t34.5 45.5v-143
q0 -49 22.5 -72.5t64.5 -19.5q78 9 78 104v100z" />
    <glyph glyph-name="sukunmedial" unicode="&#x640;&#x652;" horiz-adv-x="845" arabic-form="medial" 
d="M845 181v-181h-845q-52 0 -52 43v94q0 44 52 44h845zM293 1340q-34 35 -26 94v-1q24 155 145 306q122 -76 184 -165h-1q9 -14 9 -40q0 -90 -65 -161q-61 -69 -153 -69q-58 0 -93 36zM530 1479q-44 83 -140 154q-53 -51 -53 -125q0 -46 9 -62.5t44 -16.5q54 0 140 50z" />
    <glyph glyph-name="lamwithalefmaddaaboveisolatedd" unicode="&#xfedf;&#xfe82;" horiz-adv-x="1060" arabic-form="isolated" 
d="M906 1246v-714q0 -49 -2 -87.5t-10.5 -91.5t-23.5 -94.5t-43 -90t-66 -84.5t-95.5 -71.5t-129.5 -58.5t-170 -37.5t-214 -15.5l-117 170q15 -1 82 -1q159 0 297 31q4 32 4 73q0 258 -191 664v-1l-54 120t-53 120l150 126q22 -52 49 -127q75 -209 121 -375
q57 -215 57 -356q0 -111 -60 -237q83 31 142.5 70.5t93 77.5t52.5 87t24.5 90.5t5.5 96.5v625q18 11 151 91zM387 1301h1l-423 -64q-88 -13 -126 -39q11 74 53 118t126 62l414 65q102 23 134 42q-8 -42 -16.5 -67t-27 -51.5t-51.5 -42t-84 -23.5z" />
    <glyph glyph-name="lamwithalefmaddaabovefinal" unicode="&#xfee0;&#xfe82;" horiz-adv-x="1067" arabic-form="final" 
d="M1067 181v-181h-127q-68 0 -92 190q-218 -285 -698 -290l-117 170q15 -1 82 -1q161 0 297 32q5 62 5 77q0 252 -192 659v-1q-18 40 -53.5 120t-53.5 120l81 67.5t71 58.5q21 -53 48 -127q71 -197 120 -375q56 -215 56 -350q0 -113 -60 -241q82 31 141.5 69.5t93.5 77
t54 87t26 90.5t6 96v625q18 11 151 91l-2 -735q0 -40 0.5 -61.5t3 -61.5t7 -64t14 -54.5t23 -47t34.5 -28.5t48 -12h33zM387 1301h1l-423 -64q-88 -13 -126 -39q11 74 53 118t126 62l414 65q102 23 134 42q-8 -42 -16.5 -67t-27 -51.5t-51.5 -42t-84 -23.5z" />
    <glyph glyph-name="lamwithalefhamzaaboveisolatedd" unicode="&#xfedf;&#xfe84;" horiz-adv-x="1062" arabic-form="isolated" 
d="M906 1246v-714q0 -49 -2 -87.5t-10.5 -91.5t-23.5 -94.5t-43 -90t-66 -84.5t-95.5 -71.5t-129.5 -58.5t-170 -37.5t-214 -15.5l-117 170q15 -1 82 -1q159 0 297 31q4 32 4 73q0 258 -191 664v-1l-54 120t-53 120l150 126q22 -52 49 -127q75 -209 121 -375
q57 -215 57 -356q0 -111 -60 -237q83 31 142.5 70.5t93 77.5t52.5 87t24.5 90.5t5.5 96.5v625q18 11 151 91zM390 1423l-39 -114q-170 -48 -279 -129q-20 -14 -28 -21q19 86 96 161q-60 5 -89.5 32t-29.5 66q0 61 35.5 124.5t93 103.5t115.5 38q28 -2 50 -10l-11 -107
q-17 4 -41 4q-65 0 -118 -36.5t-71 -106.5q15 -26 33.5 -37t50.5 -14q103 -10 232 46z" />
    <glyph glyph-name="lamwithalefhamzaabovefinal" unicode="&#xfee0;&#xfe84;" horiz-adv-x="1067" arabic-form="final" 
d="M1067 181v-181h-127q-68 0 -92 190q-218 -285 -698 -290l-117 170q15 -1 82 -1q161 0 297 32q5 62 5 77q0 252 -192 659v-1q-18 40 -53.5 120t-53.5 120l81 67.5t71 58.5q21 -53 48 -127q71 -197 120 -375q56 -215 56 -350q0 -113 -60 -241q82 31 141.5 69.5t93.5 77
t54 87t26 90.5t6 96v625q18 11 151 91l-2 -735q0 -40 0.5 -61.5t3 -61.5t7 -64t14 -54.5t23 -47t34.5 -28.5t48 -12h33zM406 1423l-39 -114q-170 -48 -279 -129q-20 -14 -28 -21q19 86 96 161q-60 5 -89.5 32t-29.5 66q0 61 35.5 124.5t93 103.5t115.5 38q28 -2 50 -10
l-11 -107q-17 4 -41 4q-65 0 -118 -36.5t-71 -106.5q15 -26 33.5 -37t50.5 -14q103 -10 232 46z" />
    <glyph glyph-name="lamwithalefhamzabelowisolated" unicode="&#xfedf;&#xfe88;" horiz-adv-x="1061" arabic-form="isolated" 
d="M906 1246v-714q0 -49 -2 -87.5t-10.5 -91.5t-23.5 -94.5t-43 -90t-66 -84.5t-95.5 -71.5t-129.5 -58.5t-170 -37.5t-214 -15.5l-117 170q15 -1 82 -1q159 0 297 31q4 32 4 73q0 258 -191 664v-1l-54 120t-53 120l150 126q22 -52 49 -127q75 -209 121 -375
q57 -215 57 -356q0 -111 -60 -237q83 31 142.5 70.5t93 77.5t52.5 87t24.5 90.5t5.5 96.5v625q18 11 151 91zM656 -378l-39 -114q-170 -48 -279 -129q-20 -14 -28 -21q19 86 96 161q-60 5 -89.5 32t-29.5 66q0 61 35.5 124.5t93 103.5t115.5 38q28 -2 50 -10l-11 -107
q-17 4 -41 4q-65 0 -118 -36.5t-71 -106.5q15 -26 33.5 -37t50.5 -14q103 -10 232 46z" />
    <glyph glyph-name="lamwithalefhamzabelowfinal" unicode="&#xfee0;&#xfe88;" horiz-adv-x="1067" arabic-form="final" 
d="M1067 181v-181h-127q-68 0 -92 190q-218 -285 -698 -290l-117 170q15 -1 82 -1q161 0 297 32q5 62 5 77q0 252 -192 659v-1q-18 40 -53.5 120t-53.5 120l81 67.5t71 58.5q21 -53 48 -127q71 -197 120 -375q56 -215 56 -350q0 -113 -60 -241q82 31 141.5 69.5t93.5 77
t54 87t26 90.5t6 96v625q18 11 151 91l-2 -735q0 -40 0.5 -61.5t3 -61.5t7 -64t14 -54.5t23 -47t34.5 -28.5t48 -12h33zM644 -386l-39 -114q-170 -48 -279 -129q-20 -14 -28 -21q19 86 96 161q-60 5 -89.5 32t-29.5 66q0 61 35.5 124.5t93 103.5t115.5 38q28 -2 50 -10
l-11 -107q-17 4 -41 4q-65 0 -118 -36.5t-71 -106.5q15 -26 33.5 -37t50.5 -14q103 -10 232 46z" />
    <glyph glyph-name="lamwithalefisolated" unicode="&#xfedf;&#xfe8e;" horiz-adv-x="997" arabic-form="isolated" 
d="M906 1246v-714q0 -49 -2 -87.5t-10.5 -91.5t-23.5 -94.5t-43 -90t-66 -84.5t-95.5 -71.5t-129.5 -58.5t-170 -37.5t-214 -15.5l-117 170q15 -1 82 -1q159 0 297 31q4 32 4 73q0 258 -191 664v-1l-54 120t-53 120l150 126q22 -52 49 -127q75 -209 121 -375
q57 -215 57 -356q0 -111 -60 -237q83 31 142.5 70.5t93 77.5t52.5 87t24.5 90.5t5.5 96.5v625q18 11 151 91z" />
    <glyph glyph-name="lamwithaleffinal" unicode="&#xfee0;&#xfe8e;" horiz-adv-x="1067" arabic-form="final" 
d="M1067 181v-181h-127q-68 0 -92 190q-218 -285 -698 -290l-117 170q15 -1 82 -1q161 0 297 32q5 62 5 77q0 252 -192 659v-1q-18 40 -53.5 120t-53.5 120l81 67.5t71 58.5q21 -53 48 -127q71 -197 120 -375q56 -215 56 -350q0 -113 -60 -241q82 31 141.5 69.5t93.5 77
t54 87t26 90.5t6 96v625q18 11 151 91l-2 -735q0 -40 0.5 -61.5t3 -61.5t7 -64t14 -54.5t23 -47t34.5 -28.5t48 -12h33z" />
    <glyph glyph-name="alefwaslaisolated" unicode="&#x671;" horiz-adv-x="429" arabic-form="isolated" 
d="M298 1244v-1147q-36 -22 -153 -95v1147q36 22 153 95zM-79 1281l-15 43q15 13 32.5 27t46 36.5t52.5 42.5q5 -2 47 -21.5t71 -29.5t52 -12q72 89 167 136q55 26 97 26h7.5t7 -0.5t5.5 -1t5.5 -1.5t5 -2t6 -3t6 -3t7 -4t8.5 -5q21 -14 19 -38.5t-15 -48.5t-28 -35
q-83 -76 -233 -76q-49 0 -94.5 11.5t-142.5 44.5q-60 -48 -114 -86zM262 1359q47 0 76 3q50 5 107 41q63 39 32 63q-33 26 -155 -58q-59 -41 -60 -49z" />
    <glyph glyph-name="alefwaslafinal" unicode="&#x671;" horiz-adv-x="444" arabic-form="final" 
d="M443 0h-358v1151q28 17 81 50.5t70 44.5v-1065h207v-181zM-104 1281l-15 43q15 13 32.5 27t46 36.5t52.5 42.5q5 -2 47 -21.5t71 -29.5t52 -12q72 89 167 136q55 26 97 26h7.5t7 -0.5t5.5 -1t5.5 -1.5t5 -2t6 -3t6 -3t7 -4t8.5 -5q21 -14 19 -38.5t-15 -48.5t-28 -35
q-83 -76 -233 -76q-49 0 -94.5 11.5t-142.5 44.5q-60 -48 -114 -86zM237 1359q47 0 76 3q50 5 107 41q63 39 32 63q-33 26 -155 -58q-59 -41 -60 -49z" />
    <glyph glyph-name="pehisolated" unicode="&#x67e;" horiz-adv-x="1598" arabic-form="isolated" 
d="M369 181h1079q-28 91 -61 160.5t-86 159.5l-30 50l132 152q130 -279 130 -508q0 -99 -15 -195h-1192q-138 0 -214 65.5t-76 188.5q0 115 51.5 222t139.5 193l44 -43q-53 -64 -89.5 -140.5t-36.5 -139.5q0 -75 53.5 -120t170.5 -45zM825 -196l-138 -111l-138 112l138 109
q21 -17 65.5 -52.5t72.5 -57.5zM1100 -196l-138 -111l-138 112l138 109q21 -17 65.5 -52.5t72.5 -57.5zM958 -365l-138 -110l-138 111l138 109q21 -17 65.5 -52.5t72.5 -57.5z" />
    <glyph glyph-name="pehfinal" unicode="&#x67e;" horiz-adv-x="1615" arabic-form="final" 
d="M825 -196l-138 -111l-138 112l138 109q21 -17 65.5 -52.5t72.5 -57.5zM1100 -196l-138 -111l-138 112l138 109q21 -17 65.5 -52.5t72.5 -57.5zM958 -365l-138 -110l-138 111l138 109q21 -17 65.5 -52.5t72.5 -57.5zM369 181h1079q-28 91 -61 160.5t-86 159.5l-30 50
l132 152q130 -279 130 -508v-14h82v-181h-1289q-138 0 -214 65.5t-76 188.5q0 115 51.5 222t139.5 193l44 -43q-53 -64 -89.5 -140.5t-36.5 -139.5q0 -75 53.5 -120t170.5 -45z" />
    <glyph glyph-name="pehinitial" unicode="&#x67e;" horiz-adv-x="780" arabic-form="initial" 
d="M-22 181h660q-20 65 -47 127.5t-46 97.5t-62 112v-1q-2 4 -20 34l132 152q130 -276 130 -510q0 -93 -13 -193h-734q-22 0 -22 23v133q0 25 22 25zM352 -196l-138 -111l-138 112l138 109q21 -17 65.5 -52.5t72.5 -57.5zM627 -196l-138 -111l-138 112l138 109
q21 -17 65.5 -52.5t72.5 -57.5zM485 -365l-138 -110l-138 111l138 109q21 -17 65.5 -52.5t72.5 -57.5z" />
    <glyph glyph-name="pehmedial" unicode="&#x67e;" horiz-adv-x="794" arabic-form="medial" 
d="M794 181v-181h-813q-22 0 -22 23v133q0 25 22 25h405q-28 94 -65 170.5t-98 179.5l-14 22l133 152q124 -266 129 -524h323zM403 -196l-138 -111l-138 112l138 109q21 -17 65.5 -52.5t72.5 -57.5zM678 -196l-138 -111l-138 112l138 109q21 -17 65.5 -52.5t72.5 -57.5z
M536 -365l-138 -110l-138 111l138 109q21 -17 65.5 -52.5t72.5 -57.5z" />
    <glyph glyph-name="vehisolated" unicode="&#x6a4;" horiz-adv-x="1842" arabic-form="isolated" 
d="M1415 443h-1q67 4 175 27q-98 270 -221 270q-38 0 -73.5 -25t-59 -61t-40.5 -73t-23 -64.5t-1 -32.5q51 -44 178 -44q31 0 66 3zM45 295q0 153 69.5 286t169.5 215q12 -12 42 -40q-65 -72 -108.5 -175t-43.5 -192q0 -94 53 -151t167 -57h1259q-6 34 -10 61.5t-6 41.5
t-7 33q-209 -47 -330 -47q-68 0 -116 12t-69.5 31t-29.5 34t-8 29q0 5 -0.5 15.5t-0.5 16.5q0 112 29 209.5t74 160t95.5 100t98.5 44.5q9 1 27 1q102 0 180.5 -101t120.5 -262t53 -363q0 -1 3 -51t6 -98t2 -48h-1433q-38 0 -76 9t-76.5 31.5t-68 55t-48 84t-18.5 115.5z
M1398 1094l-138 -138l-138 139l138 137zM1675 1094l-138 -138l-138 139l138 137zM1534 1316l-138 -138l-138 139l138 137q18 -18 45 -45.5t48.5 -49t44.5 -43.5z" />
    <glyph glyph-name="vehfinal" unicode="&#x6a4;" horiz-adv-x="1847" arabic-form="final" 
d="M1847 181v-181h-1515q-38 0 -76 9t-76.5 31.5t-68 55t-48 84t-18.5 115.5q0 153 69.5 286t169.5 215q12 -12 42 -40q-65 -72 -108.5 -175t-43.5 -192q0 -94 53 -151t167 -57h1259q-6 34 -10 61.5t-6 41.5t-7 33q-209 -47 -330 -47q-68 0 -116 12t-69.5 31t-29.5 34t-8 29
q0 5 -0.5 15.5t-0.5 16.5q0 112 29 209.5t74 160t95.5 100t98.5 44.5q9 1 27 1q104 0 182.5 -103.5t120.5 -268t52 -370.5h92zM1415 443h-1q67 4 175 27q-98 270 -221 270q-38 0 -73.5 -25t-59 -61t-40.5 -73t-23 -64.5t-1 -32.5q51 -44 178 -44q31 0 66 3zM1398 1094
l-138 -138l-138 139l138 137zM1675 1094l-138 -138l-138 139l138 137zM1534 1316l-138 -138l-138 139l138 137q18 -18 45 -45.5t48.5 -49t44.5 -43.5z" />
    <glyph glyph-name="vehinitial" unicode="&#x6a4;" horiz-adv-x="944" arabic-form="initial" 
d="M-28 23v133q0 25 22 25h758q-17 99 -24 131q-187 -42 -330 -42q-68 0 -116 12.5t-69.5 32t-29.5 34.5t-10 29v-1q-3 96 15 182.5t49.5 148.5t72 109.5t82 72.5t80.5 31h-1q20 2 27 2q102 0 180.5 -100.5t121.5 -261t54 -360.5q0 -3 3.5 -98t3.5 -103h-867q-22 0 -22 23z
M684 468q-97 272 -218 272q-39 0 -74.5 -25t-59 -61t-40 -73t-22.5 -64.5t-1 -32.5q52 -45 176 -45q101 0 239 29zM499 1094l-138 -138l-138 139l138 137zM776 1094l-138 -138l-138 139l138 137zM635 1316l-138 -138l-138 139l138 137q18 -18 45 -45.5t48.5 -49t44.5 -43.5z
" />
    <glyph glyph-name="vehmedial" unicode="&#x6a4;" horiz-adv-x="949" arabic-form="medial" 
d="M684 468q-97 272 -218 272q-39 0 -74.5 -25t-59 -61t-40 -73t-22.5 -64.5t-1 -32.5q52 -45 176 -45q101 0 239 29zM949 181v-181h-955q-22 0 -22 23v133q0 25 22 25h758q-17 99 -24 131q-187 -42 -330 -42q-68 0 -116 12.5t-69.5 32t-29.5 34.5t-10 29v-1q-3 96 15 182.5
t49.5 148.5t72 109.5t82 72.5t80.5 31h-1q20 2 27 2q104 0 183 -104t121 -268.5t52 -369.5h95zM479 1094l-138 -138l-138 139l138 137zM756 1094l-138 -138l-138 139l138 137q18 -18 45 -45.5t48.5 -49t44.5 -43.5zM615 1316l-138 -138l-138 139l138 137q18 -18 45 -45.5
t48.5 -49t44.5 -43.5z" />
    <glyph glyph-name="tchehisolated" unicode="&#x686;" horiz-adv-x="1070" arabic-form="isolated" 
d="M965 -447l-71 -225q-132 -41 -338 -49q-108 -2 -195 25.5t-144 74t-96.5 110.5t-58 131t-22.5 140q1 77 27 161t79 177.5t147 190.5t219 183q-201 49 -243 53q-33 3 -66 3q-118 0 -175 -54l-16 -16l-6 5l68 112q44 72 90.5 100.5t113.5 28.5q80 0 312 -54
q64 -15 111.5 -24.5t104 -17.5t101.5 -7.5t77 9.5q-9 -23 -24.5 -61t-26.5 -67q-10 -28 -40.5 -45.5t-69.5 -17.5q-71 0 -229 33q-75 -64 -142 -134.5t-127.5 -152t-96.5 -168t-36 -162.5q0 -98 57 -180q56 -80 158.5 -118t223.5 -38q163 0 334 54zM642 41l138 138l138 -139
l-138 -137q-18 18 -45 45.5t-48.5 49t-44.5 43.5zM365 41l138 138l138 -139l-138 -137zM506 -181l138 138l138 -139l-138 -137q-18 18 -45 45.5t-48.5 49t-44.5 43.5z" />
    <glyph glyph-name="tchehfinal" unicode="&#x686;" horiz-adv-x="1074" arabic-form="final" 
d="M575 -86l139 -139l-139 -139l-140 139zM965 -447l-71 -225q-132 -41 -338 -49q-108 -2 -195 25.5t-144 74t-96.5 110.5t-58 131t-22.5 140q1 77 27 161t79 177.5t147 190.5t219 183q-201 49 -243 53q-33 3 -66 3q-118 0 -175 -54l-16 -16l-6 5l68 112q44 72 90.5 100.5
t113.5 28.5q80 0 312 -54q64 -15 111.5 -24.5t104 -17.5t101.5 -7.5t77 9.5q-9 -23 -24.5 -61t-26.5 -67q-10 -28 -40.5 -45.5t-69.5 -17.5q-71 0 -229 33q-2 -116 80 -193.5t223 -77.5h177v-181h-241q-275 0 -283 406q-147 -121 -252.5 -279t-105.5 -292q0 -98 57 -180
q56 -80 158.5 -118t223.5 -38q163 0 334 54z" />
    <glyph glyph-name="tchehinitial" unicode="&#x686;" horiz-adv-x="1252" arabic-form="initial" 
d="M1211 181l-54 -181h-1185q-22 0 -22 23v133q0 25 22 25h964q-113 186 -232 295q-44 41 -114.5 70t-148.5 29q-114 0 -200 -62l-13 13q123 121 187.5 165.5t133.5 44.5q74 0 155.5 -49.5t147.5 -142.5q129 -191 177 -283q44 -80 135 -80h47zM543 -224l138 138l138 -139
l-138 -137q-18 18 -45 45.5t-48.5 49t-44.5 43.5zM266 -224l138 138l138 -139l-138 -137zM407 -446l138 138l138 -139l-138 -137z" />
    <glyph glyph-name="tchehmedial" unicode="&#x686;" horiz-adv-x="1210" arabic-form="medial" 
d="M1211 181v-181h-1239q-22 0 -22 23v133q0 25 22 25h964q-113 186 -232 295q-44 41 -114.5 70t-148.5 29q-114 0 -200 -62l-13 13q123 121 187.5 165.5t133.5 44.5q74 0 155.5 -49.5t147.5 -142.5q129 -191 177 -283q44 -80 135 -80h47zM543 -224l138 138l138 -139
l-138 -137q-18 18 -45 45.5t-48.5 49t-44.5 43.5zM266 -224l138 138l138 -139l-138 -137zM407 -446l138 138l138 -139l-138 -137z" />
    <glyph glyph-name="jehisolated" unicode="&#x698;" horiz-adv-x="643" arabic-form="isolated" 
d="M208 -628l-184 155q169 117 254 266.5t118 333.5q-25 120 -67.5 215t-115.5 209l125 165q150 -315 154 -613q0 -387 -284 -731zM316 903l-138 -138l-138 139l138 137q18 -18 45 -45.5t48.5 -49t44.5 -43.5zM593 903l-138 -138l-138 139l138 137zM452 1125l-138 -138
l-138 139l138 137q18 -18 45 -45.5t48.5 -49t44.5 -43.5z" />
    <glyph glyph-name="jehfinal" unicode="&#x698;" horiz-adv-x="628" arabic-form="final" 
d="M629 181v-181h-147q-33 -337 -279 -632q-37 32 -96 81t-89 74q170 117 254.5 266t118.5 334q-25 120 -67.5 215.5t-115.5 208.5l125 166q126 -266 152 -532h144zM302 906l-138 -138l-138 139l138 137q18 -18 45 -45.5t48.5 -49t44.5 -43.5zM579 906l-138 -138l-138 139
l138 137q18 -18 45 -45.5t48.5 -49t44.5 -43.5zM438 1128l-138 -138l-138 139l138 137q18 -18 45 -45.5t48.5 -49t44.5 -43.5z" />
    <glyph glyph-name="kehehisolated" unicode="&#x6a9;" horiz-adv-x="1726" arabic-form="isolated" 
d="M57 297q0 148 62 267.5t159 201.5q2 -7 2.5 -10.5t1 -4.5t0.5 -3t1 -5q-57 -63 -92 -151.5t-35 -170.5q0 -107 60.5 -173.5t187.5 -66.5h1078v973q18 11 151 91v-1245h-1291q-39 0 -77 9.5t-76 31.5t-67 55t-47 85t-18 116zM1064 851l-34 -102q-170 -48 -279 -129
q-20 -14 -28 -21q17 77 91 149q-110 18 -110 99q0 56 33 118.5t89 105.5t113 41q28 -2 50 -10l-11 -107q-17 4 -41 4q-61 0 -118 -40t-94 -111q49 -37 107 -43q103 -10 232 46z" />
    <glyph glyph-name="kehehfinal" unicode="&#x6a9;" horiz-adv-x="1752" arabic-form="final" 
d="M1752 181v-181h-1410q-39 0 -77 9.5t-76 31.5t-67 55t-47 85t-18 116q0 148 62 267.5t159 201.5q2 -7 2.5 -10.5t1 -4.5t0.5 -3t1 -5q-57 -63 -92 -151.5t-35 -170.5q0 -107 60.5 -173.5t187.5 -66.5h1078v973q18 11 151 91v-1064h119zM1064 851l-34 -102
q-170 -48 -279 -129q-20 -14 -28 -21q17 77 91 149q-110 18 -110 99q0 56 33 118.5t89 105.5t113 41q28 -2 50 -10l-11 -107q-17 4 -41 4q-61 0 -118 -40t-94 -111q49 -37 107 -43q103 -10 232 46z" />
    <glyph glyph-name="kehehinitial" unicode="&#x6a9;" horiz-adv-x="1078" arabic-form="initial" 
d="M1030 0h-1045q-22 0 -22 23v133q0 25 22 25h841q-54 161 -195 247.5t-341 93.5q-27 1 -69 0.5t-59 -0.5v223q0 47 17.5 83t36 53t52.5 41l502 314q55 36 90 36q24 0 37.5 -19t13.5 -51l6 -139q-2 1 -12 7t-19 7q-8 1 -14.5 1t-14 -1t-12.5 -2t-13 -4t-11.5 -4.5t-12.5 -7
t-12.5 -7t-14.5 -8.5t-14 -9l-521 -331q489 -51 680 -318q113 -158 104 -386z" />
    <glyph glyph-name="kehehmedial" unicode="&#x6a9;" horiz-adv-x="1070" arabic-form="medial" 
d="M1070 181v-181h-1085q-22 0 -22 23v133q0 25 22 25h841q-54 161 -195 247.5t-341 93.5q-27 1 -69 0.5t-59 -0.5v223q0 47 17.5 83t36 53t52.5 41l502 314q55 36 90 36q24 0 37.5 -19t13.5 -51l6 -139q-2 1 -12 7t-19 7q-8 1 -14.5 1t-14 -1t-12.5 -2t-13 -4t-11.5 -4.5
t-12.5 -7t-12.5 -7t-14.5 -8.5t-14 -9l-521 -331q347 -37 531 -169t237 -354h56z" />
    <glyph glyph-name="gafisolated" unicode="&#x6af;" horiz-adv-x="1726" arabic-form="isolated" 
d="M57 297q0 148 62 267.5t159 201.5q2 -7 2.5 -10.5t1 -4.5t0.5 -3t1 -5q-57 -63 -92 -151.5t-35 -170.5q0 -107 60.5 -173.5t187.5 -66.5h1078v973q18 11 151 91v-1245h-1291q-39 0 -77 9.5t-76 31.5t-67 55t-47 85t-18 116zM1064 851l-34 -102q-170 -48 -279 -129
q-20 -14 -28 -21q17 77 91 149q-110 18 -110 99q0 56 33 118.5t89 105.5t113 41q28 -2 50 -10l-11 -107q-17 4 -41 4q-61 0 -118 -40t-94 -111q49 -37 107 -43q103 -10 232 46z" />
    <glyph glyph-name="gaffinal" unicode="&#x6af;" horiz-adv-x="1752" arabic-form="final" 
d="M1752 181v-181h-1410q-39 0 -77 9.5t-76 31.5t-67 55t-47 85t-18 116q0 148 62 267.5t159 201.5q2 -7 2.5 -10.5t1 -4.5t0.5 -3t1 -5q-57 -63 -92 -151.5t-35 -170.5q0 -107 60.5 -173.5t187.5 -66.5h1078v973q18 11 151 91v-1064h119zM1064 851l-34 -102
q-170 -48 -279 -129q-20 -14 -28 -21q17 77 91 149q-110 18 -110 99q0 56 33 118.5t89 105.5t113 41q28 -2 50 -10l-11 -107q-17 4 -41 4q-61 0 -118 -40t-94 -111q49 -37 107 -43q103 -10 232 46z" />
    <glyph glyph-name="gafinitial" unicode="&#x6af;" horiz-adv-x="1078" arabic-form="initial" 
d="M1030 0h-1045q-22 0 -22 23v133q0 25 22 25h841q-54 161 -195 247.5t-341 93.5q-27 1 -69 0.5t-59 -0.5v223q0 47 17.5 83t36 53t52.5 41l502 314q55 36 90 36q24 0 37.5 -19t13.5 -51l6 -139q-2 1 -12 7t-19 7q-8 1 -14.5 1t-14 -1t-12.5 -2t-13 -4t-11.5 -4.5t-12.5 -7
t-12.5 -7t-14.5 -8.5t-14 -9l-521 -331q489 -51 680 -318q113 -158 104 -386z" />
    <glyph glyph-name="gafmedial" unicode="&#x6af;" horiz-adv-x="1078" arabic-form="medial" 
d="M1030 0h-1045q-22 0 -22 23v133q0 25 22 25h841q-54 161 -195 247.5t-341 93.5q-27 1 -69 0.5t-59 -0.5v223q0 47 17.5 83t36 53t52.5 41l502 314q55 36 90 36q24 0 37.5 -19t13.5 -51l6 -139q-2 1 -12 7t-19 7q-8 1 -14.5 1t-14 -1t-12.5 -2t-13 -4t-11.5 -4.5t-12.5 -7
t-12.5 -7t-14.5 -8.5t-14 -9l-521 -331q489 -51 680 -318q113 -158 104 -386z" />
    <glyph glyph-name="farsiyehisolated" unicode="&#x6cc;" horiz-adv-x="1291" arabic-form="isolated" 
d="M271 578l53 -52q-120 -170 -120 -342q0 -180 123.5 -301.5t303.5 -121.5q132 0 263.5 78.5t213.5 191.5q-8 28 -33 54t-66.5 47.5t-80.5 38t-95 32.5t-88.5 24.5t-81.5 20.5q-30 10 -39.5 33t-9.5 59q7 99 66.5 203.5t151.5 175t182 70.5q117 0 117 -195v-9
q-41 31 -107 31q-94 0 -184 -58.5t-121 -147.5q78 -18 157.5 -45t162 -66.5t134 -93.5t51.5 -113q0 -47 -28 -115t-83.5 -143t-128 -139.5t-173 -107t-207.5 -42.5q-108 0 -198 34t-149 87.5t-100 122t-58.5 135t-17.5 128.5q0 287 190 526z" />
    <glyph glyph-name="farsiyehfinal" unicode="&#x6cc;" horiz-adv-x="1417" arabic-form="final" 
d="M1256 11q-18 -60 -53 -123t-94.5 -129.5t-133.5 -117.5t-178 -84t-221 -33q-107 0 -196.5 31.5t-148.5 83t-100.5 118.5t-59.5 136t-18 137q3 287 188 527q14 -13 29.5 -28.5l23.5 -23.5q-129 -184 -129 -368q0 -176 113.5 -293.5t287.5 -117.5q184 0 344.5 88t248.5 212
q-178 53 -264 125q-10 7 -22 18t-27 39t-15 60v90q100 -93 228.5 -135t339.5 -42h19v-181h-28q-58 0 -134 11z" />
    <glyph glyph-name="fathatanisolated" unicode="&#xfe70;" arabic-form="isolated" 
d="M541 1783l-38 -74q-124 -65 -567 -304q7 22 13 40.5t14 41.5zM497 1550l-566 -302l32 79l574 302q-4 -8 -40 -79z" />
    <glyph glyph-name="dammatanisolated" unicode="&#xfe72;" arabic-form="isolated" 
d="M764 1823q-6 4 -54 28q-173 -321 -393 -369q28 90 28 100q0 96 -102 96q-63 0 -120 -33q86 106 170 106q38 0 60.5 -13.5t28 -38t1.5 -53t-16 -65.5q113 45 187 108.5t146 169.5q-88 -14 -127 -14t-65 6q-23 5 -23 28q0 171 90 291v-1q26 32 43 32q27 0 69 -62
q42 -87 42 -203q31 -9 78 -33q-25 -45 -43 -80zM578 2096q-27 -16 -44 -88q-4 -43 29 -51q34 -8 113 2q0 82 -27 125q-32 51 -71 12z" />
    <glyph glyph-name="kasratanisolated" unicode="&#xfe74;" arabic-form="isolated" 
d="M608 -840l-38 -74q-124 -65 -567 -304q7 22 13 40.5t14 41.5zM564 -1073l-566 -302l32 79l574 302q-4 -8 -40 -79z" />
    <glyph glyph-name="fathaisolated" unicode="&#xfe76;" arabic-form="isolated" 
d="M577 1543l-566 -302l32 79l574 302q-4 -8 -40 -79z" />
    <glyph glyph-name="dammaisolated" unicode="&#xfe78;" arabic-form="isolated" 
d="M706 1970l-41 -84q-21 11 -65 20q-154 -275 -339 -366q-94 -46 -220 -78q258 163 544 454q-65 -5 -87 -5q-114 0 -116 78q18 175 110 255q13 13 29 13q20 0 44 -24q66 -65 66 -195v-35q27 -10 75 -33zM552 2038q-14 110 -61 110q-16 0 -33 -14q-39 -33 -39 -57
q0 -47 88 -47q31 0 45 8z" />
    <glyph glyph-name="kasraisolated" unicode="&#xfe7a;" arabic-form="isolated" 
d="M577 -949l-566 -302l32 79l574 302q-4 -8 -40 -79z" />
    <glyph glyph-name="shaddaisolated" unicode="&#xfe7c;" arabic-form="isolated" 
d="M539 1931v-174q0 -248 -170 -248q-53 0 -102 54q-54 -89 -130 -87h1q-54 2 -84.5 38t-32.5 98q-4 102 34 173l-2 -2l3 5q4 -1 0 -45q0 -157 95 -151h-1q85 2 85 102v86q11 15 34.5 44.5t34.5 45.5v-143q0 -49 22.5 -72.5t64.5 -19.5q78 9 78 104v100z" />
    <glyph glyph-name="sukunisolated" unicode="&#xfe7e;" arabic-form="isolated" 
d="M50 1512q-34 35 -26 94v-1q24 155 145 306q122 -76 184 -165h-1q9 -14 9 -40q0 -90 -65 -161q-62 -69 -153 -69q-59 0 -93 36zM287 1651q-44 83 -140 154q-53 -51 -53 -125q0 -46 9 -62.5t44 -16.5q54 0 140 50z" />
    <glyph glyph-name="hamzaisolated" unicode="&#x621;" horiz-adv-x="677" arabic-form="isolated" 
d="M620 168l-58 -178q-251 -71 -413 -193q-30 -23 -71 -60q13 131 134 246q-79 14 -117 55.5t-38 100.5q0 84 50 178t135 158.5t172 59.5q60 -6 90 -20q-3 -32 -9.5 -87.5t-9.5 -83.5q-28 9 -73 9q-90 0 -172 -55.5t-131 -153.5q62 -49 147 -58q22 -2 39 -2q140 0 325 84z
" />
    <glyph glyph-name="alefwithmaddaaboveisolated" unicode="&#x622;" horiz-adv-x="425" arabic-form="isolated" 
d="M387 1301h1l-423 -64q-88 -13 -126 -39q11 74 53 118t126 62l414 65q102 23 134 42q-8 -42 -16.5 -67t-27 -51.5t-51.5 -42t-84 -23.5zM298 1244v-1147q-36 -22 -153 -95v1147q36 22 153 95z" />
    <glyph glyph-name="alefwithmaddaabovefinal" unicode="&#x622;" horiz-adv-x="434" arabic-form="final" 
d="M434 181v-181h-352v1151q28 17 81 50.5t70 44.5v-1065h201zM387 1301h1l-423 -64q-88 -13 -126 -39q11 74 53 118t126 62l414 65q102 23 134 42q-8 -42 -16.5 -67t-27 -51.5t-51.5 -42t-84 -23.5z" />
    <glyph glyph-name="alefwithhamzaaboveisolated" unicode="&#x623;" horiz-adv-x="456" arabic-form="isolated" 
d="M298 1244v-1147q-36 -22 -153 -95v1147q36 22 153 95zM412 1446l-39 -114q-170 -48 -279 -129q-20 -14 -28 -21q19 86 96 161q-60 5 -89.5 32t-29.5 66q0 61 35.5 124.5t93 103.5t115.5 38q28 -2 50 -10l-11 -107q-17 4 -41 4q-65 0 -118 -36.5t-71 -106.5
q15 -26 33.5 -37t50.5 -14q103 -10 232 46z" />
    <glyph glyph-name="alefwithhamzaabovefinal" unicode="&#x623;" horiz-adv-x="434" arabic-form="final" 
d="M434 181v-181h-352v1151q28 17 81 50.5t70 44.5v-1065h201zM336 1446l-39 -114q-170 -48 -279 -129q-20 -14 -28 -21q19 86 96 161q-60 5 -89.5 32t-29.5 66q0 61 35.5 124.5t93 103.5t115.5 38q28 -2 50 -10l-11 -107q-17 4 -41 4q-65 0 -118 -36.5t-71 -106.5
q15 -26 33.5 -37t50.5 -14q103 -10 232 46z" />
    <glyph glyph-name="wawwithhamzaaboveisolated" unicode="&#x624;" horiz-adv-x="733" arabic-form="isolated" 
d="M647 85q3 -221 -78 -401q-62 -141 -202 -315q-31 26 -91 76t-95 79q263 179 348 476q-84 -1 -145.5 1t-125 10.5t-104.5 23.5t-69 42t-34 64q-13 75 4 179.5t55.5 199t100.5 161t130 66.5q81 0 149.5 -84.5t110 -236.5t46.5 -341zM462 181h73q-18 162 -77 267.5
t-138 105.5q-49 0 -92 -50t-64 -109t-21 -101q0 -55 92 -84t227 -29zM412 958l-39 -114q-170 -48 -279 -129q-20 -14 -28 -21q19 86 96 161q-60 5 -89.5 32t-29.5 66q0 61 35.5 124.5t93 103.5t115.5 38q28 -2 50 -10l-11 -107q-17 4 -41 4q-65 0 -118 -36.5t-71 -106.5
q15 -26 33.5 -37t50.5 -14q103 -10 232 46z" />
    <glyph glyph-name="wawwithhamzaabovefinal" unicode="&#x624;" horiz-adv-x="752" arabic-form="final" 
d="M754 181v-181h-111q-19 -193 -74 -316q-62 -141 -202 -315q-31 26 -91 76t-95 79q263 179 348 476q-84 -1 -145.5 1t-125 10.5t-104.5 23.5t-69 42t-34 64q-13 75 4 179.5t55.5 199t100.5 161t130 66.5q79 0 144.5 -80.5t104.5 -207t53 -278.5h111zM462 181h73
q-18 162 -77 267.5t-138 105.5q-49 0 -92 -50t-64 -109t-21 -101q0 -55 92 -84t227 -29zM412 959l-39 -114q-170 -48 -279 -129q-20 -14 -28 -21q19 86 96 161q-60 5 -89.5 32t-29.5 66q0 61 35.5 124.5t93 103.5t115.5 38q28 -2 50 -10l-11 -107q-17 4 -41 4
q-65 0 -118 -36.5t-71 -106.5q15 -26 33.5 -37t50.5 -14q103 -10 232 46z" />
    <glyph glyph-name="alefwithhamzabelowisolated" unicode="&#x625;" horiz-adv-x="473" arabic-form="isolated" 
d="M298 1244v-1147q-36 -22 -153 -95v1147q36 22 153 95zM425 -266l-39 -114q-170 -48 -279 -129q-20 -14 -28 -21q19 86 96 161q-60 5 -89.5 32t-29.5 66q0 61 35.5 124.5t93 103.5t115.5 38q28 -2 50 -10l-11 -107q-17 4 -41 4q-66 0 -118.5 -36.5t-70.5 -106.5
q15 -26 33.5 -37t50.5 -14q103 -10 232 46z" />
    <glyph glyph-name="alefwithhamzabelowfinal" unicode="&#x625;" horiz-adv-x="434" arabic-form="final" 
d="M434 181v-181h-352v1151q28 17 81 50.5t70 44.5v-1065h201zM393 -305l-39 -114q-170 -48 -279 -129q-20 -14 -28 -21q19 86 96 161q-60 5 -89.5 32t-29.5 66q0 61 35.5 124.5t93 103.5t115.5 38q28 -2 50 -10l-11 -107q-17 4 -41 4q-66 0 -118.5 -36.5t-70.5 -106.5
q15 -26 33.5 -37t50.5 -14q103 -10 232 46z" />
    <glyph glyph-name="yehwithhamzaaboveisolated" unicode="&#x626;" horiz-adv-x="1320" arabic-form="isolated" 
d="M271 578l53 -52q-120 -170 -120 -342q0 -180 123.5 -301.5t303.5 -121.5q132 0 263.5 78.5t213.5 191.5q-8 28 -33 54t-66.5 47.5t-80.5 38t-95 32.5t-88.5 24.5t-81.5 20.5q-30 10 -39.5 33t-9.5 59q7 99 66.5 203.5t151.5 175t182 70.5q117 0 117 -195v-9
q-41 31 -107 31q-94 0 -184 -58.5t-121 -147.5q78 -18 157.5 -45t162 -66.5t134 -93.5t51.5 -113q0 -47 -28 -115t-83.5 -143t-128 -139.5t-173 -107t-207.5 -42.5q-108 0 -198 34t-149 87.5t-100 122t-58.5 135t-17.5 128.5q0 287 190 526zM437 813l-39 -114
q-170 -48 -279 -129q-20 -14 -28 -21q19 86 96 161q-60 5 -89.5 32t-29.5 66q0 61 35.5 124.5t93 103.5t115.5 38q28 -2 50 -10l-11 -107q-17 4 -41 4q-66 0 -118.5 -36.5t-70.5 -106.5q15 -26 33.5 -37t50.5 -14q103 -10 232 46z" />
    <glyph glyph-name="yehwithhamzaabovefinal" unicode="&#x626;" horiz-adv-x="1417" arabic-form="final" 
d="M1256 11q-18 -60 -53 -123t-94.5 -129.5t-133.5 -117.5t-178 -84t-221 -33q-107 0 -196.5 31.5t-148.5 83t-100.5 118.5t-59.5 136t-18 137q3 287 188 527q14 -13 29.5 -28.5l23.5 -23.5q-129 -184 -129 -368q0 -176 113.5 -293.5t287.5 -117.5q184 0 344.5 88t248.5 212
q-178 53 -264 125q-10 7 -22 18t-27 39t-15 60v90q100 -93 228.5 -135t339.5 -42h19v-181h-28q-58 0 -134 11zM425 782l-39 -114q-170 -48 -279 -129q-20 -14 -28 -21q19 86 96 161q-60 5 -89.5 32t-29.5 66q0 61 35.5 124.5t93 103.5t115.5 38q28 -2 50 -10l-11 -107
q-17 4 -41 4q-66 0 -118.5 -36.5t-70.5 -106.5q15 -26 33.5 -37t50.5 -14q103 -10 232 46z" />
    <glyph glyph-name="yehwithhamzaaboveinitial" unicode="&#x626;" horiz-adv-x="780" arabic-form="initial" 
d="M-22 181h660q-20 65 -47 127.5t-46 97.5t-62 112v-1q-2 4 -20 34l132 152q130 -276 130 -510q0 -93 -13 -193h-734q-22 0 -22 23v133q0 25 22 25zM611 899l-39 -114q-170 -48 -279 -129q-20 -14 -28 -21q19 86 96 161q-60 5 -89.5 32t-29.5 66q0 61 35.5 124.5t93 103.5
t115.5 38q28 -2 50 -10l-11 -107q-17 4 -41 4q-66 0 -118.5 -36.5t-70.5 -106.5q15 -26 33.5 -37t50.5 -14q103 -10 232 46z" />
    <glyph glyph-name="yehwithhamzaabovemedial" unicode="&#x626;" horiz-adv-x="716" arabic-form="medial" 
d="M716 181v-181h-748q-22 0 -22 23v133q0 25 22 25h533q-28 94 -65 170.5t-98 179.5l-14 22l133 152q124 -266 129 -524h130zM452 869l-39 -114q-170 -48 -279 -129q-20 -14 -28 -21q19 86 96 161q-60 5 -89.5 32t-29.5 66q0 61 35.5 124.5t93 103.5t115.5 38q28 -2 50 -10
l-11 -107q-17 4 -41 4q-65 0 -118 -36.5t-71 -106.5q15 -26 33.5 -37t50.5 -14q103 -10 232 46z" />
    <glyph glyph-name="alefisolated" unicode="&#x627;" horiz-adv-x="409" arabic-form="isolated" 
d="M298 1244v-1147q-36 -22 -153 -95v1147q36 22 153 95z" />
    <glyph glyph-name="aleffinal" unicode="&#x627;" horiz-adv-x="434" arabic-form="final" 
d="M434 181v-181h-352v1151q28 17 81 50.5t70 44.5v-1065h201z" />
    <glyph glyph-name="behisolated" unicode="&#x628;" horiz-adv-x="1617" arabic-form="isolated" 
d="M369 181h1079q-28 91 -61 160.5t-86 159.5l-30 50l132 152q130 -279 130 -508q0 -99 -15 -195h-1192q-138 0 -214 65.5t-76 188.5q0 115 51.5 222t139.5 193l44 -43q-53 -64 -89.5 -140.5t-36.5 -139.5q0 -75 53.5 -120t170.5 -45zM936 -228l-138 -138l-138 139l138 137z
" />
    <glyph glyph-name="behfinal" unicode="&#x628;" horiz-adv-x="1648" arabic-form="final" 
d="M369 181h1079q-28 91 -61 160.5t-86 159.5l-30 50l132 152q130 -279 130 -508v-14h115v-181h-1322q-138 0 -214 65.5t-76 188.5q0 115 51.5 222t139.5 193l44 -43q-53 -64 -89.5 -140.5t-36.5 -139.5q0 -75 53.5 -120t170.5 -45zM932 -227l-138 -138l-138 139l138 137
q18 -18 45 -45.5t48.5 -49t44.5 -43.5z" />
    <glyph glyph-name="behinitial" unicode="&#x628;" horiz-adv-x="646" arabic-form="initial" 
d="M495 -232l-139 -140l-139 140q29 29 76 75.5t63 62.5zM-22 181h515q-20 65 -47 127.5t-46 97.5t-62 112v-1q-2 4 -20 34l132 152q130 -276 130 -510q0 -93 -13 -193h-589q-22 0 -22 23v133q0 25 22 25z" />
    <glyph glyph-name="behmedial" unicode="&#x628;" horiz-adv-x="651" arabic-form="medial" 
d="M338 -91l140 -138l-140 -140l-137 140zM651 181v-181h-670q-22 0 -22 23v133q0 25 22 25h335q-28 94 -65 170.5t-98 179.5l-14 22l133 152q124 -266 129 -524h250z" />
    <glyph glyph-name="tehmarbutaisolated" unicode="&#x629;" horiz-adv-x="827" arabic-form="isolated" 
d="M63 174q0 135 139 345q115 172 237 321q45 -32 79 -58.5t79.5 -71t75 -87t51 -98.5t21.5 -112q0 -70 -30.5 -145t-82.5 -139t-131 -105.5t-167 -41.5q-54 0 -92 4t-74 16t-57.5 32.5t-34.5 55.5t-13 84zM568 249q43 32 74 81q-31 81 -102 153t-175 152
q-55 -67 -89.5 -113t-69.5 -110t-35 -105q0 -27 14 -51q21 -33 69.5 -52t109.5 -19q118 0 204 64zM250 1152l140 -140l-140 -139l-139 139zM670 1012l-137 -139l-140 139l140 140z" />
    <glyph glyph-name="tehmarbutafinal" unicode="&#x629;" horiz-adv-x="884" arabic-form="final" 
d="M308 1078l140 -140l-140 -139l-139 139zM728 938l-137 -139l-140 139l140 140zM884 181v-181h-222l-15 111l-106 -117q-79 26 -239 26h-251q-1 13 2.5 73.5t11.5 96.5q15 79 63.5 177.5t112 185t140.5 145.5t142 59q30 0 57.5 -26t51 -75t43 -102t37.5 -125.5t30 -126
t25 -121.5h117zM170 210h195q14 0 46.5 -0.5t42.5 -0.5t34 -1t33.5 -3t28 -5.5t31 -8.5t29 -12.5t33.5 -17.5q-22 92 -38 148.5t-40 117t-52.5 89.5t-63.5 29q-70 0 -144 -88t-135 -247z" />
    <glyph glyph-name="tehisolated" unicode="&#x62a;" horiz-adv-x="1625" arabic-form="isolated" 
d="M369 181h1079q-28 91 -61 160.5t-86 159.5l-30 50l132 152q130 -279 130 -508q0 -99 -15 -195h-1192q-138 0 -214 65.5t-76 188.5q0 115 51.5 222t139.5 193l44 -43q-53 -64 -89.5 -140.5t-36.5 -139.5q0 -75 53.5 -120t170.5 -45zM796 904l-138 -138l-138 139l138 137z
M1073 904l-138 -138l-138 139l138 137q18 -18 45 -45.5t48.5 -49t44.5 -43.5z" />
    <glyph glyph-name="tehfinal" unicode="&#x62a;" horiz-adv-x="1648" arabic-form="final" 
d="M369 181h1079q-28 91 -61 160.5t-86 159.5l-30 50l132 152q130 -279 130 -508v-14h115v-181h-1322q-138 0 -214 65.5t-76 188.5q0 115 51.5 222t139.5 193l44 -43q-53 -64 -89.5 -140.5t-36.5 -139.5q0 -75 53.5 -120t170.5 -45zM1073 904l-138 -138l-138 139l138 137
q18 -18 45 -45.5t48.5 -49t44.5 -43.5zM796 904l-138 -138l-138 139l138 137z" />
    <glyph glyph-name="tehinitial" unicode="&#x62a;" horiz-adv-x="780" arabic-form="initial" 
d="M-22 181h660q-20 65 -47 127.5t-46 97.5t-62 112v-1q-2 4 -20 34l132 152q130 -276 130 -510q0 -93 -13 -193h-734q-22 0 -22 23v133q0 25 22 25zM621 904l-138 -138l-138 139l138 137q18 -18 45 -45.5t48.5 -49t44.5 -43.5zM344 904l-138 -138l-138 139l138 137
q18 -18 45 -45.5t48.5 -49t44.5 -43.5z" />
    <glyph glyph-name="tehmedial" unicode="&#x62a;" horiz-adv-x="716" arabic-form="medial" 
d="M716 181v-181h-735q-22 0 -22 23v133q0 25 22 25h405q-28 94 -65 170.5t-98 179.5l-14 22l133 152q124 -266 129 -524h245zM617 904l-138 -138l-138 139l138 137zM340 904l-138 -138l-138 139l138 137q18 -18 45 -45.5t48.5 -49t44.5 -43.5z" />
    <glyph glyph-name="thehisolated" unicode="&#x62b;" horiz-adv-x="1602" arabic-form="isolated" 
d="M369 181h1079q-28 91 -61 160.5t-86 159.5l-30 50l132 152q130 -279 130 -508q0 -99 -15 -195h-1192q-138 0 -214 65.5t-76 188.5q0 115 51.5 222t139.5 193l44 -43q-53 -64 -89.5 -140.5t-36.5 -139.5q0 -75 53.5 -120t170.5 -45zM796 904l-138 -138l-138 139l138 137z
M1073 904l-138 -138l-138 139l138 137q18 -18 45 -45.5t48.5 -49t44.5 -43.5zM932 1126l-138 -138l-138 139l138 137q18 -18 45 -45.5t48.5 -49t44.5 -43.5z" />
    <glyph glyph-name="thehfinal" unicode="&#x62b;" horiz-adv-x="1648" arabic-form="final" 
d="M369 181h1079q-28 91 -61 160.5t-86 159.5l-30 50l132 152q130 -279 130 -508v-14h115v-181h-1322q-138 0 -214 65.5t-76 188.5q0 115 51.5 222t139.5 193l44 -43q-53 -64 -89.5 -140.5t-36.5 -139.5q0 -75 53.5 -120t170.5 -45zM932 1126l-138 -138l-138 139l138 137
q18 -18 45 -45.5t48.5 -49t44.5 -43.5zM1073 904l-138 -138l-138 139l138 137q18 -18 45 -45.5t48.5 -49t44.5 -43.5zM796 904l-138 -138l-138 139l138 137z" />
    <glyph glyph-name="thehinitial" unicode="&#x62b;" horiz-adv-x="780" arabic-form="initial" 
d="M-22 181h660q-20 65 -47 127.5t-46 97.5t-62 112v-1q-2 4 -20 34l132 152q130 -276 130 -510q0 -93 -13 -193h-734q-22 0 -22 23v133q0 25 22 25zM480 1126l-138 -138l-138 139l138 137q18 -18 45 -45.5t48.5 -49t44.5 -43.5zM621 904l-138 -138l-138 139l138 137
q18 -18 45 -45.5t48.5 -49t44.5 -43.5zM344 904l-138 -138l-138 139l138 137q18 -18 45 -45.5t48.5 -49t44.5 -43.5z" />
    <glyph glyph-name="thehmedial" unicode="&#x62b;" horiz-adv-x="716" arabic-form="medial" 
d="M716 181v-181h-735q-22 0 -22 23v133q0 25 22 25h405q-28 94 -65 170.5t-98 179.5l-14 22l133 152q124 -266 129 -524h245zM476 1126l-138 -138l-138 139l138 137q18 -18 45 -45.5t48.5 -49t44.5 -43.5zM617 904l-138 -138l-138 139l138 137zM340 904l-138 -138l-138 139
l138 137q18 -18 45 -45.5t48.5 -49t44.5 -43.5z" />
    <glyph glyph-name="jeemisolated" unicode="&#x62c;" horiz-adv-x="1070" arabic-form="isolated" 
d="M601 63l139 -139l-139 -139l-140 139zM965 -447l-71 -225q-132 -41 -338 -49q-108 -2 -195 25.5t-144 74t-96.5 110.5t-58 131t-22.5 140q1 77 27 161t79 177.5t147 190.5t219 183q-201 49 -243 53q-33 3 -66 3q-118 0 -175 -54l-16 -16l-6 5l68 112q44 72 90.5 100.5
t113.5 28.5q80 0 312 -54q64 -15 111.5 -24.5t104 -17.5t101.5 -7.5t77 9.5q-9 -23 -24.5 -61t-26.5 -67q-10 -28 -40.5 -45.5t-69.5 -17.5q-71 0 -229 33q-75 -64 -142 -134.5t-127.5 -152t-96.5 -168t-36 -162.5q0 -98 57 -180q56 -80 158.5 -118t223.5 -38q163 0 334 54z
" />
    <glyph glyph-name="jeemfinal" unicode="&#x62c;" horiz-adv-x="1074" arabic-form="final" 
d="M575 -86l139 -139l-139 -139l-140 139zM965 -447l-71 -225q-132 -41 -338 -49q-108 -2 -195 25.5t-144 74t-96.5 110.5t-58 131t-22.5 140q1 77 27 161t79 177.5t147 190.5t219 183q-201 49 -243 53q-33 3 -66 3q-118 0 -175 -54l-16 -16l-6 5l68 112q44 72 90.5 100.5
t113.5 28.5q80 0 312 -54q64 -15 111.5 -24.5t104 -17.5t101.5 -7.5t77 9.5q-9 -23 -24.5 -61t-26.5 -67q-10 -28 -40.5 -45.5t-69.5 -17.5q-71 0 -229 33q-2 -116 80 -193.5t223 -77.5h177v-181h-241q-275 0 -283 406q-147 -121 -252.5 -279t-105.5 -292q0 -98 57 -180
q56 -80 158.5 -118t223.5 -38q163 0 334 54z" />
    <glyph glyph-name="jeeminitial" unicode="&#x62c;" horiz-adv-x="1261" arabic-form="initial" 
d="M1211 181l-54 -181h-1185q-22 0 -22 23v133q0 25 22 25h964q-113 186 -232 295q-44 41 -114.5 70t-148.5 29q-114 0 -200 -62l-13 13q123 121 187.5 165.5t133.5 44.5q74 0 155.5 -49.5t147.5 -142.5q129 -191 177 -283q44 -80 135 -80h47zM405 -224l138 138l138 -139
l-138 -137q-18 18 -45 45.5t-48.5 49t-44.5 43.5z" />
    <glyph glyph-name="jeemmedial" unicode="&#x62c;" horiz-adv-x="1211" arabic-form="medial" 
d="M1211 181v-181h-1239q-22 0 -22 23v133q0 25 22 25h964q-113 186 -232 295q-44 41 -114.5 70t-148.5 29q-114 0 -200 -62l-13 13q123 121 187.5 165.5t133.5 44.5q74 0 155.5 -49.5t147.5 -142.5q129 -191 177 -283q44 -80 135 -80h47zM405 -224l138 138l138 -139
l-138 -137q-18 18 -45 45.5t-48.5 49t-44.5 43.5z" />
    <glyph glyph-name="hahisolated" unicode="&#x62d;" horiz-adv-x="1070" arabic-form="isolated" 
d="M965 -447l-71 -225q-132 -41 -338 -49q-108 -2 -195 25.5t-144 74t-96.5 110.5t-58 131t-22.5 140q1 77 27 161t79 177.5t147 190.5t219 183q-201 49 -243 53q-33 3 -66 3q-118 0 -175 -54l-16 -16l-6 5l68 112q44 72 90.5 100.5t113.5 28.5q80 0 312 -54
q64 -15 111.5 -24.5t104 -17.5t101.5 -7.5t77 9.5q-9 -23 -24.5 -61t-26.5 -67q-10 -28 -40.5 -45.5t-69.5 -17.5q-71 0 -229 33q-75 -64 -142 -134.5t-127.5 -152t-96.5 -168t-36 -162.5q0 -98 57 -180q56 -80 158.5 -118t223.5 -38q163 0 334 54z" />
    <glyph glyph-name="hahfinal" unicode="&#x62d;" horiz-adv-x="1075" arabic-form="final" 
d="M965 -447l-71 -225q-132 -41 -338 -49q-108 -2 -195 25.5t-144 74t-96.5 110.5t-58 131t-22.5 140q1 77 27 161t79 177.5t147 190.5t219 183q-201 49 -243 53q-33 3 -66 3q-118 0 -175 -54l-16 -16l-6 5l68 112q44 72 90.5 100.5t113.5 28.5q80 0 312 -54
q64 -15 111.5 -24.5t104 -17.5t101.5 -7.5t77 9.5q-9 -23 -24.5 -61t-26.5 -67q-10 -28 -40.5 -45.5t-69.5 -17.5q-71 0 -229 33q-2 -116 80 -193.5t223 -77.5h177v-181h-241q-275 0 -283 406q-147 -121 -252.5 -279t-105.5 -292q0 -98 57 -180q56 -80 158.5 -118t223.5 -38
q163 0 334 54z" />
    <glyph glyph-name="hahinitial" unicode="&#x62d;" horiz-adv-x="1250" arabic-form="initial" 
d="M1211 181l-54 -181h-1185q-22 0 -22 23v133q0 25 22 25h964q-113 186 -232 295q-44 41 -114.5 70t-148.5 29q-114 0 -200 -62l-13 13q123 121 187.5 165.5t133.5 44.5q74 0 155.5 -49.5t147.5 -142.5q129 -191 177 -283q44 -80 135 -80h47z" />
    <glyph glyph-name="hahmedial" unicode="&#x62d;" horiz-adv-x="1211" arabic-form="medial" 
d="M1211 181v-181h-1239q-22 0 -22 23v133q0 25 22 25h964q-113 186 -232 295q-44 41 -114.5 70t-148.5 29q-114 0 -200 -62l-13 13q123 121 187.5 165.5t133.5 44.5q74 0 155.5 -49.5t147.5 -142.5q129 -191 177 -283q44 -80 135 -80h47z" />
    <glyph glyph-name="khahisolated" unicode="&#x62e;" horiz-adv-x="1111" arabic-form="isolated" 
d="M601 1046l139 -139l-139 -139l-140 139zM965 -447l-71 -225q-132 -41 -338 -49q-108 -2 -195 25.5t-144 74t-96.5 110.5t-58 131t-22.5 140q1 77 27 161t79 177.5t147 190.5t219 183q-201 49 -243 53q-33 3 -66 3q-118 0 -175 -54l-16 -16l-6 5l68 112q44 72 90.5 100.5
t113.5 28.5q80 0 312 -54q64 -15 111.5 -24.5t104 -17.5t101.5 -7.5t77 9.5q-9 -23 -24.5 -61t-26.5 -67q-10 -28 -40.5 -45.5t-69.5 -17.5q-71 0 -229 33q-75 -64 -142 -134.5t-127.5 -152t-96.5 -168t-36 -162.5q0 -98 57 -180q56 -80 158.5 -118t223.5 -38q163 0 334 54z
" />
    <glyph glyph-name="khahfinal" unicode="&#x62e;" horiz-adv-x="1075" arabic-form="final" 
d="M575 1043l139 -139l-139 -139l-140 139zM965 -447l-71 -225q-132 -41 -338 -49q-108 -2 -195 25.5t-144 74t-96.5 110.5t-58 131t-22.5 140q1 77 27 161t79 177.5t147 190.5t219 183q-201 49 -243 53q-33 3 -66 3q-118 0 -175 -54l-16 -16l-6 5l68 112q44 72 90.5 100.5
t113.5 28.5q80 0 312 -54q64 -15 111.5 -24.5t104 -17.5t101.5 -7.5t77 9.5q-9 -23 -24.5 -61t-26.5 -67q-10 -28 -40.5 -45.5t-69.5 -17.5q-71 0 -229 33q-2 -116 80 -193.5t223 -77.5h177v-181h-241q-275 0 -283 406q-147 -121 -252.5 -279t-105.5 -292q0 -98 57 -180
q56 -80 158.5 -118t223.5 -38q163 0 334 54z" />
    <glyph glyph-name="khahinitial" unicode="&#x62e;" horiz-adv-x="1263" arabic-form="initial" 
d="M1211 181l-54 -181h-1185q-22 0 -22 23v133q0 25 22 25h964q-113 186 -232 295q-44 41 -114.5 70t-148.5 29q-114 0 -200 -62l-13 13q123 121 187.5 165.5t133.5 44.5q74 0 155.5 -49.5t147.5 -142.5q129 -191 177 -283q44 -80 135 -80h47zM405 946l138 138l138 -139
l-138 -137q-18 18 -45 45.5t-48.5 49t-44.5 43.5z" />
    <glyph glyph-name="khahmedial" unicode="&#x62e;" horiz-adv-x="1211" arabic-form="medial" 
d="M1211 181v-181h-1239q-22 0 -22 23v133q0 25 22 25h964q-113 186 -232 295q-44 41 -114.5 70t-148.5 29q-114 0 -200 -62l-13 13q123 121 187.5 165.5t133.5 44.5q74 0 155.5 -49.5t147.5 -142.5q129 -191 177 -283q44 -80 135 -80h47zM405 946l138 138l138 -139
l-138 -137q-18 18 -45 45.5t-48.5 49t-44.5 43.5z" />
    <glyph glyph-name="dalisolated" unicode="&#x62f;" horiz-adv-x="869" arabic-form="isolated" 
d="M185 181h497q-5 57 -26 110.5t-45 88.5t-61 70.5t-55.5 50t-46.5 33.5q-7 5 -10 7l-30 21q20 36 55 94.5t50 83.5q63 -53 104.5 -98.5t83 -114t62 -159t20.5 -204.5q0 -80 -13 -164h-569q-71 0 -104.5 34t-33.5 91q0 42 16 93q32 -37 106 -37z" />
    <glyph glyph-name="dalfinal" unicode="&#x62f;" horiz-adv-x="930" arabic-form="final" 
d="M185 181h497q-5 57 -26 110.5t-45 88.5t-61 70.5t-55.5 50t-46.5 33.5q-7 5 -10 7l-30 21q20 36 55 94.5t50 83.5q62 -52 102.5 -96.5t82 -111t62.5 -154t23 -197.5h147v-181h-729q-71 0 -104.5 34t-33.5 91q0 42 16 93q32 -37 106 -37z" />
    <glyph glyph-name="thalisolated" unicode="&#x630;" horiz-adv-x="869" arabic-form="isolated" 
d="M185 181h497q-5 57 -26 110.5t-45 88.5t-61 70.5t-55.5 50t-46.5 33.5q-7 5 -10 7l-30 21q20 36 55 94.5t50 83.5q63 -53 104.5 -98.5t83 -114t62 -159t20.5 -204.5q0 -80 -13 -164h-569q-71 0 -104.5 34t-33.5 91q0 42 16 93q32 -37 106 -37zM283 1043l140 -139
l-140 -140l-139 140z" />
    <glyph glyph-name="thalfinal" unicode="&#x630;" horiz-adv-x="930" arabic-form="final" 
d="M185 181h497q-5 57 -26 110.5t-45 88.5t-61 70.5t-55.5 50t-46.5 33.5q-7 5 -10 7l-30 21q20 36 55 94.5t50 83.5q62 -52 102.5 -96.5t82 -111t62.5 -154t23 -197.5h147v-181h-729q-71 0 -104.5 34t-33.5 91q0 42 16 93q32 -37 106 -37zM283 1043l140 -139l-140 -140
l-139 140z" />
    <glyph glyph-name="rehisolated" unicode="&#x631;" horiz-adv-x="577" arabic-form="isolated" 
d="M208 -628l-184 155q169 117 254 266.5t118 333.5q-25 120 -67.5 215t-115.5 209l125 165q150 -315 154 -613q0 -387 -284 -731z" />
    <glyph glyph-name="rehfinal" unicode="&#x631;" horiz-adv-x="628" arabic-form="final" 
d="M629 181v-181h-147q-33 -337 -279 -632q-37 32 -96 81t-89 74q170 117 254.5 266t118.5 334q-25 120 -67.5 215.5t-115.5 208.5l125 166q126 -266 152 -532h144z" />
    <glyph glyph-name="zainisolated" unicode="&#x632;" horiz-adv-x="643" arabic-form="isolated" 
d="M208 -628l-184 155q169 117 254 266.5t118 333.5q-25 120 -67.5 215t-115.5 209l125 165q150 -315 154 -613q0 -387 -284 -731zM177 1048l140 -139l-140 -140l-139 140z" />
    <glyph glyph-name="zainfinal" unicode="&#x632;" horiz-adv-x="628" arabic-form="final" 
d="M292 905l-137 -138l-139 138l139 139zM629 181v-181h-147q-33 -337 -279 -632q-37 32 -96 81t-89 74q170 117 254.5 266t118.5 334q-25 120 -67.5 215.5t-115.5 208.5l125 166q126 -266 152 -532h144z" />
    <glyph glyph-name="seenisolated" unicode="&#x633;" horiz-adv-x="1880" arabic-form="isolated" 
d="M1817 0h-674q-10 -69 -43.5 -146.5t-91 -155t-130.5 -139.5t-170 -100.5t-201 -38.5q-111 0 -199.5 46t-142 123t-81.5 172t-28 199q0 124 37.5 237.5t108.5 189.5q12 -13 23 -27t15 -19q-89 -139 -89 -282q0 -172 117.5 -290t287.5 -118q88 0 180 39.5t161 99
t114.5 130.5t48.5 133q-15 67 -44 135t-54 112.5t-76 127.5q19 25 54.5 73.5t55.5 74.5q101 -187 140 -395h230q-18 96 -48 171.5t-84 167.5q16 21 54.5 70t59.5 77q114 -248 124 -486h239q-24 118 -47.5 189.5t-71.5 153.5l-16 28q23 29 62 81t52 68q126 -272 126 -506v-14
z" />
    <glyph glyph-name="seenfinal" unicode="&#x633;" horiz-adv-x="1956" arabic-form="final" 
d="M1955 0h-812q-10 -69 -43.5 -146.5t-91 -155t-130.5 -139.5t-170 -100.5t-201 -38.5q-111 0 -199.5 46t-142 123t-81.5 172t-28 199q0 124 37.5 237.5t108.5 189.5q12 -13 23 -27t15 -19q-89 -139 -89 -282q0 -172 117.5 -290t287.5 -118q88 0 180 39.5t161 99
t114.5 130.5t48.5 133q-15 67 -44 135t-54 112.5t-76 127.5q19 25 54.5 73.5t55.5 74.5q101 -187 140 -395h230q-18 96 -48 171.5t-84 167.5q16 21 54.5 70t59.5 77q114 -248 124 -486h239q-24 118 -47.5 189.5t-71.5 153.5l-16 28q23 29 62 81t52 68q126 -272 126 -506v-14
h139v-181z" />
    <glyph glyph-name="seeninitial" unicode="&#x633;" horiz-adv-x="1126" arabic-form="initial" 
d="M0 0v181h245q-35 94 -127 228l-13 19q19 25 54.5 73.5t55.5 74.5q101 -187 140 -395h230q-18 96 -48 171.5t-84 167.5q16 21 54.5 70t59.5 77q114 -248 124 -486h239q-24 118 -47.5 189.5t-71.5 153.5l-16 28q23 29 62 81t52 68q126 -272 126 -506v-14l1 -181h-1036z" />
    <glyph glyph-name="seenmedial" unicode="&#x633;" horiz-adv-x="1172" arabic-form="medial" 
d="M0 0v181h245q-35 94 -127 228l-13 19q19 25 54.5 73.5t55.5 74.5q101 -187 140 -395h230q-18 96 -48 171.5t-84 167.5q16 21 54.5 70t59.5 77q114 -248 124 -486h239q-24 118 -47.5 189.5t-71.5 153.5l-16 28q23 29 62 81t52 68q126 -272 126 -506v-14h136v-181h-1171z
" />
    <glyph glyph-name="sheenisolated" unicode="&#x634;" horiz-adv-x="1898" arabic-form="isolated" 
d="M1817 0h-674q-10 -69 -43.5 -146.5t-91 -155t-130.5 -139.5t-170 -100.5t-201 -38.5q-111 0 -199.5 46t-142 123t-81.5 172t-28 199q0 124 37.5 237.5t108.5 189.5q12 -13 23 -27t15 -19q-89 -139 -89 -282q0 -172 117.5 -290t287.5 -118q88 0 180 39.5t161 99
t114.5 130.5t48.5 133q-15 67 -44 135t-54 112.5t-76 127.5q19 25 54.5 73.5t55.5 74.5q101 -187 140 -395h230q-18 96 -48 171.5t-84 167.5q16 21 54.5 70t59.5 77q114 -248 124 -486h239q-24 118 -47.5 189.5t-71.5 153.5l-16 28q23 29 62 81t52 68q126 -272 126 -506v-14
zM1173 1045l140 -139l-140 -140l-139 140zM1598 906l-139 -140l-140 140l140 139zM1445 1145l-137 -139l-140 139l140 137z" />
    <glyph glyph-name="sheenfinal" unicode="&#x634;" horiz-adv-x="1955" arabic-form="final" 
d="M1173 1045l140 -139l-140 -140l-139 140zM1598 906l-139 -140l-140 140l140 139zM1445 1145l-137 -139l-140 139l140 137zM1955 0h-812q-10 -69 -43.5 -146.5t-91 -155t-130.5 -139.5t-170 -100.5t-201 -38.5q-111 0 -199.5 46t-142 123t-81.5 172t-28 199
q0 124 37.5 237.5t108.5 189.5q12 -13 23 -27t15 -19q-89 -139 -89 -282q0 -172 117.5 -290t287.5 -118q88 0 180 39.5t161 99t114.5 130.5t48.5 133q-15 67 -44 135t-54 112.5t-76 127.5q19 25 54.5 73.5t55.5 74.5q101 -187 140 -395h230q-18 96 -48 171.5t-84 167.5
q16 21 54.5 70t59.5 77q114 -248 124 -486h239q-24 118 -47.5 189.5t-71.5 153.5l-16 28q23 29 62 81t52 68q126 -272 126 -506v-14h139v-181z" />
    <glyph glyph-name="sheeninitial" unicode="&#x634;" horiz-adv-x="1114" arabic-form="initial" 
d="M390 1045l140 -139l-140 -140l-139 140zM815 906l-139 -140l-140 140l140 139zM662 1145l-137 -139l-140 139l140 137zM0 0v181h245q-35 94 -127 228l-13 19q19 25 54.5 73.5t55.5 74.5q101 -187 140 -395h230q-18 96 -48 171.5t-84 167.5q16 21 54.5 70t59.5 77
q114 -248 124 -486h239q-24 118 -47.5 189.5t-71.5 153.5l-16 28q23 29 62 81t52 68q126 -272 126 -506v-14l1 -181h-1036z" />
    <glyph glyph-name="sheenmedial" unicode="&#x634;" horiz-adv-x="1170" arabic-form="medial" 
d="M0 0v181h245q-35 94 -127 228l-13 19q19 25 54.5 73.5t55.5 74.5q101 -187 140 -395h230q-18 96 -48 171.5t-84 167.5q16 21 54.5 70t59.5 77q114 -248 124 -486h239q-24 118 -47.5 189.5t-71.5 153.5l-16 28q23 29 62 81t52 68q126 -272 126 -506v-14h135v-181h-1170z
M815 906l-139 -140l-140 140l140 139zM390 1045l140 -139l-140 -140l-139 140zM662 1145l-137 -139l-140 139l140 137z" />
    <glyph glyph-name="sadisolated" unicode="&#x635;" horiz-adv-x="2380" arabic-form="isolated" 
d="M1328 181h836q0 80 -18.5 142.5t-47 100.5t-66.5 63t-74.5 34t-73.5 9q-101 0 -200.5 -64t-355.5 -285zM2228 0h-1077q-10 -69 -43.5 -146.5t-91 -155t-130.5 -139.5t-170 -100.5t-201 -38.5q-111 0 -199.5 46t-142 123t-81.5 172t-28 199q0 124 37.5 237.5t108.5 189.5
q12 -13 23 -27t15 -19q-89 -139 -89 -282q0 -172 117.5 -290t287.5 -118q88 0 181 39.5t163.5 98.5t117 130.5t49.5 133.5q-16 67 -46 134t-55 109t-77 123l1 -1l-6 10q19 25 54.5 73.5t55.5 74.5q101 -187 140 -395h46q397 414 609 520q69 32 140 32q72 0 136 -34l-1 1
q36 -21 67 -53t61 -81t47 -123t17 -164q0 -128 -36 -279z" />
    <glyph glyph-name="sadfinal" unicode="&#x635;" horiz-adv-x="2372" arabic-form="final" 
d="M1328 181h836q0 80 -18.5 142.5t-47 100.5t-66.5 63t-74.5 34t-73.5 9q-101 0 -200.5 -64t-355.5 -285zM2373 0h-1222q-10 -69 -43.5 -146.5t-91 -155t-130.5 -139.5t-170 -100.5t-201 -38.5q-111 0 -199.5 46t-142 123t-81.5 172t-28 199q0 124 37.5 237.5t108.5 189.5
q12 -13 23 -27t15 -19q-89 -139 -89 -282q0 -172 117.5 -290t287.5 -118q88 0 181 39.5t163.5 98.5t117 130.5t49.5 133.5q-16 67 -46.5 134.5t-55.5 110.5t-81 130q19 25 54.5 73.5t55.5 74.5q101 -187 140 -395h46q397 414 609 520q69 32 140 32q72 0 136 -34l-1 1
q36 -21 67 -53t61 -81t47 -123t17 -164q0 -41 -5 -98h114v-181z" />
    <glyph glyph-name="sadinitial" unicode="&#x635;" horiz-adv-x="1678" arabic-form="initial" 
d="M-24 0v181h370q-33 78 -141 247q19 25 54.5 73.5t55.5 74.5q101 -187 140 -395h46q397 414 609 520q69 32 140 32q72 0 136 -34l-1 1q36 -21 67 -53t61 -81t47 -123t17 -164q0 -132 -28 -279h-1573zM641 181h836q0 80 -18.5 142.5t-47 100.5t-66.5 63t-74.5 34t-73.5 9
q-101 0 -200.5 -64t-355.5 -285z" />
    <glyph glyph-name="sadmedial" unicode="&#x635;" horiz-adv-x="1685" arabic-form="medial" 
d="M-24 0v181h370q-33 78 -141 247q19 25 54.5 73.5t55.5 74.5q101 -187 140 -395h46q397 414 609 520q69 32 140 32q72 0 136 -34l-1 1q36 -21 67 -53t61 -81t47 -123t17 -164q0 -41 -5 -98h113v-181h-1709zM641 181h836q0 80 -18.5 142.5t-47 100.5t-66.5 63t-74.5 34
t-73.5 9q-101 0 -200.5 -64t-355.5 -285z" />
    <glyph glyph-name="dadisolated" unicode="&#x636;" horiz-adv-x="2359" arabic-form="isolated" 
d="M1328 181h836q0 80 -18.5 142.5t-47 100.5t-66.5 63t-74.5 34t-73.5 9q-101 0 -200.5 -64t-355.5 -285zM1735 1082l139 -140l-139 -139l-140 139zM2228 0h-1077q-10 -69 -43.5 -146.5t-91 -155t-130.5 -139.5t-170 -100.5t-201 -38.5q-111 0 -199.5 46t-142 123
t-81.5 172t-28 199q0 124 37.5 237.5t108.5 189.5q12 -13 23 -27t15 -19q-89 -139 -89 -282q0 -172 117.5 -290t287.5 -118q88 0 181 39.5t163.5 98.5t117 130.5t49.5 133.5q-16 67 -46 134t-55 109t-77 123l1 -1l-6 10q19 25 54.5 73.5t55.5 74.5q101 -187 140 -395h46
q397 414 609 520q69 32 140 32q72 0 136 -34l-1 1q36 -21 67 -53t61 -81t47 -123t17 -164q0 -128 -36 -279z" />
    <glyph glyph-name="dadfinal" unicode="&#x636;" horiz-adv-x="2373" arabic-form="final" 
d="M1850 1082l139 -140l-139 -139l-140 139zM1328 181h836q0 80 -18.5 142.5t-47 100.5t-66.5 63t-74.5 34t-73.5 9q-101 0 -200.5 -64t-355.5 -285zM2373 0h-1222q-10 -69 -43.5 -146.5t-91 -155t-130.5 -139.5t-170 -100.5t-201 -38.5q-111 0 -199.5 46t-142 123
t-81.5 172t-28 199q0 124 37.5 237.5t108.5 189.5q12 -13 23 -27t15 -19q-89 -139 -89 -282q0 -172 117.5 -290t287.5 -118q88 0 181 39.5t163.5 98.5t117 130.5t49.5 133.5q-16 67 -46.5 134.5t-55.5 110.5t-81 130q19 25 54.5 73.5t55.5 74.5q101 -187 140 -395h46
q397 414 609 520q69 32 140 32q72 0 136 -34l-1 1q36 -21 67 -53t61 -81t47 -123t17 -164q0 -41 -5 -98h114v-181z" />
    <glyph glyph-name="dadinitial" unicode="&#x636;" horiz-adv-x="1678" arabic-form="initial" 
d="M-24 0v181h370q-33 78 -141 247q19 25 54.5 73.5t55.5 74.5q101 -187 140 -395h46q397 414 609 520q69 32 140 32q72 0 136 -34l-1 1q36 -21 67 -53t61 -81t47 -123t17 -164q0 -132 -28 -279h-1573zM641 181h836q0 80 -18.5 142.5t-47 100.5t-66.5 63t-74.5 34t-73.5 9
q-101 0 -200.5 -64t-355.5 -285zM1048 1082l139 -140l-139 -139l-140 139z" />
    <glyph glyph-name="dadmedial" unicode="&#x636;" horiz-adv-x="1684" arabic-form="medial" 
d="M-24 0v181h370q-33 78 -141 247q19 25 54.5 73.5t55.5 74.5q101 -187 140 -395h46q397 414 609 520q69 32 140 32q72 0 136 -34l-1 1q36 -21 67 -53t61 -81t47 -123t17 -164q0 -41 -5 -98h113v-181h-1709zM641 181h836q0 80 -18.5 142.5t-47 100.5t-66.5 63t-74.5 34
t-73.5 9q-101 0 -200.5 -64t-355.5 -285zM1048 1082l139 -140l-139 -139l-140 139z" />
    <glyph glyph-name="tahisolated" unicode="&#x637;" horiz-adv-x="1342" arabic-form="isolated" 
d="M304 181h859q0 80 -16.5 142.5t-42.5 101t-61.5 63.5t-70.5 35t-72 10q-106 0 -231 -72t-365 -280zM74 0l-36 181h127q16 19 35.5 39t32.5 33t40.5 39t41.5 40v826l144 89v-801q322 285 500 285q82 0 146.5 -42.5t101 -111t55 -144t18.5 -150.5q0 -33 -11 -130t-27 -153
h-1168z" />
    <glyph glyph-name="tahfinal" unicode="&#x637;" horiz-adv-x="1345" arabic-form="final" 
d="M282 181h859q0 80 -16.5 142.5t-42.5 101t-61.5 63.5t-70.5 35t-72 10q-106 0 -231 -72t-365 -280zM1345 181v-181h-1293l-36 181h127q16 19 35.5 39t32.5 33t40.5 39t41.5 40v826l144 89v-801q322 285 500 285q82 0 146.5 -42.5t101 -111t55 -144t18.5 -150.5
q0 -29 -5 -102h92z" />
    <glyph glyph-name="tahinitial" unicode="&#x637;" horiz-adv-x="1343" arabic-form="initial" 
d="M282 181h859q0 80 -16.5 142.5t-42.5 101t-61.5 63.5t-70.5 35t-72 10q-106 0 -231 -72t-365 -280zM-36 23v133q0 25 22 25h157q16 19 35.5 39t32.5 33t40.5 39t41.5 40v826l144 89v-801q322 285 500 285q82 0 146.5 -42.5t101 -111t55 -144t18.5 -150.5q0 -118 -22 -283
h-1250q-22 0 -22 23z" />
    <glyph glyph-name="tahmedial" unicode="&#x637;" horiz-adv-x="1344" arabic-form="medial" 
d="M282 181h859q0 80 -16.5 142.5t-42.5 101t-61.5 63.5t-70.5 35t-72 10q-106 0 -231 -72t-365 -280zM1345 181v-181h-1359q-22 0 -22 23v133q0 25 22 25h157q16 19 35.5 39t32.5 33t40.5 39t41.5 40v826l144 89v-801q322 285 500 285q82 0 146.5 -42.5t101 -111t55 -144
t18.5 -150.5q0 -29 -5 -102h92z" />
    <glyph glyph-name="zahisolated" unicode="&#x638;" horiz-adv-x="1358" arabic-form="isolated" 
d="M982 958l-137 -139l-139 139l139 140zM304 181h859q0 80 -16.5 142.5t-42.5 101t-61.5 63.5t-70.5 35t-72 10q-106 0 -231 -72t-365 -280zM74 0l-36 181h127q16 19 35.5 39t32.5 33t40.5 39t41.5 40v826l144 89v-801q322 285 500 285q82 0 146.5 -42.5t101 -111t55 -144
t18.5 -150.5q0 -33 -11 -130t-27 -153h-1168z" />
    <glyph glyph-name="zahfinal" unicode="&#x638;" horiz-adv-x="1345" arabic-form="final" 
d="M960 958l-137 -139l-139 139l139 140zM282 181h859q0 80 -16.5 142.5t-42.5 101t-61.5 63.5t-70.5 35t-72 10q-106 0 -231 -72t-365 -280zM1345 181v-181h-1293l-36 181h127q16 19 35.5 39t32.5 33t40.5 39t41.5 40v826l144 89v-801q322 285 500 285q82 0 146.5 -42.5
t101 -111t55 -144t18.5 -150.5q0 -29 -5 -102h92z" />
    <glyph glyph-name="zahinitial" unicode="&#x638;" horiz-adv-x="1335" arabic-form="initial" 
d="M960 958l-137 -139l-139 139l139 140zM282 181h859q0 80 -16.5 142.5t-42.5 101t-61.5 63.5t-70.5 35t-72 10q-106 0 -231 -72t-365 -280zM-36 23v133q0 25 22 25h157q16 19 35.5 39t32.5 33t40.5 39t41.5 40v826l144 89v-801q322 285 500 285q82 0 146.5 -42.5t101 -111
t55 -144t18.5 -150.5q0 -118 -22 -283h-1250q-22 0 -22 23z" />
    <glyph glyph-name="zahmedial" unicode="&#x638;" horiz-adv-x="1345" arabic-form="medial" 
d="M960 958l-137 -139l-139 139l139 140zM282 181h859q0 80 -16.5 142.5t-42.5 101t-61.5 63.5t-70.5 35t-72 10q-106 0 -231 -72t-365 -280zM1345 181v-181h-1359q-22 0 -22 23v133q0 25 22 25h157q16 19 35.5 39t32.5 33t40.5 39t41.5 40v826l144 89v-801q322 285 500 285
q82 0 146.5 -42.5t101 -111t55 -144t18.5 -150.5q0 -29 -5 -102h92z" />
    <glyph glyph-name="ainisolated" unicode="&#x639;" horiz-adv-x="958" arabic-form="isolated" 
d="M962 -436l-67 -217q-67 -25 -160.5 -40t-161.5 -18q-252 -5 -388 106t-136 302q0 130 68.5 263t200.5 242q-64 34 -114.5 114.5t-54.5 158.5q-6 95 44 180.5t137 137t185 51.5q88 0 177 -49l23 -80q-69 22 -130 22q-125 0 -196 -75t-71 -165q2 -68 43.5 -120t122.5 -75
q149 71 327 99q-1 -8 -24 -126q-131 -21 -239 -76.5t-175.5 -128.5t-103.5 -155.5t-36 -162.5q0 -260 371 -257q60 0 162.5 20t195.5 49z" />
    <glyph glyph-name="ainfinal" unicode="&#x639;" horiz-adv-x="1109" arabic-form="final" 
d="M1108 181v-181h-233q-111 0 -168.5 27.5t-101.5 90.5q-235 -178 -235 -357q0 -117 105 -191.5t329 -74.5q150 5 326 59l-71 -227q-134 -39 -309 -44q-115 0 -207 24t-153.5 65t-103 98.5t-60 120t-19.5 133.5q10 133 90 259.5t209 219.5q-24 23 -76.5 78t-93 94.5
t-90.5 81.5t-95.5 61t-81.5 11q21 34 51 78.5t48 73.5q206 51 410 51q206 0 317 -50t111 -168q0 -24 -8 -49.5t-18.5 -46t-32.5 -46t-37 -41.5t-45 -41.5t-44.5 -37.5t-48 -37.5t-43.5 -33.5h379zM622 265q216 120 216 210q0 97 -243 102q-69 0 -288 -19q82 -54 140.5 -108
t108 -111t66.5 -74z" />
    <glyph glyph-name="aininitial" unicode="&#x639;" horiz-adv-x="1025" arabic-form="initial" 
d="M946 181v-181h-955q-22 0 -22 23v133q0 25 22 25h368q-66 11 -119.5 88.5t-53.5 157.5q0 35 4 56q23 124 134 197t259 73q190 0 357 -119q-5 -18 -14.5 -53t-14.5 -53q-142 86 -274 86q-121 0 -196 -67.5t-75 -157.5q0 -96 87.5 -152t282.5 -56h210z" />
    <glyph glyph-name="ainmedial" unicode="&#x639;" horiz-adv-x="1119" arabic-form="medial" 
d="M638 265q216 120 216 210q0 97 -243 102q-69 0 -288 -19q82 -54 140.5 -108t108 -111t66.5 -74zM1120 181v-181h-386q-24 2 -46.5 11.5t-34.5 18.5t-35 28q-68 -58 -119 -58h-506q-22 0 -22 23v133q0 25 22 25h553q-29 25 -99 98t-124.5 126t-122 93.5t-115.5 30.5
q21 34 51 78.5t48 73.5q206 51 410 51q206 0 317 -50t111 -168q0 -24 -8 -49.5t-18.5 -46t-32.5 -46t-37 -41.5t-45 -41.5t-44.5 -37.5t-48 -37.5t-43.5 -33.5h375z" />
    <glyph glyph-name="ghainisolated" unicode="&#x63a;" horiz-adv-x="937" arabic-form="isolated" 
d="M490 1203l139 -140l-139 -139l-138 139zM962 -436l-67 -217q-67 -25 -160.5 -40t-161.5 -18q-252 -5 -388 106t-136 302q0 130 68.5 263t200.5 242q-64 34 -114.5 114.5t-54.5 158.5q-6 95 44 180.5t137 137t185 51.5q88 0 177 -49l23 -80q-69 22 -130 22
q-125 0 -196 -75t-71 -165q2 -68 43.5 -120t122.5 -75q149 71 327 99q-1 -8 -24 -126q-131 -21 -239 -76.5t-175.5 -128.5t-103.5 -155.5t-36 -162.5q0 -260 371 -257q60 0 162.5 20t195.5 49z" />
    <glyph glyph-name="ghainfinal" unicode="&#x63a;" horiz-adv-x="1108" arabic-form="final" 
d="M578 1064l139 -140l-139 -139l-138 139zM1108 181v-181h-233q-111 0 -168.5 27.5t-101.5 90.5q-235 -178 -235 -357q0 -117 105 -191.5t329 -74.5q150 5 326 59l-71 -227q-134 -39 -309 -44q-115 0 -207 24t-153.5 65t-103 98.5t-60 120t-19.5 133.5q10 133 90 259.5
t209 219.5q-24 23 -76.5 78t-93 94.5t-90.5 81.5t-95.5 61t-81.5 11q21 34 51 78.5t48 73.5q206 51 410 51q206 0 317 -50t111 -168q0 -24 -8 -49.5t-18.5 -46t-32.5 -46t-37 -41.5t-45 -41.5t-44.5 -37.5t-48 -37.5t-43.5 -33.5h379zM622 265q216 120 216 210
q0 97 -243 102q-69 0 -288 -19q82 -54 140.5 -108t108 -111t66.5 -74z" />
    <glyph glyph-name="ghaininitial" unicode="&#x63a;" horiz-adv-x="1015" arabic-form="initial" 
d="M731 968l-139 -139l-138 139l138 139zM946 181v-181h-955q-22 0 -22 23v133q0 25 22 25h368q-66 11 -119.5 88.5t-53.5 157.5q0 35 4 56q23 124 134 197t259 73q190 0 357 -119q-5 -18 -14.5 -53t-14.5 -53q-142 86 -274 86q-121 0 -196 -67.5t-75 -157.5
q0 -96 87.5 -152t282.5 -56h210z" />
    <glyph glyph-name="ghainmedial" unicode="&#x63a;" horiz-adv-x="1124" arabic-form="medial" 
d="M594 1064l139 -140l-139 -139l-138 139zM638 265q216 120 216 210q0 97 -243 102q-69 0 -288 -19q82 -54 140.5 -108t108 -111t66.5 -74zM1124 181v-181h-390q-24 2 -46.5 11.5t-34.5 18.5t-35 28q-68 -58 -119 -58h-506q-22 0 -22 23v133q0 25 22 25h553q-29 25 -99 98
t-124.5 126t-122 93.5t-115.5 30.5q21 34 51 78.5t48 73.5q206 51 410 51q206 0 317 -50t111 -168q0 -24 -8 -49.5t-18.5 -46t-32.5 -46t-37 -41.5t-45 -41.5t-44.5 -37.5t-48 -37.5t-43.5 -33.5h379z" />
    <glyph glyph-name="fehisolated" unicode="&#x641;" horiz-adv-x="1842" arabic-form="isolated" 
d="M1415 443h-1q67 4 175 27q-98 270 -221 270q-38 0 -73.5 -25t-59 -61t-40.5 -73t-23 -64.5t-1 -32.5q51 -44 178 -44q31 0 66 3zM1524 1124l-137 -139l-140 139l140 140zM45 295q0 153 69.5 286t169.5 215q12 -12 42 -40q-65 -72 -108.5 -175t-43.5 -192q0 -94 53 -151
t167 -57h1259q-6 34 -10 61.5t-6 41.5t-7 33q-209 -47 -330 -47q-68 0 -116 12t-69.5 31t-29.5 34t-8 29q0 5 -0.5 15.5t-0.5 16.5q0 112 29 209.5t74 160t95.5 100t98.5 44.5q9 1 27 1q102 0 180.5 -101t120.5 -262t53 -363q0 -1 3 -51t6 -98t2 -48h-1433q-38 0 -76 9
t-76.5 31.5t-68 55t-48 84t-18.5 115.5z" />
    <glyph glyph-name="fehfinal" unicode="&#x641;" horiz-adv-x="1847" arabic-form="final" 
d="M1847 181v-181h-1515q-38 0 -76 9t-76.5 31.5t-68 55t-48 84t-18.5 115.5q0 153 69.5 286t169.5 215q12 -12 42 -40q-65 -72 -108.5 -175t-43.5 -192q0 -94 53 -151t167 -57h1259q-6 34 -10 61.5t-6 41.5t-7 33q-209 -47 -330 -47q-68 0 -116 12t-69.5 31t-29.5 34t-8 29
q0 5 -0.5 15.5t-0.5 16.5q0 112 29 209.5t74 160t95.5 100t98.5 44.5q9 1 27 1q104 0 182.5 -103.5t120.5 -268t52 -370.5h92zM1415 443h-1q67 4 175 27q-98 270 -221 270q-38 0 -73.5 -25t-59 -61t-40.5 -73t-23 -64.5t-1 -32.5q51 -44 178 -44q31 0 66 3zM1524 1124
l-137 -139l-140 139l140 140z" />
    <glyph glyph-name="fehinitial" unicode="&#x641;" horiz-adv-x="944" arabic-form="initial" 
d="M-28 23v133q0 25 22 25h758q-17 99 -24 131q-187 -42 -330 -42q-68 0 -116 12.5t-69.5 32t-29.5 34.5t-10 29v-1q-3 96 15 182.5t49.5 148.5t72 109.5t82 72.5t80.5 31h-1q20 2 27 2q102 0 180.5 -100.5t121.5 -261t54 -360.5q0 -3 3.5 -98t3.5 -103h-867q-22 0 -22 23z
M684 468q-97 272 -218 272q-39 0 -74.5 -25t-59 -61t-40 -73t-22.5 -64.5t-1 -32.5q52 -45 176 -45q101 0 239 29zM612 1124l-137 -139l-140 139l140 140z" />
    <glyph glyph-name="fehmedial" unicode="&#x641;" horiz-adv-x="949" arabic-form="medial" 
d="M684 468q-97 272 -218 272q-39 0 -74.5 -25t-59 -61t-40 -73t-22.5 -64.5t-1 -32.5q52 -45 176 -45q101 0 239 29zM633 1124l-137 -139l-140 139l140 140zM949 181v-181h-955q-22 0 -22 23v133q0 25 22 25h758q-17 99 -24 131q-187 -42 -330 -42q-68 0 -116 12.5
t-69.5 32t-29.5 34.5t-10 29v-1q-3 96 15 182.5t49.5 148.5t72 109.5t82 72.5t80.5 31h-1q20 2 27 2q104 0 183 -104t121 -268.5t52 -369.5h95z" />
    <glyph glyph-name="qafisolated" unicode="&#x642;" horiz-adv-x="1259" arabic-form="isolated" 
d="M833 944l-139 -140l-139 140l139 139q23 -24 45.5 -46.5t49.5 -49t44 -43.5zM1118 944l-139 -140l-139 140q29 29 76 75.5t63 62.5zM876 197q65 -11 197 -16q-11 87 -36 158t-56.5 114.5t-63.5 68.5t-62 30h2q-37 8 -72 -10t-60 -49.5t-44.5 -68.5t-29 -66.5t-9.5 -42.5
q0 -33 11 -46q33 -42 223 -72zM1166 -43q-13 -63 -38.5 -128t-64 -131.5t-93 -124t-119 -103t-149 -71.5t-176.5 -26q-90 0 -165 30t-127 81.5t-88 120.5t-53 146.5t-17 159.5q0 126 37 238t108 189q8 -10 14 -16.5l12 -13t11 -12.5q-89 -141 -89 -284q-2 -115 45 -211.5
t141.5 -156.5t219.5 -60q166 -1 303.5 122t186.5 294q-509 18 -509 182q0 119 29 226t73 177.5t95.5 112t98.5 41.5q88 0 160.5 -77t114.5 -204t48 -277q5 -121 -9 -224z" />
    <glyph glyph-name="qaffinal" unicode="&#x642;" horiz-adv-x="1340" arabic-form="final" 
d="M833 944l-139 -140l-139 140l139 139q23 -24 45.5 -46.5t49.5 -49t44 -43.5zM1118 944l-139 -140l-139 140q29 29 76 75.5t63 62.5zM876 197q65 -11 197 -16q-11 87 -36 158t-56.5 114.5t-63.5 68.5t-62 30h2q-37 8 -72 -10t-60 -49.5t-44.5 -68.5t-29 -66.5t-9.5 -42.5
q0 -33 11 -46q33 -42 223 -72zM1304 0h-131q-10 -76 -39.5 -158.5t-85 -167t-127.5 -151t-175 -108.5t-220 -42q-90 0 -165 30t-127 81.5t-88 120.5t-53 146.5t-17 159.5q0 126 37 238t108 189q8 -10 14 -16.5l12 -13t11 -12.5q-89 -141 -89 -284q-2 -115 45 -211.5
t141.5 -156.5t219.5 -60q166 -1 303.5 122t186.5 294q-509 18 -509 182q0 119 29 226t73 177.5t95.5 112t98.5 41.5q87 0 158.5 -77.5t113 -203t51.5 -277.5h129v-181z" />
    <glyph glyph-name="qafinitial" unicode="&#x642;" horiz-adv-x="944" arabic-form="initial" 
d="M-28 23v133q0 25 22 25h758q-17 99 -24 131q-187 -42 -330 -42q-68 0 -116 12.5t-69.5 32t-29.5 34.5t-10 29v-1q-3 96 15 182.5t49.5 148.5t72 109.5t82 72.5t80.5 31h-1q20 2 27 2q102 0 180.5 -100.5t121.5 -261t54 -360.5q0 -3 3.5 -98t3.5 -103h-867q-22 0 -22 23z
M684 468q-97 272 -218 272q-39 0 -74.5 -25t-59 -61t-40 -73t-22.5 -64.5t-1 -32.5q52 -45 176 -45q101 0 239 29zM330 1264l140 -140l-140 -139l-139 139zM750 1124l-137 -139l-140 139l140 140z" />
    <glyph glyph-name="qafmedial" unicode="&#x642;" horiz-adv-x="950" arabic-form="medial" 
d="M684 468q-97 272 -218 272q-39 0 -74.5 -25t-59 -61t-40 -73t-22.5 -64.5t-1 -32.5q52 -45 176 -45q101 0 239 29zM330 1264l140 -140l-140 -139l-139 139zM750 1124l-137 -139l-140 139l140 140zM949 181v-181h-955q-22 0 -22 23v133q0 25 22 25h758q-17 99 -24 131
q-187 -42 -330 -42q-68 0 -116 12.5t-69.5 32t-29.5 34.5t-10 29v-1q-3 96 15 182.5t49.5 148.5t72 109.5t82 72.5t80.5 31h-1q20 2 27 2q104 0 183 -104t121 -268.5t52 -369.5h95z" />
    <glyph glyph-name="kafisolated" unicode="&#x643;" horiz-adv-x="1726" arabic-form="isolated" 
d="M57 297q0 148 62 267.5t159 201.5q2 -7 2.5 -10.5t1 -4.5t0.5 -3t1 -5q-57 -63 -92 -151.5t-35 -170.5q0 -107 60.5 -173.5t187.5 -66.5h1078v973q18 11 151 91v-1245h-1291q-39 0 -77 9.5t-76 31.5t-67 55t-47 85t-18 116zM1064 851l-34 -102q-170 -48 -279 -129
q-20 -14 -28 -21q17 77 91 149q-110 18 -110 99q0 56 33 118.5t89 105.5t113 41q28 -2 50 -10l-11 -107q-17 4 -41 4q-61 0 -118 -40t-94 -111q49 -37 107 -43q103 -10 232 46z" />
    <glyph glyph-name="arabickaffinal" unicode="&#x643;" horiz-adv-x="1752" arabic-form="final" 
d="M1752 181v-181h-1410q-39 0 -77 9.5t-76 31.5t-67 55t-47 85t-18 116q0 148 62 267.5t159 201.5q2 -7 2.5 -10.5t1 -4.5t0.5 -3t1 -5q-57 -63 -92 -151.5t-35 -170.5q0 -107 60.5 -173.5t187.5 -66.5h1078v973q18 11 151 91v-1064h119zM1064 851l-34 -102
q-170 -48 -279 -129q-20 -14 -28 -21q17 77 91 149q-110 18 -110 99q0 56 33 118.5t89 105.5t113 41q28 -2 50 -10l-11 -107q-17 4 -41 4q-61 0 -118 -40t-94 -111q49 -37 107 -43q103 -10 232 46z" />
    <glyph glyph-name="kafinitial" unicode="&#x643;" horiz-adv-x="1078" arabic-form="initial" 
d="M1030 0h-1045q-22 0 -22 23v133q0 25 22 25h841q-54 161 -195 247.5t-341 93.5q-27 1 -69 0.5t-59 -0.5v223q0 47 17.5 83t36 53t52.5 41l502 314q55 36 90 36q24 0 37.5 -19t13.5 -51l6 -139q-2 1 -12 7t-19 7q-8 1 -14.5 1t-14 -1t-12.5 -2t-13 -4t-11.5 -4.5t-12.5 -7
t-12.5 -7t-14.5 -8.5t-14 -9l-521 -331q489 -51 680 -318q113 -158 104 -386z" />
    <glyph glyph-name="kafmedial" unicode="&#x643;" horiz-adv-x="1070" arabic-form="medial" 
d="M1070 181v-181h-1085q-22 0 -22 23v133q0 25 22 25h841q-54 161 -195 247.5t-341 93.5q-27 1 -69 0.5t-59 -0.5v223q0 47 17.5 83t36 53t52.5 41l502 314q55 36 90 36q24 0 37.5 -19t13.5 -51l6 -139q-2 1 -12 7t-19 7q-8 1 -14.5 1t-14 -1t-12.5 -2t-13 -4t-11.5 -4.5
t-12.5 -7t-12.5 -7t-14.5 -8.5t-14 -9l-521 -331q347 -37 531 -169t237 -354h56z" />
    <glyph glyph-name="lamisolated" unicode="&#x644;" horiz-adv-x="1237" arabic-form="isolated" 
d="M1122 1247v-1268q0 -238 -152.5 -395.5t-385.5 -157.5q-232 0 -383.5 157.5t-151.5 395.5q0 116 39 219t108 179l44 -51q-81 -119 -81 -265q0 -121 52.5 -223t145 -161.5t203.5 -59.5q191 0 300 119t109 325v1091q36 22 153 95z" />
    <glyph glyph-name="lamfinal" unicode="&#x644;" horiz-adv-x="1285" arabic-form="final" 
d="M1285 181v-181h-164q0 -162 -69 -293t-192.5 -205.5t-276.5 -74.5q-232 0 -383.5 157.5t-151.5 395.5q0 242 148 398q16 -19 45 -51q-83 -122 -83 -265q0 -185 116.5 -314.5t286.5 -129.5q190 0 298.5 119.5t108.5 324.5q0 182 1 545.5t1 545.5q28 17 81 50.5t70 44.5
v-1067h164z" />
    <glyph glyph-name="laminitial" unicode="&#x644;" horiz-adv-x="558" arabic-form="initial" 
d="M469 1245v-1245h-468q-22 0 -22 23v133q0 25 22 25h317v973q18 11 151 91z" />
    <glyph glyph-name="lammedial" unicode="&#x644;" horiz-adv-x="652" arabic-form="medial" 
d="M652 181v-181h-653q-22 0 -22 23v133q0 25 22 25h328v973q18 11 151 91v-1064h174z" />
    <glyph glyph-name="meemisolated" unicode="&#x645;" horiz-adv-x="1050" arabic-form="isolated" 
d="M216 -79v-610q-28 -17 -81 -50.5t-70 -44.5v705q0 67 19.5 120t50 82t63 43.5t62.5 14.5h121q8 84 29 166t53.5 153t81.5 114.5t105 43.5q63 0 117.5 -39.5t91 -100t63 -134t38.5 -141.5t12 -122q0 -105 -52 -213q-23 -45 -32 -58q-84 85 -182 117.5t-224 32.5h-195
q-71 0 -71 -79zM454 181h60q96 0 184 -30.5t182 -107.5q4 102 -17.5 185t-56.5 130.5t-74 72t-74 20.5q-61 -8 -107.5 -68.5t-96.5 -201.5z" />
    <glyph glyph-name="meemfinal" unicode="&#x645;" horiz-adv-x="1071" arabic-form="final" 
d="M1071 181v-181h-149q-17 -68 -50 -134l-7 -13q-84 85 -179 116t-225 31h-194q-71 0 -71 -79v-610q-28 -17 -81 -50.5t-70 -44.5v705q0 67 19.5 120t50 82t63 43.5t62.5 14.5h120q11 114 43.5 219.5t92.5 181.5t133 76q53 0 100.5 -31.5t81 -81t60 -114t41.5 -127
t21 -123.5h138zM434 181h60q97 0 184.5 -30.5t181.5 -108.5q4 102 -18 185.5t-57.5 131t-74 72t-72.5 20.5q-61 -8 -107.5 -68.5t-96.5 -201.5z" />
    <glyph glyph-name="meeminitial" unicode="&#x645;" horiz-adv-x="977" arabic-form="initial" 
d="M382 181h60q96 0 183 -30.5t181 -108.5q4 102 -18 185.5t-57.5 131t-74 72t-72.5 20.5q-60 -8 -106 -68t-96 -202zM-7 181h313q11 114 43.5 219.5t92.5 181.5t133 76q63 0 117.5 -39.5t91 -100t62.5 -134t37.5 -141.5t11.5 -122q0 -113 -48 -213q-25 -47 -33 -58
q-84 85 -181 117.5t-223 32.5h-417q-22 0 -22 23v133q0 25 22 25z" />
    <glyph glyph-name="meemmedial" unicode="&#x645;" horiz-adv-x="942" arabic-form="medial" 
d="M304 181h60q97 0 184.5 -30.5t181.5 -108.5q4 102 -17.5 185.5t-56.5 131t-74 72t-74 20.5q-60 -8 -107 -68.5t-97 -201.5zM942 181v-181h-150q-17 -68 -50 -134l-7 -13q-84 85 -178.5 116t-222.5 31h-339q-22 0 -22 23v133q0 25 22 25h236q11 115 43 219.5t92 181
t134 76.5q66 0 122 -46.5t92 -120.5t58.5 -153.5t30.5 -156.5h139z" />
    <glyph glyph-name="noonisolated" unicode="&#x646;" horiz-adv-x="1217" arabic-form="isolated" 
d="M845 502l114 164q162 -274 178 -535q4 -53 -9 -117t-40.5 -132.5t-75 -132t-107.5 -113.5t-144 -80.5t-178 -30.5q-238 0 -388.5 144.5t-150.5 363.5q0 218 139 414q13 -9 27.5 -20.5t20.5 -16.5q-93 -142 -93 -281q0 -172 125.5 -290.5t301.5 -118.5q106 0 213 54.5
t179 134.5t93 159q-44 183 -205 434zM691 822l-137 -137l-139 137l139 139z" />
    <glyph glyph-name="noonfinal" unicode="&#x646;" horiz-adv-x="1257" arabic-form="final" 
d="M691 822l-137 -137l-139 137l139 139zM1257 181v-181h-130q-17 -67 -46.5 -132t-77.5 -128t-107 -110t-140 -76t-172 -29q-238 0 -388.5 144t-150.5 364q0 218 139 414q13 -9 27.5 -20.5t20.5 -16.5q-93 -142 -93 -281q0 -172 125.5 -290.5t301.5 -118.5q106 0 213 54.5
t179 134.5t93 159q-44 183 -205 434l113 163q141 -241 175 -484h123z" />
    <glyph glyph-name="nooninitial" unicode="&#x646;" horiz-adv-x="679" arabic-form="initial" 
d="M290 1044l138 -139l-138 -138l-139 138zM-21 181h549q-20 65 -47 127.5t-46 97.5t-62 112v-1q-2 4 -20 34l132 152q129 -279 129 -510q0 -93 -13 -193h-622q-22 0 -22 23v133q0 25 22 25z" />
    <glyph glyph-name="noonmedial" unicode="&#x646;" horiz-adv-x="659" arabic-form="medial" 
d="M266 1044l138 -140l-138 -137l-139 137zM658 181v-181h-677q-22 0 -22 23v133q0 25 22 25h405q-28 94 -65 170.5t-98 179.5l-14 22l133 152q124 -266 129 -524h187z" />
    <glyph glyph-name="hehisolated" unicode="&#x647;" horiz-adv-x="815" arabic-form="isolated" 
d="M63 174q0 135 139 345q115 172 237 321q45 -32 79 -58.5t79.5 -71t75 -87t51 -98.5t21.5 -112q0 -70 -30.5 -145t-82.5 -139t-131 -105.5t-167 -41.5q-54 0 -92 4t-74 16t-57.5 32.5t-34.5 55.5t-13 84zM568 249q43 32 74 81q-31 81 -102 153t-175 152
q-55 -67 -89.5 -113t-69.5 -110t-35 -105q0 -27 14 -51q21 -33 69.5 -52t109.5 -19q118 0 204 64z" />
    <glyph glyph-name="hehfinal" unicode="&#x647;" horiz-adv-x="884" arabic-form="final" 
d="M884 181v-181h-222l-15 111l-106 -117q-79 26 -239 26h-251q-1 13 2.5 73.5t11.5 96.5q15 79 63.5 177.5t112 185t140.5 145.5t142 59q30 0 57.5 -26t51 -75t43 -102t37.5 -125.5t30 -126t25 -121.5h117zM170 210h195q14 0 46.5 -0.5t42.5 -0.5t34 -1t33.5 -3t28 -5.5
t31 -8.5t29 -12.5t33.5 -17.5q-22 92 -38 148.5t-40 117t-52.5 89.5t-63.5 29q-70 0 -144 -88t-135 -247z" />
    <glyph glyph-name="hehinitial" unicode="&#x647;" horiz-adv-x="1311" arabic-form="initial" 
d="M-1 181h330q-90 84 -90 178q0 65 31 127t96 111t153 69q-132 90 -150 207q19 8 52 23q4 -14 11 -26.5t21.5 -24t25 -19.5t35 -18.5t36.5 -15.5t44.5 -15.5t44.5 -14t50 -14.5q79 -24 142 -49.5t137.5 -67t132.5 -101.5t91 -135q39 -100 39 -209q0 -168 -86 -352
q-26 30 -54.5 53.5t-80 52t-130 44.5t-176.5 16h-705q-22 0 -22 23v133q0 25 22 25zM383 441q-22 -76 4.5 -142.5t86.5 -83.5q61 -18 119.5 22.5t81.5 116.5q23 77 -2.5 142.5t-86.5 83.5q-52 19 -116 -23t-87 -116zM676 182q131 0 207.5 -17t155.5 -77q30 174 -48.5 307.5
t-240.5 205.5q61 -134 44 -244t-118 -175z" />
    <glyph glyph-name="hehmedial" unicode="&#x647;" horiz-adv-x="1350" arabic-form="medial" 
d="M1350 0h-145q-20 -81 -60 -166q-26 30 -54.5 53.5t-80 52t-130 44.5t-176.5 16h-705q-22 0 -22 23v133q0 25 22 25h330q-90 84 -90 178q0 65 31 127t96 111t153 69q-132 90 -150 207q19 8 52 23q4 -14 11 -26.5t21.5 -24t25 -19.5t35 -18.5t36.5 -15.5t44.5 -15.5
t44.5 -14t50 -14.5q79 -24 142 -49.5t137.5 -67t132.5 -101.5t91 -135q39 -100 39 -209v-5h119v-181zM676 182q131 0 207.5 -17t155.5 -77q30 174 -48.5 307.5t-240.5 205.5q61 -134 44 -244t-118 -175zM383 441q-22 -76 4.5 -142.5t86.5 -83.5q61 -18 119.5 22.5
t81.5 116.5q23 77 -2.5 142.5t-86.5 83.5q-52 19 -116 -23t-87 -116z" />
    <glyph glyph-name="wawisolated" unicode="&#x648;" horiz-adv-x="706" arabic-form="isolated" 
d="M647 85q3 -221 -78 -401q-62 -141 -202 -315q-31 26 -91 76t-95 79q263 179 348 476q-84 -1 -145.5 1t-125 10.5t-104.5 23.5t-69 42t-34 64q-13 75 4 179.5t55.5 199t100.5 161t130 66.5q81 0 149.5 -84.5t110 -236.5t46.5 -341zM462 181h73q-18 162 -77 267.5
t-138 105.5q-49 0 -92 -50t-64 -109t-21 -101q0 -55 92 -84t227 -29z" />
    <glyph glyph-name="wawfinal" unicode="&#x648;" horiz-adv-x="754" arabic-form="final" 
d="M754 181v-181h-111q-19 -193 -74 -316q-62 -141 -202 -315q-31 26 -91 76t-95 79q263 179 348 476q-84 -1 -145.5 1t-125 10.5t-104.5 23.5t-69 42t-34 64q-13 75 4 179.5t55.5 199t100.5 161t130 66.5q79 0 144.5 -80.5t104.5 -207t53 -278.5h111zM462 181h73
q-18 162 -77 267.5t-138 105.5q-49 0 -92 -50t-64 -109t-21 -101q0 -55 92 -84t227 -29z" />
    <glyph glyph-name="alefmaksuraisolated" unicode="&#x649;" horiz-adv-x="1291" arabic-form="isolated" 
d="M271 578l53 -52q-120 -170 -120 -342q0 -180 123.5 -301.5t303.5 -121.5q132 0 263.5 78.5t213.5 191.5q-8 28 -33 54t-66.5 47.5t-80.5 38t-95 32.5t-88.5 24.5t-81.5 20.5q-30 10 -39.5 33t-9.5 59q7 99 66.5 203.5t151.5 175t182 70.5q117 0 117 -195v-9
q-41 31 -107 31q-94 0 -184 -58.5t-121 -147.5q78 -18 157.5 -45t162 -66.5t134 -93.5t51.5 -113q0 -47 -28 -115t-83.5 -143t-128 -139.5t-173 -107t-207.5 -42.5q-108 0 -198 34t-149 87.5t-100 122t-58.5 135t-17.5 128.5q0 287 190 526z" />
    <glyph glyph-name="alefmaksurafinal" unicode="&#x649;" horiz-adv-x="1418" arabic-form="final" 
d="M1256 11q-18 -60 -53 -123t-94.5 -129.5t-133.5 -117.5t-178 -84t-221 -33q-107 0 -196.5 31.5t-148.5 83t-100.5 118.5t-59.5 136t-18 137q3 287 188 527q14 -13 29.5 -28.5l23.5 -23.5q-129 -184 -129 -368q0 -176 113.5 -293.5t287.5 -117.5q184 0 344.5 88t248.5 212
q-178 53 -264 125q-10 7 -22 18t-27 39t-15 60v90q100 -93 228.5 -135t339.5 -42h19v-181h-28q-58 0 -134 11z" />
    <glyph glyph-name="yehisolated" unicode="&#x64a;" horiz-adv-x="1317" arabic-form="isolated" 
d="M271 578l53 -52q-120 -170 -120 -342q0 -180 123.5 -301.5t303.5 -121.5q132 0 263.5 78.5t213.5 191.5q-8 28 -33 54t-66.5 47.5t-80.5 38t-95 32.5t-88.5 24.5t-81.5 20.5q-30 10 -39.5 33t-9.5 59q7 99 66.5 203.5t151.5 175t182 70.5q117 0 117 -195v-9
q-41 31 -107 31q-94 0 -184 -58.5t-121 -147.5q78 -18 157.5 -45t162 -66.5t134 -93.5t51.5 -113q0 -47 -28 -115t-83.5 -143t-128 -139.5t-173 -107t-207.5 -42.5q-108 0 -198 34t-149 87.5t-100 122t-58.5 135t-17.5 128.5q0 287 190 526zM580 -495l144 -107
q-32 -23 -77.5 -57.5t-66.5 -50.5q-28 21 -74.5 56t-69.5 52zM868 -495l146 -107q-31 -22 -79 -58t-67 -50q-29 21 -74.5 56t-68.5 52l78 58.5t65 48.5z" />
    <glyph glyph-name="yehfinal" unicode="&#x64a;" horiz-adv-x="1418" arabic-form="final" 
d="M1256 11q-18 -60 -53 -123t-94.5 -129.5t-133.5 -117.5t-178 -84t-221 -33q-107 0 -196.5 31.5t-148.5 83t-100.5 118.5t-59.5 136t-18 137q3 287 188 527q14 -13 29.5 -28.5l23.5 -23.5q-129 -184 -129 -368q0 -176 113.5 -293.5t287.5 -117.5q184 0 344.5 88t248.5 212
q-178 53 -264 125q-10 7 -22 18t-27 39t-15 60v90q100 -93 228.5 -135t339.5 -42h19v-181h-28q-58 0 -134 11zM964 -493l146 -107q-32 -23 -79.5 -58.5t-66.5 -49.5q-29 21 -74.5 56t-68.5 52l78 58.5t65 48.5zM677 -493l144 -107q-32 -23 -77.5 -57.5t-66.5 -50.5
q-28 21 -74.5 56t-69.5 52z" />
    <glyph glyph-name="yehinitial" unicode="&#x64a;" horiz-adv-x="780" arabic-form="initial" 
d="M218 -94l140 -138l-140 -140l-137 140zM640 -232l-139 -140l-139 140q29 29 76 75.5t63 62.5zM-22 181h660q-20 65 -47 127.5t-46 97.5t-62 112v-1q-2 4 -20 34l132 152q130 -276 130 -510q0 -93 -13 -193h-734q-22 0 -22 23v133q0 25 22 25z" />
    <glyph glyph-name="yehmedial" unicode="&#x64a;" horiz-adv-x="794" arabic-form="medial" 
d="M268 -91l140 -138l-140 -140l-137 140zM687 -229l-139 -140l-139 140q29 29 76 75.5t63 62.5zM794 181v-181h-813q-22 0 -22 23v133q0 25 22 25h405q-28 94 -65 170.5t-98 179.5l-14 22l133 152q124 -266 129 -524h323z" />
    <glyph glyph-name=".notdef" horiz-adv-x="1024" 
d="M896 1450v-1450h-768v1450h768zM256 128h512v1194h-512v-1194z" />
    <glyph glyph-name=".null" 
 />
    <glyph glyph-name="nonmarkingreturn" horiz-adv-x="682" 
 />
    <glyph glyph-name="space" unicode=" " horiz-adv-x="531" 
 />
    <glyph glyph-name="exclam" unicode="!" horiz-adv-x="474" 
d="M351 1575l-49 -1134l-132 -86l-76 1110zM240 -69q-107 107 -176 169q36 31 148 151q44 -47 178 -169q-23 -24 -150 -151z" />
    <glyph glyph-name="quotedbl" unicode="&#x22;" horiz-adv-x="1063" 
d="M307 958v492h148v-492h-148zM608 958v492h148v-492h-148z" />
    <glyph glyph-name="numbersign" unicode="#" horiz-adv-x="1139" 
d="M201 0l61 436h-201v135h222l41 312h-201v135h221l62 432h137l-62 -432h258l62 432h137l-61 -432h200v-135h-219l-43 -312h201v-135h-221l-62 -436h-137l61 436h-258l-61 -436h-137zM678 571l43 312h-258l-43 -312h258z" />
    <glyph glyph-name="dollar" unicode="$" horiz-adv-x="1139" 
d="M524 -170v145q-136 0 -250.5 46.5t-187.5 144.5l143 125q44 -68 125.5 -110.5t169.5 -45.5v520q-69 19 -125 42t-109.5 58.5t-90 79t-58.5 104t-22 132.5q0 166 118.5 277.5t286.5 126.5v135h99v-135q114 0 220.5 -43t176.5 -123l-135 -123q-47 62 -115 95.5t-147 33.5
v-510q57 -18 94.5 -31t87 -35t81.5 -43t66.5 -52.5t54.5 -67t33 -83.5t13 -104q0 -177 -124 -289.5t-306 -124.5v-145h-99zM524 831v484q-101 -19 -161 -84.5t-60 -161.5q0 -51 15.5 -88.5t50.5 -65.5t67 -44.5t88 -39.5zM623 629v-494q106 13 175.5 81t69.5 165
q0 53 -19.5 95t-57 71t-76.5 47t-92 35z" />
    <glyph glyph-name="percent" unicode="%" horiz-adv-x="1173" 
d="M499 1260l-138 -162q-36 37 -176 187q11 11 143 160q41 -38 171 -185zM1056 1441l-801 -1519h-199l804 1519h196zM999 168l-138 -162q-36 37 -176 187q11 11 143 160q41 -38 171 -185z" />
    <glyph glyph-name="ampersand" unicode="&#x26;" horiz-adv-x="1479" 
d="M1214 0l-196 209q-93 -118 -194.5 -176t-239.5 -58q-125 0 -228.5 48.5t-168 144t-64.5 221.5q0 144 88.5 249t232.5 171q-84 85 -129 163t-45 173q0 155 108.5 243.5t266.5 88.5q156 0 259.5 -84.5t103.5 -237.5q0 -53 -18.5 -101.5t-47 -85t-71.5 -72t-82.5 -60
t-88.5 -50.5l308 -325l194 325h195l-279 -446l332 -340h-236zM543 944l51 -53q111 61 151 93q91 75 91 175q0 78 -53 124t-132 46q-88 0 -148.5 -54t-60.5 -140q0 -53 27 -98t74 -93zM913 324l-362 381q-44 -24 -75 -43.5t-67.5 -49.5t-59.5 -60t-38.5 -71t-15.5 -86
q0 -115 83.5 -193.5t199.5 -78.5q101 0 176 51.5t159 149.5z" />
    <glyph glyph-name="quotesingle" unicode="'" horiz-adv-x="569" 
d="M211 958v492h147v-492h-147z" />
    <glyph glyph-name="parenleft" unicode="(" horiz-adv-x="553" 
d="M473 -399h-17q-394 441 -394 878q0 219 103.5 449.5t298.5 437.5h19q-268 -461 -268 -893q0 -405 258 -872z" />
    <glyph glyph-name="parenright" unicode=")" horiz-adv-x="556" 
d="M78 -399h-17q258 467 258 872q0 432 -268 893h19q195 -207 298.5 -437.5t103.5 -449.5q0 -437 -394 -878z" />
    <glyph glyph-name="asterisk" unicode="*" horiz-adv-x="909" 
d="M516 1450v-305l291 98l39 -119l-289 -98l182 -244l-100 -77l-184 251l-179 -251l-102 77l178 244l-289 98l39 119l291 -98v305h123z" />
    <glyph glyph-name="plus" unicode="+" horiz-adv-x="1364" 
d="M147 553v135h467v467h136v-467h467v-135h-467v-467h-136v467h-467z" />
    <glyph glyph-name="comma" unicode="," horiz-adv-x="377" 
d="M215 -42q-7 20 -22 35q-30 38 -80.5 40.5t-85.5 -21.5q46 138 173 125q50 -4 86.5 -40.5t34.5 -90.5q-2 -90 -74 -203t-156 -200q-13 -13 -4 4q4 9 20 36l12 18q12 18 28.5 47.5t33.5 64t29 74t12 70.5q0 24 -7 41z" />
    <glyph glyph-name="hyphenminus" unicode="-" horiz-adv-x="682" 
d="M90 418v147h502v-147h-502z" />
    <glyph glyph-name="period" unicode="." horiz-adv-x="445" 
d="M366 156h1l28 -24q-29 -29 -124 -115l-55 -50q-95 73 -181 151q14 15 93 87q65 59 90 83q4 -4 60 -53q40 -34 88 -79z" />
    <glyph glyph-name="slash" unicode="/" horiz-adv-x="797" 
d="M756 1477l-623 -1546q-24 8 -60.5 22t-55.5 21l623 1548z" />
    <glyph glyph-name="zero" unicode="0" horiz-adv-x="441" 
d="M48 444q32 59 128 213q61 -50 211 -161q-27 -44 -73 -121t-54 -90q-11 9 -29 22.5t-71.5 53.5t-111.5 83z" />
    <glyph glyph-name="one" unicode="1" horiz-adv-x="671" 
d="M185 1288l25 51q245 -515 294 -973q4 -35 4 -76q0 -186 -63 -312q-49 291 -148.5 583.5t-229.5 517.5q35 50 118 209z" />
    <glyph glyph-name="two" unicode="2" horiz-adv-x="929" 
d="M542 1210q159 0 293 93q-7 -95 -34 -165q-25 -72 -109.5 -109.5t-186.5 -37.5q-29 0 -124 13q94 -338 126 -624q6 -57 6 -113q0 -176 -55 -305q-47 288 -147.5 581t-230.5 520q65 124 135 259q145 -112 327 -112z" />
    <glyph glyph-name="three" unicode="3" horiz-adv-x="1036" 
d="M753 994q-72 -2 -162 74q-31 -49 -83 -75t-116 -18q86 -325 115 -590q25 -236 -49 -418q-47 288 -147.5 580.5t-229.5 519.5q61 118 129 250q95 -106 202 -106q50 0 96.5 28.5t80.5 82.5q29 -56 72 -85.5t93 -29.5q95 0 155 80q15 -46 9 -97.5t-24 -94.5t-55.5 -71.5
t-85.5 -29.5z" />
    <glyph glyph-name="four" unicode="4" horiz-adv-x="907" 
d="M321 318q0 -39 68 -76t176 -59t219 -22h33l-78 -102t-86 -113q-6 0 -9 -0.5t-10 -0.5q-32 0 -70 3q-238 15 -353 78t-115 148q0 130 215 342v-1q88 84 88 115q0 4 -0.5 7.5t-2.5 7.5t-3.5 6.5t-5.5 6t-6 6t-7.5 6t-8.5 5.5t-10 7t-10 7q-15 8 -25 17l-29 19
q-49 32 -73.5 49.5t-56 46.5t-45 59t-13.5 66q0 65 96.5 154.5t217.5 162t233 119.5q-5 -33 -12.5 -78.5t-9.5 -61.5q-75 -25 -152 -61.5t-116 -60.5l-39 -25q-68 -43 32 -108l263 -173h-1q32 -21 32 -45q0 -22 -39 -66q-2 -2 -3 -2.5t-2 -2.5l2 1l-45 -52
q-187 -216 -215 -261l1 1q-25 -39 -25 -69z" />
    <glyph glyph-name="five" unicode="5" horiz-adv-x="1019" 
d="M539 1329q59 0 122.5 -65.5t114.5 -169t84 -243.5t33 -278q0 -5 -0.5 -17t-0.5 -17q-19 -302 -142 -419q-75 -65 -169 -103t-177 -38q-64 0 -124.5 23t-100.5 63q-80 94 -80 299q0 104 19 240q12 88 52.5 209t97 237.5t130.5 197.5t141 81zM165 467q0 -67 43.5 -114
t105 -65t128.5 -13q157 12 254.5 93.5t97.5 152.5q0 29 -34 109t-83 166.5t-111 153.5t-109 67q-64 0 -134.5 -103.5t-114 -233t-43.5 -213.5z" />
    <glyph glyph-name="six" unicode="6" horiz-adv-x="1002" 
d="M918 242q12 -13 12 -33t-15 -41l-135 -207q-73 123 -133 402.5t-60 568.5q0 108 16 233q-208 -67 -337 -67q-86 0 -137.5 22.5t-53.5 55.5q-4 42 -13.5 127t-14.5 131q128 -64 301 -64q160 0 306 64q-2 -1 -2 -20v-10q0 -43 1 -82t7 -140.5t15.5 -189t30 -205t47 -211
t69.5 -185t96 -149.5z" />
    <glyph glyph-name="seven" unicode="7" horiz-adv-x="1010" 
d="M861 1341l78 -330q-219 -258 -426 -1035q-34 182 -124 418.5t-186 409t-150 193.5l74 323q36 -39 71.5 -94.5t62.5 -104.5t59 -129t49.5 -125t46.5 -137t38 -120.5t35 -120.5t27 -95q31 128 54.5 216t70.5 245t103.5 282t116.5 204z" />
    <glyph glyph-name="eight" unicode="8" horiz-adv-x="1032" 
d="M140 -30l-80 316q215 253 423 1034q34 -182 124.5 -418.5t187.5 -408.5t151 -193l-74 -323q-36 39 -71.5 94.5t-62.5 104.5t-59 129t-49.5 125t-46.5 137t-38 120.5t-35 120.5t-27 95q-23 -96 -39.5 -161.5t-53.5 -192t-70.5 -219t-82 -194.5t-97.5 -166z" />
    <glyph glyph-name="nine" unicode="9" horiz-adv-x="1005" 
d="M925 228q12 -13 12 -32q0 -21 -14 -41l-137 -208q-53 89 -180 733q-57 -49 -62 -52q-105 -76 -242 -76q-118 0 -180 62q-48 48 -48 170q0 84 32 190t81 197.5t115 154t128 62.5q26 0 49.5 -13.5t44 -43t38 -62t34.5 -85t30 -95.5t28.5 -110.5t25 -114t24.5 -120.5
q31 -148 92 -295t129 -221zM328 761q88 1 151 32t83 68q-78 289 -201 289q-42 0 -92.5 -53.5t-83.5 -119t-35 -106.5q-2 -52 53 -81t125 -29z" />
    <glyph glyph-name="colon" unicode=":" horiz-adv-x="429" 
d="M357 512l-138 -140q-30 29 -79.5 78.5t-79.5 78.5q23 24 68.5 70t67.5 69q32 -31 81.5 -78.5t79.5 -77.5zM358 127l-137 -142l-159 156q25 26 68.5 70t68.5 69z" />
    <glyph glyph-name="semicolon" unicode=";" horiz-adv-x="547" 
d="M297 -165l-11 -11q-88 88 -140 135q34 31 118 120q78 -78 141 -134l-14 -15h1zM358 939q4 5 6 5t-3 -9q-130 -257 -130 -389q0 -63 40 -125q50 -68 137 -68q26 0 48 6q-36 -87 -89.5 -126t-105.5 -32h1q-56 9 -96.5 56t-40.5 121q0 129 71.5 288t161.5 273z" />
    <glyph glyph-name="less" unicode="&#x3c;" horiz-adv-x="862" 
d="M561 1090l29 -23q87 -87 166 -291q-52 26 -129 81.5t-140 109.5q-63 58 -63 108v15q0 53 82 124q158 102 305 183q-1 -2 -19 -30t-23.5 -36.5t-24 -35.5t-28 -40t-28 -37t-32 -39t-31.5 -33t-35 -32zM205 1090l28 -23q50 -50 96 -135.5t70 -155.5q-54 28 -132.5 84
t-135.5 107q-63 43 -63 108v15q0 56 82 124q209 137 305 183q-1 -2 -17 -26.5t-20.5 -31.5t-20.5 -31t-24.5 -35.5t-24 -33t-27.5 -35t-27.5 -31.5t-30.5 -32t-30 -27z" />
    <glyph glyph-name="equal" unicode="=" horiz-adv-x="1364" 
d="M147 713v135h1070v-135h-1070zM147 393v135h1070v-135h-1070z" />
    <glyph glyph-name="greater" unicode="&#x3e;" horiz-adv-x="862" 
d="M442 1090v-15q0 -50 -63 -108q-57 -51 -135 -107t-133 -84q29 75 72.5 157.5t92.5 133.5l29 23l-29 24q-86 73 -211 268q-3 3 -4 5t-3 5t-3 5q156 -83 305 -183q82 -68 82 -124zM799 1090v-15q0 -64 -64 -108q-55 -51 -134 -107.5t-134 -83.5q79 204 166 291l29 23
l-29 24q-86 73 -211 268q-3 3 -4 5t-3 5t-3 5q129 -62 305 -183q82 -71 82 -124z" />
    <glyph glyph-name="question" unicode="?" horiz-adv-x="917" 
d="M447 437h-99q1 155 41 257q32 85 134 224q143 194 143 291q0 78 -49.5 123.5t-130.5 45.5q-143 0 -236 -130q-82 -115 -89 -265h-66v302q278 152 498 152q125 0 201 -49q93 -58 93 -175q0 -155 -190 -324q-194 -173 -231 -308q-18 -65 -19 -144zM481 135q-35 -35 -85 -35
t-85 35q-35 37 -35 86q0 50 34 85q34 36 84 36q51 0 86.5 -35t35.5 -86q0 -49 -35 -86z" />
    <glyph glyph-name="at" unicode="@" horiz-adv-x="1877" 
d="M1783 293h54q-95 -277 -333 -443q-239 -167 -530 -167q-246 0 -448 113q-212 119 -318 332q-106 209 -106 454q0 407 269 685q273 282 678 282q315 0 508 -184q198 -187 198 -500q0 -397 -280 -628q-110 -91 -259 -91q-157 0 -157 140q0 42 25 155q-103 -127 -165 -182
q-115 -102 -217 -102q-95 0 -147 70q-47 62 -47 160q0 161 97 330q89 153 225 267q124 103 235 103q129 0 169 -141l31 115l131 19l-139 -469q-74 -252 -74 -316q0 -82 93 -82q183 0 315 241q112 206 112 406q0 290 -183 464q-182 174 -473 174q-250 0 -450 -133
q-197 -131 -303 -357q-111 -237 -111 -481q0 -214 103 -401q106 -194 290 -292q185 -98 400 -98q268 0 492 153q223 151 315 404zM774 264q102 0 218 134q94 109 142 226q63 153 63 262q0 155 -137 155q-152 0 -290 -247q-122 -221 -122 -388q0 -142 126 -142z" />
    <glyph glyph-name="A" unicode="A" horiz-adv-x="1442" 
d="M12 0l639 1450h162l617 -1450h-201l-148 356h-725l-149 -356h-195zM1016 516l-287 713h-4l-301 -713h592z" />
    <glyph glyph-name="B" unicode="B" horiz-adv-x="1290" 
d="M180 0v1450h443q75 0 142 -11t130 -38t108.5 -66.5t73 -101.5t27.5 -139q0 -124 -67 -208t-187 -120v-4q140 -13 234 -113.5t94 -242.5q0 -93 -33.5 -165t-87.5 -116.5t-130 -73.5t-152.5 -40t-162.5 -11h-432zM352 1290v-454h238q54 0 97 5t88.5 20t75.5 40t49.5 68.5
t19.5 101.5q0 219 -312 219h-256zM352 676v-516h291q66 0 126 14t111.5 42.5t82 79t30.5 116.5q0 73 -29 126t-79.5 82t-109.5 42.5t-128 13.5h-295z" />
    <glyph glyph-name="C" unicode="C" horiz-adv-x="1442" 
d="M1346 1260l-150 -109q-63 86 -159 131t-203 45q-157 0 -285.5 -84.5t-198 -222t-69.5 -295.5q0 -167 69.5 -304t196.5 -217.5t287 -80.5q261 0 419 203l129 -109q-188 -254 -548 -254q-206 0 -374.5 98t-266 273t-97.5 391q0 211 93.5 385t263.5 275.5t381 101.5
q155 0 289 -56t223 -171z" />
    <glyph glyph-name="D" unicode="D" horiz-adv-x="1518" 
d="M154 0v1450h557q90 0 183.5 -23.5t189 -78.5t169.5 -136t121 -207t47 -280t-47 -280t-121 -207t-169.5 -136t-189 -78.5t-183.5 -23.5h-557zM326 1290v-1130h327q127 0 231.5 33t184.5 100t124 177t44 255t-44 255t-124 177t-184.5 100t-231.5 33h-327z" />
    <glyph glyph-name="E" unicode="E" horiz-adv-x="1214" 
d="M180 0v1450h912v-160h-740v-454h690v-160h-690v-516h776v-160h-948z" />
    <glyph glyph-name="F" unicode="F" horiz-adv-x="1139" 
d="M180 0v1450h899v-160h-727v-479h676v-160h-676v-651h-172z" />
    <glyph glyph-name="G" unicode="G" horiz-adv-x="1593" 
d="M1413 811v-713q-244 -135 -543 -135q-223 0 -399 95t-275.5 269t-99.5 398q0 168 61 311.5t166 241.5t248.5 153.5t305.5 55.5q324 0 512 -191l-129 -135q-73 79 -178 122.5t-218 43.5q-164 0 -297.5 -76.5t-209.5 -214.5t-76 -311q0 -172 75 -309t212 -215t313 -78
q88 0 184.5 22.5t175.5 61.5v444h-334v160h506z" />
    <glyph glyph-name="H" unicode="H" horiz-adv-x="1479" 
d="M180 0v1450h172v-614h774v614h172v-1450h-172v676h-774v-676h-172z" />
    <glyph glyph-name="I" unicode="I" horiz-adv-x="532" 
d="M180 0v1450h172v-1450h-172z" />
    <glyph glyph-name="J" unicode="J" horiz-adv-x="987" 
d="M807 1450v-1075q0 -61 -13 -118t-44 -111t-77.5 -94t-118.5 -64.5t-161 -24.5q-156 0 -258 79.5t-129 231.5l172 35q18 -88 73 -137t144 -49q240 0 240 311v1016h172z" />
    <glyph glyph-name="K" unicode="K" horiz-adv-x="1290" 
d="M180 0v1450h172v-627h25l659 627h248l-717 -662l752 -788h-252l-690 737h-25v-737h-172z" />
    <glyph glyph-name="L" unicode="L" horiz-adv-x="1024" 
d="M180 0v1450h172v-1290h664v-160h-836z" />
    <glyph glyph-name="M" unicode="M" horiz-adv-x="1858" 
d="M180 0v1450h256l492 -1137h4l495 1137h250v-1450h-172v1217h-4l-520 -1217h-104l-521 1217h-4v-1217h-172z" />
    <glyph glyph-name="N" unicode="N" horiz-adv-x="1593" 
d="M180 0v1450h217l840 -1204h4v1204h172v-1450h-217l-840 1204h-4v-1204h-172z" />
    <glyph glyph-name="O" unicode="O" horiz-adv-x="1708" 
d="M854 -37q-162 0 -303.5 58t-241 158.5t-156.5 242t-57 303.5t57 303.5t156.5 242t241 158.5t303.5 58t303.5 -58t241 -158.5t156.5 -242t57 -303.5t-57 -303.5t-156.5 -242t-241 -158.5t-303.5 -58zM854 123q166 0 298 80.5t203.5 218t71.5 303.5t-71.5 303.5t-203.5 218
t-298 80.5t-298 -80.5t-203.5 -218t-71.5 -303.5t71.5 -303.5t203.5 -218t298 -80.5z" />
    <glyph glyph-name="P" unicode="P" horiz-adv-x="1214" 
d="M180 0v1450h430q84 0 156 -12t138 -41t112.5 -73.5t74 -113.5t27.5 -157q0 -92 -30 -163.5t-77.5 -115.5t-112 -72.5t-127 -39.5t-128.5 -11h-291v-651h-172zM352 1290v-479h291q134 0 212.5 61t78.5 179q0 117 -78.5 178t-212.5 61h-291z" />
    <glyph glyph-name="Q" unicode="Q" horiz-adv-x="1708" 
d="M1683 147v-147h-841q-209 0 -380 98t-268.5 268t-97.5 377t97.5 377.5t268.5 268.5t380 98t380 -98t268 -268.5t97 -377.5q0 -123 -42 -240.5t-123 -211.5t-187 -139v-5h448zM281 743q0 -161 73 -295t202 -211t286 -77t286 77t202 211t73 295q0 120 -42.5 227.5t-116 186
t-178.5 124.5t-224 46q-160 0 -289 -78t-200.5 -211.5t-71.5 -294.5z" />
    <glyph glyph-name="R" unicode="R" horiz-adv-x="1251" 
d="M180 0v1450h371q67 0 120.5 -3t115.5 -13.5t109 -28t92.5 -47.5t74.5 -71t47 -101t18 -135q0 -157 -96 -257t-266 -126l412 -668h-211l-394 651h-221v-651h-172zM352 1290v-479h154q65 0 100 1.5t96 7.5t96 21.5t73 40.5t55.5 68t17.5 101q0 60 -21 104.5t-53 70
t-80.5 40.5t-93.5 19.5t-102 4.5h-242z" />
    <glyph glyph-name="S" unicode="S" horiz-adv-x="1139" 
d="M1010 1317l-142 -123q-41 66 -111 99.5t-153 33.5q-80 0 -147.5 -24t-114.5 -81t-47 -139q0 -99 65 -154.5t240 -111.5q46 -15 74.5 -24.5t70.5 -26t68 -30t60 -34.5t54.5 -42t43 -50.5t35 -61.5t20.5 -73t8 -88q0 -105 -42.5 -187.5t-114.5 -133.5t-162 -77t-191 -26
q-137 0 -257 49t-189 152l147 121q45 -78 129 -120t181 -42q77 0 147 27.5t119 86.5t49 138q0 50 -14.5 87.5t-37.5 62.5t-70.5 49t-93.5 40.5t-126 43.5q-8 2 -12.5 3.5t-11.5 4t-13 4.5q-85 28 -144 57.5t-111.5 75.5t-78.5 112t-26 154q0 101 41 182.5t110.5 132t157 77
t184.5 26.5q260 0 406 -170z" />
    <glyph glyph-name="T" unicode="T" horiz-adv-x="1176" 
d="M1153 1450v-160h-479v-1290h-172v1290h-479v160h1130z" />
    <glyph glyph-name="U" unicode="U" horiz-adv-x="1442" 
d="M1268 1450v-897q0 -97 -18 -182.5t-60 -161t-104 -129.5t-155.5 -85.5t-209.5 -31.5t-209.5 31.5t-155.5 85.5t-104 129.5t-60 161t-18 182.5v897h172v-872q0 -93 18.5 -170.5t60 -143.5t117 -103.5t179.5 -37.5t179.5 37.5t117 103.5t60 143.5t18.5 170.5v872h172z" />
    <glyph glyph-name="V" unicode="V" horiz-adv-x="1251" 
d="M537 0l-555 1450h194l447 -1192h4l460 1192h183l-568 -1450h-165z" />
    <glyph glyph-name="W" unicode="W" horiz-adv-x="1972" 
d="M436 0l-424 1450h191l329 -1204h5l356 1204h192l355 -1204h4l336 1204h180l-426 -1450h-186l-359 1229h-4l-360 -1229h-189z" />
    <glyph glyph-name="X" unicode="X" horiz-adv-x="1290" 
d="M-6 0l528 764l-487 686h221l391 -567l387 567h215l-487 -686l534 -764h-227l-430 643l-432 -643h-213z" />
    <glyph glyph-name="Y" unicode="Y" horiz-adv-x="1217" 
d="M522 0v625l-540 825h219l407 -655l420 655h207l-541 -825v-625h-172z" />
    <glyph glyph-name="Z" unicode="Z" horiz-adv-x="1176" 
d="M59 0v154l838 1136h-825v160h1034v-147l-838 -1143h848v-160h-1057z" />
    <glyph glyph-name="bracketleft" unicode="[" horiz-adv-x="530" 
d="M395 1499v-123h-190v-1573h190v-122h-338v1818h338z" />
    <glyph glyph-name="backslash" unicode="\" horiz-adv-x="758" 
d="M623 -88l-617 1575l129 49l617 -1573z" />
    <glyph glyph-name="bracketright" unicode="]" horiz-adv-x="530" 
d="M135 1376v123h338v-1818h-338v122h191v1573h-191z" />
    <glyph glyph-name="asciicircum" unicode="^" horiz-adv-x="960" 
d="M498 1408l425 -717h-92l-350 586l-350 -586h-94l431 717h30z" />
    <glyph glyph-name="underscore" unicode="_" horiz-adv-x="1024" 
d="M1036 -154v-102h-1048v102h1048z" />
    <glyph glyph-name="grave" unicode="`" horiz-adv-x="683" 
d="M295 1445l114 -231l-36 -21l-139 156q-66 73 -66 97q0 62 60 62q36 0 67 -63z" />
    <glyph glyph-name="a" unicode="a" horiz-adv-x="1063" 
d="M240 731l-101 105q72 73 172.5 110t208.5 37q209 0 305.5 -100t96.5 -305v-412q0 -80 14 -166h-154q-10 43 -10 143h-4q-50 -77 -130.5 -122.5t-184.5 -45.5q-153 0 -255 75.5t-102 209.5q0 66 22 118.5t56 87t86.5 60t102 38.5t115.5 20.5t113.5 9.5t108.5 2h62v29
q0 103 -62 157t-176 54q-79 0 -154 -27t-130 -78zM762 461h-160q-158 0 -246 -45.5t-88 -139.5q0 -86 57 -125.5t154 -39.5q132 0 206 82.5t77 205.5v62z" />
    <glyph glyph-name="b" unicode="b" horiz-adv-x="1251" 
d="M143 0v1548h160v-729h4q140 164 344 164q224 0 364 -142t140 -362q0 -141 -63.5 -256.5t-173.5 -181.5t-242 -66q-125 0 -223.5 55t-145.5 140h-4v-170h-160zM303 479q0 -153 94 -254.5t246 -101.5t246 101.5t94 254.5q0 154 -93.5 255.5t-246.5 101.5t-246.5 -101.5
t-93.5 -255.5z" />
    <glyph glyph-name="c" unicode="c" horiz-adv-x="987" 
d="M961 831l-127 -112q-97 117 -242 117q-155 0 -239.5 -101t-84.5 -256q0 -150 90.5 -253t233.5 -103q157 0 244 119l118 -113q-134 -154 -362 -154q-222 0 -359 141t-137 363q0 220 138 362t358 142q229 0 369 -152z" />
    <glyph glyph-name="d" unicode="d" horiz-adv-x="1251" 
d="M948 0v170h-4q-46 -85 -145 -140t-224 -55q-132 0 -242 66t-173.5 181.5t-63.5 256.5q0 220 140 362t364 142q204 0 344 -164h4v729h160v-1548h-160zM948 479q0 154 -93.5 255.5t-246.5 101.5t-246.5 -101.5t-93.5 -255.5q0 -153 94 -254.5t246 -101.5t246 101.5
t94 254.5z" />
    <glyph glyph-name="e" unicode="e" horiz-adv-x="1139" 
d="M887 268l121 -94q-83 -106 -186 -152.5t-240 -46.5q-146 0 -258 68.5t-170 182t-58 253.5q0 222 139.5 363t352.5 141q206 0 330 -133.5t124 -368.5v-51h-774q10 -128 98 -217.5t216 -89.5q101 0 174 35.5t131 109.5zM268 565h602q-5 123 -81.5 197t-206.5 74t-214 -74
t-100 -197z" />
    <glyph glyph-name="f" unicode="f" horiz-adv-x="645" 
d="M233 0v823h-208v135h208v216q0 91 17.5 161t55.5 125t105.5 84t161.5 29q79 0 123 -25l-22 -143q-58 20 -109 20q-35 0 -62 -7.5t-45 -19.5t-30.5 -34t-19 -42t-10 -54t-4.5 -60t-1 -69v-181h234v-135h-234v-823h-160z" />
    <glyph glyph-name="g" unicode="g" horiz-adv-x="1251" 
d="M1108 958v-915q0 -259 -135 -397t-387 -138q-144 0 -258 43t-213 140l114 131q78 -84 163.5 -125t193.5 -41q362 0 362 387v123h-4q-54 -88 -145.5 -133t-192.5 -45q-224 0 -367 139t-143 352q0 233 139.5 368.5t370.5 135.5q104 0 198.5 -48.5t139.5 -139.5h4v163h160z
M268 479q0 -145 99 -244.5t239 -99.5q158 0 250 101.5t92 246.5q0 156 -95 254.5t-247 98.5q-148 0 -243 -102t-95 -255z" />
    <glyph glyph-name="h" unicode="h" horiz-adv-x="1139" 
d="M152 0v1548h159v-723h4q36 63 119.5 110.5t188.5 47.5q182 0 273 -105t91 -286v-592h-160v575q0 124 -54.5 192.5t-164.5 68.5q-150 0 -223.5 -98.5t-73.5 -270.5v-467h-159z" />
    <glyph glyph-name="i" unicode="i" horiz-adv-x="492" 
d="M166 0v958h160v-958h-160zM129 1333q0 48 34 82.5t83 34.5q48 0 82 -34.5t34 -82.5q0 -50 -33 -83t-83 -33q-51 0 -84 33t-33 83z" />
    <glyph glyph-name="j" unicode="j" horiz-adv-x="492" 
d="M326 958v-1173q0 -33 -6.5 -66.5t-25.5 -73t-49.5 -68.5t-83 -49t-120.5 -20q-65 0 -111 21l19 139q39 -12 78 -12q82 0 110.5 53t28.5 150v1099h160zM129 1333q0 48 34 82.5t83 34.5q48 0 82 -34.5t34 -82.5q0 -50 -33 -83t-83 -33q-51 0 -84 33t-33 83z" />
    <glyph glyph-name="k" unicode="k" horiz-adv-x="1024" 
d="M152 0v1548h159v-1011l437 421h227l-463 -436l510 -522h-236l-475 504v-504h-159z" />
    <glyph glyph-name="l" unicode="l" horiz-adv-x="492" 
d="M166 0v1548h160v-1548h-160z" />
    <glyph glyph-name="m" unicode="m" horiz-adv-x="1745" 
d="M152 0v731q0 47 -4.5 123t-4.5 104h152q0 -25 2 -77.5t2 -79.5h4q35 76 121.5 129t198.5 53q73 0 128.5 -18t90 -50t51.5 -56.5t33 -57.5q55 90 127 136t176 46q197 0 280.5 -102.5t83.5 -298.5v-582h-159v573q0 263 -234 263q-104 0 -176 -78.5t-72 -204.5v-553h-159
v543q0 158 -43 225.5t-142 67.5q-150 0 -223.5 -98.5t-73.5 -270.5v-467h-159z" />
    <glyph glyph-name="n" unicode="n" horiz-adv-x="1139" 
d="M152 0v731q0 47 -4.5 123t-4.5 104h152q0 -25 2 -77.5t2 -79.5h4q35 76 121.5 129t198.5 53q182 0 273 -105t91 -286v-592h-160v575q0 124 -54.5 192.5t-164.5 68.5q-150 0 -223.5 -98.5t-73.5 -270.5v-467h-159z" />
    <glyph glyph-name="o" unicode="o" horiz-adv-x="1217" 
d="M96 479q0 223 144.5 363.5t367.5 140.5t367.5 -140.5t144.5 -363.5t-144.5 -363.5t-367.5 -140.5t-367.5 140.5t-144.5 363.5zM268 479q0 -153 94 -254.5t246 -101.5t246 101.5t94 254.5q0 154 -93.5 255.5t-246.5 101.5t-246.5 -101.5t-93.5 -255.5z" />
    <glyph glyph-name="p" unicode="p" horiz-adv-x="1251" 
d="M143 -467v1425h160v-139h4q140 164 344 164q224 0 364 -142t140 -362q0 -141 -63.5 -256.5t-173.5 -181.5t-242 -66q-125 0 -223.5 55t-145.5 140h-4v-637h-160zM303 479q0 -153 94 -254.5t246 -101.5t246 101.5t94 254.5q0 154 -93.5 255.5t-246.5 101.5t-246.5 -101.5
t-93.5 -255.5z" />
    <glyph glyph-name="q" unicode="q" horiz-adv-x="1251" 
d="M1108 958v-1425h-160v606h-4q-141 -164 -344 -164q-224 0 -364 142t-140 362q0 214 138.5 359t340.5 145q125 0 224 -55t145 -140h4v170h160zM948 479q0 154 -93.5 255.5t-246.5 101.5t-246.5 -101.5t-93.5 -255.5q0 -153 94 -254.5t246 -101.5t246 101.5t94 254.5z" />
    <glyph glyph-name="r" unicode="r" horiz-adv-x="721" 
d="M152 0v731q0 47 -4.5 123t-4.5 104h152q0 -25 2 -77.5t2 -79.5h4q35 76 121.5 129t198.5 53q37 0 65 -10l-10 -162q-40 12 -86 12q-142 0 -211.5 -93t-69.5 -263v-467h-159z" />
    <glyph glyph-name="s" unicode="s" horiz-adv-x="872" 
d="M45 154l127 98q52 -64 109 -96.5t137 -32.5q85 0 148 37.5t63 109.5q0 30 -12.5 53.5t-29.5 38t-48 27t-53.5 18.5t-61.5 15q-49 11 -77 18t-69 20t-64.5 26t-51 34t-42 45.5t-24.5 59t-10 75.5q0 89 53 155t133 97t172 31q108 0 193.5 -43t132.5 -131l-133 -88
q-70 115 -203 115q-74 0 -131 -35t-57 -99q0 -28 19 -51t55 -39t75 -27t92 -22q71 -14 122 -32.5t97.5 -50.5t70.5 -83t24 -121q0 -63 -21.5 -114.5t-58.5 -85.5t-86.5 -57.5t-103.5 -33.5t-113 -10q-127 0 -216 40.5t-157 138.5z" />
    <glyph glyph-name="t" unicode="t" horiz-adv-x="721" 
d="M676 958v-135h-283v-479q0 -33 0.5 -51.5t3.5 -45.5t8 -42t15.5 -33t26 -27t38 -15.5t52.5 -6.5q79 0 141 33l6 -146q-80 -35 -186 -35q-67 0 -115 15t-77 40.5t-45.5 68t-22 88t-5.5 110.5v526h-208v135h208v273h160v-273h283z" />
    <glyph glyph-name="u" unicode="u" horiz-adv-x="1139" 
d="M987 958v-731q0 -47 4 -123t4 -104h-151q0 25 -2 78t-2 80h-4q-35 -76 -121 -129.5t-199 -53.5q-183 0 -273.5 105t-90.5 287v591h159v-575q0 -123 55 -191.5t164 -68.5q150 0 223.5 98.5t73.5 270.5v466h160z" />
    <glyph glyph-name="v" unicode="v" horiz-adv-x="987" 
d="M967 958l-379 -958h-176l-392 958h187l299 -751h4l285 751h172z" />
    <glyph glyph-name="w" unicode="w" horiz-adv-x="1518" 
d="M1489 958l-309 -958h-158l-272 737h-5l-241 -737h-164l-311 958h176l219 -737h4l248 737h168l252 -737h4l217 737h172z" />
    <glyph glyph-name="x" unicode="x" horiz-adv-x="1024" 
d="M6 0l393 516l-344 442h209l254 -344l240 344h194l-329 -442l395 -516h-211l-303 414l-299 -414h-199z" />
    <glyph glyph-name="y" unicode="y" horiz-adv-x="987" 
d="M967 958l-463 -1177q-27 -70 -50.5 -112.5t-60 -83t-88 -59t-121.5 -18.5q-89 0 -143 25l20 139q44 -16 113 -16q73 0 110.5 38.5t67.5 119.5l66 180l-398 964h187l297 -751h4l285 751h174z" />
    <glyph glyph-name="z" unicode="z" horiz-adv-x="909" 
d="M61 0v125l564 698h-539v135h748v-122l-564 -701h578v-135h-787z" />
    <glyph glyph-name="braceleft" unicode="{" horiz-adv-x="682" 
d="M602 1499v-123h-110q-41 0 -64.5 -25t-30 -57.5t-6.5 -79.5v-360q0 -52 -14 -96.5t-34 -72t-46 -48.5t-45.5 -31t-36.5 -14v-4q17 -2 36.5 -10t45.5 -27.5t46 -47.5t34 -75t14 -104v-359q0 -162 101 -162h110v-122h-143q-84 0 -149.5 69.5t-65.5 186.5v358
q0 105 -53.5 169t-122.5 64v123q68 0 122 65t54 167v360q0 116 67 186t148 70h143z" />
    <glyph glyph-name="bar" unicode="|" horiz-adv-x="455" 
d="M160 -37v1585h135v-1585h-135z" />
    <glyph glyph-name="braceright" unicode="}" horiz-adv-x="682" 
d="M80 1376v123h143q80 0 147.5 -70t67.5 -186v-360q0 -102 54 -167t122 -65v-123q-69 0 -122.5 -64t-53.5 -169v-358q0 -117 -65.5 -186.5t-149.5 -69.5h-143v122h110q101 0 101 162v359q0 57 14 104t34 75t46 47.5t45.5 27.5t36.5 10v4q-17 4 -36.5 14t-45.5 31t-46 48.5
t-34 72t-14 96.5v360q0 47 -6.5 79.5t-30 57.5t-64.5 25h-110z" />
    <glyph glyph-name="asciitilde" unicode="~" horiz-adv-x="1364" 
d="M1085 762l68 -98q-26 -36 -39.5 -53t-41.5 -46.5t-50.5 -43.5t-56 -26t-70.5 -12q-35 0 -74.5 10.5t-64 20.5t-70.5 31q-11 5 -54.5 25.5t-62 28t-53 16t-65.5 8.5q-108 0 -172 -144l-68 99q30 43 49.5 66.5t52.5 54t71 45t83 14.5q35 0 74.5 -10.5t64 -20.5t70.5 -31
q15 -7 55 -25.5t60.5 -27t54.5 -17t65 -8.5q106 0 174 144z" />
    <glyph glyph-name="delete" horiz-adv-x="1600" 
d="M1520 198v-69h-366v586h78v-517h288zM1080 198v-69h-438v586h424v-69h-346v-179h324v-69h-324v-200h360zM298 129h-211v586h202q66 0 104 -8q112 -25 156 -142q23 -63 23 -140q0 -126 -56 -203q-46 -63 -123 -83q-39 -10 -95 -10zM164 198h126q102 0 143 41q59 59 59 188
q0 166 -104 207q-31 12 -100 12h-124v-448z" />
    <glyph glyph-name="nbspace" unicode="&#xa0;" horiz-adv-x="531" 
 />
    <glyph glyph-name="exclamdown" unicode="&#xa1;" horiz-adv-x="650" 
d="M360 981q0 -36 -27 -63t-63 -27q-37 0 -63.5 27t-26.5 63t26.5 63t62.5 27q37 0 64 -27t27 -63zM323 828v-480q0 -64 115 -267q-77 0 -220 -176v817z" />
    <glyph glyph-name="cent" unicode="&#xa2;" horiz-adv-x="1139" 
d="M567 125v706q-125 -23 -191.5 -119.5t-66.5 -232.5q0 -131 70.5 -228.5t187.5 -125.5zM567 -160v135q-195 25 -312.5 162.5t-117.5 341.5q0 203 118.5 341t311.5 157v141h99v-135q206 -10 335 -152l-127 -112q-85 103 -208 117v-713q131 9 211 119l118 -113
q-119 -139 -329 -154v-135h-99z" />
    <glyph glyph-name="sterling" unicode="&#xa3;" horiz-adv-x="1139" 
d="M117 0v160h221v516h-197v135h197v164q0 254 120 377t318 123q203 0 330 -127l-113 -121q-103 100 -221 100q-74 0 -126 -25t-81.5 -73.5t-42 -111t-12.5 -146.5v-160h332v-135h-332v-516h504v-160h-897z" />
    <glyph glyph-name="currency" unicode="&#xa4;" horiz-adv-x="1024" 
d="M851 527l144 -145l-58 -55l-143 143q-133 -103 -270 -103q-76 0 -157 26q-91 28 -138 77l-146 -143l-56 55l144 145q-102 117 -102 282q0 157 102 283l-144 141l56 57l146 -142q119 102 285 102q162 0 280 -102l143 142l58 -57l-144 -141q103 -131 103 -281
q0 -154 -103 -284zM767 553q107 107 107 255q0 95 -51 182q-49 86 -133 132q-86 47 -178 47q-151 0 -257 -106q-105 -105 -105 -257q0 -149 106 -254t255 -105q150 0 256 106z" />
    <glyph glyph-name="yen" unicode="&#xa5;" horiz-adv-x="1195" 
d="M1152 473v-72h-458v-65q0 -154 152 -159v-48h-489v48q89 2 120 35q32 35 32 124v65h-401v72h401v145h-401v72h366l-215 432q-52 103 -87 149q-65 87 -137 89v48h363v-48q-38 -2 -38 -27q0 -11 4 -18l314 -624q243 379 243 554q0 71 -49 96q-34 17 -114 19v48h478v-48
q-108 -1 -239 -224l-262 -446h417v-72h-458v-145h458z" />
    <glyph glyph-name="brokenbar" unicode="&#xa6;" horiz-adv-x="410" 
d="M244 1551v-742h-83v742h83zM244 429v-742h-83v742h83z" />
    <glyph glyph-name="section" unicode="&#xa7;" horiz-adv-x="853" 
d="M106 7h74q1 -109 55 -184q62 -83 167 -83q90 0 160 62q69 62 69 152q0 88 -84 162q-34 29 -160 105q-140 85 -196 141q-96 95 -96 212q0 215 255 317q-111 71 -157 120q-72 79 -72 177q0 149 113 230q98 73 254 73q110 0 222 -44v-253h-70q-13 102 -66 167
q-60 76 -156 76q-77 0 -131 -51q-53 -50 -53 -126q0 -83 76 -153q35 -30 146 -102q153 -97 209 -154q98 -101 98 -229q0 -206 -233 -314q114 -79 157 -125q73 -79 73 -178q0 -149 -137 -244q-123 -84 -279 -84q-115 0 -238 57v273zM309 458q50 -44 171 -116q179 89 179 222
q0 90 -85 169q-49 44 -163 111q-201 -50 -201 -215q0 -85 99 -171z" />
    <glyph glyph-name="dieresis" unicode="&#xa8;" horiz-adv-x="683" 
d="M626 1350q0 -42 -29.5 -71.5t-71.5 -29.5t-71.5 29.5t-29.5 71.5q0 41 29 71t70 30q43 0 73 -29t30 -72zM262 1351q0 -42 -29.5 -71.5t-71.5 -29.5t-71 29.5t-29 71.5q0 41 29 70.5t70 29.5q43 0 72.5 -28.5t29.5 -71.5z" />
    <glyph glyph-name="copyright" unicode="&#xa9;" horiz-adv-x="1563" 
d="M1487 729q0 -294 -207 -501q-208 -206 -501 -206q-295 0 -501 206t-206 501t206 501q207 207 501 207q295 0 501 -207q207 -206 207 -501zM779 74q271 0 462 191q192 192 192 463q0 177 -91 331q-91 157 -244 239q-154 84 -319 84q-272 0 -463 -191t-191 -463t191 -463
t463 -191zM1015 616l182 -31q-29 -152 -138.5 -246.5t-276.5 -94.5q-114 0 -203 40.5t-142 109t-80 152t-27 176.5t27 177.5t80.5 154t143 111t203.5 41.5q170 0 277 -91.5t136 -246.5l-184 -30q-10 95 -69 157t-156 62q-70 0 -121.5 -30.5t-79 -80.5t-40 -104t-12.5 -111
q0 -45 6 -88t23 -89t43 -80.5t70 -56.5t101 -22q99 0 157 60t80 161z" />
    <glyph glyph-name="ordfeminine" unicode="&#xaa;" horiz-adv-x="640" 
d="M628 934v-38q-100 -100 -164 -100q-57 0 -57 68v95q-154 -160 -245 -160q-53 0 -89 39q-35 41 -35 94q0 138 369 310v68q0 95 -78 95t-131 -74q-44 -65 -50 -148h-46v157q152 101 288 101q117 0 117 -93v-434q0 -38 24 -38q33 0 97 58zM230 884q96 0 145 108
q37 82 38 191q-94 -19 -173 -67q-101 -62 -101 -142q0 -90 91 -90z" />
    <glyph glyph-name="guillemotleft" unicode="&#xab;" horiz-adv-x="854" 
d="M572 529l232 -400h-93l-340 400l340 393h87zM271 529l226 -400h-89l-338 400l340 393h87z" />
    <glyph glyph-name="logicalnot" unicode="&#xac;" horiz-adv-x="1365" 
d="M1222 1064v-574h-108v466h-972v108h1080z" />
    <glyph glyph-name="sfthyphen" unicode="&#xad;" horiz-adv-x="1155" 
d="M1106 1007v-81h-1070v81h1070z" />
    <glyph glyph-name="registered" unicode="&#xae;" horiz-adv-x="1567" 
d="M1491 729q0 -294 -207 -501q-208 -206 -501 -206q-295 0 -501 206t-206 501t206 501q207 207 501 207q295 0 501 -207q207 -206 207 -501zM783 74q271 0 462 191q192 192 192 463q0 177 -91 331q-91 157 -244 239q-154 84 -319 84q-272 0 -463 -191t-191 -463t191 -463
t463 -191zM1170 277h-150l-170 390h-234v-390h-142v924h358q140 0 218 -57q47 -37 75.5 -92.5t28.5 -113.5q0 -82 -45 -147.5t-123 -91.5q23 -54 87 -200t97 -222zM616 784h203q52 0 86.5 8.5t62.5 36.5q43 40 43 109q0 76 -58 115q-40 26 -121 26h-216v-295z" />
    <glyph glyph-name="overscore" unicode="&#xaf;" horiz-adv-x="683" 
d="M603 1405v-108h-521v108h521z" />
    <glyph glyph-name="degree" unicode="&#xb0;" horiz-adv-x="768" 
d="M713 1139q0 -126 -90 -216q-89 -89 -215 -89q-127 0 -216 89t-89 216t89 216t216 89t216 -89t89 -216zM408 898q100 0 170 70q71 71 71 171q0 101 -70 171t-171 70q-100 0 -171 -71q-70 -70 -70 -170q0 -101 70 -171t171 -70z" />
    <glyph glyph-name="plusminus" unicode="&#xb1;" horiz-adv-x="946" 
d="M835 535v-83h-321v-253h-84v253h-325v83h325v328h84v-328h321zM835 129v-83h-730v83h730z" />
    <glyph glyph-name="twosuperior" unicode="&#xb2;" horiz-adv-x="725" 
d="M640 989l-48 -239h-33q-1 27 -18 27h-476v37q174 193 239 277q161 209 161 316q0 93 -89 93q-131 0 -188 -222h-49v175q167 88 303 88q173 0 173 -151q0 -68 -60 -143q-33 -40 -113 -113l-254 -234h313q84 0 104 89h35z" />
    <glyph glyph-name="threesuperior" unicode="&#xb3;" horiz-adv-x="725" 
d="M107 1021h49q7 -85 55 -149q55 -73 136 -73q70 0 110.5 45.5t40.5 118.5q0 193 -267 200v37q86 14 148 65q70 58 70 139q0 92 -87 92q-76 0 -125 -76q-44 -67 -47 -146h-49v176q177 90 290 90q153 0 153 -121q0 -84 -97 -148q-47 -32 -170 -80q151 0 205 -14
q115 -30 115 -139q0 -122 -113 -205q-103 -76 -229 -76q-89 0 -188 36v228z" />
    <glyph glyph-name="acute" unicode="&#xb4;" horiz-adv-x="683" 
d="M516 1449q0 -24 -35 -64l-169 -188l-42 29l128 238q24 44 57 44q24 0 42.5 -17.5t18.5 -41.5z" />
    <glyph glyph-name="micro" unicode="&#xb5;" horiz-adv-x="1045" 
d="M986 329h43q-6 -97 -50 -159q-51 -73 -143 -73q-142 0 -161 195q-176 -191 -322 -191q-124 0 -183 122q0 -58 1 -90q0 -101 7 -147q3 -33 19 -88q22 -79 22 -115q0 -37 -20 -66q-22 -31 -59 -31q-36 0 -59 28.5t-23 66.5q0 32 21 110q24 88 32 187q3 187 8 375l1 36v556
h135v-610q0 -225 167 -225q101 0 253 143v692h132v-636q0 -98 7 -129q16 -85 77 -85q69 0 95 134z" />
    <glyph glyph-name="paragraph" unicode="&#xb6;" horiz-adv-x="896" 
d="M764 1197v-1525h-58v1682h-187v-1682h-59v1011q-467 -11 -467 348q0 120 68 218q73 105 185 133q102 26 273 26h380v-36q-95 -5 -118 -41q-17 -28 -17 -134z" />
    <glyph glyph-name="middot" unicode="&#xb7;" horiz-adv-x="405" 
d="M326 768q0 -50 -36 -85q-35 -35 -85 -35q-48 0 -85 35q-35 37 -35 85q0 50 34 85q35 36 84 36q50 0 87 -35q36 -35 36 -86z" />
    <glyph glyph-name="cedilla" unicode="&#xb8;" horiz-adv-x="683" 
d="M217 -208v55q82 -29 128 -29q86 0 86 72q0 78 -99 78h-54v184h54v-135q34 2 37 2q174 0 174 -110q0 -65 -60 -106q-52 -36 -122 -36q-57 0 -144 25z" />
    <glyph glyph-name="onesuperior" unicode="&#xb9;" horiz-adv-x="725" 
d="M551 802v-36h-348v36h31q77 0 77 69v467q0 77 -54 77q-31 0 -89 -20v35l309 110v-30q-33 -6 -33 -51v-588q0 -69 70 -69h37z" />
    <glyph glyph-name="ordmasculine" unicode="&#xba;" horiz-adv-x="661" 
d="M542 905q-97 -109 -236 -109q-127 0 -200 79q-74 80 -74 206q0 139 94 245q97 111 235 111q130 0 203 -79q74 -79 74 -209q0 -139 -96 -244zM369 853q87 0 136 72q43 64 43 154q0 111 -64 203q-71 104 -177 104q-90 0 -141 -68q-45 -62 -45 -155q0 -112 67 -206
q74 -104 181 -104z" />
    <glyph glyph-name="guillemotright" unicode="&#xbb;" horiz-adv-x="854" 
d="M784 529l-338 -400h-89l226 400l-226 393h87zM483 529l-340 -400h-93l232 400l-226 393h87z" />
    <glyph glyph-name="onequarter" unicode="&#xbc;" horiz-adv-x="1749" 
d="M1640 149v-35h-331v35h30q79 0 79 76v104h-340v36l228 265q81 103 193 256h52v-489h113v-68h-113v-104q0 -76 66 -76h23zM1377 1542l-926 -1445h-88l928 1445h86zM558 802v-36h-348v36h31q77 0 77 69v467q0 77 -54 77q-31 0 -89 -20v35l309 112v-32q-33 -6 -33 -51v-588
q0 -69 70 -69h37zM1161 397h257v276q-106 -93 -257 -276z" />
    <glyph glyph-name="onehalf" unicode="&#xbd;" horiz-adv-x="1749" 
d="M1663 333l-48 -239h-33q-1 28 -17 28h-477v36q183 204 239 276q162 208 162 316q0 95 -90 95q-130 0 -188 -223h-49v180q168 84 304 84q173 0 173 -152q0 -76 -81 -168q-26 -30 -140 -131q-90 -80 -207 -191h313q87 0 104 89h35zM1377 1542l-926 -1448h-88l928 1448h86z
M558 802v-36h-348v36h31q77 0 77 70v466q0 77 -54 77q-29 0 -89 -20v35l309 112v-32q-33 -6 -33 -51v-587q0 -70 70 -70h37z" />
    <glyph glyph-name="threequarters" unicode="&#xbe;" horiz-adv-x="1749" 
d="M1640 149v-35h-326v35h26q78 0 78 76v104h-340v36l219 253q118 136 202 268h52v-489h114v-68h-114v-104q0 -76 66 -76h23zM1400 1542l-924 -1445h-90l928 1445h86zM114 1021h49q7 -85 55 -149q55 -73 136 -73q70 0 110.5 45.5t40.5 118.5q0 193 -267 200v37q86 14 148 65
q70 58 70 139q0 92 -87 92q-76 0 -125 -76q-44 -67 -47 -146h-49v176q177 90 290 90q153 0 153 -121q0 -129 -267 -228q151 0 205 -14q115 -31 115 -139q0 -122 -113 -205q-103 -76 -229 -76q-91 0 -188 36v228zM1161 397h257v276q-113 -99 -257 -276z" />
    <glyph glyph-name="questiondown" unicode="&#xbf;" horiz-adv-x="917" 
d="M603 886q0 -50 -35 -85t-85 -35t-85 35q-34 34 -34 85q0 50 34 84q35 35 83 35q51 0 86.5 -34t35.5 -85zM782 122v-302q-272 -151 -505 -151q-121 0 -197 51q-90 58 -90 174q0 95 68 190q42 56 141 151q123 117 168 192q62 104 64 243h100q-1 -152 -43 -261
q-38 -96 -138 -227q-142 -187 -142 -284q0 -78 49 -125t130 -47q145 0 239 130q84 116 90 266h66z" />
    <glyph glyph-name="Agrave" unicode="&#xc0;" horiz-adv-x="1442" 
d="M12 0l639 1450h162l617 -1450h-201l-148 356h-725l-149 -356h-195zM1016 516l-287 713h-4l-301 -713h592zM649 1847l213 -295h-145l-293 295h225z" />
    <glyph glyph-name="multiply" unicode="&#xd7;" horiz-adv-x="1328" 
d="M793 458l385 -460h-258l-256 306l-256 -306h-258l386 460l-394 471h255l267 -318l268 318h255z" />
    <glyph glyph-name="agrave" unicode="&#xe0;" horiz-adv-x="1063" 
d="M240 731l-101 105q72 73 172.5 110t208.5 37q209 0 305.5 -100t96.5 -305v-412q0 -80 14 -166h-154q-10 43 -10 143h-4q-50 -77 -130.5 -122.5t-184.5 -45.5q-153 0 -255 75.5t-102 209.5q0 66 22 118.5t56 87t86.5 60t102 38.5t115.5 20.5t113.5 9.5t108.5 2h62v29
q0 103 -62 157t-176 54q-79 0 -154 -27t-130 -78zM762 461h-160q-158 0 -246 -45.5t-88 -139.5q0 -86 57 -125.5t154 -39.5q132 0 206 82.5t77 205.5v62zM391 1188l213 295h225l-292 -295h-146z" />
    <glyph glyph-name="acircumflex" unicode="&#xe2;" horiz-adv-x="1063" 
d="M240 731l-101 105q72 73 172.5 110t208.5 37q209 0 305.5 -100t96.5 -305v-412q0 -80 14 -166h-154q-10 43 -10 143h-4q-50 -77 -130.5 -122.5t-184.5 -45.5q-153 0 -255 75.5t-102 209.5q0 66 22 118.5t56 87t86.5 60t102 38.5t115.5 20.5t113.5 9.5t108.5 2h62v29
q0 103 -62 157t-176 54q-79 0 -154 -27t-130 -78zM762 461h-160q-158 0 -246 -45.5t-88 -139.5q0 -86 57 -125.5t154 -39.5q132 0 206 82.5t77 205.5v62zM461 1483l213 -295h-146l-292 295h225z" />
    <glyph glyph-name="ccedilla" unicode="&#xe7;" horiz-adv-x="987" 
d="M961 831l-127 -112q-97 117 -242 117q-155 0 -239.5 -101t-84.5 -256q0 -150 90.5 -253t233.5 -103q157 0 244 119l118 -113q-134 -154 -362 -154q-222 0 -359 141t-137 363q0 220 138 362t358 142q229 0 369 -152zM643 0l-92 -131q5 1 18 3t26 3.5t28 1.5
q61 0 112 -36.5t51 -104.5q0 -90 -72 -135t-167 -45q-111 0 -203 43l35 75q72 -32 147 -32q50 0 87.5 19.5t37.5 64.5q0 39 -32.5 58t-73.5 19q-32 0 -80 -16l-41 39l127 174h92z" />
    <glyph glyph-name="egrave" unicode="&#xe8;" horiz-adv-x="1139" 
d="M887 268l121 -94q-83 -106 -186 -152.5t-240 -46.5q-146 0 -258 68.5t-170 182t-58 253.5q0 222 139.5 363t352.5 141q206 0 330 -133.5t124 -368.5v-51h-774q10 -128 98 -217.5t216 -89.5q101 0 174 35.5t131 109.5zM268 565h602q-5 123 -81.5 197t-206.5 74t-214 -74
t-100 -197zM498 1483l213 -295h-146l-293 295h226z" />
    <glyph glyph-name="eacute" unicode="&#xe9;" horiz-adv-x="1139" 
d="M887 268l121 -94q-83 -106 -186 -152.5t-240 -46.5q-146 0 -258 68.5t-170 182t-58 253.5q0 222 139.5 363t352.5 141q206 0 330 -133.5t124 -368.5v-51h-774q10 -128 98 -217.5t216 -89.5q101 0 174 35.5t131 109.5zM268 565h602q-5 123 -81.5 197t-206.5 74t-214 -74
t-100 -197zM428 1188l213 295h225l-293 -295h-145z" />
    <glyph glyph-name="ecircumflex" unicode="&#xea;" horiz-adv-x="1139" 
d="M887 268l121 -94q-83 -106 -186 -152.5t-240 -46.5q-146 0 -258 68.5t-170 182t-58 253.5q0 222 139.5 363t352.5 141q206 0 330 -133.5t124 -368.5v-51h-774q10 -128 98 -217.5t216 -89.5q101 0 174 35.5t131 109.5zM268 565h602q-5 123 -81.5 197t-206.5 74t-214 -74
t-100 -197zM248 1188l227 295h187l229 -295h-166l-162 209l-160 -209h-155z" />
    <glyph glyph-name="edieresis" unicode="&#xeb;" horiz-adv-x="1139" 
d="M887 268l121 -94q-83 -106 -186 -152.5t-240 -46.5q-146 0 -258 68.5t-170 182t-58 253.5q0 222 139.5 363t352.5 141q206 0 330 -133.5t124 -368.5v-51h-774q10 -128 98 -217.5t216 -89.5q101 0 174 35.5t131 109.5zM268 565h602q-5 123 -81.5 197t-206.5 74t-214 -74
t-100 -197zM367 1434q45 0 77.5 -33t32.5 -78q0 -46 -32 -78.5t-78 -32.5t-78.5 32.5t-32.5 78.5q0 45 32.5 78t78.5 33zM772 1434q46 0 78.5 -33t32.5 -78q0 -46 -32.5 -78.5t-78.5 -32.5t-78 32.5t-32 78.5q0 45 32.5 78t77.5 33z" />
    <glyph glyph-name="icircumflex" unicode="&#xee;" horiz-adv-x="492" 
d="M166 0v958h160v-958h-160zM-76 1188l228 295h186l229 -295h-166l-161 209l-160 -209h-156z" />
    <glyph glyph-name="idieresis" unicode="&#xef;" horiz-adv-x="492" 
d="M166 0v958h160v-958h-160zM43 1434q45 0 78 -33t33 -78q0 -46 -32.5 -78.5t-78.5 -32.5t-78.5 32.5t-32.5 78.5q0 45 33 78t78 33zM449 1434q45 0 77.5 -33t32.5 -78q0 -46 -32 -78.5t-78 -32.5t-78.5 32.5t-32.5 78.5q0 45 32.5 78t78.5 33z" />
    <glyph glyph-name="ocircumflex" unicode="&#xf4;" horiz-adv-x="1217" 
d="M96 479q0 223 144.5 363.5t367.5 140.5t367.5 -140.5t144.5 -363.5t-144.5 -363.5t-367.5 -140.5t-367.5 140.5t-144.5 363.5zM268 479q0 -153 94 -254.5t246 -101.5t246 101.5t94 254.5q0 154 -93.5 255.5t-246.5 101.5t-246.5 -101.5t-93.5 -255.5zM287 1188l227 295
h186l230 -295h-166l-162 209l-160 -209h-155z" />
    <glyph glyph-name="divide" unicode="&#xf7;" horiz-adv-x="1232" 
d="M1157 554v-192h-1070v192h1070zM752 783l-138 -140l-159 157l136 140zM768 126l-138 -140l-159 158l136 139z" />
    <glyph glyph-name="ugrave" unicode="&#xf9;" horiz-adv-x="1139" 
d="M987 958v-731q0 -47 4 -123t4 -104h-151q0 25 -2 78t-2 80h-4q-35 -76 -121 -129.5t-199 -53.5q-183 0 -273.5 105t-90.5 287v591h159v-575q0 -123 55 -191.5t164 -68.5q150 0 223.5 98.5t73.5 270.5v466h160zM428 1188l213 295h225l-293 -295h-145z" />
    <glyph glyph-name="ucircumflex" unicode="&#xfb;" horiz-adv-x="1139" 
d="M987 958v-731q0 -47 4 -123t4 -104h-151q0 25 -2 78t-2 80h-4q-35 -76 -121 -129.5t-199 -53.5q-183 0 -273.5 105t-90.5 287v591h159v-575q0 -123 55 -191.5t164 -68.5q150 0 223.5 98.5t73.5 270.5v466h160zM498 1483l213 -295h-146l-293 295h226z" />
    <glyph glyph-name="udieresis" unicode="&#xfc;" horiz-adv-x="1139" 
d="M987 958v-731q0 -47 4 -123t4 -104h-151q0 25 -2 78t-2 80h-4q-35 -76 -121 -129.5t-199 -53.5q-183 0 -273.5 105t-90.5 287v591h159v-575q0 -123 55 -191.5t164 -68.5q150 0 223.5 98.5t73.5 270.5v466h160zM248 1188l227 295h187l229 -295h-166l-162 209l-160 -209
h-155z" />
    <glyph glyph-name="ydieresis" unicode="&#xff;" horiz-adv-x="987" 
d="M967 958l-463 -1177q-27 -70 -50.5 -112.5t-60 -83t-88 -59t-121.5 -18.5q-89 0 -143 25l20 139q44 -16 113 -16q73 0 110.5 38.5t67.5 119.5l66 180l-398 964h187l297 -751h4l285 751h174zM291 1434q45 0 77.5 -33t32.5 -78q0 -46 -32 -78.5t-78 -32.5t-78.5 32.5
t-32.5 78.5q0 45 32.5 78t78.5 33zM696 1434q46 0 78.5 -33t32.5 -78q0 -46 -32.5 -78.5t-78.5 -32.5t-78 32.5t-32 78.5q0 45 32.5 78t77.5 33z" />
    <glyph glyph-name="dotlessi" unicode="&#x131;" horiz-adv-x="555" 
d="M517 177v-48h-458v48q84 2 118.5 37t34.5 119v547q0 63 -72 63q-27 0 -57 -13q-17 -8 -24 -9v51l256 101h49v-740q0 -84 34.5 -119t118.5 -37z" />
    <glyph glyph-name="OE" unicode="&#x152;" horiz-adv-x="1771" 
d="M1735 463l-76 -381h-51l1 10q0 37 -44 37h-512q-28 0 -154 -14q-129 -15 -188 -15q-351 0 -536 275q-96 143 -96 328q0 315 246 540q113 102 231 144q111 40 270 40q45 0 104 -7q108 -12 168 -12h467q57 0 57 48h49v-383h-73q0 287 -313 287h-106q-12 -74 -12 -200
q0 -165 62 -244q69 -87 229 -87h89v-70l-368 -8v-574h112q311 0 368 286h76zM997 177v1077q-125 101 -294 101q-211 0 -337 -142q-121 -136 -121 -350q0 -186 85 -349q89 -171 245 -260q156 -87 315 -87q68 0 107 10z" />
    <glyph glyph-name="oe" unicode="&#x153;" horiz-adv-x="1685" 
d="M1624 449v-70q-238 -279 -439 -279q-199 0 -329 223q-165 -223 -401 -223q-187 0 -299 127q-109 121 -109 310q0 216 145 374q148 163 362 163q240 0 354 -208q154 208 349 208q153 0 242 -105q81 -96 89 -255h-644q-2 -46 -2 -49q0 -165 80 -287q93 -139 251 -139
q167 0 351 210zM951 763h472q-6 101 -63 171q-63 77 -161 77q-95 0 -165 -79q-63 -69 -83 -169zM550 192q132 0 205 105q64 91 64 230q0 166 -96 307q-107 159 -267 159q-132 0 -209 -104q-68 -94 -68 -231q0 -165 101 -308q111 -158 270 -158z" />
    <glyph glyph-name="Scaron" unicode="&#x160;" horiz-adv-x="917" 
d="M587 861l211 -51l-1 1q175 -38 265 -110q66 -55 102 -129t36 -158q0 -99 -42.5 -183t-123.5 -144q-136 -103 -379 -103q-224 0 -371.5 104t-224.5 319l199 43q41 -140 148 -211t253 -71q157 0 240 65q36 27 57 70.5t21 89.5q0 151 -224 204l-234 57q-173 40 -262 113
q-57 51 -89 122t-32 146q0 100 41.5 178t112.5 125t158 70.5t185 23.5q187 0 326.5 -94.5t199.5 -274.5l-202 -52q-23 110 -120 178t-208 68q-66 0 -128 -20t-107.5 -66.5t-45.5 -111.5q0 -40 14 -71t34 -50.5t55 -35t63 -23.5t73 -18zM742 1800h66l-280 -242l-281 242h68
l213 -132z" />
    <glyph glyph-name="scaron" unicode="&#x161;" horiz-adv-x="747" 
d="M951 811l-186 -38q-31 84 -98.5 125.5t-154.5 41.5q-34 0 -67.5 -7t-64.5 -21.5t-50 -41t-19 -62.5q0 -34 14 -58.5t41 -38.5t52.5 -21t62.5 -13l152 -27q54 -10 81 -16t69 -21.5t74 -36.5q65 -44 99.5 -110.5t34.5 -142.5q0 -73 -27 -131.5t-71 -97t-103.5 -64.5
t-122 -37t-128.5 -11q-111 0 -205.5 32t-170.5 109t-105 191l197 39q11 -68 61.5 -114.5t110.5 -65t124 -18.5q41 0 79.5 7.5t74 24t57 47.5t21.5 73q0 28 -12 50t-29 35.5t-45 24.5t-49 16t-52 11l-170 31q-321 61 -321 309q0 82 35.5 146.5t94.5 102.5t130 57t149 19
q76 0 143 -16.5t126 -50.5t103 -93t65 -138zM605 1473h66l-280 -242l-281 242h68l213 -132z" />
    <glyph glyph-name="Ydieresis" unicode="&#x178;" horiz-adv-x="1217" 
d="M522 0v625l-540 825h219l407 -655l420 655h207l-541 -825v-625h-172zM406 1798q45 0 77.5 -32.5t32.5 -77.5q0 -46 -32 -78.5t-78 -32.5t-78.5 32.5t-32.5 78.5q0 45 32.5 77.5t78.5 32.5zM811 1798q45 0 78 -33t33 -77q0 -46 -32.5 -78.5t-78.5 -32.5t-78.5 32.5
t-32.5 78.5q0 44 33 77t78 33z" />
    <glyph glyph-name="florin" unicode="&#x192;" horiz-adv-x="1088" 
d="M69 -298h-69q133 117 194 232q60 112 87 290l107 700h-140l13 47q82 2 133 53q30 30 84 123q89 153 161 223q139 136 287 136q105 0 162 -75l-162 -174l-34 30q11 24 11 42q0 35 -25.5 60t-60.5 25q-91 0 -160 -116q-61 -101 -61 -200q0 -127 187 -127h95l-11 -47h-312
l-181 -720q-46 -182 -111 -282q-65 -102 -194 -220z" />
    <glyph glyph-name="circumflex" unicode="&#x2c6;" horiz-adv-x="683" 
d="M340 1476l280 -242h-66l-214 126l-211 -126h-68z" />
    <glyph glyph-name="caron" unicode="&#x2c7;" horiz-adv-x="683" 
d="M551 1473h66l-280 -242l-281 242h68l213 -132z" />
    <glyph glyph-name="arabiccomma" unicode="&#x60c;" horiz-adv-x="502" 
d="M325 679q4 5 6 5t-3 -9q-130 -257 -130 -389q0 -63 40 -125q50 -68 137 -68q25 0 48 6q-36 -87 -89.5 -126t-105.5 -32h1q-56 9 -96.5 56t-40.5 121q0 129 71.5 288t161.5 273z" />
    <glyph glyph-name="arabicsemicolon" unicode="&#x61b;" horiz-adv-x="547" 
d="M297 -165l-11 -11q-88 88 -140 135q34 31 118 120q78 -78 141 -134l-14 -15h1zM358 939q4 5 6 5t-3 -9q-130 -257 -130 -389q0 -63 40 -125q50 -68 137 -68q26 0 48 6q-36 -87 -89.5 -126t-105.5 -32h1q-56 9 -96.5 56t-40.5 121q0 129 71.5 288t161.5 273z" />
    <glyph glyph-name="arabicquestionmark" unicode="&#x61f;" horiz-adv-x="965" 
d="M586 377h-41q9 34 9 67q0 23 -3 41q-24 149 -197 251q-135 79 -201.5 203.5t-66.5 260.5q0 168 88 280l-1 -1q66 81 160 121.5t195 40.5q96 0 183 -36t137 -98l-95 -229q-45 44 -110 76.5t-136 32.5q-86 0 -144 -58q-72 -72 -72 -166q0 -79 48 -162t124 -147
q76 -63 111.5 -133.5t35.5 -165.5q0 -77 -24 -178zM581 -108l-17 -17q-107 107 -176 169q36 31 148 151q44 -47 178 -169q-23 -24 -95 -96z" />
    <glyph glyph-name="hamza" unicode="&#x621;" horiz-adv-x="677" 
d="M620 168l-58 -178q-251 -71 -413 -193q-30 -23 -71 -60q13 131 134 246q-79 14 -117 55.5t-38 100.5q0 84 50 178t135 158.5t172 59.5q60 -6 90 -20q-3 -32 -9.5 -87.5t-9.5 -83.5q-28 9 -73 9q-90 0 -172 -55.5t-131 -153.5q62 -49 147 -58q22 -2 39 -2q140 0 325 84z
" />
    <glyph glyph-name="alefwithmaddaabove" unicode="&#x622;" horiz-adv-x="425" 
d="M387 1301h1l-423 -64q-88 -13 -126 -39q11 74 53 118t126 62l414 65q102 23 134 42q-8 -42 -16.5 -67t-27 -51.5t-51.5 -42t-84 -23.5zM298 1244v-1147q-36 -22 -153 -95v1147q36 22 153 95z" />
    <glyph glyph-name="alefwithhamzaabove" unicode="&#x623;" horiz-adv-x="451" 
d="M298 1244v-1147q-36 -22 -153 -95v1147q36 22 153 95zM410 1446l-39 -114q-170 -48 -279 -129q-20 -14 -28 -21q19 86 96 161q-60 5 -89.5 32t-29.5 66q0 61 35.5 124.5t93 103.5t115.5 38q28 -2 50 -10l-11 -107q-17 4 -41 4q-65 0 -118 -36.5t-71 -106.5
q15 -26 33.5 -37t50.5 -14q103 -10 232 46z" />
    <glyph glyph-name="wawwithhamzaabove" unicode="&#x624;" horiz-adv-x="729" 
d="M647 85q3 -221 -78 -401q-62 -141 -202 -315q-31 26 -91 76t-95 79q263 179 348 476q-84 -1 -145.5 1t-125 10.5t-104.5 23.5t-69 42t-34 64q-13 75 4 179.5t55.5 199t100.5 161t130 66.5q81 0 149.5 -84.5t110 -236.5t46.5 -341zM462 181h73q-18 162 -77 267.5
t-138 105.5q-49 0 -92 -50t-64 -109t-21 -101q0 -55 92 -84t227 -29zM393 936l-39 -114q-170 -48 -279 -129q-20 -14 -28 -21q19 86 96 161q-60 5 -89.5 32t-29.5 66q0 61 35.5 124.5t93 103.5t115.5 38q28 -2 50 -10l-11 -107q-17 4 -41 4q-66 0 -118.5 -36.5t-70.5 -106.5
q15 -26 33.5 -37t50.5 -14q103 -10 232 46z" />
    <glyph glyph-name="alefwithhamzabelow" unicode="&#x625;" horiz-adv-x="438" 
d="M298 1244v-1147q-36 -22 -153 -95v1147q36 22 153 95zM410 -308l-39 -114q-170 -48 -279 -129q-20 -14 -28 -21q19 86 96 161q-60 5 -89.5 32t-29.5 66q0 61 35.5 124.5t93 103.5t115.5 38q28 -2 50 -10l-11 -107q-17 4 -41 4q-65 0 -118 -36.5t-71 -106.5
q15 -26 33.5 -37t50.5 -14q103 -10 232 46z" />
    <glyph glyph-name="yehwithhamzaabove" unicode="&#x626;" horiz-adv-x="1306" 
d="M271 578l53 -52q-120 -170 -120 -342q0 -180 123.5 -301.5t303.5 -121.5q132 0 263.5 78.5t213.5 191.5q-8 28 -33 54t-66.5 47.5t-80.5 38t-95 32.5t-88.5 24.5t-81.5 20.5q-30 10 -39.5 33t-9.5 59q7 99 66.5 203.5t151.5 175t182 70.5q117 0 117 -195v-9
q-41 31 -107 31q-94 0 -184 -58.5t-121 -147.5q78 -18 157.5 -45t162 -66.5t134 -93.5t51.5 -113q0 -47 -28 -115t-83.5 -143t-128 -139.5t-173 -107t-207.5 -42.5q-108 0 -198 34t-149 87.5t-100 122t-58.5 135t-17.5 128.5q0 287 190 526zM423 814l-39 -114
q-170 -48 -279 -129q-20 -14 -28 -21q19 86 96 161q-60 5 -89.5 32t-29.5 66q0 61 35.5 124.5t93 103.5t115.5 38q28 -2 50 -10l-11 -107q-17 4 -41 4q-66 0 -118.5 -36.5t-70.5 -106.5q15 -26 33.5 -37t50.5 -14q103 -10 232 46z" />
    <glyph glyph-name="arabicalef" unicode="&#x627;" horiz-adv-x="409" 
d="M298 1244v-1147q-36 -22 -153 -95v1147q36 22 153 95z" />
    <glyph glyph-name="beh" unicode="&#x628;" horiz-adv-x="1617" 
d="M369 181h1079q-28 91 -61 160.5t-86 159.5l-30 50l132 152q130 -279 130 -508q0 -99 -15 -195h-1192q-138 0 -214 65.5t-76 188.5q0 115 51.5 222t139.5 193l44 -43q-53 -64 -89.5 -140.5t-36.5 -139.5q0 -75 53.5 -120t170.5 -45zM936 -228l-138 -138l-138 139l138 137z
" />
    <glyph glyph-name="tehmarbuta" unicode="&#x629;" horiz-adv-x="827" 
d="M63 174q0 135 139 345q115 172 237 321q45 -32 79 -58.5t79.5 -71t75 -87t51 -98.5t21.5 -112q0 -70 -30.5 -145t-82.5 -139t-131 -105.5t-167 -41.5q-54 0 -92 4t-74 16t-57.5 32.5t-34.5 55.5t-13 84zM568 249q43 32 74 81q-31 81 -102 153t-175 152
q-55 -67 -89.5 -113t-69.5 -110t-35 -105q0 -27 14 -51q21 -33 69.5 -52t109.5 -19q118 0 204 64zM250 1152l140 -140l-140 -139l-139 139zM670 1012l-137 -139l-140 139l140 140z" />
    <glyph glyph-name="teh" unicode="&#x62a;" horiz-adv-x="1625" 
d="M369 181h1079q-28 91 -61 160.5t-86 159.5l-30 50l132 152q130 -279 130 -508q0 -99 -15 -195h-1192q-138 0 -214 65.5t-76 188.5q0 115 51.5 222t139.5 193l44 -43q-53 -64 -89.5 -140.5t-36.5 -139.5q0 -75 53.5 -120t170.5 -45zM796 904l-138 -138l-138 139l138 137z
M1073 904l-138 -138l-138 139l138 137q18 -18 45 -45.5t48.5 -49t44.5 -43.5z" />
    <glyph glyph-name="theh" unicode="&#x62b;" horiz-adv-x="1602" 
d="M369 181h1079q-28 91 -61 160.5t-86 159.5l-30 50l132 152q130 -279 130 -508q0 -99 -15 -195h-1192q-138 0 -214 65.5t-76 188.5q0 115 51.5 222t139.5 193l44 -43q-53 -64 -89.5 -140.5t-36.5 -139.5q0 -75 53.5 -120t170.5 -45zM796 904l-138 -138l-138 139l138 137z
M1073 904l-138 -138l-138 139l138 137q18 -18 45 -45.5t48.5 -49t44.5 -43.5zM932 1126l-138 -138l-138 139l138 137q18 -18 45 -45.5t48.5 -49t44.5 -43.5z" />
    <glyph glyph-name="jeem" unicode="&#x62c;" horiz-adv-x="1070" 
d="M601 63l139 -139l-139 -139l-140 139zM965 -447l-71 -225q-132 -41 -338 -49q-108 -2 -195 25.5t-144 74t-96.5 110.5t-58 131t-22.5 140q1 77 27 161t79 177.5t147 190.5t219 183q-201 49 -243 53q-33 3 -66 3q-118 0 -175 -54l-16 -16l-6 5l68 112q44 72 90.5 100.5
t113.5 28.5q80 0 312 -54q64 -15 111.5 -24.5t104 -17.5t101.5 -7.5t77 9.5q-9 -23 -24.5 -61t-26.5 -67q-10 -28 -40.5 -45.5t-69.5 -17.5q-71 0 -229 33q-75 -64 -142 -134.5t-127.5 -152t-96.5 -168t-36 -162.5q0 -98 57 -180q56 -80 158.5 -118t223.5 -38q163 0 334 54z
" />
    <glyph glyph-name="hah" unicode="&#x62d;" horiz-adv-x="1070" 
d="M965 -447l-71 -225q-132 -41 -338 -49q-108 -2 -195 25.5t-144 74t-96.5 110.5t-58 131t-22.5 140q1 77 27 161t79 177.5t147 190.5t219 183q-201 49 -243 53q-33 3 -66 3q-118 0 -175 -54l-16 -16l-6 5l68 112q44 72 90.5 100.5t113.5 28.5q80 0 312 -54
q64 -15 111.5 -24.5t104 -17.5t101.5 -7.5t77 9.5q-9 -23 -24.5 -61t-26.5 -67q-10 -28 -40.5 -45.5t-69.5 -17.5q-71 0 -229 33q-75 -64 -142 -134.5t-127.5 -152t-96.5 -168t-36 -162.5q0 -98 57 -180q56 -80 158.5 -118t223.5 -38q163 0 334 54z" />
    <glyph glyph-name="khah" unicode="&#x62e;" horiz-adv-x="1111" 
d="M601 1046l139 -139l-139 -139l-140 139zM965 -447l-71 -225q-132 -41 -338 -49q-108 -2 -195 25.5t-144 74t-96.5 110.5t-58 131t-22.5 140q1 77 27 161t79 177.5t147 190.5t219 183q-201 49 -243 53q-33 3 -66 3q-118 0 -175 -54l-16 -16l-6 5l68 112q44 72 90.5 100.5
t113.5 28.5q80 0 312 -54q64 -15 111.5 -24.5t104 -17.5t101.5 -7.5t77 9.5q-9 -23 -24.5 -61t-26.5 -67q-10 -28 -40.5 -45.5t-69.5 -17.5q-71 0 -229 33q-75 -64 -142 -134.5t-127.5 -152t-96.5 -168t-36 -162.5q0 -98 57 -180q56 -80 158.5 -118t223.5 -38q163 0 334 54z
" />
    <glyph glyph-name="dal" unicode="&#x62f;" horiz-adv-x="873" 
d="M185 181h497q-5 57 -26 110.5t-45 88.5t-61 70.5t-55.5 50t-46.5 33.5q-7 5 -10 7l-30 21q20 36 55 94.5t50 83.5q63 -53 104.5 -98.5t83 -114t62 -159t20.5 -204.5q0 -80 -13 -164h-569q-71 0 -104.5 34t-33.5 91q0 42 16 93q32 -37 106 -37z" />
    <glyph glyph-name="thal" unicode="&#x630;" horiz-adv-x="869" 
d="M185 181h497q-5 57 -26 110.5t-45 88.5t-61 70.5t-55.5 50t-46.5 33.5q-7 5 -10 7l-30 21q20 36 55 94.5t50 83.5q63 -53 104.5 -98.5t83 -114t62 -159t20.5 -204.5q0 -80 -13 -164h-569q-71 0 -104.5 34t-33.5 91q0 42 16 93q32 -37 106 -37zM283 1043l140 -139
l-140 -140l-139 140z" />
    <glyph glyph-name="reh" unicode="&#x631;" horiz-adv-x="642" 
d="M208 -628l-184 155q169 117 254 266.5t118 333.5q-25 120 -67.5 215t-115.5 209l125 165q150 -315 154 -613q0 -387 -284 -731z" />
    <glyph glyph-name="zain" unicode="&#x632;" horiz-adv-x="613" 
d="M208 -628l-184 155q169 117 254 266.5t118 333.5q-25 120 -67.5 215t-115.5 209l125 165q150 -315 154 -613q0 -387 -284 -731zM177 1048l140 -139l-140 -140l-139 140z" />
    <glyph glyph-name="seen" unicode="&#x633;" horiz-adv-x="1880" 
d="M1817 0h-674q-10 -69 -43.5 -146.5t-91 -155t-130.5 -139.5t-170 -100.5t-201 -38.5q-111 0 -199.5 46t-142 123t-81.5 172t-28 199q0 124 37.5 237.5t108.5 189.5q12 -13 23 -27t15 -19q-89 -139 -89 -282q0 -172 117.5 -290t287.5 -118q88 0 180 39.5t161 99
t114.5 130.5t48.5 133q-15 67 -44 135t-54 112.5t-76 127.5q19 25 54.5 73.5t55.5 74.5q101 -187 140 -395h230q-18 96 -48 171.5t-84 167.5q16 21 54.5 70t59.5 77q114 -248 124 -486h239q-24 118 -47.5 189.5t-71.5 153.5l-16 28q23 29 62 81t52 68q126 -272 126 -506v-14
z" />
    <glyph glyph-name="sheen" unicode="&#x634;" horiz-adv-x="1898" 
d="M1817 0h-674q-10 -69 -43.5 -146.5t-91 -155t-130.5 -139.5t-170 -100.5t-201 -38.5q-111 0 -199.5 46t-142 123t-81.5 172t-28 199q0 124 37.5 237.5t108.5 189.5q12 -13 23 -27t15 -19q-89 -139 -89 -282q0 -172 117.5 -290t287.5 -118q88 0 180 39.5t161 99
t114.5 130.5t48.5 133q-15 67 -44 135t-54 112.5t-76 127.5q19 25 54.5 73.5t55.5 74.5q101 -187 140 -395h230q-18 96 -48 171.5t-84 167.5q16 21 54.5 70t59.5 77q114 -248 124 -486h239q-24 118 -47.5 189.5t-71.5 153.5l-16 28q23 29 62 81t52 68q126 -272 126 -506v-14
zM1173 1045l140 -139l-140 -140l-139 140zM1598 906l-139 -140l-140 140l140 139zM1445 1145l-137 -139l-140 139l140 137z" />
    <glyph glyph-name="sad" unicode="&#x635;" horiz-adv-x="2386" 
d="M1328 181h836q0 80 -18.5 142.5t-47 100.5t-66.5 63t-74.5 34t-73.5 9q-101 0 -200.5 -64t-355.5 -285zM2228 0h-1077q-10 -69 -43.5 -146.5t-91 -155t-130.5 -139.5t-170 -100.5t-201 -38.5q-111 0 -199.5 46t-142 123t-81.5 172t-28 199q0 124 37.5 237.5t108.5 189.5
q12 -13 23 -27t15 -19q-89 -139 -89 -282q0 -172 117.5 -290t287.5 -118q88 0 181 39.5t163.5 98.5t117 130.5t49.5 133.5q-16 67 -46 134t-55 109t-77 123l1 -1l-6 10q19 25 54.5 73.5t55.5 74.5q101 -187 140 -395h46q397 414 609 520q69 32 140 32q72 0 136 -34l-1 1
q36 -21 67 -53t61 -81t47 -123t17 -164q0 -128 -36 -279z" />
    <glyph glyph-name="dad" unicode="&#x636;" horiz-adv-x="2378" 
d="M1328 181h836q0 80 -18.5 142.5t-47 100.5t-66.5 63t-74.5 34t-73.5 9q-101 0 -200.5 -64t-355.5 -285zM1735 1082l139 -140l-139 -139l-140 139zM2228 0h-1077q-10 -69 -43.5 -146.5t-91 -155t-130.5 -139.5t-170 -100.5t-201 -38.5q-111 0 -199.5 46t-142 123
t-81.5 172t-28 199q0 124 37.5 237.5t108.5 189.5q12 -13 23 -27t15 -19q-89 -139 -89 -282q0 -172 117.5 -290t287.5 -118q88 0 181 39.5t163.5 98.5t117 130.5t49.5 133.5q-16 67 -46 134t-55 109t-77 123l1 -1l-6 10q19 25 54.5 73.5t55.5 74.5q101 -187 140 -395h46
q397 414 609 520q69 32 140 32q72 0 136 -34l-1 1q36 -21 67 -53t61 -81t47 -123t17 -164q0 -128 -36 -279z" />
    <glyph glyph-name="tah" unicode="&#x637;" horiz-adv-x="1400" 
d="M329 181h859q0 80 -16.5 142.5t-42.5 101t-61.5 63.5t-70.5 35t-72 10q-106 0 -231 -72t-365 -280zM99 0l-36 181h127q16 19 35.5 39t32.5 33t40.5 39t41.5 40v826l144 89v-801q322 285 500 285q82 0 146.5 -42.5t101 -111t55 -144t18.5 -150.5q0 -33 -11 -130t-27 -153
h-1168z" />
    <glyph glyph-name="zah" unicode="&#x638;" horiz-adv-x="1400" 
d="M982 958l-137 -139l-139 139l139 140zM304 181h859q0 80 -16.5 142.5t-42.5 101t-61.5 63.5t-70.5 35t-72 10q-106 0 -231 -72t-365 -280zM74 0l-36 181h127q16 19 35.5 39t32.5 33t40.5 39t41.5 40v826l144 89v-801q322 285 500 285q82 0 146.5 -42.5t101 -111t55 -144
t18.5 -150.5q0 -33 -11 -130t-27 -153h-1168z" />
    <glyph glyph-name="ain" unicode="&#x639;" horiz-adv-x="1003" 
d="M962 -436l-67 -217q-67 -25 -160.5 -40t-161.5 -18q-252 -5 -388 106t-136 302q0 130 68.5 263t200.5 242q-64 34 -114.5 114.5t-54.5 158.5q-6 95 44 180.5t137 137t185 51.5q88 0 177 -49l23 -80q-69 22 -130 22q-125 0 -196 -75t-71 -165q2 -68 43.5 -120t122.5 -75
q149 71 327 99q-1 -8 -24 -126q-131 -21 -239 -76.5t-175.5 -128.5t-103.5 -155.5t-36 -162.5q0 -260 371 -257q60 0 162.5 20t195.5 49z" />
    <glyph glyph-name="ghain" unicode="&#x63a;" horiz-adv-x="969" 
d="M490 1203l139 -140l-139 -139l-138 139zM962 -436l-67 -217q-67 -25 -160.5 -40t-161.5 -18q-252 -5 -388 106t-136 302q0 130 68.5 263t200.5 242q-64 34 -114.5 114.5t-54.5 158.5q-6 95 44 180.5t137 137t185 51.5q88 0 177 -49l23 -80q-69 22 -130 22
q-125 0 -196 -75t-71 -165q2 -68 43.5 -120t122.5 -75q149 71 327 99q-1 -8 -24 -126q-131 -21 -239 -76.5t-175.5 -128.5t-103.5 -155.5t-36 -162.5q0 -260 371 -257q60 0 162.5 20t195.5 49z" />
    <glyph glyph-name="tatweel" unicode="&#x640;" horiz-adv-x="488" 
d="M488 181v-181h-493q-22 0 -22 23v133q0 25 22 25h493z" />
    <glyph glyph-name="feh" unicode="&#x641;" horiz-adv-x="1873" 
d="M1415 443h-1q67 4 175 27q-98 270 -221 270q-38 0 -73.5 -25t-59 -61t-40.5 -73t-23 -64.5t-1 -32.5q51 -44 178 -44q31 0 66 3zM1524 1124l-137 -139l-140 139l140 140zM45 295q0 153 69.5 286t169.5 215q12 -12 42 -40q-65 -72 -108.5 -175t-43.5 -192q0 -94 53 -151
t167 -57h1259q-6 34 -10 61.5t-6 41.5t-7 33q-209 -47 -330 -47q-68 0 -116 12t-69.5 31t-29.5 34t-8 29q0 5 -0.5 15.5t-0.5 16.5q0 112 29 209.5t74 160t95.5 100t98.5 44.5q9 1 27 1q102 0 180.5 -101t120.5 -262t53 -363q0 -1 3 -51t6 -98t2 -48h-1433q-38 0 -76 9
t-76.5 31.5t-68 55t-48 84t-18.5 115.5z" />
    <glyph glyph-name="qaf" unicode="&#x642;" horiz-adv-x="1303" 
d="M833 944l-139 -140l-139 140l139 139q23 -24 45.5 -46.5t49.5 -49t44 -43.5zM1118 944l-139 -140l-139 140q29 29 76 75.5t63 62.5zM876 197q65 -11 197 -16q-11 87 -36 158t-56.5 114.5t-63.5 68.5t-62 30h2q-37 8 -72 -10t-60 -49.5t-44.5 -68.5t-29 -66.5t-9.5 -42.5
q0 -33 11 -46q33 -42 223 -72zM1166 -43q-13 -63 -38.5 -128t-64 -131.5t-93 -124t-119 -103t-149 -71.5t-176.5 -26q-90 0 -165 30t-127 81.5t-88 120.5t-53 146.5t-17 159.5q0 126 37 238t108 189q8 -10 14 -16.5l12 -13t11 -12.5q-89 -141 -89 -284q-2 -115 45 -211.5
t141.5 -156.5t219.5 -60q166 -1 303.5 122t186.5 294q-509 18 -509 182q0 119 29 226t73 177.5t95.5 112t98.5 41.5q88 0 160.5 -77t114.5 -204t48 -277q5 -121 -9 -224z" />
    <glyph glyph-name="arabickaf" unicode="&#x643;" horiz-adv-x="1754" 
d="M57 297q0 148 62 267.5t159 201.5q2 -7 2.5 -10.5t1 -4.5t0.5 -3t1 -5q-57 -63 -92 -151.5t-35 -170.5q0 -107 60.5 -173.5t187.5 -66.5h1078v973q18 11 151 91v-1245h-1291q-39 0 -77 9.5t-76 31.5t-67 55t-47 85t-18 116zM1064 851l-34 -102q-170 -48 -279 -129
q-20 -14 -28 -21q17 77 91 149q-110 18 -110 99q0 56 33 118.5t89 105.5t113 41q28 -2 50 -10l-11 -107q-17 4 -41 4q-61 0 -118 -40t-94 -111q49 -37 107 -43q103 -10 232 46z" />
    <glyph glyph-name="lam" unicode="&#x644;" horiz-adv-x="1224" 
d="M1122 1247v-1268q0 -238 -152.5 -395.5t-385.5 -157.5q-232 0 -383.5 157.5t-151.5 395.5q0 116 39 219t108 179l44 -51q-81 -119 -81 -265q0 -121 52.5 -223t145 -161.5t203.5 -59.5q191 0 300 119t109 325v1091q36 22 153 95z" />
    <glyph glyph-name="meem" unicode="&#x645;" horiz-adv-x="1053" 
d="M216 -79v-610q-28 -17 -81 -50.5t-70 -44.5v705q0 67 19.5 120t50 82t63 43.5t62.5 14.5h121q8 84 29 166t53.5 153t81.5 114.5t105 43.5q63 0 117.5 -39.5t91 -100t63 -134t38.5 -141.5t12 -122q0 -105 -52 -213q-23 -45 -32 -58q-84 85 -182 117.5t-224 32.5h-195
q-71 0 -71 -79zM454 181h60q96 0 184 -30.5t182 -107.5q4 102 -17.5 185t-56.5 130.5t-74 72t-74 20.5q-61 -8 -107.5 -68.5t-96.5 -201.5z" />
    <glyph glyph-name="noon" unicode="&#x646;" horiz-adv-x="1217" 
d="M845 502l114 164q162 -274 178 -535q4 -53 -9 -117t-40.5 -132.5t-75 -132t-107.5 -113.5t-144 -80.5t-178 -30.5q-238 0 -388.5 144.5t-150.5 363.5q0 218 139 414q13 -9 27.5 -20.5t20.5 -16.5q-93 -142 -93 -281q0 -172 125.5 -290.5t301.5 -118.5q106 0 213 54.5
t179 134.5t93 159q-44 183 -205 434zM691 822l-137 -137l-139 137l139 139z" />
    <glyph glyph-name="heh" unicode="&#x647;" horiz-adv-x="827" 
d="M63 174q0 135 139 345q115 172 237 321q45 -32 79 -58.5t79.5 -71t75 -87t51 -98.5t21.5 -112q0 -70 -30.5 -145t-82.5 -139t-131 -105.5t-167 -41.5q-54 0 -92 4t-74 16t-57.5 32.5t-34.5 55.5t-13 84zM568 249q43 32 74 81q-31 81 -102 153t-175 152
q-55 -67 -89.5 -113t-69.5 -110t-35 -105q0 -27 14 -51q21 -33 69.5 -52t109.5 -19q118 0 204 64z" />
    <glyph glyph-name="waw" unicode="&#x648;" horiz-adv-x="712" 
d="M647 85q3 -221 -78 -401q-62 -141 -202 -315q-31 26 -91 76t-95 79q263 179 348 476q-84 -1 -145.5 1t-125 10.5t-104.5 23.5t-69 42t-34 64q-13 75 4 179.5t55.5 199t100.5 161t130 66.5q81 0 149.5 -84.5t110 -236.5t46.5 -341zM462 181h73q-18 162 -77 267.5
t-138 105.5q-49 0 -92 -50t-64 -109t-21 -101q0 -55 92 -84t227 -29z" />
    <glyph glyph-name="alefmaksura" unicode="&#x649;" horiz-adv-x="1291" 
d="M271 578l53 -52q-120 -170 -120 -342q0 -180 123.5 -301.5t303.5 -121.5q132 0 263.5 78.5t213.5 191.5q-8 28 -33 54t-66.5 47.5t-80.5 38t-95 32.5t-88.5 24.5t-81.5 20.5q-30 10 -39.5 33t-9.5 59q7 99 66.5 203.5t151.5 175t182 70.5q117 0 117 -195v-9
q-41 31 -107 31q-94 0 -184 -58.5t-121 -147.5q78 -18 157.5 -45t162 -66.5t134 -93.5t51.5 -113q0 -47 -28 -115t-83.5 -143t-128 -139.5t-173 -107t-207.5 -42.5q-108 0 -198 34t-149 87.5t-100 122t-58.5 135t-17.5 128.5q0 287 190 526z" />
    <glyph glyph-name="yeh" unicode="&#x64a;" horiz-adv-x="1306" 
d="M271 578l53 -52q-120 -170 -120 -342q0 -180 123.5 -301.5t303.5 -121.5q132 0 263.5 78.5t213.5 191.5q-8 28 -33 54t-66.5 47.5t-80.5 38t-95 32.5t-88.5 24.5t-81.5 20.5q-30 10 -39.5 33t-9.5 59q7 99 66.5 203.5t151.5 175t182 70.5q117 0 117 -195v-9
q-41 31 -107 31q-94 0 -184 -58.5t-121 -147.5q78 -18 157.5 -45t162 -66.5t134 -93.5t51.5 -113q0 -47 -28 -115t-83.5 -143t-128 -139.5t-173 -107t-207.5 -42.5q-108 0 -198 34t-149 87.5t-100 122t-58.5 135t-17.5 128.5q0 287 190 526zM580 -495l144 -107
q-32 -23 -77.5 -57.5t-66.5 -50.5q-28 21 -74.5 56t-69.5 52zM868 -495l146 -107q-31 -22 -79 -58t-67 -50q-29 21 -74.5 56t-68.5 52l78 58.5t65 48.5z" />
    <glyph glyph-name="fathatan" unicode="&#x64b;" 
d="M541 1783l-38 -74q-124 -65 -567 -304q7 22 13 40.5t14 41.5zM497 1550l-566 -302l32 79l574 302q-4 -8 -40 -79z" />
    <glyph glyph-name="dammatan" unicode="&#x64c;" 
d="M764 1823q-6 4 -54 28q-173 -321 -393 -369q28 90 28 100q0 96 -102 96q-63 0 -120 -33q86 106 170 106q38 0 60.5 -13.5t28 -38t1.5 -53t-16 -65.5q113 45 187 108.5t146 169.5q-88 -14 -127 -14t-65 6q-23 5 -23 28q0 171 90 291v-1q26 32 43 32q27 0 69 -62
q42 -87 42 -203q31 -9 78 -33q-25 -45 -43 -80zM578 2096q-27 -16 -44 -88q-4 -43 29 -51q34 -8 113 2q0 82 -27 125q-32 51 -71 12z" />
    <glyph glyph-name="kasratan" unicode="&#x64d;" 
d="M541 -872l-38 -74q-124 -65 -567 -304q7 22 13 40.5t14 41.5zM497 -1105l-566 -302l32 79l574 302q-4 -8 -40 -79z" />
    <glyph glyph-name="fatha" unicode="&#x64e;" 
d="M541 1783l-38 -74q-124 -65 -567 -304q7 22 13 40.5t14 41.5zM497 1550l-566 -302l32 79l574 302q-4 -8 -40 -79z" />
    <glyph glyph-name="damma" unicode="&#x64f;" 
d="M706 1970l-41 -84q-21 11 -65 20q-154 -275 -339 -366q-94 -46 -220 -78q258 163 544 454q-65 -5 -87 -5q-114 0 -116 78q18 175 110 255q13 13 29 13q20 0 44 -24q66 -65 66 -195v-35q27 -10 75 -33zM552 2038q-14 110 -61 110q-16 0 -33 -14q-39 -33 -39 -57
q0 -47 88 -47q31 0 45 8z" />
    <glyph glyph-name="kasra" unicode="&#x650;" 
d="M607 -887l-38 -74q-124 -65 -567 -304q7 22 13 40.5t14 41.5z" />
    <glyph glyph-name="shadda" unicode="&#x651;" 
d="M539 1931v-174q0 -248 -170 -248q-53 0 -102 54q-54 -89 -130 -87h1q-54 2 -84.5 38t-32.5 98q-4 102 34 173l-2 -2l3 5q4 -1 0 -45q0 -157 95 -151h-1q85 2 85 102v86q11 15 34.5 44.5t34.5 45.5v-143q0 -49 22.5 -72.5t64.5 -19.5q78 9 78 104v100z" />
    <glyph glyph-name="sukun" unicode="&#x652;" 
d="M50 1512q-34 35 -26 94v-1q24 155 145 306q122 -76 184 -165h-1q9 -14 9 -40q0 -90 -65 -161q-62 -69 -153 -69q-59 0 -93 36zM287 1651q-44 83 -140 154q-53 -51 -53 -125q0 -46 9 -62.5t44 -16.5q54 0 140 50z" />
    <glyph glyph-name="arabicindicdigitzero" unicode="&#x660;" horiz-adv-x="441" 
d="M48 444q32 59 128 213q61 -50 211 -161q-27 -44 -73 -121t-54 -90q-11 9 -29 22.5t-71.5 53.5t-111.5 83z" />
    <glyph glyph-name="arabicindicdigitone" unicode="&#x661;" horiz-adv-x="671" 
d="M185 1288l25 51q245 -515 294 -973q4 -35 4 -76q0 -186 -63 -312q-49 291 -148.5 583.5t-229.5 517.5q35 50 118 209z" />
    <glyph glyph-name="arabicindicdigittwo" unicode="&#x662;" horiz-adv-x="929" 
d="M542 1210q159 0 293 93q-7 -95 -34 -165q-25 -72 -109.5 -109.5t-186.5 -37.5q-29 0 -124 13q94 -338 126 -624q6 -57 6 -113q0 -176 -55 -305q-47 288 -147.5 581t-230.5 520q65 124 135 259q145 -112 327 -112z" />
    <glyph glyph-name="arabicindicdigitthree" unicode="&#x663;" horiz-adv-x="1036" 
d="M753 994q-72 -2 -162 74q-31 -49 -83 -75t-116 -18q86 -325 115 -590q25 -236 -49 -418q-47 288 -147.5 580.5t-229.5 519.5q61 118 129 250q95 -106 202 -106q50 0 96.5 28.5t80.5 82.5q29 -56 72 -85.5t93 -29.5q95 0 155 80q15 -46 9 -97.5t-24 -94.5t-55.5 -71.5
t-85.5 -29.5z" />
    <glyph glyph-name="arabicindicdigitfour" unicode="&#x664;" horiz-adv-x="907" 
d="M321 318q0 -39 68 -76t176 -59t219 -22h33l-78 -102t-86 -113q-6 0 -9 -0.5t-10 -0.5q-32 0 -70 3q-238 15 -353 78t-115 148q0 130 215 342v-1q88 84 88 115q0 4 -0.5 7.5t-2.5 7.5t-3.5 6.5t-5.5 6t-6 6t-7.5 6t-8.5 5.5t-10 7t-10 7q-15 8 -25 17l-29 19
q-49 32 -73.5 49.5t-56 46.5t-45 59t-13.5 66q0 65 96.5 154.5t217.5 162t233 119.5q-5 -33 -12.5 -78.5t-9.5 -61.5q-75 -25 -152 -61.5t-116 -60.5l-39 -25q-68 -43 32 -108l263 -173h-1q32 -21 32 -45q0 -22 -39 -66q-2 -2 -3 -2.5t-2 -2.5l2 1l-45 -52
q-187 -216 -215 -261l1 1q-25 -39 -25 -69z" />
    <glyph glyph-name="arabicindicdigitfive" unicode="&#x665;" horiz-adv-x="1019" 
d="M539 1329q59 0 122.5 -65.5t114.5 -169t84 -243.5t33 -278q0 -5 -0.5 -17t-0.5 -17q-19 -302 -142 -419q-75 -65 -169 -103t-177 -38q-64 0 -124.5 23t-100.5 63q-80 94 -80 299q0 104 19 240q12 88 52.5 209t97 237.5t130.5 197.5t141 81zM165 467q0 -67 43.5 -114
t105 -65t128.5 -13q157 12 254.5 93.5t97.5 152.5q0 29 -34 109t-83 166.5t-111 153.5t-109 67q-64 0 -134.5 -103.5t-114 -233t-43.5 -213.5z" />
    <glyph glyph-name="arabicindicdigitsix" unicode="&#x666;" horiz-adv-x="1002" 
d="M918 242q12 -13 12 -33t-15 -41l-135 -207q-73 123 -133 402.5t-60 568.5q0 108 16 233q-208 -67 -337 -67q-86 0 -137.5 22.5t-53.5 55.5q-4 42 -13.5 127t-14.5 131q128 -64 301 -64q160 0 306 64q-2 -1 -2 -20v-10q0 -43 1 -82t7 -140.5t15.5 -189t30 -205t47 -211
t69.5 -185t96 -149.5z" />
    <glyph glyph-name="arabicindicdigitseven" unicode="&#x667;" horiz-adv-x="1010" 
d="M861 1341l78 -330q-219 -258 -426 -1035q-34 182 -124 418.5t-186 409t-150 193.5l74 323q36 -39 71.5 -94.5t62.5 -104.5t59 -129t49.5 -125t46.5 -137t38 -120.5t35 -120.5t27 -95q31 128 54.5 216t70.5 245t103.5 282t116.5 204z" />
    <glyph glyph-name="arabicindicdigiteight" unicode="&#x668;" horiz-adv-x="1032" 
d="M140 -30l-80 316q215 253 423 1034q34 -182 124.5 -418.5t187.5 -408.5t151 -193l-74 -323q-36 39 -71.5 94.5t-62.5 104.5t-59 129t-49.5 125t-46.5 137t-38 120.5t-35 120.5t-27 95q-23 -96 -39.5 -161.5t-53.5 -192t-70.5 -219t-82 -194.5t-97.5 -166z" />
    <glyph glyph-name="arabicindicdigitnine" unicode="&#x669;" horiz-adv-x="1005" 
d="M925 228q12 -13 12 -32q0 -21 -14 -41l-137 -208q-53 89 -180 733q-57 -49 -62 -52q-105 -76 -242 -76q-118 0 -180 62q-48 48 -48 170q0 84 32 190t81 197.5t115 154t128 62.5q26 0 49.5 -13.5t44 -43t38 -62t34.5 -85t30 -95.5t28.5 -110.5t25 -114t24.5 -120.5
q31 -148 92 -295t129 -221zM328 761q88 1 151 32t83 68q-78 289 -201 289q-42 0 -92.5 -53.5t-83.5 -119t-35 -106.5q-2 -52 53 -81t125 -29z" />
    <glyph glyph-name="arabicpercentsign" unicode="&#x66a;" horiz-adv-x="1173" 
d="M499 1260l-138 -162q-36 37 -176 187q11 11 143 160q41 -38 171 -185zM1056 1441l-801 -1519h-199l804 1519h196zM999 168l-138 -162q-36 37 -176 187q11 11 143 160q41 -38 171 -185z" />
    <glyph glyph-name="arabicfivepointedstar" unicode="&#x66d;" horiz-adv-x="815" 
d="M494 1595l122 -206l-75 -56l-160 180l-158 -180l-78 56l123 206l-219 95l29 90l233 -51l23 237h94l23 -237l235 51l29 -90z" />
    <glyph glyph-name="superscriptalef" unicode="&#x670;" 
d="M88 2054v-544l-88 -54v543z" />
    <glyph glyph-name="alefwasla" unicode="&#x671;" horiz-adv-x="429" 
d="M298 1244v-1147q-36 -22 -153 -95v1147q36 22 153 95zM-79 1281l-15 43q15 13 32.5 27t46 36.5t52.5 42.5q5 -2 47 -21.5t71 -29.5t52 -12q72 89 167 136q55 26 97 26h7.5t7 -0.5t5.5 -1t5.5 -1.5t5 -2t6 -3t6 -3t7 -4t8.5 -5q21 -14 19 -38.5t-15 -48.5t-28 -35
q-83 -76 -233 -76q-49 0 -94.5 11.5t-142.5 44.5q-60 -48 -114 -86zM262 1359q47 0 76 3q50 5 107 41q63 39 32 63q-33 26 -155 -58q-59 -41 -60 -49z" />
    <glyph glyph-name="highhamza" unicode="&#x674;" horiz-adv-x="368" 
d="M385 1446l-34 -102q-170 -48 -279 -129q-20 -14 -28 -21q17 77 91 149q-110 18 -110 99q0 56 33 118.5t89 105.5t113 41q28 -2 50 -10l-11 -107q-17 4 -41 4q-61 0 -118 -40t-94 -111q49 -37 107 -43q103 -10 232 46z" />
    <glyph glyph-name="peh" unicode="&#x67e;" horiz-adv-x="1598" 
d="M369 181h1079q-28 91 -61 160.5t-86 159.5l-30 50l132 152q130 -279 130 -508q0 -99 -15 -195h-1192q-138 0 -214 65.5t-76 188.5q0 115 51.5 222t139.5 193l44 -43q-53 -64 -89.5 -140.5t-36.5 -139.5q0 -75 53.5 -120t170.5 -45zM825 -196l-138 -111l-138 112l138 109
q21 -17 65.5 -52.5t72.5 -57.5zM1100 -196l-138 -111l-138 112l138 109q21 -17 65.5 -52.5t72.5 -57.5zM958 -365l-138 -110l-138 111l138 109q21 -17 65.5 -52.5t72.5 -57.5z" />
    <glyph glyph-name="tcheh" unicode="&#x686;" horiz-adv-x="1070" 
d="M965 -447l-71 -225q-132 -41 -338 -49q-108 -2 -195 25.5t-144 74t-96.5 110.5t-58 131t-22.5 140q1 77 27 161t79 177.5t147 190.5t219 183q-201 49 -243 53q-33 3 -66 3q-118 0 -175 -54l-16 -16l-6 5l68 112q44 72 90.5 100.5t113.5 28.5q80 0 312 -54
q64 -15 111.5 -24.5t104 -17.5t101.5 -7.5t77 9.5q-9 -23 -24.5 -61t-26.5 -67q-10 -28 -40.5 -45.5t-69.5 -17.5q-71 0 -229 33q-75 -64 -142 -134.5t-127.5 -152t-96.5 -168t-36 -162.5q0 -98 57 -180q56 -80 158.5 -118t223.5 -38q163 0 334 54zM642 41l138 138l138 -139
l-138 -137q-18 18 -45 45.5t-48.5 49t-44.5 43.5zM365 41l138 138l138 -139l-138 -137zM506 -181l138 138l138 -139l-138 -137q-18 18 -45 45.5t-48.5 49t-44.5 43.5z" />
    <glyph glyph-name="jeh" unicode="&#x698;" horiz-adv-x="643" 
d="M208 -628l-184 155q169 117 254 266.5t118 333.5q-25 120 -67.5 215t-115.5 209l125 165q150 -315 154 -613q0 -387 -284 -731zM316 903l-138 -138l-138 139l138 137q18 -18 45 -45.5t48.5 -49t44.5 -43.5zM593 903l-138 -138l-138 139l138 137zM452 1125l-138 -138
l-138 139l138 137q18 -18 45 -45.5t48.5 -49t44.5 -43.5z" />
    <glyph glyph-name="veh" unicode="&#x6a4;" horiz-adv-x="1842" 
d="M1415 443h-1q67 4 175 27q-98 270 -221 270q-38 0 -73.5 -25t-59 -61t-40.5 -73t-23 -64.5t-1 -32.5q51 -44 178 -44q31 0 66 3zM45 295q0 153 69.5 286t169.5 215q12 -12 42 -40q-65 -72 -108.5 -175t-43.5 -192q0 -94 53 -151t167 -57h1259q-6 34 -10 61.5t-6 41.5
t-7 33q-209 -47 -330 -47q-68 0 -116 12t-69.5 31t-29.5 34t-8 29q0 5 -0.5 15.5t-0.5 16.5q0 112 29 209.5t74 160t95.5 100t98.5 44.5q9 1 27 1q102 0 180.5 -101t120.5 -262t53 -363q0 -1 3 -51t6 -98t2 -48h-1433q-38 0 -76 9t-76.5 31.5t-68 55t-48 84t-18.5 115.5z
M1398 1094l-138 -138l-138 139l138 137zM1675 1094l-138 -138l-138 139l138 137zM1534 1316l-138 -138l-138 139l138 137q18 -18 45 -45.5t48.5 -49t44.5 -43.5z" />
    <glyph glyph-name="keheh" unicode="&#x6a9;" horiz-adv-x="1726" 
d="M57 297q0 148 62 267.5t159 201.5q2 -7 2.5 -10.5t1 -4.5t0.5 -3t1 -5q-57 -63 -92 -151.5t-35 -170.5q0 -107 60.5 -173.5t187.5 -66.5h1078v973q18 11 151 91v-1245h-1291q-39 0 -77 9.5t-76 31.5t-67 55t-47 85t-18 116zM1064 851l-34 -102q-170 -48 -279 -129
q-20 -14 -28 -21q17 77 91 149q-110 18 -110 99q0 56 33 118.5t89 105.5t113 41q28 -2 50 -10l-11 -107q-17 4 -41 4q-61 0 -118 -40t-94 -111q49 -37 107 -43q103 -10 232 46z" />
    <glyph glyph-name="gaf" unicode="&#x6af;" horiz-adv-x="1752" 
d="M1752 181v-181h-1410q-39 0 -77 9.5t-76 31.5t-67 55t-47 85t-18 116q0 148 62 267.5t159 201.5q2 -7 2.5 -10.5t1 -4.5t0.5 -3t1 -5q-57 -63 -92 -151.5t-35 -170.5q0 -107 60.5 -173.5t187.5 -66.5h1078v973q18 11 151 91v-1064h119zM1064 851l-34 -102
q-170 -48 -279 -129q-20 -14 -28 -21q17 77 91 149q-110 18 -110 99q0 56 33 118.5t89 105.5t113 41q28 -2 50 -10l-11 -107q-17 4 -41 4q-61 0 -118 -40t-94 -111q49 -37 107 -43q103 -10 232 46z" />
    <glyph glyph-name="farsiyeh" unicode="&#x6cc;" horiz-adv-x="1417" 
d="M1256 11q-18 -60 -53 -123t-94.5 -129.5t-133.5 -117.5t-178 -84t-221 -33q-107 0 -196.5 31.5t-148.5 83t-100.5 118.5t-59.5 136t-18 137q3 287 188 527q14 -13 29.5 -28.5l23.5 -23.5q-129 -184 -129 -368q0 -176 113.5 -293.5t287.5 -117.5q184 0 344.5 88t248.5 212
q-178 53 -264 125q-10 7 -22 18t-27 39t-15 60v90q100 -93 228.5 -135t339.5 -42h19v-181h-28q-58 0 -134 11z" />
    <glyph glyph-name="arabicae" unicode="&#x6d5;" horiz-adv-x="815" 
d="M63 174q0 135 139 345q115 172 237 321q45 -32 79 -58.5t79.5 -71t75 -87t51 -98.5t21.5 -112q0 -70 -30.5 -145t-82.5 -139t-131 -105.5t-167 -41.5q-54 0 -92 4t-74 16t-57.5 32.5t-34.5 55.5t-13 84zM568 249q43 32 74 81q-31 81 -102 153t-175 152
q-55 -67 -89.5 -113t-69.5 -110t-35 -105q0 -27 14 -51q21 -33 69.5 -52t109.5 -19q118 0 204 64z" />
    <glyph glyph-name="smallhighmadda" unicode="&#x6e4;" horiz-adv-x="530" 
d="M387 1301h1l-423 -64q-88 -13 -126 -39q11 74 53 118t126 62l414 65q102 23 134 42q-8 -42 -16.5 -67t-27 -51.5t-51.5 -42t-84 -23.5z" />
    <glyph glyph-name="extendedarabicindicdigitzero" unicode="&#x6f0;" horiz-adv-x="555" 
d="M203 369l-99 75q32 59 128 213q61 -50 211 -161q-27 -44 -73 -121t-54 -90q-10 8 -113 84z" />
    <glyph glyph-name="extendedarabicindicdigitone" unicode="&#x6f1;" horiz-adv-x="738" 
d="M261 1308l25 51q245 -515 294 -973q4 -35 4 -76q0 -186 -63 -312q-49 291 -148.5 583.5t-229.5 517.5q35 50 118 209z" />
    <glyph glyph-name="extendedarabicindicdigittwo" unicode="&#x6f2;" horiz-adv-x="1028" 
d="M575 1243q159 0 293 93q-7 -95 -34 -165q-25 -72 -109.5 -109.5t-186.5 -37.5q-29 0 -124 13q94 -338 126 -624q6 -57 6 -113q0 -176 -55 -305q-47 288 -147.5 581t-230.5 520q65 124 135 259q145 -112 327 -112z" />
    <glyph glyph-name="extendedarabicindicdigitthree" unicode="&#x6f3;" horiz-adv-x="1259" 
d="M877 1035q-72 -2 -162 74q-31 -49 -83 -75t-116 -18q86 -325 115 -590q25 -236 -49 -418q-47 288 -147.5 580.5t-229.5 519.5q61 118 129 250q95 -106 202 -106q50 0 96.5 28.5t80.5 82.5q29 -56 72 -85.5t93 -29.5q95 0 155 80q15 -46 9 -97.5t-24 -94.5t-55.5 -71.5
t-85.5 -29.5z" />
    <glyph glyph-name="extendedarabicindicdigitfour" unicode="&#x6f4;" horiz-adv-x="1125" 
d="M431 298q0 -39 68 -76t176 -59t219 -22h33l-78 -102t-86 -113q-6 0 -9 -0.5t-10 -0.5q-32 0 -70 3q-238 15 -353 78t-115 148q0 130 215 342v-1q88 84 88 115q0 4 -0.5 7.5t-2.5 7.5t-3.5 6.5t-5.5 6t-6 6t-7.5 6t-8.5 5.5t-10 7t-10 7q-15 8 -25 17l-29 19
q-49 32 -73.5 49.5t-56 46.5t-45 59t-13.5 66q0 65 96.5 154.5t217.5 162t233 119.5q-5 -33 -12.5 -78.5t-9.5 -61.5q-75 -25 -152 -61.5t-116 -60.5l-39 -25q-68 -43 32 -108l263 -173h-1q32 -21 32 -45q0 -22 -39 -66q-2 -2 -3 -2.5t-2 -2.5l2 1l-45 -52
q-187 -216 -215 -261l1 1q-25 -39 -25 -69z" />
    <glyph glyph-name="extendedarabicindicdigitfive" unicode="&#x6f5;" horiz-adv-x="1198" 
d="M635 1333q59 0 122.5 -65.5t114.5 -169t84 -243.5t33 -278q0 -5 -0.5 -17t-0.5 -17q-19 -302 -142 -419q-75 -65 -169 -103t-177 -38q-64 0 -124.5 23t-100.5 63q-80 94 -80 299q0 104 19 240q12 88 52.5 209t97 237.5t130.5 197.5t141 81zM261 471q0 -67 43.5 -114
t105 -65t128.5 -13q157 12 254.5 93.5t97.5 152.5q0 29 -34 109t-83 166.5t-111 153.5t-109 67q-64 0 -134.5 -103.5t-114 -233t-43.5 -213.5z" />
    <glyph glyph-name="extendedarabicindicdigitsix" unicode="&#x6f6;" horiz-adv-x="1161" 
d="M1015 177q12 -13 12 -33t-15 -41l-135 -207q-73 123 -133 402.5t-60 568.5q0 108 16 233q-208 -67 -337 -67q-86 0 -137.5 22.5t-53.5 55.5q-4 42 -13.5 127t-14.5 131q128 -64 301 -64q160 0 306 64q-2 -1 -2 -20v-10q0 -43 1 -82t7 -140.5t15.5 -189t30 -205t47 -211
t69.5 -185t96 -149.5z" />
    <glyph glyph-name="extendedarabicindicdigitseven" unicode="&#x6f7;" horiz-adv-x="1177" 
d="M954 1368l78 -330q-219 -258 -426 -1035q-34 182 -124 418.5t-186 409t-150 193.5l74 323q36 -39 71.5 -94.5t62.5 -104.5t59 -129t49.5 -125t46.5 -137t38 -120.5t35 -120.5t27 -95q31 128 54.5 216t70.5 245t103.5 282t116.5 204z" />
    <glyph glyph-name="extendedarabicindicdigiteight" unicode="&#x6f8;" horiz-adv-x="1032" 
d="M135 -4l-80 316q215 253 423 1034q34 -182 124.5 -418.5t187.5 -408.5t151 -193l-74 -323q-36 39 -71.5 94.5t-62.5 104.5t-59 129t-49.5 125t-46.5 137t-38 120.5t-35 120.5t-27 95q-23 -96 -39.5 -161.5t-53.5 -192t-70.5 -219t-82 -194.5t-97.5 -166z" />
    <glyph glyph-name="extendedarabicindicdigitnine" unicode="&#x6f9;" horiz-adv-x="1103" 
d="M984 200q12 -13 12 -32q0 -21 -14 -41l-137 -208q-53 89 -180 733q-57 -49 -62 -52q-105 -76 -242 -76q-118 0 -180 62q-48 48 -48 170q0 84 32 190t81 197.5t115 154t128 62.5q26 0 49.5 -13.5t44 -43t38 -62t34.5 -85t30 -95.5t28.5 -110.5t25 -114t24.5 -120.5
q31 -148 92 -295t129 -221zM387 733q88 1 151 32t83 68q-78 289 -201 289q-42 0 -92.5 -53.5t-83.5 -119t-35 -106.5q-2 -52 53 -81t125 -29z" />
    <glyph glyph-name="zeronojoin" unicode="&#x200c;" horiz-adv-x="45" 
d="M45 1628v-1628h-45v1628h45z" />
    <glyph glyph-name="zerojoin" unicode="&#x200d;" horiz-adv-x="45" 
d="M45 1551v-1551h-45v1550l-84 -84l-30 30l107 107l-107 107l30 30l107 -107l107 107l30 -30l-107 -107l107 -107l-30 -30z" />
    <glyph glyph-name="lefttoright" unicode="&#x200e;" horiz-adv-x="45" 
d="M45 1583v-1583h-45v1628h217l-82 82l31 31l137 -137l-137 -138l-31 31l86 86h-176z" />
    <glyph glyph-name="righttoleft" unicode="&#x200f;" horiz-adv-x="45" 
d="M45 1628v-1628h-45v1583h-176l86 -86l-31 -31l-137 138l137 137l31 -31l-82 -82h217z" />
    <glyph glyph-name="endash" unicode="&#x2013;" horiz-adv-x="1024" 
d="M1036 679v-61h-1048v61h1048z" />
    <glyph glyph-name="quotedash" unicode="&#x2014;" horiz-adv-x="2048" 
d="M2060 679v-61h-2072v61h2072z" />
    <glyph glyph-name="quoteleft" unicode="&#x2018;" horiz-adv-x="491" 
d="M467 1541v-55q-91 -60 -154 -145q-76 -100 -76 -193q0 -54 32 -98q39 47 90 47q102 0 102 -100q0 -59 -48 -92q-44 -30 -104 -30q-82 0 -133 51t-51 132q0 140 108 283q96 126 234 200z" />
    <glyph glyph-name="quoteright" unicode="&#x2019;" horiz-adv-x="491" 
d="M105 872v56q228 162 228 338q0 62 -33 101q-33 -49 -95 -49q-41 0 -69.5 28t-28.5 69q0 59 49 93q43 31 104 31q86 0 135 -50t49 -136q0 -142 -107 -281q-89 -116 -232 -200z" />
    <glyph glyph-name="quotesinglbase" unicode="&#x201a;" horiz-adv-x="491" 
d="M119 -316v56q228 162 228 337q0 61 -33 100q-32 -48 -95 -48q-41 0 -69.5 28t-28.5 69q0 59 49 93q44 32 104 32q86 0 135 -50t49 -137q0 -142 -108 -280q-90 -117 -231 -200z" />
    <glyph glyph-name="quotedblleft" unicode="&#x201c;" horiz-adv-x="650" 
d="M453 802q-47 0 -79 36q-34 37 -34 98q0 201 203 359q0 -89 1 -93q4 -40 28 -56q-9 -4 -41 -26q-52 -51 -52 -95q82 -22 82 -112q0 -49 -33 -80q-32 -31 -75 -31zM183 802q-47 0 -79 36q-34 37 -34 98q0 201 203 359q0 -89 1 -93q4 -40 28 -56q-9 -4 -41 -26
q-52 -51 -52 -95q82 -22 82 -112q0 -49 -33 -80q-32 -31 -75 -31z" />
    <glyph glyph-name="quotedblright" unicode="&#x201d;" horiz-adv-x="650" 
d="M580 1151q0 -201 -203 -359q0 89 -1 93q-4 40 -28 56q9 4 41 26q52 51 52 95q-82 22 -82 112q0 48 34 81q31 30 74 30q47 0 79 -35q34 -37 34 -99zM310 1151q0 -201 -203 -359q0 89 -1 93q-4 40 -28 56q9 4 41 26q52 51 52 95q-82 22 -82 112q0 48 34 81q31 30 74 30
q47 0 79 -35q34 -37 34 -99z" />
    <glyph glyph-name="quotedblbase" unicode="&#x201e;" horiz-adv-x="939" 
d="M528 -318v56q226 160 226 343q0 50 -31 96q-35 -48 -91 -48q-42 0 -71.5 28.5t-29.5 70.5q0 58 48 93q43 29 104 29q86 0 133.5 -50t47.5 -137q0 -145 -106 -281q-87 -113 -230 -200zM78 -318v58q90 54 154 142q71 98 71 193q0 53 -29 102q-34 -48 -92 -48
q-44 0 -72.5 28t-28.5 72q0 58 49 92q44 29 104 29q81 0 130.5 -50.5t49.5 -132.5q0 -279 -336 -485z" />
    <glyph glyph-name="dagger" unicode="&#x2020;" horiz-adv-x="896" 
d="M474 -327h-53q-18 623 -95 978q73 165 95 334l-134 -36q-77 -21 -98 -32q-56 -27 -60 -73h-42v338h42q7 -70 149 -105l143 -36l-34 192q-19 108 -28 134q-28 77 -93 82v45h360v-45q-62 0 -91 -77q-11 -29 -27 -128l-34 -203l121 30q161 41 168 111h45v-338h-45
q-4 62 -118 94l-171 47q19 -160 95 -334q-78 -309 -95 -978z" />
    <glyph glyph-name="daggerdbl" unicode="&#x2021;" horiz-adv-x="896" 
d="M635 -280v-46h-369v46q56 2 81 51q13 25 27 101l46 257l-196 -62q-84 -20 -90 -88h-51v346h51q8 -47 54 -72q23 -12 89 -32l143 -44q-19 148 -98 410q48 140 98 399l-170 -48q-119 -35 -123 -94h-44v341h44q11 -44 41 -64q17 -8 74 -31l178 -49l-55 281q-12 59 -26 85
q-23 38 -73 41v45h363v-45q-64 -1 -91 -71q-9 -24 -28 -125l-40 -211l105 27q96 25 115 34q68 30 71 83h56v-341h-56q-5 32 -27 53q-20 17 -99 41l-157 48q47 -254 97 -399q-63 -204 -97 -410l157 50l13 6l36 12q76 25 84 80h49v-346h-49q-6 51 -100 90l-190 54l49 -251
q17 -85 26 -102q24 -49 82 -50z" />
    <glyph glyph-name="bullet" unicode="&#x2022;" horiz-adv-x="576" 
d="M517 768q0 -95 -67 -162t-162 -67t-162 67t-67 162q0 96 66 163q67 67 163 67q97 0 163 -67q66 -66 66 -163z" />
    <glyph glyph-name="ellipsis" unicode="&#x2026;" horiz-adv-x="2048" 
d="M1827 219q0 -49 -36 -84q-35 -35 -84 -35q-51 0 -86 34q-35 35 -35 85q0 48 35 83t83 35q52 0 87.5 -33.5t35.5 -84.5zM1144 219q0 -49 -36 -84q-35 -35 -84 -35q-51 0 -85 34q-35 35 -35 85q0 49 34 83q35 35 84 35q51 0 86 -34q36 -35 36 -84zM462 219q0 -51 -36 -85
q-34 -34 -85 -34q-48 0 -85 35q-35 35 -35 84q0 48 35 83t83 35q52 0 87.5 -33.5t35.5 -84.5z" />
    <glyph glyph-name="perthousand" unicode="&#x2030;" horiz-adv-x="2069" 
d="M1900 231q-98 -122 -243 -122q-123 0 -200 89q-73 83 -73 209q0 152 90 268q97 124 245 124q125 0 200 -92q71 -86 71 -213q0 -149 -90 -263zM1224 230q-96 -121 -243 -121q-122 0 -199 89q-73 85 -73 209q0 151 90 267q98 125 244 125q125 0 200 -92q71 -86 71 -213
q0 -152 -90 -264zM593 856q-99 -120 -245 -120q-122 0 -197 90q-70 85 -70 210q0 148 91 263q98 125 242 125q125 0 202 -92q70 -85 70 -214q0 -150 -93 -262zM1183 1464l-887 -1396h-86l888 1396h85zM1714 178q159 0 159 216q0 114 -50 216q-61 123 -166 123
q-79 0 -120 -68q-33 -55 -33 -141q0 -114 48 -217q62 -129 162 -129zM1039 178q159 0 159 216q0 114 -50 216q-62 123 -166 123q-79 0 -120 -68q-34 -56 -34 -141q0 -114 48 -218q62 -128 163 -128zM416 800q151 0 151 226q0 111 -50 211q-61 121 -163 121q-82 0 -122 -70
q-33 -57 -33 -145q0 -119 49 -218q62 -125 168 -125z" />
    <glyph glyph-name="guilsinglleft" unicode="&#x2039;" horiz-adv-x="512" 
d="M451 204v-75l-383 455l389 457v-75l-228 -382z" />
    <glyph glyph-name="guilsinglright" unicode="&#x203a;" horiz-adv-x="512" 
d="M457 586l-393 -457v75l231 382l-222 381v77z" />
    <glyph glyph-name="trademark" unicode="&#x2122;" horiz-adv-x="1750" 
d="M1619 1407v-749h-114v599q-42 -111 -118.5 -316.5t-105.5 -282.5h-78l-228 599v-599h-100v749h158l219 -563q87 235 213 563h154zM485 1306v-648h-115v648h-256v101h640v-101h-269z" />
    <glyph glyph-name="fathalow" unicode="&#xe820;" 
d="M620 1842l-38 -74q-124 -65 -567 -304q7 22 13 40.5t14 41.5z" />
    <glyph glyph-name="dammalow" unicode="&#xe821;" 
d="M706 1970l-41 -84q-21 11 -65 20q-154 -275 -339 -366q-94 -46 -220 -78q258 163 544 454q-65 -5 -87 -5q-114 0 -116 78q18 175 110 255q13 13 29 13q20 0 44 -24q66 -65 66 -195v-35q27 -10 75 -33zM552 2038q-14 110 -61 110q-16 0 -33 -14q-39 -33 -39 -57
q0 -47 88 -47q31 0 45 8z" />
    <glyph glyph-name="sukunlow" unicode="&#xe822;" 
d="M50 1512q-34 35 -26 94v-1q24 155 145 306q122 -76 184 -165h-1q9 -14 9 -40q0 -90 -65 -161q-62 -69 -153 -69q-59 0 -93 36zM287 1651q-44 83 -140 154q-53 -51 -53 -125q0 -46 9 -62.5t44 -16.5q54 0 140 50z" />
    <glyph glyph-name="fathatanlow" unicode="&#xe823;" 
d="M628 2028l-38 -74q-124 -65 -567 -304q7 22 13 40.5t14 41.5zM584 1795l-566 -302l32 79l574 302q-4 -8 -40 -79z" />
    <glyph glyph-name="dammatanlow" unicode="&#xe824;" 
d="M835 1912q-12 -19 -63 -119q-1 5 -53 31q-181 -336 -431 -367q37 117 37 125q0 76 -82 76q-133 0 -243 -168q149 281 293 281q106 0 106 -84q0 -35 -27 -84q178 70 285 229q-91 -14 -153 0q-39 7 -39 47q0 179 94 303q31 39 59 39q41 0 86 -71q45 -94 45 -199
q29 -8 86 -39zM579 2084q-31 -19 -45 -76q-4 -43 29 -51q34 -8 113 2q0 82 -27 125t-70 0z" />
    <glyph glyph-name="shaddalow" unicode="&#xe825;" 
d="M539 1931v-174q0 -248 -170 -248q-53 0 -102 54q-54 -89 -130 -87h1q-54 2 -84.5 38t-32.5 98q-4 102 34 173l-2 -2l3 5q4 -1 0 -45q0 -157 95 -151h-1q85 2 85 102v86q11 15 34.5 44.5t34.5 45.5v-143q0 -49 22.5 -72.5t64.5 -19.5q78 9 78 104v100z" />
    <glyph glyph-name="kasralow" unicode="&#xe826;" 
d="M608 -948l-38 -74q-124 -65 -567 -304q7 22 13 40.5t14 41.5z" />
    <glyph glyph-name="kasratanlow" unicode="&#xe827;" 
d="M608 -876l-38 -74q-124 -65 -567 -304q7 22 13 40.5t14 41.5zM564 -1109l-566 -302l32 79l574 302q-4 -8 -40 -79z" />
    <glyph glyph-name="shaddawithfathaisolatedlow" unicode="&#xe828;" 
d="M539 1931v-174q0 -248 -170 -248q-53 0 -102 54q-54 -89 -130 -87h1q-54 2 -84.5 38t-32.5 98q-4 102 34 173l-2 -2l3 5q4 -1 0 -45q0 -157 95 -151h-1q85 2 85 102v86q11 15 34.5 44.5t34.5 45.5v-143q0 -49 22.5 -72.5t64.5 -19.5q78 9 78 104v100zM564 2115l-566 -302
l32 79l574 302q-4 -8 -40 -79z" />
    <glyph glyph-name="shaddawithdammaisolatedlow" unicode="&#xe829;" 
d="M539 1931v-174q0 -248 -170 -248q-53 0 -102 54q-54 -89 -130 -87h1q-54 2 -84.5 38t-32.5 98q-4 102 34 173l-2 -2l3 5q4 -1 0 -45q0 -157 95 -151h-1q85 2 85 102v86q11 15 34.5 44.5t34.5 45.5v-143q0 -49 22.5 -72.5t64.5 -19.5q78 9 78 104v100zM626 2324l-41 -84
q-21 11 -65 20q-154 -275 -339 -366q-94 -46 -220 -78q258 163 544 454q-65 -5 -87 -5q-114 0 -116 78q18 175 110 255q13 13 29 13q20 0 44 -24q66 -65 66 -195v-35q27 -10 75 -33zM472 2392q-14 110 -61 110q-16 0 -33 -14q-39 -33 -39 -57q0 -47 88 -47q31 0 45 8z" />
    <glyph glyph-name="shaddawithfathatanisolatedlow" unicode="&#xe82a;" 
d="M539 1931v-174q0 -248 -170 -248q-53 0 -102 54q-54 -89 -130 -87h1q-54 2 -84.5 38t-32.5 98q-4 102 34 173l-2 -2l3 5q4 -1 0 -45q0 -157 95 -151h-1q85 2 85 102v86q11 15 34.5 44.5t34.5 45.5v-143q0 -49 22.5 -72.5t64.5 -19.5q78 9 78 104v100zM608 2348l-38 -74
q-124 -65 -567 -304q7 22 13 40.5t14 41.5zM564 2115l-566 -302l32 79l574 302q-4 -8 -40 -79z" />
    <glyph glyph-name="shaddawithdammatanisolatedlow" unicode="&#xe82b;" 
d="M539 1931v-174q0 -248 -170 -248q-53 0 -102 54q-54 -89 -130 -87h1q-54 2 -84.5 38t-32.5 98q-4 102 34 173l-2 -2l3 5q4 -1 0 -45q0 -157 95 -151h-1q85 2 85 102v86q11 15 34.5 44.5t34.5 45.5v-143q0 -49 22.5 -72.5t64.5 -19.5q78 9 78 104v100zM532 2174
q-6 4 -54 28q-173 -321 -393 -369q28 90 28 100q0 96 -102 96q-63 0 -120 -33q86 106 170 106q38 0 60.5 -13.5t28 -38t1.5 -53t-16 -65.5q113 45 187 108.5t146 169.5q-88 -14 -127 -14t-65 6q-23 5 -23 28q0 171 90 291v-1q26 32 43 32q27 0 69 -62q42 -87 42 -203
q31 -9 78 -33q-25 -45 -43 -80zM346 2447q-27 -16 -44 -88q-4 -43 29 -51q34 -8 113 2q0 82 -27 125q-32 51 -71 12z" />
    <glyph glyph-name="shaddawithkasraisolatedlow" unicode="&#xe82c;" 
d="M539 2183v-174q0 -248 -170 -248q-53 0 -102 54q-54 -89 -130 -87h1q-54 2 -84.5 38t-32.5 98q-4 102 34 173l-2 -2l3 5q4 -1 0 -45q0 -157 95 -151h-1q85 2 85 102v86q11 15 34.5 44.5t34.5 45.5v-143q0 -49 22.5 -72.5t64.5 -19.5q78 9 78 104v100zM564 1732l-566 -302
l32 79l574 302q-4 -8 -40 -79z" />
    <glyph glyph-name="shaddawithkasratanisolatedlow" unicode="&#xe82d;" 
d="M539 2260v-174q0 -248 -170 -248q-53 0 -102 54q-54 -89 -130 -87h1q-54 2 -84.5 38t-32.5 98q-4 102 34 173l-2 -2l3 5q4 -1 0 -45q0 -157 95 -151h-1q85 2 85 102v86q11 15 34.5 44.5t34.5 45.5v-143q0 -49 22.5 -72.5t64.5 -19.5q78 9 78 104v100zM564 1781l-566 -302
l32 79l574 302q-4 -8 -40 -79zM564 1627l-566 -302l32 79l574 302q-4 -8 -40 -79z" />
    <glyph glyph-name="ornateleftparenthesis" unicode="&#xfd3e;" horiz-adv-x="1039" 
d="M952 -443q0 -5 -20 -10q-110 0 -289 233q-106 140 -175 322q-174 0 -176 44q115 115 115 189q-56 0 -184 -125q-23 0 -46 141q-93 47 -93 79q0 48 90 92q0 133 41 133q59 -59 87 -79q59 -38 105 -44q-3 55 -46 108q-55 55 -82 84q0 48 184 52q119 341 338 514
q77 59 108 59q15 0 15 -20q-74 -91 -184 -251q-76 -144 -105 -315q87 -7 87 -36q-116 -102 -123 -189q50 0 102 43l82 82q49 0 49 -138q92 -41 92 -87q0 -31 -84 -82q0 -132 -46 -133q-94 105 -192 117q0 -58 128 -192q0 -17 -93 -38q57 -315 297 -522q18 -13 18 -31z
M527 649q7 -6 36 -60q14 40 95 128q0 7 -23 15q-24 5 -41 8q35 149 51 202q51 159 202 343q-228 -157 -358 -550q-138 0 -143 -23q65 -58 97 -123q19 41 36 54q12 26 30 61q3 0 7 -25q5 -25 11 -30zM727 335q15 -12 56 -53q16 0 16 99q82 43 82 62q0 20 -82 51
q0 100 -18 108q-87 -81 -138 -103q16 -7 89 -33q54 -18 54 -31q-21 -11 -141 -54q46 -16 82 -46zM504 328q110 0 110 107q0 110 -110 110t-110 -110q0 -41 34 -74t76 -33zM230 271l62 59q36 36 74 44q-35 13 -69 28q-79 37 -79 41q15 9 87 28q18 9 59 26q-50 18 -141 97
q-9 0 -13 -100q-38 -22 -79 -64q0 -21 79 -49q0 -99 20 -110zM433 138h30q18 0 29 3q117 -364 394 -545q-231 209 -287 542q69 8 69 18q-70 66 -105 128q-4 -8 -12 -27t-13 -29q-28 -54 -31 -54q-26 0 -56 110q-32 -65 -98 -130q8 -12 80 -16z" />
    <glyph glyph-name="ornaterightparenthesis" unicode="&#xfd3f;" horiz-adv-x="1039" 
d="M566 102q-68 -181 -174 -322q-177 -233 -290 -233q-18 5 -18 10q0 18 16 31q240 207 297 522q-92 21 -92 38q128 134 128 192q-99 -12 -190 -117q-48 1 -48 133q-85 51 -85 82q0 46 92 87q0 138 49 138l82 -82q53 -43 102 -43q-7 87 -123 189q0 29 87 36
q-25 171 -105 315q-110 160 -184 251q0 20 18 20q28 0 105 -59q219 -173 338 -514q184 -4 184 -52q-27 -29 -82 -84q-43 -53 -46 -108q49 6 105 44q27 19 90 79q38 0 38 -133q92 -44 92 -92q0 -33 -94 -79q-21 -141 -46 -141q-128 125 -185 125q0 -74 115 -189
q-2 -44 -176 -44zM556 643q16 -14 35 -54q32 66 98 123q-3 23 -141 23q-130 393 -361 550q151 -184 202 -343q16 -53 51 -202q-17 -3 -41 -8q-23 -8 -23 -15q84 -88 95 -128q21 31 46 92q5 23 8 23q17 -29 31 -61zM742 330l62 -59q20 11 20 110q80 29 80 49q-40 42 -80 64
q-1 100 -12 100q-4 -4 -21.5 -18t-23.5 -19t-20.5 -16t-24 -17t-23.5 -13.5t-28 -13.5q20 -8 59 -26q83 -22 87 -28q0 -3 -80 -41q-34 -16 -69 -28q39 -8 74 -44zM606 361q34 33 34 74q0 110 -108 110q-112 0 -112 -110q0 -107 112 -107q41 0 74 33zM307 335q38 31 82 46
q-133 47 -141 54q0 13 54 31q80 28 90 33q-51 21 -139 103q-17 -8 -17 -108q-80 -32 -80 -51q0 -18 80 -62q0 -99 15 -99q41 41 56 53zM435 138q-56 -333 -287 -542q277 181 395 545q10 -3 28 -3q37 0 50 1q19 1 60 15q-67 66 -97 130q-32 -110 -57 -110q-1 0 -30 54
q-5 10 -9.5 20t-9.5 20.5t-7 15.5q-35 -62 -105 -128q0 -10 69 -18z" />
    <glyph glyph-name="zerowidthnobreakspace" unicode="&#xfeff;" 
 />
    <glyph glyph-name="NULL" 
 />
    <glyph glyph-name="CR" horiz-adv-x="500" 
 />
  </font>
</defs>
</svg>
